<svg width="240" height="78" viewBox="0 0 240 78" fill="none" xmlns="http://www.w3.org/2000/svg">
<path d="M40.1611 73.4714L5.13155 46.7343C-3.00431 40.5244 1.38269 34.1845 4.59318 31.7908C13.4068 25.3378 32.2133 11.2578 36.9306 6.56209C41.648 1.86636 47.5482 0.495027 49.9087 0.396316C104.037 0.468615 215.117 0.650915 226.404 0.801805C237.691 0.952686 239.866 10.3604 239.543 15.0454C239.767 23.1678 240.114 43.1715 239.704 58.2066C239.295 73.2416 227.184 76.6951 221.18 76.5425C172.517 76.8472 71.7444 77.3759 57.9586 77.0526C44.1729 76.7294 40.3495 74.5305 40.1611 73.4714Z" fill="#74D1EA"/>
</svg>
