<svg width="154" height="50" viewBox="0 0 154 50" fill="none" xmlns="http://www.w3.org/2000/svg">
<path d="M128.358 2.76375L150.67 19.9298C155.852 23.9168 153.034 27.9561 150.977 29.4774C145.331 33.5781 133.283 42.5265 130.258 45.5147C127.233 48.5028 123.46 49.3644 121.952 49.4217C87.3736 49.2428 16.4143 48.8541 9.20431 48.73C1.99428 48.606 0.6276 42.5908 0.845516 39.5987C0.722137 34.4094 0.549971 21.6298 0.848366 12.0261C1.14676 2.42239 8.89198 0.245908 12.7273 0.35813C43.8149 0.282759 108.192 0.192084 116.997 0.432362C125.803 0.67264 128.24 2.08673 128.358 2.76375Z" fill="#47D7AC"/>
</svg>
