<svg width="120" height="39" viewBox="0 0 120 39" fill="none" xmlns="http://www.w3.org/2000/svg">
<path d="M99.5207 36.8129L116.832 23.3658C120.852 20.2426 118.663 17.0725 117.066 15.8778C112.681 12.6575 103.325 5.63035 100.976 3.2845C98.6264 0.938664 95.6978 0.260164 94.5271 0.214148C67.6872 0.329143 12.6083 0.582148 7.01183 0.674172C1.4154 0.766197 0.357299 5.48293 0.527803 7.82979C0.434392 11.8997 0.306548 21.9227 0.542514 29.4552C0.778472 36.9876 6.79136 38.7003 9.76831 38.6151C33.8988 38.6969 83.8685 38.8151 90.7035 38.6331C97.5385 38.4511 99.4296 37.3438 99.5207 36.8129Z" fill="#FF6900"/>
</svg>
