<svg width="146" height="39" viewBox="0 0 146 39" fill="none" xmlns="http://www.w3.org/2000/svg">
<path d="M25.2283 1.9953L3.74242 15.4159C-1.24784 18.5329 1.32056 21.7103 3.22855 22.9094C8.46794 26.1418 19.6439 33.1948 22.4325 35.5476C25.2211 37.9004 28.7659 38.5858 30.1897 38.6344C62.8692 38.5773 129.932 38.4431 136.748 38.3631C143.564 38.2831 144.997 33.5648 144.861 31.2157C145.099 27.1427 145.561 17.1119 145.504 9.57286C145.446 2.03383 138.178 0.306764 134.552 0.385612C105.177 0.251556 44.3451 0.0252909 36.0183 0.19268C27.6915 0.360069 25.3555 1.46417 25.2283 1.9953Z" fill="#47D7AC"/>
</svg>
