<svg width="240" height="78" viewBox="0 0 240 78" fill="none" xmlns="http://www.w3.org/2000/svg">
<path d="M200.18 4.36796L235.244 31.0611C243.387 37.2607 239.008 43.6062 235.801 46.0039C226.995 52.468 208.206 66.5715 203.495 71.2732C198.783 75.9748 192.885 77.3536 190.525 77.4552C136.396 77.4509 25.3164 77.408 14.0292 77.2713C2.74192 77.1345 0.554639 67.7296 0.871904 63.0442C0.637409 54.922 0.266034 34.9188 0.656569 19.8832C1.0471 4.84767 13.1538 1.37897 19.1583 1.52406C67.8208 1.15827 168.592 0.503157 182.378 0.809082C196.165 1.11501 199.991 3.30914 200.18 4.36796Z" fill="#47D7AC"/>
</svg>
