<svg width="95" height="95" fill="none" xmlns="http://www.w3.org/2000/svg">
    <path d="M17.375 20.55h34.613M17.375 29.204h34.613M17.375 37.857h34.613M17.375 24.878h34.613M17.375 33.53h34.613M17.375 42.184h34.613" stroke="#9ECACB" stroke-width="2.186" stroke-linecap="round" stroke-linejoin="round"/>
    <path d="M72.81 22.588c2.388-2.878 2.752-4.57 2.893-9.723.141 5.152.505 6.845 2.893 9.723.32.386.32.949 0 1.335-2.388 2.877-2.752 4.57-2.893 9.723-.141-5.152-.505-6.846-2.893-9.723a1.047 1.047 0 0 1 0-1.335z" fill="#9ECACB" stroke="#9ECACB" stroke-linecap="round" stroke-linejoin="round"/>
    <mask id="a" fill="#fff">
        <path d="M16.834 8.607h-5.948v52.505c0 1.195.968 2.163 2.163 2.163h42.184c.9 0 1.674-.55 1.999-1.334a105.94 105.94 0 0 0-.208-.31c-1.932-2.868-2.991-4.814-3.473-6.156h-2.093l1.77-1.444c-.029-.811.334-1.216.85-1.471-1.015-1.004.677-3.131 3.318-4.864V2.658A2.163 2.163 0 0 0 55.233.495H18.998v5.949a2.163 2.163 0 0 1-2.164 2.163z"/>
        <path d="M50.285 66.244a2.163 2.163 0 0 0 2.163-2.163v-.806h-39.4a2.163 2.163 0 0 1-2.162-2.163V8.607l5.638-5.638H8.1a2.163 2.163 0 0 0-2.163 2.163V64.082c0 1.194.968 2.162 2.163 2.162h42.184z"/>
        <path d="M2.658 69.213h41.69a2.163 2.163 0 0 0 2.163-2.163v-.806H8.1a2.163 2.163 0 0 1-2.163-2.163V6.432h-3.28A2.163 2.163 0 0 0 .495 8.595V67.05c0 1.195.968 2.163 2.163 2.163zM10.886 8.607h5.948a2.163 2.163 0 0 0 2.164-2.163V.494L16.524 2.97l-5.639 5.638z"/>
    </mask>
    <path d="M16.834 8.607h-5.948v52.505c0 1.195.968 2.163 2.163 2.163h42.184c.9 0 1.674-.55 1.999-1.334a105.94 105.94 0 0 0-.208-.31c-1.932-2.868-2.991-4.814-3.473-6.156h-2.093l1.77-1.444c-.029-.811.334-1.216.85-1.471-1.015-1.004.677-3.131 3.318-4.864V2.658A2.163 2.163 0 0 0 55.233.495H18.998v5.949a2.163 2.163 0 0 1-2.164 2.163z" fill="#F0F2F7"/>
    <path d="M50.285 66.244a2.163 2.163 0 0 0 2.163-2.163v-.806h-39.4a2.163 2.163 0 0 1-2.162-2.163V8.607l5.638-5.638H8.1a2.163 2.163 0 0 0-2.163 2.163V64.082c0 1.194.968 2.162 2.163 2.162h42.184z" fill="#F0F2F7"/>
    <path d="M2.658 69.213h41.69a2.163 2.163 0 0 0 2.163-2.163v-.806H8.1a2.163 2.163 0 0 1-2.163-2.163V6.432h-3.28A2.163 2.163 0 0 0 .495 8.595V67.05c0 1.195.968 2.163 2.163 2.163zM10.886 8.607h5.948a2.163 2.163 0 0 0 2.164-2.163V.494L16.524 2.97l-5.639 5.638z" fill="#F0F2F7"/>
    <path d="m10.886 8.607-.354-.354-.146.147v.207h.5zm42.84 45.407a.5.5 0 1 0-.999.035l1-.035zm-.645 1.63a.5.5 0 0 0 .941-.337l-.941.337zm-6.57 11.1a.5.5 0 0 0 0-1v1zm5.937-2.969a.5.5 0 0 0 0-1v1zM6.438 6.432a.5.5 0 0 0-1 0h1zm10.44-3.11a.5.5 0 0 0-.708-.707l.707.707zM82.63 6.927l.5-.014a.5.5 0 0 0-1 0l.5.014zm-.936 3.78-.402-.296.402.296zm1.872 0 .403-.296-.403.296zm-.936 5.126-.5.014a.5.5 0 0 0 1 0l-.5-.014zm-.936-3.78.403-.297-.403.297zm1.872 0-.403-.297.403.297zm-46.914 41.86a.5.5 0 1 0-.949.316l.949-.316zm.418 2.837.475-.158-.475.158zm.183.038.373.334-.373-.334zm4.344-4.843-.372-.334.372.334zm.383 6.03.394.307-.395-.306zm3.094-3.977-.395-.307.395.306zm.164-.008.364-.343-.364.343zm2.181 2.317.364-.342-.364.342zm.17-.015-.419-.273.418.273zm2.722-3.245a.5.5 0 0 0-.837-.548l.837.548zm-.535 2.378a.5.5 0 1 0 .233.973l-.233-.973zm2.294.478a.5.5 0 1 0-.233-.973l.233.973zm-.363-.428.117.487-.117-.487zM8.101 65.745a1.663 1.663 0 0 1-1.663-1.664h-1A2.663 2.663 0 0 0 8.1 66.744v-1zm8.733-57.638h-5.948v1h5.948v-1zm-6.448.5v52.505h1V8.607h-1zM18.498.495v5.949h1V.494h-1zm-5.45 62.28a1.663 1.663 0 0 1-1.662-1.663h-1a2.663 2.663 0 0 0 2.663 2.663v-1zm3.786-53.668a2.663 2.663 0 0 0 2.664-2.663h-1c0 .918-.745 1.663-1.664 1.663v1zm35.893 44.942c.016.451.132.977.354 1.595l.941-.337c-.201-.56-.285-.98-.295-1.293l-1 .035zM8.101 66.744h38.41v-1H8.1v1zm4.948-2.969h39.399v-1h-39.4v1zM5.438 6.432v57.65h1V6.431h-1zm5.801 2.528 5.638-5.638-.707-.707-5.638 5.638.707.707zm70.892-2.047c-.028.985-.073 1.629-.194 2.145-.115.497-.303.889-.645 1.353l.805.593c.41-.558.663-1.072.814-1.718.146-.627.192-1.362.22-2.345l-1-.028zm0 .028c.026.983.072 1.718.218 2.345.151.646.404 1.16.814 1.718l.806-.593c-.342-.464-.53-.856-.646-1.353-.12-.516-.166-1.16-.193-2.145l-1 .028zm1 8.878c-.028-.983-.074-1.718-.22-2.344-.15-.647-.403-1.161-.814-1.719l-.805.593c.341.464.53.856.645 1.353.12.516.166 1.16.194 2.145l1-.027zm0 .028c.026-.985.072-1.629.192-2.145.116-.497.304-.889.646-1.353l-.805-.593c-.411.558-.664 1.072-.815 1.719-.146.626-.192 1.361-.219 2.345l1 .027zm.032-4.843a.635.635 0 0 1 0 .752l.806.593a1.635 1.635 0 0 0 0-1.938l-.805.593zm-1.871-.593a1.635 1.635 0 0 0 0 1.938l.805-.593a.635.635 0 0 1 0-.752l-.805-.593zM35.703 54.229l.893 2.679.949-.316-.893-2.68-.949.317zm1.923 2.893 4.343-4.843-.744-.668-4.344 4.843.745.668zm3.66-5.105v5.892h1v-5.892h-1zm1.088 6.265 3.094-3.977-.79-.614-3.093 3.978.79.614zm2.5-3.95 2.181 2.318.728-.685-2.181-2.318-.728.686zm3.133 2.234 2.304-3.52-.837-.547-2.304 3.52.837.547zm-.952.084c.27.287.736.245.952-.084l-.837-.547a.392.392 0 0 1 .613-.054l-.728.685zm-1.587-2.346a.392.392 0 0 1-.594.029l.728-.686a.608.608 0 0 0-.923.044l.79.613zm-4.182 3.605c0 .58.733.83 1.088.373l-.79-.613a.392.392 0 0 1 .702.24h-1zm.683-5.63a.392.392 0 0 1-.683-.262h1a.608.608 0 0 0-1.06-.406l.743.668zm-5.373 4.629a.608.608 0 0 0 1.03.214l-.745-.668a.392.392 0 0 1 .664.138l-.95.316zm13.413-.51 1.815-.436-.233-.973-1.815.436.233.973zm1.815-.436.246-.06-.233-.972-.246.06.233.972zM18.998.495v-1h-.414l-.293.293.707.707zm38.398 47.2.549.837a1 1 0 0 0 .45-.836h-1zm-3.319 4.865.444.896a1 1 0 0 0 .26-1.607l-.704.71zm-.85 1.471.633.775a1 1 0 0 0 .367-.809l-1 .034zm-1.769 1.444-.632-.774a1 1 0 0 0 .632 1.774v-1zm2.093 0 .942-.337a1 1 0 0 0-.942-.663v1zm3.473 6.156.83-.559-.83.559zM46.51 66.244v-1a1 1 0 0 0-1 1h1zm5.938-2.969v-1a1 1 0 0 0-1 1h1zM5.938 6.432v1a1 1 0 0 0 1-1h-1zM16.524 2.97v1a1 1 0 0 0 .707-.293l-.707-.707zM57.232 61.94l.923.383a1 1 0 0 0-.092-.94l-.831.557zM2.658 70.213h41.69v-2H2.657v2zM-.505 8.595V67.05h2V8.595h-2zm44.852 61.618a3.163 3.163 0 0 0 3.163-3.163h-2c0 .642-.52 1.163-1.163 1.163v2zm-41.689-2c-.642 0-1.163-.52-1.163-1.163h-2a3.163 3.163 0 0 0 3.163 3.163v-2zM1.495 8.595c0-.642.52-1.163 1.163-1.163v-2A3.163 3.163 0 0 0-.505 8.595h2zm48.79 58.65a3.163 3.163 0 0 0 3.163-3.164h-2c0 .643-.52 1.163-1.163 1.163v2zM6.938 5.131c0-.643.52-1.163 1.163-1.163v-2a3.163 3.163 0 0 0-3.163 3.163h2zM55.233-.505H18.998v2h36.235v-2zm3.163 3.163a3.163 3.163 0 0 0-3.163-3.163v2c.642 0 1.163.52 1.163 1.163h2zm-1.549 44.201c-1.378.905-2.57 1.95-3.294 2.96-.358.5-.653 1.063-.744 1.647-.098.63.046 1.291.565 1.805l1.407-1.422c-.01-.01-.003-.005 0 .006.002.007-.007-.015.004-.081.023-.15.126-.417.394-.79.529-.738 1.503-1.624 2.766-2.453l-1.098-1.672zm-3.213 4.804c-.36.179-.745.448-1.025.88-.284.44-.4.956-.381 1.523l1.998-.069c-.008-.245.043-.338.063-.367.023-.037.077-.097.232-.174l-.887-1.793zm-1.04 1.594L50.827 54.7l1.265 1.55 1.768-1.445-1.264-1.55zm.016 2.556c.525 1.463 1.642 3.494 3.584 6.377l1.66-1.118c-1.922-2.852-2.924-4.715-3.361-5.934l-1.883.675zm-6.1 11.431h3.775v-2H46.51v2zm1-.194v-.806h-2v.806h2zm4.938-2.775h2.785v-2h-2.785v2zm1-.194v-.806h-2v.806h2zM4.938 5.131v1.301h2v-1.3h-2zm1 .301h-3.28v2h3.28v-2zM16.524 1.97H8.1v2h8.423v-2zm.707 1.707 2.474-2.474L18.29-.212 15.817 2.26l1.414 1.415zm41.165 44.02V2.658h-2v45.038h2zM56.194 62.19l.206.306 1.663-1.111-.21-.313-1.659 1.118zm-.961 2.085c1.32 0 2.448-.807 2.922-1.951l-1.847-.767a1.164 1.164 0 0 1-1.075.718v2zm-1.682-9.8h-1.844v2h1.844v-2zm-1.844 0h-.249v2h.25v-2z" fill="#000" fill-opacity=".1" mask="url(#a)"/>
    <mask id="b" fill="#fff">
        <path d="M67.275 74.914c4.91 3.24 6.874 3.888 13.422 9.395a51.826 51.826 0 0 1 6.774 6.873c1.105 1.358 3.537.99 4.022-.692l2.932-10.153c.213-.74-.022-1.53-.577-2.063-2.057-1.974-5.258-5.54-6.603-8.867-1.965-4.86-1.965-17.17-6.875-19.115a80.387 80.387 0 0 0-4.885-2.19l-9.847 3.629c.532.244 1.29.651 2.022 1.153 1.069.733 2.078 1.669 2.234 2.592.046.277.003.607-.106.97-.346 1.146-1.358 2.618-2.305 3.802-.645.805-1.814.891-2.598.221a56.786 56.786 0 0 1-1.54-1.366c-.93-.858-1.873-1.79-2.618-2.657-.392-.456-.73-.895-.982-1.294a6.385 6.385 0 0 0-.753-.972 6.045 6.045 0 0 0-2.554-1.62c-1.018-.322-1.978-.3-2.586 0-.515.255-.878.66-.85 1.472.013.382.112.855.324 1.444.481 1.341 1.54 3.288 3.472 6.155l.208.31c4.407 6.593 5.433 9.783 10.269 12.973z"/>
        <path d="M65.638 45.109c-2.692-.313-5.995.964-8.468 2.587-2.64 1.733-4.333 3.86-3.318 4.864.608-.3 1.568-.322 2.586 0l15.374-5.857c-2.206-.768-4.408-1.389-6.174-1.594zM69.894 55.476c-.156-.923-1.165-1.859-2.234-2.592-2.572-.518-5.694 2.159-6.933 3.562.745.867 1.688 1.8 2.619 2.657.802-1.534 3.214-4.214 6.442-2.657.11-.363.152-.693.106-.97z"/>
    </mask>
    <path d="M67.275 74.914c4.91 3.24 6.874 3.888 13.422 9.395a51.826 51.826 0 0 1 6.774 6.873c1.105 1.358 3.537.99 4.022-.692l2.932-10.153c.213-.74-.022-1.53-.577-2.063-2.057-1.974-5.258-5.54-6.603-8.867-1.965-4.86-1.965-17.17-6.875-19.115a80.387 80.387 0 0 0-4.885-2.19l-9.847 3.629c.532.244 1.29.651 2.022 1.153 1.069.733 2.078 1.669 2.234 2.592.046.277.003.607-.106.97-.346 1.146-1.358 2.618-2.305 3.802-.645.805-1.814.891-2.598.221a56.786 56.786 0 0 1-1.54-1.366c-.93-.858-1.873-1.79-2.618-2.657-.392-.456-.73-.895-.982-1.294a6.385 6.385 0 0 0-.753-.972 6.045 6.045 0 0 0-2.554-1.62c-1.018-.322-1.978-.3-2.586 0-.515.255-.878.66-.85 1.472.013.382.112.855.324 1.444.481 1.341 1.54 3.288 3.472 6.155l.208.31c4.407 6.593 5.433 9.783 10.269 12.973z" fill="#FAE2E0"/>
    <path d="M65.638 45.109c-2.692-.313-5.995.964-8.468 2.587-2.64 1.733-4.333 3.86-3.318 4.864.608-.3 1.568-.322 2.586 0l15.374-5.857c-2.206-.768-4.408-1.389-6.174-1.594zM69.894 55.476c-.156-.923-1.165-1.859-2.234-2.592-2.572-.518-5.694 2.159-6.933 3.562.745.867 1.688 1.8 2.619 2.657.802-1.534 3.214-4.214 6.442-2.657.11-.363.152-.693.106-.97z" fill="#FAE2E0"/>
    <path d="M53.63 52.112a.5.5 0 1 0 .444.896l-.444-.896zm2.657.925a.5.5 0 0 0 .302-.954l-.302.954zm2.532.674a.5.5 0 0 0 .346.938l-.346-.938zm6.992-1.51a.5.5 0 1 0-.346-.94l.346.94zm-4.705 3.919a.5.5 0 0 0-.758.652l.758-.652zm6.837-3.648a.5.5 0 0 0-.566.824l.566-.824zm1.95 3.004.494-.083-.493.083zm-6.886 3.995a.5.5 0 0 0 .678-.736l-.678.736zm6.302-3.17a.5.5 0 0 0 .957.29l-.957-.29zm18.267-12.655.173.47-.172-.47zm-12.264 3.987a.5.5 0 0 0 .346.938l-.346-.938zm-3.678-1.397a.5.5 0 1 0 .356.934l-.356-.934zm14.975-5.171-.178-.467.178.467zm1.78.8.467-.178-.467.177zm-31.8 10.218c-1.089-.344-2.194-.35-2.959.029l.444.896c.45-.223 1.266-.271 2.213.029l.302-.954zm8.876-.821-6.646 2.449.346.938 6.646-2.449-.346-.938zm1.912 2.034c.517.355 1.003.748 1.374 1.151.378.41.595.789.65 1.112l.986-.166c-.102-.6-.467-1.152-.9-1.623-.44-.478-.992-.92-1.544-1.298l-.566.824zm-3.692 5.44c-.924-.852-1.851-1.77-2.579-2.616l-.758.652c.763.888 1.721 1.835 2.66 2.699l.677-.736zm5.715-3.177c.03.171.007.417-.09.742l.956.29c.121-.4.185-.814.12-1.198l-.986.166zm18.004-12.382-12.092 4.456.346.938 12.091-4.456-.345-.938zM71.99 47.17l14.797-5.638-.356-.934-14.797 5.638.356.934zm15.931-5.129a.878.878 0 0 1-.517 1.136l.345.938a1.878 1.878 0 0 0 1.107-2.428l-.935.355zm.935-.354a1.878 1.878 0 0 0-2.425-1.09l.356.935a.878.878 0 0 1 1.134.51l.935-.355zM67.275 74.914l-.551.835.55-.835zm13.422 9.395-.644.766.644-.766zm6.774 6.873-.776.63.776-.63zm4.022-.692-.96-.277.96.277zm2.932-10.153.96.277-.96-.277zm-.577-2.063.692-.722-.692.722zm-6.603-8.867.927-.375-.927.375zM80.37 50.292l-.444.897c.025.012.05.023.076.033l.368-.93zM65.638 45.11l.115-.993-.115.993zm-8.468 2.587.549.836-.549-.836zm-3.318 4.864.443.896a1 1 0 0 0 .26-1.607l-.703.711zm2.586 0-.356-.934a1 1 0 0 0 .054 1.888l.302-.954zm3.307 2.592.845-.534-.845.534zm-.753-.972-.727.686.727-.686zm6.646-2.449-.346-.938a1 1 0 0 0-.071 1.847l.417-.909zm-4.911 4.715-.758.652a1 1 0 0 0 1.507.01l-.75-.662zm6.933-3.562-.197.98a1 1 0 0 0 .763-1.804l-.566.824zm-2.775 7.585-.65.76.65-.76zm-1.54-1.366-.885-.463a1 1 0 0 0 .208 1.199l.678-.736zm6.443-2.657.957.29a1 1 0 0 0-.523-1.19l-.434.9zm-2.305 3.802-.781-.625.78.625zm8.002-12.146.38-.925a1 1 0 0 0-.726-.013l.346.938zm-3.673-1.4.356.935a1 1 0 0 0-.028-1.879l-.328.945zm-18.81 7.33-1 .034 1-.034zm.324 1.444-.941.338.94-.338zm3.472 6.155.83-.558-.83.558zm.208.31.831-.556-.831.556zm9.718 13.808c4.986 3.29 6.84 3.868 13.33 9.326l1.287-1.531c-6.607-5.557-8.681-6.275-13.516-9.465l-1.101 1.67zm13.33 9.326a50.828 50.828 0 0 1 6.641 6.737l1.552-1.261a52.832 52.832 0 0 0-6.906-7.007l-1.288 1.53zm12.4 5.692 2.932-10.153-1.922-.555-2.931 10.154 1.921.554zm2.086-13.215c-2.039-1.956-5.107-5.399-6.368-8.52l-1.854.75c1.429 3.535 4.762 7.222 6.838 9.214l1.384-1.444zm-6.368-8.52c-.45-1.11-.803-2.699-1.157-4.574-.347-1.835-.692-3.934-1.126-5.916-.434-1.985-.976-3.949-1.748-5.559-.766-1.596-1.832-2.999-3.403-3.62l-.736 1.86c.884.35 1.659 1.215 2.336 2.625.67 1.397 1.172 3.179 1.597 5.122.426 1.947.755 3.957 1.115 5.859.351 1.86.734 3.633 1.268 4.952l1.854-.75zM65.753 44.116c-3.03-.353-6.575 1.066-9.131 2.744l1.097 1.672c2.388-1.568 5.45-2.704 7.803-2.43l.231-1.986zm-9.131 2.744c-1.378.904-2.57 1.949-3.294 2.959-.359.5-.654 1.063-.745 1.647-.098.63.047 1.291.565 1.805l1.407-1.422c-.01-.01-.003-.005 0 .007.002.006-.006-.015.004-.082.024-.15.127-.416.394-.79.53-.738 1.503-1.623 2.766-2.452l-1.097-1.672zm3.968 7.758a7.378 7.378 0 0 0-.87-1.124l-1.456 1.372c.228.241.442.514.635.82l1.691-1.068zm-.87-1.124a7.044 7.044 0 0 0-2.98-1.887l-.604 1.907c.717.226 1.48.664 2.128 1.352l1.456-1.372zm1.765 2.3a10.406 10.406 0 0 1-.895-1.176l-1.69 1.068c.287.456.658.934 1.069 1.412l1.516-1.304zm3.736-3.154c.486.223 1.194.602 1.873 1.069l1.132-1.65a15.293 15.293 0 0 0-2.172-1.237l-.833 1.818zm-3.745 4.468a13.22 13.22 0 0 1 2.745-2.314c1.193-.74 2.338-1.112 3.242-.93l.395-1.96c-1.669-.337-3.371.371-4.692 1.19a15.21 15.21 0 0 0-3.189 2.69l1.5 1.324zm4.06 2.601a55.536 55.536 0 0 1-1.513-1.341l-1.355 1.47c.54.498 1.076.97 1.567 1.39l1.3-1.519zm3.294-3.552c-.285.943-1.182 2.284-2.128 3.466l1.561 1.25c.95-1.185 2.075-2.79 2.482-4.138l-1.915-.578zm-4.598 3.41c.34-.649 1.03-1.545 1.942-2.095.864-.52 1.915-.735 3.18-.125l.868-1.802c-1.963-.947-3.731-.6-5.08.214-1.302.784-2.219 1.995-2.682 2.88l1.772.927zm10.907-12.403-9.847 3.629.691 1.876 9.847-3.629-.691-1.876zm5.674 2.232a81.39 81.39 0 0 0-4.948-2.219l-.76 1.85c1.953.802 3.686 1.6 4.821 2.162l.887-1.793zm-8.672-3.638c-2.227-.775-4.512-1.424-6.388-1.642l-.231 1.986c1.656.193 3.776.785 5.96 1.545l.659-1.889zm-15.347 7.737 15.374-5.858-.712-1.869-15.374 5.858.712 1.869zm-3.386-1.831c-.36.178-.745.447-1.025.88-.284.44-.4.956-.38 1.522L54 53.997c-.008-.245.043-.337.062-.367.023-.036.078-.097.232-.174l-.887-1.792zm-1.406 2.402c.018.52.15 1.1.383 1.748l1.882-.676c-.19-.531-.258-.897-.266-1.14l-1.999.068zm.383 1.748c.524 1.462 1.642 3.493 3.584 6.376l1.659-1.117c-1.922-2.853-2.923-4.715-3.36-5.935l-1.883.676zm43 24.8c.323-1.117-.038-2.288-.845-3.062l-1.384 1.444c.303.29.412.703.308 1.063l1.922.555zm-8.69 11.198c.818 1.005 2.086 1.331 3.181 1.151 1.102-.18 2.206-.906 2.578-2.196l-1.921-.554c-.114.393-.468.692-.98.777-.518.084-1.018-.085-1.306-.44l-1.552 1.263zM64.236 61.23c1.195 1.022 3.016.909 4.028-.356l-1.561-1.25c-.276.345-.794.405-1.166.086l-1.3 1.52zm-8.266.961.206.307 1.662-1.112-.21-.312-1.658 1.117zm.206.307a143.973 143.973 0 0 1 2.765 4.33c.788 1.271 1.495 2.412 2.22 3.45 1.47 2.104 3.023 3.795 5.564 5.472l1.101-1.67c-2.294-1.513-3.673-3.012-5.026-4.948-.687-.984-1.365-2.076-2.16-3.357a145.966 145.966 0 0 0-2.802-4.389l-1.662 1.112z" fill="#000" fill-opacity=".1" mask="url(#b)"/>
    <path d="M17.375 20.55h34.613M17.375 29.204h34.613M17.375 37.857h34.613M17.375 24.878h34.613M17.375 33.53h34.613M17.375 42.184h34.613" stroke="#9ECACB" stroke-width="2.186" stroke-linecap="round" stroke-linejoin="round"/>
    <path d="M72.81 22.587c2.388-2.877 2.752-4.57 2.893-9.723.141 5.153.505 6.846 2.893 9.723.32.387.32.95 0 1.335-2.388 2.878-2.752 4.571-2.893 9.723-.141-5.152-.505-6.845-2.893-9.723a1.047 1.047 0 0 1 0-1.335z" fill="#9ECACB" stroke="#9ECACB" stroke-linecap="round" stroke-linejoin="round"/>
    <path d="M56.664 52.56a5.913 5.913 0 0 1 1.552.762c.66.453 1.49.678 2.242.4l5.405-1.991 9.847-3.629 12.092-4.456a1.378 1.378 0 1 0-.967-2.581l-14.798 5.638-15.373 5.857z" fill="#3064C0"/>
    <path d="M54.077 52.56c.608-.3 1.569-.322 2.587 0m0 0a5.913 5.913 0 0 1 1.552.762c.66.453 1.49.678 2.242.4l5.405-1.991 9.847-3.629 12.092-4.456a1.378 1.378 0 1 0-.967-2.581l-14.798 5.638-15.373 5.857z" stroke="#000" stroke-opacity=".1" stroke-linecap="round" stroke-linejoin="round"/>
</svg>
