<svg width="240" height="48" fill="none" xmlns="http://www.w3.org/2000/svg">
    <path opacity=".8" fill="#F5F5F5" d="M-49-40h338V88H-49z"/>
    <circle opacity=".1" cx="117.5" cy="21.5" r="36.5" fill="#CCC"/>
    <path opacity=".1" d="M-55.383 71.5 9.652 53.766 49.57 102.26l-91.184 19.732L-55.383 71.5z" fill="#C4C4C4"/>
    <path fill="#fff" d="m-38-49 3.235-6.708L272.319 92.395l-3.235 6.707z"/>
    <path fill="#fff" d="m-62.996 60.753-.613-2.916 355.288-74.65.612 2.915z"/>
    <path d="m-63.61 69.649.613 2.915L61.801 46.343 70.5 31.5l-14.852-9.908L-63.61 46.649l.612 2.915L56.26 24.507 66.5 32l-5.311 11.428-124.798 26.22zM-42.737 113.225l-2.176-3.969L273.424-65.28l2.176 3.969z" fill="#fff"/>
    <path fill="#fff" d="m11.797 173.072-2.433-1.72L160.265-42.182l2.433 1.72z"/>
    <path fill="#fff" d="M91.946 203.295 89 202.843 127.166-45.81l2.945.452z"/>
    <path fill="#fff" d="m173.984 196.696-5.915 1.822L93.935-42.085l5.915-1.823z"/>
    <path d="M105-12.5 86 3l-3 5.5L81.5 29 86 40.5l10.5 11 16.5 6 15.5-1 13-7 9-12.5 3-23-3-9.5-12-13-16-6-17.5 2z" stroke="#fff" stroke-width="5"/>
    <path d="M33 27.5 14.5 10 2 33.5M25 20.5 32.407 9M44-9 32.407 9M57 23l2.322-5.5M66.5.5l-7.178 17M32.407 9l26.915 8.5" stroke="#fff" stroke-width="3"/>
    <path d="M218.5-19 129 61.5 195.581 88m33.919 13.5L195.581 88M272-39.5 177 80.605 136.5 88m-56-10 27 6m-45-38 5 4.5m-56.5 6L40 91m-77.5-25L7 84l6.5 17.5M-51-28.5-35.328 78M-29 121l-6.328-43M-47.5 68.5l-8 12.75m-8 12.75 8-12.75m0 0L-35.328 78M208 71l-12.419 17" stroke="#fff" stroke-width="4"/>
    <path d="M220.5 76.5v21m2.5-26 30.5-32.956M297.5-9l-44 47.544M253.5-5 274 13m-80-7 39 29m0 0c-12.8 6-20.667 5.167-23 4l-36.5-15M233 35c4-2.304 13.7-4.822 20.5 3.544M109 57 92.5 80m18.5-7-7.5 9m-19-39L82 54.5 51 94" stroke="#fff" stroke-width="3"/>
    <path d="M3 35-7-7.571M-34 41.5l11.074-46m0 0 8.426-35L-7-7.571M-22.926-4.5-7-7.571" stroke="#fff" stroke-width="4"/>
    <circle cx="117.5" cy="21.5" r="14" fill="#F5F5F5" stroke="#fff" stroke-width="7"/>
</svg>
