<svg width="338" height="128" viewBox="0 0 338 128" fill="none" xmlns="http://www.w3.org/2000/svg">
<g clip-path="url(#clip0_2989:86530)">
<rect opacity="0.8" width="338" height="128" fill="#F5F5F5"/>
<circle opacity="0.1" cx="166.5" cy="61.5" r="36.5" fill="#CCCCCC"/>
<path opacity="0.1" d="M-6.38281 111.5L58.6524 93.7657L98.5703 142.26L7.38574 161.992L-6.38281 111.5Z" fill="#C4C4C4"/>
<rect x="11" y="-9" width="7.4474" height="340.932" transform="rotate(-64.2526 11 -9)" fill="white"/>
<rect x="-13.9961" y="100.754" width="2.97864" height="363.045" transform="rotate(-101.866 -13.9961 100.754)" fill="white"/>
<path d="M-14.6094 109.651L-13.9969 112.566L110.801 86.3445L119.5 71.502L104.648 61.5938L-14.6094 86.6506L-13.9969 89.5656L105.26 64.5087L115.5 72.002L110.189 83.4295L-14.6094 109.651Z" fill="white"/>
<rect x="6.2627" y="153.223" width="4.52615" height="363.045" transform="rotate(-118.735 6.2627 153.223)" fill="white"/>
<rect x="60.7969" y="213.07" width="2.97864" height="261.474" transform="rotate(-144.752 60.7969 213.07)" fill="white"/>
<rect x="140.945" y="243.297" width="2.97864" height="251.566" transform="rotate(-171.274 140.945 243.297)" fill="white"/>
<rect x="222.984" y="236.695" width="6.18949" height="251.766" transform="rotate(162.875 222.984 236.695)" fill="white"/>
<path d="M154 27.5L135 43L132 48.5L130.5 69L135 80.5L145.5 91.5L162 97.5L177.5 96.5L190.5 89.5L199.5 77L202.5 54L199.5 44.5L187.5 31.5L171.5 25.5L154 27.5Z" stroke="white" stroke-width="5"/>
<path d="M82 67.5L63.5 50L51 73.5" stroke="white" stroke-width="3"/>
<path d="M41 75.5L0 28.5" stroke="white" stroke-width="3"/>
<path d="M74 60.5L81.4068 49M93 31L81.4068 49M106 63L108.322 57.5M115.5 40.5L108.322 57.5M81.4068 49L108.322 57.5" stroke="white" stroke-width="3"/>
<path d="M108.5 29.5L127.5 0" stroke="white" stroke-width="3"/>
<path d="M71 11.5L68 -1" stroke="white" stroke-width="3"/>
<path d="M71 12L85.5 -2" stroke="white" stroke-width="3"/>
<path d="M152 13.5L174.5 -6" stroke="white" stroke-width="3"/>
<path d="M197 17L176.5 -5" stroke="white" stroke-width="3"/>
<path d="M206 5L194 -7.5M197 17L293.5 22.7764M339 25.5L293.5 22.7764M293.5 -5V22.7764" stroke="white" stroke-width="4"/>
<path d="M267.5 21L178 101.5L244.581 128M278.5 141.5L244.581 128M321 0.5L226 120.604L185.5 128M129.5 118L156.5 124M111.5 86L116.5 90.5M60 96.5L89 131M11.5 106L56 124L62.5 141.5M-2 11.5L13.6722 118M20 161L13.6722 118M1.5 108.5L-6.5 121.25M-14.5 134L-6.5 121.25M-6.5 121.25L13.6722 118M257 111L244.581 128" stroke="white" stroke-width="4"/>
<path d="M269.5 116.5V137.5M272 111.5L302.5 78.5436M346.5 31L302.5 78.5436M302.5 35L323 53M243 46L282 75M282 75C269.2 81 261.333 80.1667 259 79L222.5 64M282 75C286 72.6957 295.7 70.1785 302.5 78.5436" stroke="white" stroke-width="3"/>
<path d="M336.5 76.5L295.5 120.5M325 91L340 100.5" stroke="white" stroke-width="3"/>
<path d="M158 97L141.5 120M160 113L152.5 122M133.5 83L131 94.5L100 134" stroke="white" stroke-width="3"/>
<path d="M52 75L42 32.4286M15 81.5L26.0741 35.5M26.0741 35.5L34.5 0.5L42 32.4286M26.0741 35.5L42 32.4286" stroke="white" stroke-width="4"/>
<path d="M8.5 37.4999C9.33333 30.8333 14.4 19.7999 28 28.9999M35.5 2L0.5 28.9999M116.5 17.5L100.5 -0.5M338 25.5L311 -0.5" stroke="white" stroke-width="3"/>
<circle cx="166.5" cy="61.5" r="14" fill="#F5F5F5" stroke="white" stroke-width="7"/>
</g>
<defs>
<clipPath id="clip0_2989:86530">
<rect width="338" height="128" rx="8" fill="white"/>
</clipPath>
</defs>
</svg>
