<svg width="226" height="34" viewBox="0 0 226 34" fill="none" xmlns="http://www.w3.org/2000/svg">
<path d="M65.6279 2.33325H75.606L83.651 24.1019L91.6345 2.33325H101.263V31.3581H94.8632V9.16937L86.5279 31.3558H79.9518L71.6144 9.29067V31.3581H65.6279V2.33325Z" fill="#007BFB"/>
<path d="M143.065 2.33325H165.082V31.3581H158.264V8.45048H149.289C149.23 12.5279 149.113 17.9869 148.996 21.0443C148.761 28.66 146.577 31.3581 140.188 31.3581H137.136V25.2432H138.838C141.715 25.2432 142.654 23.9223 142.832 19.7841C143.008 15.3472 143.065 6.53197 143.065 2.33325Z" fill="#007BFB"/>
<path d="M199.903 2.33325H225.794V8.45048H216.224V31.3649H209.473V8.45048H199.903V2.33325Z" fill="#007BFB"/>
<path d="M48.0041 1.73792H45.5651C39.7084 1.73792 35.2723 5.375 34.2542 10.7891L40.4738 11.809C41.3248 9.23001 43.2801 7.47099 45.7521 7.35418C46.2207 7.32048 46.691 7.32048 47.1595 7.35418C50.8367 7.48897 52.4972 9.29067 52.4972 13.7365C45.53 13.7365 40.7663 13.3995 37.265 15.7584C34.4059 17.6859 33.1787 19.8222 33.1787 23.1988C33.1787 28.0871 36.9021 31.9601 42.9105 31.9601H43.7374C47.9821 31.9601 51.4085 30.2731 52.8029 28.2353V31.3626H59.0733V13.8668C59.0775 7.11829 55.5389 1.73792 48.0041 1.73792ZM44.1752 26.2968C41.5095 26.218 39.9657 24.641 39.9657 22.6484C39.9657 20.9971 40.6936 20.1772 41.657 19.6156C42.6664 19.0136 43.9772 18.8068 46.0159 18.7327C47.9755 18.6608 49.5678 18.5732 52.6137 18.5732C52.6137 23.5156 49.5633 26.0159 45.7741 26.2809C45.2417 26.3159 44.708 26.321 44.1752 26.2968Z" fill="#007BFB"/>
<path d="M198.328 18.8093V16.091C198.328 6.72754 192.568 1.88184 185.132 1.88184H183.678C175.673 1.88184 170.566 7.45541 170.304 15.3249C170.267 16.4751 170.267 16.9559 170.304 18.5307C170.491 26.3597 175.864 31.6301 183.04 31.8211C184.36 31.8592 184.189 31.857 185.427 31.8211C191.677 31.6435 196.407 27.957 197.802 23.1428L191.759 22.0621C190.281 25.0815 187.463 26.2385 185.207 26.3529C184.698 26.3867 184.187 26.3867 183.678 26.3529C180.146 26.2046 176.984 23.3764 176.984 19.2698V18.8205L198.328 18.8093ZM183.56 7.35207C184.12 7.31389 184.682 7.31389 185.242 7.35207C188.209 7.50484 191.334 9.47503 191.635 13.3884H177.017C177.355 9.89511 180.104 7.54303 183.56 7.34982V7.35207Z" fill="#007BFB"/>
<path d="M135.278 14.2848C135.126 7.26221 129.582 1.88184 122.252 1.88184H119.595C112.264 1.88184 106.72 7.27345 106.566 14.323C106.529 16.2819 106.529 17.4232 106.566 19.3799C106.72 26.4428 112.264 31.8211 119.595 31.8211H122.252C129.582 31.8211 135.126 26.4428 135.278 19.3799C135.317 17.4232 135.317 16.2437 135.278 14.2848ZM128.583 19.0205C128.504 23.1226 125.583 25.906 121.653 26.1104C121.167 26.1508 120.679 26.1508 120.193 26.1104C116.223 25.906 113.342 23.1226 113.263 19.0205C113.223 17.3153 113.223 16.3471 113.263 14.642C113.342 10.5825 116.223 7.79688 120.193 7.59469C120.679 7.55202 121.167 7.55202 121.653 7.59469C125.583 7.79688 128.504 10.5825 128.583 14.6824C128.623 16.3875 128.623 17.3153 128.583 19.0205Z" fill="#007BFB"/>
<path d="M22.6265 21.1186C21.8347 23.8145 19.7169 25.6567 16.871 26.0609C16.1092 26.1671 15.3368 26.1671 14.5749 26.0609C11.0341 25.5554 8.54228 22.8417 8.4675 19.0293C8.42791 17.3243 8.42791 16.3561 8.4675 14.651C8.54228 10.8027 11.1594 7.99008 14.7663 7.59694C15.3509 7.53378 15.9403 7.53002 16.5257 7.5857C19.5541 7.92043 21.8347 9.78055 22.6596 12.6067L29.2575 11.3037C27.8366 5.79974 22.9476 1.88184 16.6951 1.88184H14.8015C7.47121 1.88184 1.92461 7.26221 1.76626 14.323C1.73547 16.2819 1.73547 17.4232 1.76626 19.3799C1.91801 26.4428 7.46463 31.8211 14.7949 31.8211H16.6884C23.0664 31.8211 27.9971 27.7549 29.3013 22.0533L22.6265 21.1186Z" fill="#007BFB"/>
</svg>
