<svg width="33" height="41" fill="none" xmlns="http://www.w3.org/2000/svg">
    <g clip-path="url(#a)">
        <path d="M4.19 0C1.88 0 0 1.902 0 4.236v32.528C0 39.098 1.88 41 4.19 41h24.614c2.31 0 4.19-1.901 4.19-4.236V10.017s.067-.783-.27-1.546c-.315-.714-.83-1.211-.83-1.211 0-.002-.002-.004-.003-.005L25.784 1.2a1.412 1.412 0 0 0-.01-.01S25.253.69 24.48.354c-.91-.394-1.848-.353-1.848-.353L22.645 0H4.19z" fill="#FF2116"/>
        <path d="M4.19 1.391h18.47s.738.008 1.277.242c.52.225.888.566.89.568l.003.003 6.092 6.039s.367.391.545.794c.143.326.152.92.152.92l-.001.03v26.777c0 1.588-1.242 2.845-2.813 2.845H4.19c-1.57 0-2.813-1.257-2.813-2.845V4.236c0-1.588 1.242-2.845 2.813-2.845z" fill="#F5F5F5"/>
        <path d="M8.239 24.411c-.947-.957.077-2.273 2.859-3.67l1.75-.878.682-1.508a59.66 59.66 0 0 0 1.244-3.006l.562-1.5-.388-1.108c-.476-1.364-.646-3.414-.343-4.151.409-.998 1.75-.896 2.28.174.414.836.372 2.35-.12 4.258l-.402 1.565.355.609c.195.334.765 1.13 1.266 1.766l.942 1.184 1.173-.154c3.726-.491 5.002.344 5.002 1.54 0 1.512-2.925 1.637-5.382-.107-.553-.393-.932-.782-.932-.782s-1.54.316-2.297.523c-.782.213-1.172.346-2.318.737 0 0-.402.59-.664 1.019-.975 1.595-2.113 2.918-2.925 3.399-.91.539-1.864.575-2.344.09zm1.486-.537c.533-.332 1.61-1.62 2.357-2.816l.302-.484-1.376.699c-2.124 1.08-3.096 2.096-2.59 2.712.284.346.623.317 1.308-.11zm13.799-3.913c.52-.37.445-1.112-.144-1.412-.458-.233-.827-.28-2.018-.263-.731.05-1.907.2-2.107.245 0 0 .646.451.933.617.382.22 1.31.63 1.988.84.668.206 1.055.184 1.348-.027zm-5.548-2.33c-.315-.336-.851-1.035-1.191-1.554a8.664 8.664 0 0 1-.668-1.005s-.325 1.056-.591 1.692l-.832 2.077-.24.471s1.281-.424 1.933-.597c.69-.182 2.093-.46 2.093-.46l-.504-.625zm-1.788-7.247c.08-.681.114-1.362-.102-1.705-.602-.665-1.327-.11-1.204 1.468.04.532.171 1.44.346 2l.318 1.017.223-.766c.123-.422.311-1.328.419-2.014z" fill="#FF2116"/>
        <path d="M9.85 28.844h1.538c.491 0 .89.048 1.196.143.307.092.565.299.774.62.21.32.314.704.314 1.155 0 .413-.085.77-.255 1.066-.17.298-.399.512-.687.644-.285.132-.725.198-1.32.198h-.532v2.45H9.85v-6.276zm1.028.805v2.189h.51c.455 0 .769-.086.941-.258.176-.171.264-.45.264-.837 0-.288-.057-.52-.172-.699-.116-.18-.243-.29-.383-.33-.136-.044-.353-.065-.65-.065h-.51zM14.459 28.844h1.397c.676 0 1.216.121 1.62.363.406.243.713.603.919 1.081.21.478.314 1.009.314 1.591 0 .613-.094 1.16-.282 1.642-.185.478-.47.864-.856 1.158-.382.295-.928.442-1.638.442H14.46v-6.277zm1.028.832v4.613h.428c.598 0 1.032-.209 1.302-.626.27-.42.404-.98.404-1.678 0-1.54-.568-2.308-1.706-2.308h-.428zM19.696 28.844h3.45v.832h-2.421v1.877h1.938v.832h-1.938v2.736h-1.029v-6.277z" fill="#2C2C2C"/>
    </g>
    <defs>
        <clipPath id="a">
            <path fill="#fff" d="M0 0h33v41H0z"/>
        </clipPath>
    </defs>
</svg>
