<svg width="98" height="46" viewBox="0 0 98 46" fill="none" xmlns="http://www.w3.org/2000/svg">
<g clip-path="url(#clip0_215_3118)">
<path d="M30.6338 42H26.6348V27H34.1738C35.1146 27 35.9089 27.1042 36.5566 27.3125C37.2077 27.5208 37.7318 27.8415 38.1289 28.2744C38.5293 28.7074 38.8223 29.2738 39.0078 29.9736C39.1966 30.6702 39.291 31.5117 39.291 32.498C39.291 33.5983 39.2161 34.5049 39.0664 35.2178C38.9167 35.9274 38.6579 36.4971 38.29 36.9268C37.9255 37.3564 37.4111 37.6706 36.7471 37.8691C36.083 38.0645 35.2253 38.1621 34.1738 38.1621H30.6338V42ZM30.6338 34.6807H33.373C33.9167 34.6807 34.3073 34.6318 34.5449 34.5342C34.7858 34.4365 34.9502 34.2412 35.0381 33.9482C35.1292 33.652 35.1748 33.1686 35.1748 32.498C35.1748 31.9577 35.1309 31.5475 35.043 31.2676C34.9551 30.9844 34.7842 30.7826 34.5303 30.6621C34.2764 30.5417 33.8906 30.4814 33.373 30.4814H30.6338V34.6807ZM49.2717 36.3213H53.3928V36.7607C53.3928 37.3011 53.3814 37.7438 53.3586 38.0889C53.3391 38.4307 53.2854 38.779 53.1975 39.1338C53.1128 39.4854 52.9777 39.8174 52.7922 40.1299C52.6066 40.4391 52.3462 40.7354 52.0109 41.0186C51.591 41.3604 51.1304 41.6126 50.6291 41.7754C50.1311 41.9349 49.6346 42.0326 49.1398 42.0684C48.6451 42.1042 48.0152 42.1221 47.2502 42.1221C46.0197 42.1221 45.0139 42.0749 44.2326 41.9805C43.4514 41.8861 42.7499 41.6582 42.1281 41.2969C41.5096 40.9323 41.0311 40.3626 40.6926 39.5879C40.3573 38.8099 40.1896 37.7601 40.1896 36.4385V32.5615C40.1896 30.973 40.4598 29.7669 41.0002 28.9434C41.5438 28.1165 42.3137 27.5664 43.3098 27.293C44.3059 27.0163 45.6193 26.8779 47.2502 26.8779C48.6434 26.8779 49.7844 27.026 50.673 27.3223C51.5617 27.6185 52.2339 28.1263 52.6896 28.8457C53.1454 29.5618 53.3732 30.5465 53.3732 31.7998V32.3809H49.2521V31.7998C49.2066 31.3734 49.0813 31.0576 48.8762 30.8525C48.6743 30.6442 48.4139 30.5107 48.0949 30.4521C47.7759 30.3903 47.3479 30.3594 46.8107 30.3594C46.0555 30.3594 45.5021 30.4456 45.1506 30.6182C44.8023 30.7907 44.5744 31.069 44.467 31.4531C44.3628 31.834 44.3107 32.4167 44.3107 33.2012V35.54C44.3107 36.2008 44.3319 36.7087 44.3742 37.0635C44.4198 37.415 44.5223 37.7113 44.6818 37.9521C44.8413 38.193 45.0871 38.3688 45.4191 38.4795C45.7512 38.5869 46.215 38.6406 46.8107 38.6406C47.439 38.6406 47.9208 38.6032 48.2561 38.5283C48.5913 38.4502 48.8436 38.2777 49.0129 38.0107C49.1854 37.7438 49.2717 37.3271 49.2717 36.7607V36.3213ZM59.14 27V32.6396H60.3412L64.2035 27H69.0424L63.7641 34.3584L69.4818 42H64.5209L60.3412 36.1211H59.14V42H55.141V27H59.14ZM81.7818 38.8799V42H69.941V38.8799C69.941 37.9717 70.0061 37.2523 70.1363 36.7217C70.2698 36.1911 70.5172 35.7549 70.8785 35.4131C71.2398 35.0713 71.7525 34.7799 72.4166 34.5391C73.0807 34.2982 74.0149 34.0378 75.2193 33.7578C76.261 33.5137 76.9267 33.3428 77.2164 33.2451C77.5061 33.1442 77.7014 32.9896 77.8023 32.7812C77.9065 32.5729 77.9586 32.1986 77.9586 31.6582C77.9586 31.1569 77.8951 30.7907 77.7682 30.5596C77.6445 30.3285 77.4394 30.1771 77.1529 30.1055C76.8665 30.0339 76.4352 29.998 75.859 29.998C75.2079 29.998 74.7441 30.0339 74.4674 30.1055C74.1907 30.1738 74.0019 30.3285 73.901 30.5693C73.8001 30.807 73.7464 31.1976 73.7398 31.7412V32.4785H69.941V31.7412C69.941 30.7354 70.0663 29.9134 70.317 29.2754C70.5709 28.6374 70.9452 28.1458 71.44 27.8008C71.9381 27.4525 72.5419 27.2116 73.2516 27.0781C73.9645 26.9447 74.8336 26.8779 75.859 26.8779C77.1969 26.8779 78.2792 26.987 79.1061 27.2051C79.9329 27.4199 80.5823 27.8724 81.0543 28.5625C81.5263 29.2493 81.7623 30.2617 81.7623 31.5996C81.7623 32.4557 81.6939 33.1458 81.5572 33.6699C81.4238 34.194 81.2024 34.6221 80.8932 34.9541C80.5872 35.2829 80.1852 35.5563 79.6871 35.7744C79.1891 35.9925 78.5071 36.2204 77.6412 36.458C77.1952 36.5785 76.6207 36.7135 75.9176 36.8633C75.2177 37.0098 74.7408 37.1367 74.4869 37.2441C74.233 37.3483 74.0442 37.5225 73.9205 37.7666C73.8001 38.0075 73.7398 38.3786 73.7398 38.8799H81.7818ZM95.2537 27V36.1406H96.533V39.041H95.2537V42H91.4549V39.041H83.6131V34.7588L89.3553 27H95.2537ZM91.4549 36.1406V30.0811H91.3133L86.7576 36.1406H91.4549Z" fill="#1B1B1B"/>
<path d="M5.39062 44.496L27.6022 6.55839C30.2337 2.06382 36.0254 0.577713 40.4958 3.25L65.7565 18.35" stroke="#1B1B1B" stroke-width="1.87399" stroke-linecap="round"/>
<path d="M1.00069 43.3984L25.1439 1.69644" stroke="#FFDD00" stroke-width="1.87399" stroke-linecap="round"/>
</g>
<defs>
<clipPath id="clip0_215_3118">
<rect width="98" height="45" fill="white" transform="translate(0 0.593536)"/>
</clipPath>
</defs>
</svg>
