<svg width="176" height="166" fill="none" xmlns="http://www.w3.org/2000/svg">
    <path d="M7.72 124.918a8.364 8.364 0 0 1 4.492-1.239c2.506 0 4.598.979 6.277 2.937l2.069-2.231a9.827 9.827 0 0 0-3.695-2.884 11.61 11.61 0 0 0-15.068 5.202 14.567 14.567 0 0 0 0 12.993 11.52 11.52 0 0 0 4.22 4.517 11.326 11.326 0 0 0 6.037 1.646 11.448 11.448 0 0 0 4.796-.992 9.949 9.949 0 0 0 3.71-2.901l-2.069-2.23c-1.7 1.983-3.793 2.974-6.277 2.972a8.364 8.364 0 0 1-4.492-1.239 8.525 8.525 0 0 1-3.136-3.414 11.03 11.03 0 0 1 0-9.735 8.53 8.53 0 0 1 3.136-3.402zM28.011 123.891h7.614v21.697h3.122v-21.697h7.647v-3.079H28.01v3.079zM72.165 123.111c-1.65-1.536-3.923-2.304-6.817-2.304h-8.696v24.776h3.186v-7.504h5.51c2.888 0 5.16-.767 6.817-2.299 1.656-1.533 2.484-3.646 2.484-6.337 0-2.686-.828-4.796-2.484-6.332zm-2.292 10.462c-1.064.951-2.604 1.427-4.62 1.427h-5.415v-11.102h5.415c2.02 0 3.56.475 4.62 1.426 1.06.952 1.591 2.326 1.593 4.124 0 1.792-.531 3.167-1.593 4.123v.002zM104.726 145.588v-24.776h-2.932l-13.19 19.112v-19.112h-3.153v24.776h2.932l13.221-19.079v19.079h3.122zM139.384 132.777l6.817-11.965h-3.407l-5.99 10.759h-4.268v-10.759h-3.122v10.759h-4.333l-5.958-10.759h-3.408l6.817 11.893-7.359 12.883h3.729l6.244-10.902h4.268v10.902h3.122v-10.902h4.237l6.244 10.902h3.726l-7.359-12.811zM172.8 120.812l-13.187 19.112v-19.112h-3.156v24.776h2.932l13.221-19.079v19.079h3.122v-24.776H172.8zM25.043 160.846c-.301-.002-.6.044-.887.138a2.102 2.102 0 0 0-.713.394l.237.397c.175-.149.376-.265.593-.342.229-.081.47-.123.713-.124.302-.02.6.075.834.267a1.011 1.011 0 0 1 .286.777v.238h-1.253c-.531 0-.918.102-1.16.307a1.077 1.077 0 0 0-.364.827 1.086 1.086 0 0 0 .39.816c.302.225.674.337 1.05.316.287.008.571-.052.83-.174.22-.101.405-.266.528-.475v.616h.526v-2.447a1.49 1.49 0 0 0-.414-1.144 1.667 1.667 0 0 0-1.196-.387zm1.065 2.791a1.226 1.226 0 0 1-.475.595c-.232.142-.5.214-.773.207a1.21 1.21 0 0 1-.737-.198.65.65 0 0 1-.262-.544c0-.476.338-.714 1.013-.714h1.239l-.005.654zM29.56 164.822h.532v-3.474h2.259v-.473h-2.792v3.947zM36.975 161.101a1.9 1.9 0 0 0-.985-.255 1.928 1.928 0 0 0-.987.255 1.79 1.79 0 0 0-.69.713 2.095 2.095 0 0 0-.251 1.034c-.006.363.085.721.264 1.037.172.301.425.549.73.713.33.178.702.267 1.077.26.297.003.592-.053.868-.164.253-.105.478-.268.656-.476l-.304-.35a1.466 1.466 0 0 1-.533.388 1.712 1.712 0 0 1-.678.131 1.572 1.572 0 0 1-1.08-.378 1.434 1.434 0 0 1-.475-.994h3.303v-.167c.01-.36-.072-.718-.238-1.039a1.808 1.808 0 0 0-.677-.708zm-2.378 1.514c.02-.361.178-.701.44-.951.256-.242.598-.372.95-.364.358-.01.705.121.966.364.261.25.418.59.438.951h-2.794zM43.598 162.625h-2.482v-1.75h-.533v3.947h.533v-1.74h2.482v1.74h.535v-3.947h-.535v1.75zM46.407 161.348H47.9v3.474h.533v-3.474h1.493v-.473h-3.519v.473zM52.901 161.503c.236-.131.502-.197.77-.193a1.47 1.47 0 0 1 .652.147c.203.098.374.25.497.438l.397-.269a1.514 1.514 0 0 0-.634-.582 2.02 2.02 0 0 0-.911-.198 2.11 2.11 0 0 0-1.046.255 1.832 1.832 0 0 0-.726.713 2.028 2.028 0 0 0-.261 1.034c-.007.364.084.722.261 1.04.17.301.422.548.726.713.32.172.681.26 1.046.254.314.005.625-.063.908-.199.265-.127.486-.329.637-.581l-.397-.271a1.205 1.205 0 0 1-.497.435 1.483 1.483 0 0 1-.651.143 1.569 1.569 0 0 1-.77-.19 1.374 1.374 0 0 1-.533-.542 1.796 1.796 0 0 1 0-1.608c.122-.227.307-.414.532-.539zM56.929 161.348h1.493v3.474h.532v-3.474h1.494v-.473h-3.52v.473zM65.235 162.782c.194-.064.365-.183.492-.343a.878.878 0 0 0 .176-.551.85.85 0 0 0-.383-.749 1.838 1.838 0 0 0-1.058-.264h-1.74v3.947h1.792c.4.028.8-.069 1.142-.278a1 1 0 0 0 .355-1.016.994.994 0 0 0-.776-.746zm-1.995-1.486h1.189c.248-.017.497.04.713.164a.558.558 0 0 1 .238.497.579.579 0 0 1-.238.501 1.2 1.2 0 0 1-.713.174h-1.19v-1.336zm2.019 2.941c-.235.126-.5.184-.766.166H63.24v-1.374h1.305c.257-.019.513.04.735.169a.598.598 0 0 1 .238.521.576.576 0 0 1-.26.518zM71.441 161.1a2.202 2.202 0 0 0-2.054 0c-.3.166-.547.414-.713.714a2.16 2.16 0 0 0 0 2.071c.167.299.414.545.713.713a2.166 2.166 0 0 0 2.054 0c.3-.167.546-.414.714-.713a2.202 2.202 0 0 0 0-2.071 1.817 1.817 0 0 0-.714-.714zm.238 2.552c-.119.227-.3.416-.523.544a1.586 1.586 0 0 1-1.508 0 1.343 1.343 0 0 1-.525-.544 1.773 1.773 0 0 1 0-1.605c.119-.229.301-.418.525-.545a1.575 1.575 0 0 1 1.508 0c.223.127.405.316.523.545a1.827 1.827 0 0 1 0 1.605zM81.54 162.625h-2.482v-1.75h-.535v3.947h.535v-1.74h2.482v1.74h.533v-3.947h-.533v1.75zM87.621 161.101a1.9 1.9 0 0 0-.984-.255 1.928 1.928 0 0 0-.987.255 1.792 1.792 0 0 0-.69.713 2.095 2.095 0 0 0-.252 1.034c-.005.363.086.721.264 1.037.172.301.425.549.73.713.331.178.702.267 1.077.26.298.003.593-.053.868-.164.253-.105.478-.268.656-.476l-.304-.35a1.466 1.466 0 0 1-.532.388 1.712 1.712 0 0 1-.678.131 1.572 1.572 0 0 1-1.08-.378 1.434 1.434 0 0 1-.475-.994h3.303v-.167c.01-.36-.073-.718-.238-1.039a1.807 1.807 0 0 0-.678-.708zm-2.378 1.514c.02-.361.178-.701.44-.951.257-.242.599-.372.951-.364.357-.01.704.121.966.364.26.25.417.59.437.951h-2.794zM94.381 160.875h-2.91l-.053 1.322a8.782 8.782 0 0 1-.195 1.574c-.095.376-.275.571-.542.588h-.223v1.426h.502v-.951h3.535v.951h.502v-1.426h-.616v-3.484zm-.533 3.484h-2.46c.21-.196.344-.461.375-.747.08-.458.127-.921.143-1.386l.045-.878h1.902l-.005 3.011zM100.047 162.781c.194-.065.364-.183.493-.342a.876.876 0 0 0 .175-.552.849.849 0 0 0-.382-.749 1.855 1.855 0 0 0-1.058-.264h-1.74v3.948h1.792c.4.027.799-.07 1.141-.279a.997.997 0 0 0-.421-1.762zm-1.995-1.486h1.19c.248-.018.497.04.713.164a.566.566 0 0 1 .237.497.564.564 0 0 1-.237.502 1.193 1.193 0 0 1-.714.174h-1.189v-1.337zm2.019 2.942c-.234.125-.5.183-.766.166h-1.253v-1.374h1.306c.256-.02.512.039.735.168a.602.602 0 0 1 .237.521.574.574 0 0 1-.259.519zM104.13 164.011v-3.136h-.532v3.947h.48l2.625-3.136v3.136h.535v-3.947h-.473l-2.635 3.136zM115.461 160.875h-.58l-1.163 1.734h-.853v-1.734h-.533v1.734h-.856l-1.155-1.734h-.578l1.305 1.914-1.419 2.033h.637l1.21-1.755h.856v1.755h.533v-1.755h.853l1.215 1.755h.64l-1.419-2.026 1.307-1.921zM118.491 164.011v-3.136h-.532v3.947h.48l2.628-3.136v3.136h.532v-3.947h-.473l-2.635 3.136zM126.838 163.719l-1.674-2.844h-.54v3.947h.488v-3.129l1.598 2.649h.24l1.6-2.642v3.122h.487v-3.947h-.494l-1.705 2.844zM134.711 161.1a2.206 2.206 0 0 0-2.057 0 1.86 1.86 0 0 0-.713.714 2.161 2.161 0 0 0 0 2.071c.169.297.416.544.713.713a2.173 2.173 0 0 0 2.057 0c.299-.168.546-.414.713-.713a2.204 2.204 0 0 0 0-2.071 1.826 1.826 0 0 0-.713-.714zm.238 2.552a1.35 1.35 0 0 1-.521.544 1.59 1.59 0 0 1-1.51 0 1.36 1.36 0 0 1-.525-.544 1.79 1.79 0 0 1 0-1.605 1.35 1.35 0 0 1 .525-.545 1.58 1.58 0 0 1 1.51 0c.222.128.403.317.521.545a1.8 1.8 0 0 1 0 1.605zM139.209 161.503c.234-.131.499-.197.768-.193.226-.002.45.049.654.147.201.099.372.25.494.438l.397-.269a1.517 1.517 0 0 0-.632-.582 2.032 2.032 0 0 0-.913-.198 2.113 2.113 0 0 0-1.047.255 1.837 1.837 0 0 0-.713.713 2.047 2.047 0 0 0-.261 1.034c-.006.364.084.722.261 1.04.167.299.414.546.713.713.322.172.682.26 1.047.254.314.005.625-.063.908-.199a1.49 1.49 0 0 0 .637-.581l-.397-.271a1.221 1.221 0 0 1-.494.435 1.495 1.495 0 0 1-.654.143 1.548 1.548 0 0 1-.768-.19 1.35 1.35 0 0 1-.533-.542 1.77 1.77 0 0 1 0-1.608c.121-.228.306-.415.533-.539zM143.233 161.348h1.494v3.474h.532v-3.474h1.493v-.473h-3.519v.473zM149.559 164.011v-3.136h-.533v3.947h.481l2.627-3.136v3.136h.533v-3.947h-.474l-2.634 3.136zM116.532 41.955c-6.503 5.039-13.247 5.262-13.247 5.262a25.27 25.27 0 0 0 14.674-9.547c1.034-4.26 1.25-9.413.351-15.71l-2.896-2.446v9.399a25.798 25.798 0 0 1-2.891 3.669V16.767l-2.887-2.083v20.563a33.55 33.55 0 0 1-2.898 2.1v-25.4l-2.892-2.082v29.17c-1.867.98-3.8 1.832-5.785 2.547V24.193l-2.891 2.083v16.262c-.28.083-.564.169-.851.237-.67.19-1.356.405-2.05.638V28.359l2.894-2.083V2.306L92.278.226v28.133l-2.9 2.092v14.055c-.951.388-1.926.811-2.894 1.27V32.308l-2.891 2.083v12.84c-.45.238-.897.5-1.342.761-1.961-3.566-4.446-6.432-9.66-7.409-4.953-.93-9.145 2.894-10.55 4.373a7.106 7.106 0 0 0-1.83-.262l-3.09.045 2.456 1.881c.418.319 1.664 1.427 1.94 2.328 0 0 2.14 7.076.987 11.72l-.067.264c-1.281 5.117-3.029 12.11 4.154 23.133.438.975.937 1.962 1.508 2.96.048-1.258.172-2.512.37-3.756l.108-.071c-.026-.043-.052-.081-.079-.122.809-5.145 3.239-14.028 10.543-18.689 5.945-3.804 16.645-5.3 25.443-10.053-6.147.668-10.586-1.07-10.586-1.07 5.149.96 10.469.288 15.218-1.921a23.794 23.794 0 0 0 7.416-9.388zm-52.28 32.338c-1.577-5.436-.585-9.414.27-12.824l.067-.266c1.303-5.217-.328-10.84-.95-12.66a7.472 7.472 0 0 0-.645-1.392s4.463-5.334 9.214-4.445c4.394.826 6.486 3.234 8.23 6.42-8.915 5.712-16.479 14.393-16.196 25.157l.01.01z" fill="#fff"/>
    <path d="m100.953 7.125-2.891-2.08v19.148l2.891-2.083V7.125z" fill="#fff"/>
</svg>
