<svg width="24" height="36" fill="none" xmlns="http://www.w3.org/2000/svg">
    <path d="M23.087 17.308c-2.527 2.09-5.149 2.182-5.149 2.182 2.852-.707 4.647-2.46 5.706-3.96.402-1.766.486-3.903.137-6.514l-1.124-1.02v3.897c-.33.543-.707 1.052-1.125 1.522V6.862L20.409 6v8.527c-.36.311-.734.601-1.123.87V4.862L18.161 4v12.097c-.726.407-1.477.76-2.25 1.056V9.942l-1.123.863v6.745l-.33.104c-.261.08-.528.168-.796.265v-6.25l1.124-.863V.866L13.661 0v11.67l-1.124.863v5.829c-.373.16-.748.336-1.124.526v-5.58l-1.125.863v5.33c-.174.102-.348.207-.521.313-.763-1.481-1.728-2.667-3.755-3.073-1.926-.385-3.554 1.201-4.1 1.814a2.55 2.55 0 0 0-.712-.108l-1.2.019.953.777c.162.134.65.595.754.966 0 0 .835 2.934.383 4.86l-.025.11c-.499 2.122-1.177 5.022 1.614 9.594.17.402.364.813.587 1.227.018-.522.066-1.042.143-1.558l.042-.03-.03-.05c.313-2.134 1.258-5.818 4.097-7.75 2.31-1.574 6.466-2.198 9.891-4.17-2.39.278-4.115-.443-4.115-.443a9.223 9.223 0 0 0 5.916-.797 9.764 9.764 0 0 0 2.877-3.894zM2.767 30.715c-.612-2.254-.226-3.904.106-5.316l.026-.11c.507-2.164-.126-4.496-.371-5.25a3.149 3.149 0 0 0-.251-.579s1.735-2.211 3.581-1.842c1.708.342 2.52 1.34 3.199 2.666-3.461 2.367-6.4 5.967-6.29 10.431z" fill="#151D33"/>
    <path d="m17.036 2.864-1.124-.863v7.94l1.124-.862V2.864z" fill="#151D33"/>
</svg>
