<svg width="186" height="70" viewBox="0 0 186 70" fill="none" xmlns="http://www.w3.org/2000/svg">
<path d="M0.0376137 21.6279L0.0940344 43.2746L4.83337 43.3317L9.59151 43.3698L9.62912 31.367L9.68554 19.3453L13.3341 24.9377C15.3464 28.0192 18.1298 32.2991 19.5403 34.4676L22.0981 38.4241L26.2356 38.4051H30.3731L36.5794 28.9893C39.9834 23.7964 42.8421 19.5165 42.9173 19.4784C42.9925 19.4214 43.0677 24.7855 43.0677 31.367V43.3698H47.7695H52.4712V21.685V0.00018692H47.6378H42.7856L38.855 6.52464C36.6922 10.1007 34.3602 13.9621 33.6643 15.1225C32.9685 16.2638 31.1066 19.3453 29.5268 21.9703C27.9658 24.5763 26.6117 26.7828 26.5365 26.8589C26.4613 26.935 25.9159 26.1361 25.2952 25.0518C23.6402 22.1605 14.5941 6.44855 13.4469 4.47029C12.9015 3.51921 12.1116 2.13062 11.6603 1.36975L10.8704 0.00018692H5.43519H0L0.0376137 21.6279Z" fill="black"/>
<path d="M62.0625 21.685V43.3698H66.8206H71.56L83.4083 28.9893L95.2566 14.6089L95.3507 28.9513L95.4447 43.2746L100.203 43.3317L104.942 43.3698V21.685V0.00018692H100.165H95.3695L83.5587 14.3426C77.0704 22.2366 71.6916 28.6279 71.5976 28.5518C71.5224 28.4757 71.4847 22.0274 71.5035 14.2094L71.56 0.00018692H66.8206H62.0625V21.685Z" fill="black"/>
<path d="M114.534 21.6848V43.3696H131.178H147.822V45.7473V48.125H152.618H157.414V40.8967V33.6685H155.063H152.712V16.8342V3.8147e-06H147.916H143.121V16.8342V33.6685H133.623H124.126V16.8342V3.8147e-06H119.33H114.534V21.6848Z" fill="black"/>
<path d="M173.963 24.424C167.023 26.3261 164.672 35.2854 169.769 40.4593C171.631 42.3425 173.643 43.1794 176.314 43.2175C180.188 43.2555 183.291 41.3723 184.965 37.9484C187.598 32.5653 184.796 26.174 179.059 24.462C177.837 24.1006 175.185 24.0816 173.963 24.424Z" fill="#D41316"/>
<path d="M150.83 55.7338C150.21 56.8941 153.087 57.7311 154.892 56.8941C155.908 56.4376 156.04 56.1713 155.57 55.6767C155.212 55.3153 155.118 55.3153 154.422 55.5436C153.726 55.7719 152.824 55.7338 151.545 55.4295C151.15 55.3344 150.999 55.4104 150.83 55.7338Z" fill="#146882"/>
<path d="M80.2121 58.7012C79.2153 59.0626 78.5383 59.7664 78.0117 60.9458C77.6355 61.7827 77.5791 62.2202 77.5791 64.2936C77.5791 66.9757 77.88 67.9838 78.9896 68.992C79.7983 69.7148 80.5506 69.9621 81.9987 69.9811C84.0863 70.0001 85.2523 69.1822 86.0234 67.1659C86.5124 65.9105 86.4559 62.6007 85.9482 61.1931C85.083 58.8724 82.6381 57.8072 80.2121 58.7012ZM83.0895 60.299C83.8982 60.7936 84.2743 61.7447 84.3872 63.5327C84.5941 66.6143 83.6913 68.4784 81.9611 68.4784C80.2121 68.4784 79.5538 67.3371 79.5538 64.1985C79.5538 62.5246 79.629 61.9349 79.93 61.2882C80.513 59.9947 81.8859 59.5572 83.0895 60.299Z" fill="#146882"/>
<path d="M0.0758704 58.8914C0.132291 59.0626 0.188712 61.5735 0.188712 64.5029V69.8099H1.12906H2.0694V64.9594V60.1088H4.21338C6.1881 60.1088 6.35737 60.0898 6.4514 59.7284C6.50782 59.5192 6.50782 59.1768 6.4514 58.9675C6.35737 58.6061 6.1881 58.5871 3.1602 58.5871C0.32036 58.5871 -0.018164 58.6251 0.0758704 58.8914Z" fill="#146882"/>
<path d="M9.02734 64.1794V69.7908L9.4599 69.8479C9.68558 69.8859 10.0993 69.8859 10.3814 69.8289L10.8892 69.7718L10.9456 67.7365L11.0021 65.7202L12.7135 65.606C15.196 65.4158 16.0423 64.8452 16.5313 63C17.0015 61.2881 16.1928 59.5 14.6882 58.8533C14.2557 58.6631 13.2777 58.587 11.5475 58.587H9.02734V64.1794ZM14.0112 60.5462C14.5754 61.0408 14.8199 62.2011 14.5001 63.0191C14.2368 63.7229 13.2213 64.1414 11.98 64.0653L11.0021 64.0082L10.9456 62.3153C10.908 61.3832 10.9268 60.5082 10.9833 60.356C11.0585 60.1848 11.4534 60.1087 12.2997 60.1087C13.2965 60.1087 13.6162 60.1848 14.0112 60.5462Z" fill="#146882"/>
<path d="M18.4307 58.7203C18.4307 59.0626 21.8911 66.3099 22.1168 66.4431C22.3425 66.5762 22.3425 66.6904 22.098 67.1469C21.7219 67.8887 21.1012 68.2882 20.3678 68.2882C19.766 68.2882 19.7471 68.3072 19.7471 69.0491V69.8099H20.6687C21.1765 69.8099 21.8159 69.7338 22.0604 69.6387C22.6246 69.4105 23.4145 68.5925 23.8282 67.8127C24.1856 67.1469 27.2699 58.9866 27.2699 58.7393C27.2699 58.6442 26.875 58.5871 26.386 58.6251L25.4832 58.6822L24.3172 61.7257C23.2076 64.655 23.1512 64.7501 22.9443 64.1985C22.8315 63.8751 22.2297 62.4866 21.5902 61.098L20.443 58.5871H19.4462C18.882 58.5871 18.4307 58.6442 18.4307 58.7203Z" fill="#146882"/>
<path d="M29.9023 64.1985V69.8099H30.8427H31.783L31.8206 64.9974L31.8771 60.2039H33.8518H35.8265L35.8829 64.9974L35.9205 69.8099H36.8609H37.8012V64.1985V58.5871H33.8518H29.9023V64.1985Z" fill="#146882"/>
<path d="M41.1865 64.1985V69.8099H42.1269H43.0672L43.1048 64.9974L43.1612 60.2039H45.136H47.1107L47.1671 64.9974L47.2047 69.8099H48.1451H49.0854V64.1985V58.5871H45.136H41.1865V64.1985Z" fill="#146882"/>
<path d="M55.4049 58.7583C55.2544 58.9866 51.7188 69.4866 51.7188 69.6578C51.7188 69.7529 52.0949 69.8099 52.5463 69.8099H53.3926L53.7875 68.7067C53.9944 68.117 54.2201 67.5083 54.2577 67.3752C54.3141 67.204 54.9347 67.1469 56.4957 67.1469H58.6585L59.0722 68.4784L59.5048 69.8099H60.5204C61.4231 69.8099 61.5171 69.7719 61.4043 69.4675C61.3291 69.2963 60.7837 67.6795 60.1818 65.9105C59.5988 64.1224 58.7901 61.7828 58.414 60.6985C58.0379 59.5953 57.7369 58.6822 57.7369 58.6442C57.7369 58.492 55.4989 58.6061 55.4049 58.7583ZM57.9626 65.3779C58.0002 65.6061 57.7181 65.6632 56.5521 65.6822C55.7622 65.6822 55.0476 65.6442 54.9911 65.5681C54.8971 65.473 55.2168 64.3887 56.3829 60.8697C56.4581 60.6415 57.8122 64.4648 57.9626 65.3779Z" fill="#146882"/>
<path d="M67.7041 64.1795V69.8099H68.7385H69.7729V67.223C69.7729 64.8643 69.8105 64.655 70.1114 64.7121C70.2806 64.7502 71.1834 65.9105 72.1049 67.28L73.7975 69.8099H74.8883C75.7346 69.8099 75.9603 69.7529 75.8663 69.5627C75.791 69.4485 74.8883 68.079 73.8916 66.5572L72.0485 63.761L73.7411 61.2882C74.6626 59.9186 75.4149 58.7583 75.4149 58.7012C75.4149 58.6442 75.02 58.5871 74.5122 58.5871H73.6095L72.0297 60.9078C71.1458 62.2012 70.2806 63.2665 70.1114 63.3045C69.8105 63.3616 69.7729 63.1143 69.7352 61.0219L69.6788 58.6822L68.7009 58.6252L67.7041 58.5681V64.1795Z" fill="#146882"/>
<path d="M89.4637 58.7012C89.3885 58.7773 89.332 61.2692 89.332 64.2366V69.6388L89.7458 69.7909C89.9715 69.867 90.3852 69.886 90.6485 69.81L91.1187 69.6768V65.3779L91.0999 61.079L91.5136 62.0681C92.2283 63.8371 93.8833 67.242 94.109 67.3752C94.6544 67.7366 94.9741 67.5083 95.5195 66.329C95.8204 65.6822 96.3658 64.4648 96.7419 63.6279C98.096 60.6605 97.9832 60.7366 97.9456 62.7719C97.9268 63.761 97.9268 65.7583 97.9456 67.185L97.9832 69.81H98.9235H99.8639V64.1985V58.5681L98.6226 58.6252C97.7387 58.6632 97.3061 58.7773 97.2121 58.9675C97.0052 59.3099 95.3314 62.9431 94.8801 64.0083L94.5603 64.7692L94.1654 63.8181C93.9397 63.2855 93.3003 61.9159 92.7173 60.7746L91.6829 58.6822L90.6485 58.6252C90.0655 58.5871 89.5389 58.6252 89.4637 58.7012Z" fill="#146882"/>
<path d="M103.25 64.1985V69.8099H104.19H105.131L105.168 64.9974L105.225 60.2039H107.199H109.174L109.231 64.9974L109.268 69.8099H110.209H111.149V64.1985V58.5871H107.199H103.25V64.1985Z" fill="#146882"/>
<path d="M116.734 60.6224C116.358 61.7637 115.53 64.2746 114.853 66.2338L113.649 69.8099H114.552H115.436L115.756 68.9159C116.452 66.9377 116.151 67.1279 118.52 67.1849L120.646 67.242L121.097 68.5165L121.53 69.8099H122.526H123.523L122.263 66.0436C121.567 63.9893 120.702 61.4594 120.382 60.4322L119.762 58.5871H118.596H117.411L116.734 60.6224ZM118.614 65.5871C117.787 65.6252 117.072 65.6061 117.035 65.5491C116.959 65.473 117.655 63.1143 118.426 60.8697C118.483 60.7175 118.878 61.6876 119.31 63.0572L120.1 65.53L118.614 65.5871Z" fill="#146882"/>
<path d="M126.138 58.7203C126.062 58.7773 126.006 61.3072 126.006 64.3317V69.8099H126.946H127.868L127.924 67.3752L127.981 64.9594L130.106 64.9023L132.212 64.8453V67.3371V69.8099H133.152H134.093V64.1795V58.5681L133.209 58.6252L132.306 58.6822L132.212 60.9648L132.118 63.2474L130.162 63.3045C128.714 63.3425 128.15 63.2855 128.037 63.1143C127.962 62.9811 127.887 61.8969 127.887 60.7175V58.5871H127.078C126.626 58.5871 126.194 58.6442 126.138 58.7203Z" fill="#146882"/>
<path d="M137.61 58.7203C137.535 58.7773 137.479 61.3072 137.479 64.3317V69.8099H138.663H139.848L141.654 66.0436C142.632 63.9893 143.534 62.0871 143.647 61.8208C143.798 61.4594 143.854 62.4295 143.854 65.5681L143.873 69.8099H144.813H145.754V64.1985V58.5871H144.663H143.572L141.766 62.2393C140.789 64.2556 139.867 66.2529 139.717 66.6713C139.472 67.3752 139.453 67.0708 139.397 63.0001L139.359 58.5871H138.532C138.099 58.5871 137.667 58.6442 137.61 58.7203Z" fill="#146882"/>
<path d="M149.139 64.1985V69.829L150.286 69.7719L151.433 69.7148L152.524 67.5273C153.145 66.329 154.066 64.4458 154.574 63.3426L155.514 61.3453L155.533 65.5871V69.829L156.436 69.7719L157.32 69.7148V64.1985V58.6822L156.229 58.6252L155.157 58.5681L153.276 62.4295C152.223 64.56 151.301 66.5382 151.226 66.8616C151.113 67.223 151.038 65.8725 151.038 63.0002L151.019 58.5871H150.079H149.139V64.1985Z" fill="#146882"/>
</svg>
