<svg width="174" height="38" viewBox="0 0 174 38" fill="none" xmlns="http://www.w3.org/2000/svg">
<g clip-path="url(#clip0_2989:112613)">
<path d="M0 19.0004V38.0004H1.2117H2.4234V21.4687L2.43955 4.95335L3.69972 8.12002C5.29916 12.1636 6.94707 16.3858 8.30418 19.8935C8.90195 21.4038 9.45125 22.8004 9.53203 22.979C9.61281 23.1576 10.0167 24.1807 10.4368 25.2525C11.1961 27.2662 12.9086 31.6183 14.5081 35.6944L15.4128 38.0166L16.7861 37.9679L18.1593 37.9192L19.985 33.0474C22.3437 26.7628 29.4685 7.74652 30.0663 6.1713L30.5187 4.95335L30.5348 21.4687V38.0004H34.8162H39.0975V30.8551V23.7098H42.7003H46.3192L50.2613 30.8551L54.2033 38.0004H58.9209H63.6384L62.249 35.532C61.4735 34.1679 59.6479 30.8875 58.1777 28.2568L55.4958 23.4662L53.7187 23.385L51.9415 23.3038L52.8301 23.0764C56.1582 22.2157 59.4379 19.6662 60.9727 16.7269C62.459 13.9012 62.4752 9.95506 61.0373 7.06446C59.551 4.07643 56.4006 1.64053 52.507 0.455063C51.3114 0.0977974 51.166 0.0977974 40.6162 0.0328369C31.9727 0.000358582 29.9209 0.0328369 29.8401 0.195232C29.517 1.07215 24.5733 13.9662 23.1838 17.62C22.2145 20.1209 21.1159 23.0115 20.7281 24.0345C20.3242 25.0576 19.9042 26.1619 19.7911 26.4704L19.5811 27.0388L19.4195 26.6328C19.3387 26.4055 18.5471 24.4405 17.6908 22.2482C16.8345 20.0559 15.7359 17.279 15.2674 16.0773C13.571 11.7901 11.6485 6.85335 10.5983 4.14138C10.0006 2.61489 9.40279 1.07215 9.24123 0.69865L8.96657 0.000358582H4.49136H0V19.0004ZM46.2061 2.11147C48.9688 2.64737 50.9237 4.67728 51.893 8.03882C52.3939 9.79267 52.4262 13.5927 51.9577 15.3465C51.2468 18.0422 49.7443 20.1209 47.854 21.0628C46.9331 21.5175 46.9331 21.5175 43.0234 21.5662L39.0975 21.6149V11.7901V1.94908H42.2318C43.9443 1.94908 45.7376 2.03027 46.2061 2.11147Z" fill="#151D33"/>
<path d="M79.7135 9.40269C76.6762 9.88987 74.1235 11.5138 72.5402 13.9822C71.5386 15.5412 71.167 16.9215 71.1831 19.0813C71.1993 22.6215 72.5402 25.2035 75.3675 27.1035C78.728 29.3608 83.8817 29.442 86.3375 27.2822L86.9191 26.7625L88.0015 27.7531C88.6639 28.354 89.2455 28.7437 89.4556 28.7437H89.8271V24.6027V20.4617H87.6461H85.465V22.8976C85.465 25.5446 85.3196 26.113 84.4634 26.9087C83.3324 27.9642 80.9413 28.2728 79.4065 27.542C78.4049 27.0873 77.387 26.0318 76.7569 24.8463C75.1737 21.8583 75.1252 17.0189 76.6438 13.9984C77.9363 11.4326 80.4567 10.2147 83.6879 10.5882C85.9336 10.848 87.8884 12.5369 87.8884 14.2095C87.8884 14.5506 87.9692 14.6155 88.3731 14.6155C88.777 14.6155 88.8578 14.5506 88.8578 14.2095C88.8578 13.4788 88.2115 12.0497 87.5653 11.3839C86.8544 10.6531 85.8205 10.0685 84.4957 9.67876C83.4617 9.37022 80.8767 9.22406 79.7135 9.40269Z" fill="#151D33"/>
<path d="M120.523 9.41923C116.548 10.0688 113.317 13.0731 112.526 16.8568C111.395 22.1833 114.448 27.1688 119.634 28.5004C120.894 28.8252 123.867 28.8252 125.127 28.5004C128.391 27.6722 131.17 25.009 132.09 21.8423C132.478 20.4944 132.478 17.6363 132.09 16.3209C131.186 13.2679 128.827 10.8321 125.822 9.84145C124.4 9.38675 121.961 9.19188 120.523 9.41923ZM124.352 10.8321C127.454 12.2936 128.859 18.5132 127.211 23.5312C126.468 25.7722 125.305 27.0714 123.544 27.6235C122.591 27.9321 122.365 27.9483 121.605 27.7697C118.794 27.1201 117.146 24.4568 116.872 20.0722C116.629 16.2235 117.663 12.8944 119.602 11.3192C120.975 10.1825 122.655 10.0201 124.352 10.8321Z" fill="#151D33"/>
<path d="M93.5763 19.1137L93.6247 28.6625L95.7735 28.7112L97.9061 28.7599V25.171V21.5983H99.7317H101.541L103.48 25.1385L105.419 28.6625L107.81 28.7112C109.118 28.7274 110.185 28.7112 110.185 28.6625C110.185 28.5001 109.555 27.3308 108.294 25.1223C107.616 23.9531 106.856 22.6052 106.614 22.1667C106.21 21.4197 106.113 21.3548 105.499 21.306L104.821 21.2573L105.968 20.7052C107.131 20.1368 108.375 19.0488 108.827 18.1719C108.957 17.912 109.167 17.23 109.312 16.6291C109.538 15.6223 109.538 15.4274 109.296 14.3394C108.892 12.4881 107.406 10.8642 105.386 10.0522C104.482 9.67869 104.272 9.66245 98.9885 9.61374L93.5439 9.56502L93.5763 19.1137ZM102.204 10.9778C102.866 11.3026 103.674 12.1958 103.997 12.959C104.627 14.4855 104.578 17.0026 103.884 18.318C103.06 19.9257 101.929 20.4616 99.4086 20.4616H97.9061V15.5898V10.718H99.7802C101.17 10.718 101.8 10.783 102.204 10.9778Z" fill="#151D33"/>
<path d="M135.742 16.3534L135.79 23.1415L136.388 24.3756C137.147 25.9346 138.375 27.1038 140.039 27.8833C141.59 28.6141 142.689 28.7927 144.918 28.7115C146.631 28.6303 146.873 28.5816 148.02 28.0457C148.764 27.7047 149.539 27.185 149.975 26.7628L150.686 26.0483L152.124 27.3962C153.029 28.2244 153.691 28.744 153.934 28.744H154.289V19.1628V9.58162H152.189H150.088V17.3765V25.1551L149.62 25.7073C149.361 25.9996 148.747 26.4543 148.279 26.7303C147.471 27.1688 147.326 27.2013 145.565 27.2013C143.868 27.2013 143.642 27.1688 142.883 26.7628C141.913 26.2432 141.089 25.3662 140.54 24.2782L140.152 23.4662L140.104 16.5158L140.055 9.58162H137.874H135.693L135.742 16.3534Z" fill="#151D33"/>
<path d="M158.329 19.1628V28.744H160.429H162.53V25.1876V21.6474L165.567 21.5662C168.992 21.4688 170.01 21.2252 171.545 20.1859C173.29 18.9842 173.984 17.6526 174 15.4927C174 14.2423 173.936 13.9013 173.597 13.203C172.837 11.6927 171.319 10.4585 169.509 9.90641C168.572 9.6141 167.99 9.58162 163.402 9.58162H158.329V19.1628ZM166.746 10.9295C167.538 11.2868 168.2 12.0013 168.62 12.9432C168.992 13.7389 169.057 14.1124 169.057 15.4278C169.073 17.7662 168.394 19.2765 167.005 20.0073C166.456 20.2833 165.971 20.3645 164.436 20.4295L162.53 20.4944V15.6064V10.7184H164.436C165.551 10.7346 166.504 10.8158 166.746 10.9295Z" fill="#151D33"/>
</g>
<defs>
<clipPath id="clip0_2989:112613">
<rect width="174" height="38" fill="white"/>
</clipPath>
</defs>
</svg>
