<svg width="142" height="44" viewBox="0 0 142 44" fill="none" xmlns="http://www.w3.org/2000/svg">
<path d="M0 21.7789V43.5574H5.9523H11.9046V27.128V10.6986H21.0191H30.1335V27.128V43.5574H36.2718H42.4101V21.7789V0.000331879H21.2051H0V21.7789Z" fill="#FF502F"/>
<path d="M48.3623 21.7787V43.5573H53.6822H59.0392L67.8189 32.1713C72.6551 25.9434 77.0822 20.2122 77.7146 19.4863L78.8306 18.149L78.8679 30.834V43.5573H84.8202H90.7725V21.7787V0.000205994H85.3782H80.0211L74.8872 6.61018C72.0599 10.2781 67.6701 15.9711 65.1032 19.2952L60.4529 25.3703L60.3413 12.6852L60.2669 0.000205994H54.3146H48.3623V21.7787Z" fill="#FF502F"/>
<path d="M96.7246 21.7786V43.5571L102.789 43.4807L108.815 43.3661L108.89 35.5335C108.927 31.216 108.964 27.3188 108.964 26.8603C109.001 26.2489 111.085 28.1975 117.483 34.8075L125.928 43.5953L133.815 43.4807L141.702 43.3661L133.443 34.7693C128.904 30.0315 124.105 25.0263 122.803 23.6126L120.422 21.0909L123.956 16.7352C125.891 14.3663 129.76 9.62848 132.55 6.18976L137.647 7.62939e-05H130.653H123.622L119.567 5.04353C111.568 14.9776 109.41 17.6139 109.113 17.5757C108.964 17.5757 108.89 13.6021 108.927 8.7879L109.001 7.62939e-05H102.863H96.7246V21.7786Z" fill="#FF502F"/>
</svg>
