<svg width="132" height="130" viewBox="0 0 132 130" fill="none" xmlns="http://www.w3.org/2000/svg">
<path fill-rule="evenodd" clip-rule="evenodd" d="M117.835 53.0399C117.835 81.9233 94.628 105.339 66.0029 105.339C37.3763 105.339 14.1689 81.9248 14.1689 53.0399C14.1689 24.1565 37.3763 0.740479 66.0014 0.740479C94.628 0.740479 117.835 24.1551 117.835 53.0399ZM67.4476 39.8033L64.6321 49.6263C64.6321 49.6263 61.3742 59.5779 51.0738 59.6144L41.8628 59.5823L38.2147 72.353L31.3043 72.3749L41.8106 35.3161C42.0001 34.6389 42.404 34.0424 42.9609 33.6175C43.5178 33.1925 44.1972 32.9622 44.8959 32.9615L63.0699 33.0725C63.0699 33.0725 69.4479 33.1616 67.4476 39.8018V39.8033ZM47.4141 39.7332L43.7442 52.9274H50.1556C50.1556 52.9274 56.7861 52.961 58.7516 46.3325L60.6866 39.8033L47.4141 39.7332ZM60.4183 67.2859L55.9709 62.3444C55.0759 62.5138 54.1649 62.6 53.254 62.6L47.887 62.5796L55.4037 71.3027C55.9839 72.0418 61.6121 78.9128 69.5814 78.9128H76.3554C76.5324 78.9128 76.7137 78.9245 76.9038 78.9245C81.4933 78.9245 89.7991 76.5027 92.1867 67.0858L94.0609 60.3126V60.2936C94.1305 60.0891 94.1885 59.8803 94.2349 59.6699L95.069 56.7296C95.1906 56.2872 95.2094 55.8226 95.124 55.3717C95.0386 54.9209 94.8512 54.4958 94.5765 54.1296C94.3017 53.7634 93.9469 53.4658 93.5395 53.2598C93.1321 53.0539 92.6832 52.9452 92.2274 52.9421L87.9714 52.9304L82.835 52.8895L80.9987 59.3515L87.6639 59.388L85.9914 65.4118C84.3204 72.0039 78.35 72.4567 76.8573 72.4567H69.5756C64.5117 72.4523 60.4473 67.3297 60.4183 67.2859ZM89.2769 32.979C90.1908 32.9907 91.7052 33.0112 95.5897 32.9717C101.875 32.9074 100.944 36.1487 100.014 39.3812L99.9921 39.463L98.1267 46.4508L91.6355 46.4946L93.5212 39.7171H86.7182C86.7182 39.7171 80.2589 39.6514 78.1208 46.3836L74.6235 58.4313L71.4685 69.2899C70.9417 69.4304 70.3991 69.5025 69.8541 69.5046H69.828C68.9262 69.5032 68.0345 69.3129 67.2097 68.9458C66.3848 68.5786 65.6449 68.0427 65.0368 67.3721L68.141 56.5514L71.0479 46.4318C73.7169 37.1449 79.1811 33.0374 88.5212 32.9717C88.7504 32.9717 88.9825 32.9746 89.2755 32.979H89.2769Z" fill="#B80E35"/>
<path d="M0 115.675H2.25851C3.48132 115.675 4.3618 115.789 4.90286 116.018C5.43521 116.237 5.88198 116.626 6.17934 117.121C6.50717 117.675 6.67253 118.309 6.65802 118.953C6.68413 119.66 6.46655 120.352 6.04444 120.916C5.61766 121.451 5.03122 121.833 4.37196 122.006C3.96145 122.124 3.21442 122.184 2.13086 122.184V126.965H0V115.675ZM2.13086 120.086H2.80536C3.1796 120.107 3.55385 120.067 3.91648 119.972C4.117 119.901 4.28978 119.768 4.40967 119.591C4.53015 119.399 4.59077 119.175 4.58374 118.949C4.59817 118.757 4.55893 118.565 4.47047 118.394C4.38201 118.224 4.24788 118.082 4.0833 117.984C3.8396 117.834 3.38848 117.76 2.72993 117.76H2.13086V120.088V120.086ZM8.72505 115.675H14.2763V117.777H10.8385V126.965H8.72505V115.675ZM15.9996 121.829H19.8667V123.78H16.001V121.829H15.9996ZM26.1171 115.675H28.2669L31.8642 124.945H33.1117V128.65H31.0447V126.965H23.3567V128.65H21.2941V124.946H22.5328L26.1171 115.677V115.675ZM27.2225 118.67L24.7725 124.945H29.6666L27.2225 118.668V118.67ZM34.4984 115.675H40.598V117.777H36.6148V119.821H40.598V121.883H36.6148V124.854H40.598V126.965H34.4984V115.675ZM42.5896 126.965V115.675H44.3506C45.1015 115.648 45.8529 115.715 46.5873 115.875C47.2125 116.026 47.7738 116.376 48.1858 116.873C48.5818 117.355 48.7936 117.965 48.7805 118.591C48.7863 118.998 48.6935 119.4 48.5107 119.762C48.2954 120.153 47.9949 120.49 47.6317 120.748C48.2293 121.002 48.7472 121.42 49.1243 121.953C49.4477 122.464 49.6138 123.059 49.6015 123.665C49.6102 124.279 49.4449 124.88 49.1229 125.4C48.8217 125.901 48.387 126.307 47.8681 126.572C47.1984 126.861 46.4723 126.993 45.7445 126.959L42.5896 126.965ZM44.7204 117.724V120.102H45.1846C45.5966 120.135 46.0071 120.019 46.3422 119.774C46.4679 119.662 46.5672 119.523 46.6325 119.368C46.6977 119.212 46.7274 119.044 46.7193 118.875C46.7264 118.717 46.6979 118.559 46.6358 118.413C46.5738 118.268 46.4798 118.138 46.361 118.034C46.0456 117.803 45.6589 117.693 45.2702 117.723H44.719L44.7204 117.724ZM44.7204 122.022V124.914H45.2528C46.1376 124.914 46.7324 124.803 47.0413 124.576C47.1936 124.465 47.3157 124.317 47.3963 124.146C47.4769 123.974 47.5135 123.786 47.5026 123.596C47.5113 123.375 47.4669 123.154 47.3729 122.954C47.279 122.753 47.1384 122.578 46.963 122.444C46.6004 122.163 45.9998 122.022 45.1614 122.022H44.7204ZM51.6352 115.675H57.742V117.777H53.7487V119.821H57.7406V121.883H53.7487V124.854H57.7406V126.965H51.6338V115.675H51.6352ZM66.9675 126.965L63.8633 118.664L60.7142 126.965H58.4542L62.7798 115.675H64.928L69.2275 126.965H66.9675ZM75.8159 115.392C76.5781 115.382 77.334 115.532 78.0364 115.83C78.7387 116.128 79.3724 116.569 79.8977 117.126C80.4538 117.676 80.8923 118.335 81.1864 119.062C81.4804 119.789 81.6239 120.569 81.6079 121.354C81.6234 122.13 81.4818 122.901 81.1918 123.619C80.9018 124.338 80.4693 124.99 79.9209 125.535C79.0999 126.358 78.0544 126.916 76.9173 127.139C75.7802 127.361 74.603 127.238 73.5356 126.785C72.2903 126.248 71.2666 125.296 70.6366 124.088C70.0067 122.881 69.809 121.491 70.0768 120.154C70.3446 118.817 71.0615 117.614 72.107 116.746C73.1525 115.879 74.4627 115.401 75.8173 115.392H75.8159ZM75.7927 117.495C75.3062 117.484 74.8228 117.575 74.3732 117.762C73.9236 117.949 73.5178 118.229 73.1817 118.583C72.829 118.95 72.5534 119.384 72.3715 119.86C72.1895 120.336 72.1049 120.844 72.1228 121.354C72.1001 121.918 72.2088 122.48 72.44 122.994C72.6712 123.509 73.0185 123.961 73.4544 124.316C74.1244 124.878 74.9718 125.18 75.8434 125.167C76.3264 125.174 76.8056 125.08 77.2503 124.89C77.6949 124.7 78.0952 124.419 78.4254 124.064C79.1134 123.325 79.4962 122.35 79.4962 121.337C79.4962 120.324 79.1134 119.349 78.4254 118.61C78.0891 118.248 77.6808 117.962 77.2271 117.77C76.7734 117.578 76.2847 117.484 75.7927 117.495ZM83.6097 115.675H91.6544V126.965H89.5047V117.685H85.7681V126.965H83.6184L83.6097 115.675ZM95.2967 115.675H97.3696L99.9632 123.548L102.589 115.675H104.66L106.54 126.965H104.479L103.285 119.835L100.909 126.963H99.0319L96.6748 119.835L95.4462 126.963H93.369L95.2967 115.675ZM108.234 115.675H114.341V117.777H110.348V119.821H114.34V121.883H110.348V124.854H114.34V126.965H108.233V115.675H108.234ZM116.318 115.675H118.479V119.933H122.215V115.675H124.363V126.965H122.215V122.016H118.479V126.965H116.318V115.675ZM125.816 115.675H132V117.793H129.962V126.965H127.801V117.793H125.816V115.675Z" fill="#B80E35"/>
</svg>
