<svg aria-hidden="true" style="position:absolute;width:0;height:0;overflow:hidden" xmlns="http://www.w3.org/2000/svg">
    <defs>
        <symbol id="icon-advantage__icon_04" viewBox="0 0 32 32">
            <path stroke-linejoin="round" stroke-linecap="round" stroke-width=".337" d="M24.525 7.609c.804-.969.927-1.54.974-3.275.048 1.736.17 2.306.974 3.275.108.13.108.32 0 .45-.804.969-.927 1.54-.974 3.275-.047-1.736-.17-2.306-.974-3.275a.353.353 0 0 1 0-.45z"/>
            <path d="M5.671 2.899H3.667v17.686a.73.73 0 0 0 .729.729h14.209a.728.728 0 0 0 .673-.45 6.315 6.315 0 0 0-.07-.104c-.651-.966-1.008-1.622-1.17-2.073h-.705l.596-.486c-.009-.273.113-.41.286-.496-.342-.338.228-1.055 1.118-1.639V.895a.73.73 0 0 0-.729-.729H6.399V2.17a.73.73 0 0 1-.729.729z"/>
            <path d="M16.938 22.314a.73.73 0 0 0 .729-.729v-.271H4.396a.73.73 0 0 1-.729-.729V2.899L5.566 1H2.729A.73.73 0 0 0 2 1.729v19.857a.73.73 0 0 0 .729.729h14.209z"/>
            <path d="M.895 23.314h14.043a.73.73 0 0 0 .729-.729v-.271H2.729A.73.73 0 0 1 2 21.585V2.166H.895a.73.73 0 0 0-.729.729v19.69a.73.73 0 0 0 .729.729zM3.667 2.899h2.004A.73.73 0 0 0 6.4 2.17V.166L3.667 2.899z"/>
            <path d="m3.667 2.899-.119-.119-.049.049v.07h.168zm14.43 15.295a.169.169 0 0 0-.337.011l.337-.012zm-.217.549a.168.168 0 1 0 .317-.113l-.317.114zm-2.213 3.739a.168.168 0 1 0 0-.336v.337zm2-1a.168.168 0 1 0 0-.336v.337zM2.168 2.167a.168.168 0 1 0-.336 0h.337zm3.517-1.048c.066-.066.066-.172 0-.238s-.172-.066-.238 0l.238.238zm22.148 1.214.168-.005a.168.168 0 0 0-.336 0l.168.005zm-.315 1.274zm.631 0zm-.316 1.726-.168.005a.168.168 0 0 0 .336 0l-.168-.005zm-.315-1.273zm.631 0zm-15.803 14.1c-.029-.088-.125-.136-.213-.107s-.136.125-.107.213l.32-.107zm.141.956zm.062.013zm1.463-1.632zm.128 2.032zm1.043-1.34zm.055-.003zm.735.781zm.057-.005zm.917-1.094a.168.168 0 1 0-.282-.184l.282.185zm-.18.801a.169.169 0 0 0 .079.327l-.079-.328zm.772.161a.169.169 0 0 0-.079-.327l.079.328zm-.122-.144zM2.729 22.145a.56.56 0 0 1-.56-.56h-.337c0 .495.402.897.897.897v-.337zM5.671 2.731H3.667v.337h2.004v-.337zm-2.173.168v17.686h.337V2.899h-.337zM6.231.167v2.004h.337V.167h-.337zM4.395 21.145a.56.56 0 0 1-.56-.56h-.337c0 .495.402.897.897.897v-.337zM5.671 3.068a.898.898 0 0 0 .897-.897h-.337a.56.56 0 0 1-.56.56v.337zm12.09 15.138a1.8 1.8 0 0 0 .119.538l.317-.114a1.453 1.453 0 0 1-.099-.435l-.337.012zM2.729 22.482h12.938v-.337H2.729v.337zm1.666-1h13.271v-.337H4.395v.337zM1.832 2.167v19.419h.337V2.167h-.337zm1.954.851 1.899-1.899-.238-.238L3.548 2.78l.238.238zm23.879-.689c-.009.332-.024.549-.065.723a1.178 1.178 0 0 1-.217.456l.271.2c.138-.188.224-.361.274-.579.049-.211.065-.459.074-.79l-.337-.009zm0 .009c.009.331.025.579.074.79.051.218.136.391.274.579l.271-.2a1.165 1.165 0 0 1-.217-.456c-.041-.174-.056-.391-.065-.723l-.337.009zm.337 2.991c-.009-.331-.025-.579-.074-.79a1.512 1.512 0 0 0-.274-.579l-.271.2c.115.156.178.288.217.456.041.174.056.391.065.723l.337-.009zm0 .009c.009-.332.024-.549.065-.723.039-.167.102-.299.217-.456l-.271-.2a1.512 1.512 0 0 0-.274.579c-.049.211-.065.459-.074.79l.337.009zm.011-1.631a.215.215 0 0 1 0 .253l.271.2a.55.55 0 0 0 0-.653l-.271.2zm-.63-.2a.55.55 0 0 0 0 .653l.271-.2a.215.215 0 0 1 0-.253l-.271-.2zm-15.357 14.76.301.902.32-.107-.301-.902-.32.107zm.648.974 1.463-1.631-.251-.225-1.463 1.631.251.225zm1.233-1.719v1.985h.337v-1.985h-.337zm.366 2.11 1.042-1.34-.266-.207-1.042 1.34.266.207zm.842-1.331.735.781.245-.231-.735-.781-.245.231zm1.056.753.776-1.186-.282-.185-.776 1.186.282.185zm-.321.028a.206.206 0 0 0 .321-.028l-.282-.185a.133.133 0 0 1 .207-.018l-.245.231zm-.534-.79a.132.132 0 0 1-.2.009l.245-.231a.204.204 0 0 0-.311.015l.266.207zm-1.409 1.214c0 .195.247.28.367.126l-.266-.207a.132.132 0 0 1 .236.081h-.337zm.23-1.896a.132.132 0 0 1-.23-.088h.337a.205.205 0 0 0-.357-.137l.251.225zm-1.81 1.559c.05.149.242.189.347.072l-.251-.225a.132.132 0 0 1 .223.046l-.32.107zm4.518-.172.611-.147-.079-.328-.611.147.079.328zm.612-.147.083-.02-.079-.328-.083.02.079.328zM6.399.167V-.17h-.14l-.099.099.238.238zm12.934 15.899.185.282a.336.336 0 0 0 .152-.282h-.337zm-1.117 1.638.149.302a.335.335 0 0 0 .087-.541l-.237.239zm-.287.496.213.261a.337.337 0 0 0 .124-.272l-.337.012zm-.596.486-.213-.261a.337.337 0 0 0 .213.598v-.337zm.705 0 .317-.114a.337.337 0 0 0-.317-.223v.337zm1.17 2.074zm-3.541 1.554v-.337a.337.337 0 0 0-.337.337h.337zm2-1v-.337a.337.337 0 0 0-.337.337h.337zM2 2.167v.337a.337.337 0 0 0 .337-.337H2zM5.566 1v.337a.338.338 0 0 0 .238-.099L5.566 1zm13.712 19.864.311.129a.338.338 0 0 0-.031-.316l-.28.187zM.895 23.651h14.043v-.674H.895v.674zM-.17 2.895v19.69h.674V2.895H-.17zm15.108 20.756c.588 0 1.066-.477 1.066-1.066h-.674a.392.392 0 0 1-.392.392v.674zM.895 22.977a.392.392 0 0 1-.392-.392h-.674c0 .588.477 1.066 1.066 1.066v-.674zM.504 2.895c0-.216.175-.392.392-.392v-.674c-.588 0-1.066.477-1.066 1.066h.674zm16.434 19.756c.588 0 1.066-.477 1.066-1.066h-.674a.392.392 0 0 1-.392.392v.674zM2.337 1.729c0-.216.175-.392.392-.392V.663c-.588 0-1.066.477-1.066 1.066h.674zM18.605-.17H6.4v.674h12.205V-.17zM19.67.895c0-.588-.477-1.066-1.066-1.066v.674c.216 0 .392.175.392.392h.674zm-.521 14.889c-.464.305-.866.657-1.11.997a1.34 1.34 0 0 0-.251.555.685.685 0 0 0 .19.608l.474-.479c-.003-.003-.001-.002 0 .002.001.002-.002-.005.001-.027a.699.699 0 0 1 .133-.266c.178-.249.506-.547.932-.826l-.37-.563zm-1.083 1.618a.847.847 0 0 0-.345.297.865.865 0 0 0-.128.513l.673-.023c-.003-.083.014-.114.021-.124.008-.012.026-.033.078-.058l-.299-.604zm-.35.537-.596.486.426.522.596-.486-.426-.522zm.005.861c.177.493.553 1.177 1.207 2.148l.559-.376c-.647-.961-.985-1.588-1.132-1.999l-.634.227zm-2.054 3.851h1.271v-.674h-1.271v.674zm.337-.066v-.271h-.674v.271h.674zm1.663-.934h.938v-.674h-.938v.674zm.337-.066v-.271h-.674v.271h.674zM1.663 1.729v.438h.674v-.438h-.674zM2 1.83H.895v.674H2V1.83zM5.566.663H2.729v.674h2.837V.663zm.238.575.833-.833-.476-.476-.833.833.476.476zM19.67 16.066V.895h-.674v15.171h.674zm-.741 4.882.069.103.56-.374-.071-.105-.559.376zm-.324.703c.444 0 .825-.272.985-.657l-.622-.258a.392.392 0 0 1-.362.242v.674zm-.567-3.301h-.621v.674h.621v-.674zm-.621 0h-.084v.674h.084v-.674z"/>
            <path d="M22.661 25.234c1.654 1.091 2.316 1.309 4.521 3.165a17.445 17.445 0 0 1 2.282 2.315c.372.458 1.191.334 1.355-.233l.987-3.42a.698.698 0 0 0-.194-.695c-.693-.665-1.771-1.866-2.224-2.987-.662-1.637-.662-5.784-2.316-6.439-.39-.193-.98-.465-1.645-.738l-3.317 1.222c.179.082.435.219.681.388.36.247.7.562.752.873a.734.734 0 0 1-.036.327c-.117.386-.457.882-.776 1.281a.608.608 0 0 1-.875.074c-.163-.139-.34-.296-.519-.46a11.205 11.205 0 0 1-.882-.895 3.841 3.841 0 0 1-.331-.436 2.116 2.116 0 0 0-.253-.327 2.036 2.036 0 0 0-.86-.546c-.343-.109-.666-.101-.871 0-.173.086-.296.222-.286.496.004.129.038.288.109.486.162.452.519 1.108 1.17 2.073l.07.104c1.484 2.221 1.83 3.295 3.459 4.37z"/>
            <path d="M22.11 15.195c-.907-.106-2.019.325-2.852.871-.889.584-1.459 1.3-1.118 1.639.205-.101.528-.109.871 0l5.178-1.973c-.743-.259-1.485-.468-2.08-.537zM23.543 18.687c-.052-.311-.392-.626-.752-.873-.866-.175-1.918.727-2.335 1.2.251.292.569.606.882.895.27-.517 1.083-1.419 2.17-.895a.747.747 0 0 0 .036-.327z"/>
            <path d="M18.065 17.554c-.083.041-.118.142-.076.226s.142.118.226.076l-.149-.302zm.895.311c.089.028.183-.021.211-.11s-.021-.183-.11-.211l-.102.321zm.853.227a.169.169 0 0 0 .116.316l-.116-.316zm2.355-.509a.169.169 0 0 0-.116-.316l.116.316zm-1.585 1.321c-.061-.071-.167-.079-.238-.018s-.079.167-.018.238l.255-.22zm2.303-1.229a.168.168 0 0 0-.19.278l.191-.278zm.657 1.012zm-2.32 1.345c.068.063.175.059.238-.01s.059-.175-.01-.238l-.228.248zm2.123-1.067c-.027.089.023.183.113.21s.183-.023.21-.113l-.322-.097zm6.153-4.263zm-4.131 1.343a.169.169 0 0 0 .116.316l-.116-.316zm-1.239-.471c-.087.033-.131.13-.097.217s.13.131.217.097l-.12-.315zm5.045-1.742zm.599.27zm-10.711 3.442c-.367-.116-.739-.118-.997.01l.149.302c.152-.075.427-.091.746.01l.102-.321zm2.989-.277-2.238.825.116.316 2.238-.825-.116-.316zm.644.685c.174.119.338.252.463.388.127.138.2.266.219.374l.332-.056c-.034-.202-.157-.388-.303-.546a3.056 3.056 0 0 0-.52-.437l-.191.278zm-1.243 1.833a11.197 11.197 0 0 1-.869-.881l-.255.22c.257.299.58.618.896.909l.228-.248zm1.925-1.07c.01.058.002.14-.031.25l.322.097a.907.907 0 0 0 .041-.403l-.332.056zm6.064-4.171-4.073 1.501.116.316 4.073-1.501-.116-.316zm-5.192 1.345 4.985-1.899-.12-.315-4.984 1.899.12.315zm5.367-1.728a.295.295 0 0 1-.174.382l.116.316a.634.634 0 0 0 .373-.818l-.315.119zm.315-.119a.633.633 0 0 0-.817-.367l.12.315a.296.296 0 0 1 .382.172l.315-.119zm-7.27 11.192zm4.521 3.165zm2.282 2.315zm1.355-.233zm.987-3.42zm-.194-.695zm-2.224-2.987zm-2.316-6.438-.149.302a.272.272 0 0 0 .025.011l.124-.313zm-4.962-1.746zm-2.853.871zm-1.117 1.638.149.302a.335.335 0 0 0 .087-.541l-.237.239zm.871 0-.12-.315a.337.337 0 0 0 .018.635l.102-.321zm1.114.873zm-.254-.327zm2.239-.825-.116-.316a.336.336 0 0 0-.024.622l.14-.306zm-1.655 1.588-.255.22a.335.335 0 0 0 .508.003l-.252-.223zm2.336-1.199-.067.33a.338.338 0 0 0 .257-.608l-.191.278zm-.935 2.555zm-.518-.461-.298-.156a.336.336 0 0 0 .07.404l.228-.248zm2.169-.895.322.097a.337.337 0 0 0-.176-.401l-.146.303zm-.776 1.281zm2.695-4.091.128-.312a.332.332 0 0 0-.244-.004l.116.316zm-1.237-.472.12.315a.337.337 0 0 0-.009-.633l-.111.318zM17.853 18.2zm.109.487zm1.17 2.073zm.07.104zm3.273 4.651c1.68 1.108 2.304 1.303 4.49 3.141l.434-.516c-2.225-1.872-2.924-2.114-4.553-3.188l-.371.562zm4.49 3.142a17.066 17.066 0 0 1 2.237 2.27l.523-.425a17.747 17.747 0 0 0-2.326-2.36l-.434.516zm4.177 1.917.987-3.42-.647-.187-.987 3.42.647.187zm.703-4.451c-.687-.659-1.72-1.819-2.145-2.87l-.625.252c.481 1.191 1.604 2.433 2.303 3.104l.466-.486zm-2.145-2.87c-.151-.374-.27-.909-.39-1.541-.117-.618-.233-1.325-.379-1.992-.146-.669-.329-1.33-.589-1.873-.258-.538-.617-1.01-1.146-1.22l-.248.626c.298.118.559.409.787.885.226.471.395 1.071.538 1.725.143.656.254 1.333.375 1.974.118.627.247 1.224.427 1.668l.625-.252zm-7.552-8.393c-1.02-.119-2.215.359-3.076.924l.37.563c.805-.528 1.836-.911 2.628-.818l.078-.669zm-3.075.924c-.464.305-.866.657-1.11.997a1.34 1.34 0 0 0-.251.555.685.685 0 0 0 .19.608l.474-.479c-.003-.003-.001-.002 0 .002.001.002-.002-.005.001-.027a.699.699 0 0 1 .133-.266c.178-.249.506-.547.932-.826l-.37-.563zm1.336 2.614a2.558 2.558 0 0 0-.293-.379l-.49.462c.077.081.149.173.214.276l.57-.36zm-.293-.379a2.376 2.376 0 0 0-1.004-.636l-.203.642a1.7 1.7 0 0 1 .717.456l.49-.462zm.595.775a3.498 3.498 0 0 1-.301-.396l-.57.36c.097.153.222.315.36.476l.511-.439zm1.258-1.063c.164.075.402.203.631.36l.381-.555a5.13 5.13 0 0 0-.732-.417l-.281.612zm-1.261 1.505c.191-.217.534-.537.924-.779.402-.249.788-.375 1.092-.313l.133-.66c-.562-.113-1.136.125-1.58.401-.456.283-.848.65-1.074.906l.505.446zm1.367.877c-.16-.137-.334-.291-.509-.452l-.456.495c.182.168.362.327.528.468l.438-.512zm1.11-1.197c-.096.318-.398.77-.717 1.168l.526.421c.32-.399.699-.94.836-1.394l-.645-.195zm-1.549 1.148c.114-.218.347-.52.654-.706.291-.175.645-.247 1.071-.042l.293-.607a1.73 1.73 0 0 0-1.711.072 2.571 2.571 0 0 0-.903.97l.597.312zm3.674-4.177-3.317 1.222.233.632 3.317-1.222-.233-.632zm1.911.752a28.386 28.386 0 0 0-1.667-.748l-.256.623c.658.27 1.242.539 1.624.728l.299-.604zM24.3 15.413c-.75-.261-1.52-.48-2.151-.553l-.078.669c.558.065 1.272.264 2.008.52l.222-.636zm-5.169 2.606 5.178-1.973-.24-.63-5.178 1.973.24.63zm-1.141-.616a.847.847 0 0 0-.345.297.865.865 0 0 0-.128.513l.673-.023c-.003-.083.014-.114.021-.124.008-.012.026-.033.078-.058l-.299-.604zm-.473.809c.006.175.051.371.129.589l.634-.228a1.34 1.34 0 0 1-.09-.384l-.673.023zm.128.588c.177.493.553 1.177 1.207 2.148l.559-.376c-.647-.961-.985-1.588-1.132-1.999l-.634.228zm14.485 8.354a1.033 1.033 0 0 0-.285-1.031l-.466.486a.361.361 0 0 1 .104.358l.647.187zm-2.927 3.772c.275.338.702.448 1.072.388.371-.061.743-.305.868-.74l-.647-.187c-.038.132-.158.233-.33.262a.466.466 0 0 1-.44-.148l-.523.425zm-7.566-10.302a.946.946 0 0 0 1.357-.12l-.526-.421a.272.272 0 0 1-.393.029l-.438.512zm-2.784.324.069.103.56-.374-.071-.105-.559.376zm.069.104c.368.55.665 1.029.931 1.459.265.428.504.812.748 1.162.495.709 1.018 1.279 1.874 1.843l.371-.562c-.773-.51-1.237-1.015-1.693-1.667-.231-.331-.46-.699-.727-1.131-.267-.43-.569-.918-.944-1.478l-.56.374z"/>
            <path stroke-linejoin="round" stroke-linecap="round" stroke-width=".736" d="M5.853 6.922h11.659M5.853 9.837h11.659M5.853 12.752h11.659M5.853 8.38h11.659M5.853 11.295h11.659M5.853 14.209h11.659"/>
            <path stroke-linejoin="round" stroke-linecap="round" stroke-width=".337" d="M24.525 7.608c.804-.969.927-1.54.974-3.275.048 1.736.17 2.306.974 3.275.108.13.108.32 0 .45-.804.969-.927 1.54-.974 3.275-.047-1.736-.17-2.306-.974-3.275a.353.353 0 0 1 0-.45z"/>
            <path d="M19.087 17.704c.174.055.352.14.523.257.223.153.502.229.755.135l9.211-3.394a.465.465 0 1 0-.325-.869l-10.163 3.872z"/>
            <path stroke-linejoin="round" stroke-linecap="round" stroke-width=".337" d="M18.216 17.704c.205-.101.528-.109.871 0m0 0c.174.055.352.14.523.257.223.153.502.229.755.135l9.211-3.394a.465.465 0 1 0-.325-.869l-10.163 3.872z"/>
        </symbol>
        <symbol id="icon-icon_pdf" viewBox="0 0 26 32">
            <path d="M3.27 0C1.467 0 0 1.484 0 3.306v25.388C0 30.516 1.468 32 3.27 32h19.211c1.803 0 3.27-1.484 3.27-3.306V7.818s.051-.611-.211-1.206c-.246-.558-.647-.946-.647-.946l-.003-.004L20.124.938 20.116.93s-.407-.392-1.01-.653c-.71-.308-1.442-.276-1.442-.276L17.675 0H3.271z"/>
            <path d="M3.271 1.086h14.415s.576.006.997.188c.406.176.693.442.695.444l.002.002 4.755 4.713s.286.306.425.62c.112.254.119.718.119.718l-.001.023v20.899c0 1.239-.97 2.22-2.196 2.22H3.271c-1.226 0-2.196-.981-2.196-2.22V3.305c0-1.239.97-2.22 2.196-2.22z"/>
            <path d="M6.43 19.053c-.739-.747.061-1.774 2.232-2.864l1.366-.686.532-1.177c.293-.647.73-1.703.971-2.346l.439-1.17-.302-.866c-.372-1.065-.504-2.664-.268-3.239.319-.779 1.365-.699 1.78.136.323.652.29 1.834-.093 3.323l-.314 1.221.277.475c.152.261.597.882.989 1.378l.736.925.915-.121c2.908-.383 3.904.268 3.904 1.203 0 1.179-2.283 1.277-4.201-.084-.431-.306-.728-.61-.728-.61s-1.201.247-1.793.408c-.61.166-.915.27-1.809.575 0 0-.314.46-.518.795-.761 1.245-1.649 2.277-2.283 2.653-.71.421-1.455.449-1.829.07zm1.161-.419c.416-.26 1.257-1.265 1.839-2.198l.236-.378-1.073.545c-1.658.842-2.416 1.636-2.022 2.117.222.27.487.247 1.021-.086zm10.769-3.055c.407-.288.347-.867-.112-1.101-.358-.182-.646-.219-1.575-.205a20.11 20.11 0 0 0-1.645.191s.504.352.728.482a9.65 9.65 0 0 0 1.551.655c.522.161.823.144 1.052-.021zm-4.33-1.819a10.808 10.808 0 0 1-.93-1.212c-.347-.46-.521-.784-.521-.784s-.254.824-.462 1.32l-.649 1.621-.188.368s1-.331 1.509-.466c.539-.142 1.633-.36 1.633-.36l-.393-.487zm-1.396-5.655c.063-.532.089-1.064-.08-1.331-.469-.518-1.036-.086-.94 1.146.032.415.134 1.123.271 1.56l.248.794.174-.598c.096-.329.243-1.036.327-1.571zM7.688 22.513h1.2c.384 0 .695.037.934.111.239.072.44.233.604.484.163.249.245.549.245.901 0 .323-.066.601-.199.833s-.311.4-.536.502c-.223.103-.566.154-1.03.154H8.49v1.913h-.803v-4.899zm.802.628v1.708h.398c.355 0 .6-.067.735-.201.137-.134.206-.352.206-.653 0-.225-.045-.407-.135-.545-.09-.141-.189-.227-.298-.258a1.874 1.874 0 0 0-.508-.05H8.49zM11.285 22.513h1.09c.528 0 .949.095 1.264.284.317.189.556.47.717.843.163.373.245.787.245 1.242 0 .479-.073.906-.22 1.281a2.027 2.027 0 0 1-.668.904c-.298.23-.725.345-1.279.345h-1.151v-4.899zm.803.649v3.6h.334c.466 0 .805-.163 1.016-.488.211-.328.316-.764.316-1.31 0-1.201-.444-1.802-1.332-1.802h-.334zM15.373 22.513h2.692v.65h-1.889v1.464h1.513v.65h-1.513v2.135h-.803v-4.899z"/>
        </symbol>
        <symbol id="icon-logo" viewBox="0 0 34 32">
            <path d="M1.488 24.081c.26-.16.56-.243.866-.239.483 0 .886.189 1.21.566l.399-.43a1.89 1.89 0 0 0-.712-.556 2.242 2.242 0 0 0-2.905 1.003 2.807 2.807 0 0 0 0 2.504c.187.359.468.66.814.871.35.213.754.323 1.164.317.318.004.634-.061.925-.191.28-.126.525-.318.715-.559l-.399-.43c-.328.382-.731.573-1.21.573a1.614 1.614 0 0 1-.866-.239 1.646 1.646 0 0 1-.605-.658 2.12 2.12 0 0 1 0-1.876c.137-.27.347-.497.605-.656zM5.4 23.883h1.468v4.183h.602v-4.183h1.474v-.594H5.4v.594zM13.911 23.732c-.318-.296-.756-.444-1.314-.444h-1.676v4.776h.614v-1.447h1.062c.557 0 .995-.148 1.314-.443s.479-.703.479-1.222c0-.518-.16-.925-.479-1.221zm-.442 2.017c-.205.183-.502.275-.891.275h-1.044v-2.14h1.044c.389 0 .686.092.891.275s.307.448.307.795c0 .345-.102.61-.307.795zM20.188 28.065v-4.776h-.565l-2.543 3.684v-3.684h-.608v4.776h.565l2.549-3.678v3.678h.602zM26.869 25.596l1.314-2.306h-.657l-1.155 2.074h-.823V23.29h-.602v2.074h-.835l-1.149-2.074h-.657l1.314 2.293-1.419 2.483h.719l1.204-2.102h.823v2.102h.602v-2.102h.817l1.204 2.102h.718l-1.419-2.47zM33.311 23.289l-2.542 3.684v-3.684h-.608v4.776h.565l2.549-3.678v3.678h.602v-4.776h-.565zM4.828 31.006a.523.523 0 0 0-.171.027.415.415 0 0 0-.138.076l.046.077a.405.405 0 0 1 .252-.09.23.23 0 0 1 .161.051c.019.02.034.043.043.069s.013.053.012.081v.046h-.242c-.102 0-.177.02-.224.059a.218.218 0 0 0-.07.159.202.202 0 0 0 .075.157c.058.043.13.065.203.061.055.002.11-.01.16-.034a.227.227 0 0 0 .102-.092v.119h.101V31.3c.003-.04-.003-.081-.016-.119s-.035-.073-.063-.102a.323.323 0 0 0-.231-.075zm.205.538a.242.242 0 0 1-.092.115.278.278 0 0 1-.149.04.231.231 0 0 1-.142-.038c-.016-.012-.029-.028-.038-.046s-.013-.038-.012-.059c0-.092.065-.138.195-.138h.239l-.001.126zM5.698 31.773h.103v-.67h.435v-.091h-.538v.761zM7.128 31.056a.371.371 0 0 0-.19-.049.371.371 0 0 0-.19.049.35.35 0 0 0-.133.137.407.407 0 0 0-.049.199.39.39 0 0 0 .051.2.35.35 0 0 0 .141.137.429.429 0 0 0 .208.05.417.417 0 0 0 .167-.032.34.34 0 0 0 .127-.092l-.059-.067a.286.286 0 0 1-.103.075.325.325 0 0 1-.131.025.3.3 0 0 1-.208-.073.28.28 0 0 1-.092-.192h.637v-.032a.411.411 0 0 0-.046-.2.336.336 0 0 0-.131-.136zm-.459.291a.271.271 0 0 1 .085-.183.253.253 0 0 1 .183-.07.26.26 0 0 1 .186.07c.05.048.08.114.084.183h-.539zM8.405 31.349h-.479v-.337h-.103v.761h.103v-.335h.479v.335h.103v-.761h-.103v.337zM8.946 31.103h.288v.67h.103v-.67h.288v-.091h-.678v.091zM10.198 31.133a.297.297 0 0 1 .149-.037c.043 0 .086.009.126.028s.072.048.096.084l.077-.052a.293.293 0 0 0-.122-.112.396.396 0 0 0-.176-.038.419.419 0 0 0-.202.049.355.355 0 0 0-.14.137.388.388 0 0 0-.05.199.399.399 0 0 0 .05.2.348.348 0 0 0 .14.137c.062.033.131.05.202.049a.392.392 0 0 0 .175-.038.283.283 0 0 0 .123-.112l-.077-.052c-.024.036-.057.065-.096.084s-.082.028-.126.028a.3.3 0 0 1-.149-.037.27.27 0 0 1-.103-.104.347.347 0 0 1 0-.31.258.258 0 0 1 .103-.104zM10.974 31.103h.288v.67h.103v-.67h.288v-.091h-.678v.091zM12.575 31.38a.203.203 0 0 0 .095-.066.168.168 0 0 0 .034-.106.164.164 0 0 0-.074-.144.355.355 0 0 0-.204-.051h-.336v.761h.346a.37.37 0 0 0 .22-.054.192.192 0 0 0-.082-.34zm-.384-.287h.229a.242.242 0 0 1 .137.032.11.11 0 0 1 .045.096.112.112 0 0 1-.046.096.236.236 0 0 1-.137.034h-.229v-.258zm.389.567a.28.28 0 0 1-.148.032h-.242v-.265h.252a.245.245 0 0 1 .142.033c.015.012.028.027.036.044s.011.037.01.056c.001.019-.003.039-.011.057s-.022.032-.038.043zM13.772 31.055a.427.427 0 0 0-.396 0 .352.352 0 0 0-.138.138.422.422 0 0 0 0 .4.35.35 0 0 0 .138.137.416.416 0 0 0 .396 0 .354.354 0 0 0 .137-.137.42.42 0 0 0 0-.4.356.356 0 0 0-.137-.138zm.046.492a.262.262 0 0 1-.101.105.306.306 0 0 1-.29 0 .255.255 0 0 1-.101-.105.347.347 0 0 1 0-.31.255.255 0 0 1 .101-.105.306.306 0 0 1 .29 0 .255.255 0 0 1 .101.105.346.346 0 0 1 0 .31zM15.719 31.349h-.479v-.337h-.103v.761h.103v-.335h.479v.335h.103v-.761h-.103v.337zM16.891 31.056a.371.371 0 0 0-.19-.049.371.371 0 0 0-.19.049.35.35 0 0 0-.133.137.407.407 0 0 0-.049.199.39.39 0 0 0 .051.2.35.35 0 0 0 .141.137.429.429 0 0 0 .208.05.417.417 0 0 0 .167-.032.34.34 0 0 0 .127-.092l-.059-.067a.286.286 0 0 1-.103.075.325.325 0 0 1-.131.025.3.3 0 0 1-.208-.073.28.28 0 0 1-.092-.192h.637v-.032a.411.411 0 0 0-.046-.2.336.336 0 0 0-.131-.136zm-.459.291a.271.271 0 0 1 .085-.183.253.253 0 0 1 .183-.07.26.26 0 0 1 .186.07c.05.048.08.114.084.183h-.539zM18.194 31.012h-.561l-.01.255a1.62 1.62 0 0 1-.038.303c-.018.072-.053.11-.105.113h-.043v.275h.097v-.183h.682v.183h.097v-.275h-.119v-.672zm-.103.672h-.474a.225.225 0 0 0 .072-.144c.015-.088.024-.178.027-.267l.009-.169h.367l-.001.58zM19.286 31.379a.21.21 0 0 0 .095-.066.17.17 0 0 0 .034-.106c.001-.028-.005-.056-.018-.082s-.032-.047-.056-.062a.355.355 0 0 0-.204-.051h-.335v.761h.346a.378.378 0 0 0 .22-.054.192.192 0 0 0-.082-.34zm-.384-.286h.229a.247.247 0 0 1 .138.032c.015.011.027.025.036.042s.012.035.01.054a.11.11 0 0 1-.045.096.237.237 0 0 1-.138.034h-.229v-.258zm.389.567a.28.28 0 0 1-.148.032h-.242v-.265h.252a.252.252 0 0 1 .142.032c.015.012.028.027.036.045s.011.037.01.056c.001.02-.003.039-.011.057s-.022.033-.039.043zM20.073 31.617v-.605h-.103v.761h.093l.506-.605v.605h.103v-.761h-.091l-.508.605zM22.258 31.012h-.112l-.224.334h-.164v-.334h-.103v.334h-.165l-.223-.334h-.111l.252.369-.274.392h.123l.233-.338h.165v.338h.103v-.338h.164l.234.338h.123l-.274-.391.252-.37zM22.842 31.617v-.605h-.103v.761h.093l.507-.605v.605h.103v-.761h-.091l-.508.605zM24.451 31.56l-.323-.548h-.104v.761h.094v-.603l.308.511h.046l.308-.509v.602h.094v-.761h-.095l-.329.548zM25.968 31.055a.427.427 0 0 0-.396 0 .35.35 0 0 0-.137.138.422.422 0 0 0 0 .4c.033.057.08.105.137.137a.416.416 0 0 0 .396 0 .354.354 0 0 0 .137-.137.42.42 0 0 0 0-.4.356.356 0 0 0-.137-.138zm.046.492a.266.266 0 0 1-.1.105.31.31 0 0 1-.292 0 .262.262 0 0 1-.101-.105.347.347 0 0 1 0-.31.262.262 0 0 1 .101-.105.31.31 0 0 1 .292 0 .253.253 0 0 1 .1.105.346.346 0 0 1 0 .31zM26.835 31.133a.293.293 0 0 1 .148-.037c.044 0 .087.009.126.028s.072.048.095.084l.077-.052a.293.293 0 0 0-.122-.112.396.396 0 0 0-.176-.038.419.419 0 0 0-.202.049.354.354 0 0 0-.137.137.398.398 0 0 0-.05.199.399.399 0 0 0 .05.2c.032.058.08.105.137.137.062.033.131.05.202.049a.392.392 0 0 0 .175-.038.283.283 0 0 0 .123-.112l-.077-.052c-.024.036-.056.065-.095.084s-.082.028-.126.028a.293.293 0 0 1-.148-.037.264.264 0 0 1-.103-.104.347.347 0 0 1 0-.31.252.252 0 0 1 .103-.104zM27.611 31.103h.288v.67h.103v-.67h.288v-.091h-.678v.091zM28.831 31.617v-.605h-.103v.761h.093l.506-.605v.605h.103v-.761h-.091l-.508.605zM22.464 8.088c-1.254.971-2.554 1.014-2.554 1.014a4.874 4.874 0 0 0 2.829-1.84c.199-.821.241-1.815.068-3.028l-.558-.472v1.812c-.164.252-.35.489-.557.707V3.232l-.557-.402v3.964c-.179.145-.365.28-.559.405V2.303l-.558-.402v5.623c-.36.189-.733.353-1.115.491V4.663l-.557.402V8.2c-.054.016-.109.033-.164.046a9.274 9.274 0 0 0-.395.123V5.467l.558-.402V.444l-.556-.401v5.423l-.559.403v2.709c-.183.075-.371.156-.558.245V6.227l-.557.402v2.475a6.106 6.106 0 0 0-.259.147c-.378-.688-.857-1.24-1.862-1.428-.955-.179-1.763.558-2.034.843a1.354 1.354 0 0 0-.352-.05l-.596.009.473.363c.081.061.321.275.374.449 0 0 .413 1.364.19 2.259l-.013.051c-.247.986-.584 2.334.801 4.459.084.188.181.378.291.571.009-.243.033-.484.072-.724l.021-.014-.015-.023c.156-.992.624-2.704 2.032-3.603 1.146-.733 3.209-1.022 4.905-1.938-1.185.129-2.041-.206-2.041-.206a4.849 4.849 0 0 0 2.934-.37 4.595 4.595 0 0 0 1.43-1.81zm-10.078 6.234c-.304-1.048-.113-1.815.052-2.472l.013-.051c.251-1.006-.063-2.09-.183-2.44a1.458 1.458 0 0 0-.124-.269s.86-1.028 1.776-.857c.847.159 1.25.623 1.586 1.238-1.718 1.101-3.176 2.774-3.122 4.85l.002.002z"/>
            <path d="m19.461 1.374-.557-.401v3.691l.557-.402V1.373z"/>
        </symbol>
        <symbol id="icon-logo__develop" viewBox="0 0 102 32">
            <path d="M78.725 28.326c-1.323-.08-1.608-.15-1.608-.523s.275-.474 1.432-.474c1.221 0 1.723.132 1.723.662h1.174c0-1.192-1.045-1.645-2.768-1.645s-2.736.348-2.736 1.394c0 1.046.791 1.394 2.782 1.506 1.482.077 1.743.143 1.743.544s-.387.533-1.624.533c-1.489 0-1.879-.234-1.879-.742h-1.177c0 1.394 1.118 1.743 2.977 1.743 1.69 0 2.848-.265 2.848-1.551.016-1.237-1.101-1.342-2.888-1.447zM84.862 26.347c-2.011 0-2.874.871-2.874 2.471s.863 2.485 2.874 2.485 2.875-.889 2.875-2.485-.867-2.471-2.875-2.471zm0 3.914c-1.221 0-1.697-.453-1.697-1.443s.47-1.433 1.697-1.433 1.7.453 1.7 1.433-.476 1.443-1.7 1.443zM89.399 26.413h-1.171v4.82h3.314v-1.039h-2.144v-3.782zM94.065 30.316l-1.836-3.904h-1.32l2.352 4.82h1.608l2.352-4.82h-1.32l-1.836 3.904zM102.402 27.399v-.986h-4.833v4.82h4.833v-.986h-3.659v-.976h3.659v-.896h-3.659v-.976h3.659zM22.334 3.946c-6.215 0-11.246 2.154-14.905 5.176V4.406H0V31.37h7.429V16.598c2.315-2.837 7.691-5.876 12.689-5.876 6.126 0 7.939 2.977 7.939 8.714V31.37h7.472l.086-14.928c-.073-9.93-6.46-12.495-13.281-12.495zM85.724 18.661h6.741v-6.096h8.012V6.092h-8.012V-.001h-6.741v6.093h-8.012v6.473h8.012v6.096zM70.729 12.011c0-6.04-5.213-8.065-14.31-8.065-8.987 0-15.05 2.025-15.05 10.714h6.655c0-4.13 2.441-4.831 8.766-4.831 5.729 0 7.277.697 7.277 3.078 0 2.729-1.224 2.963-10.026 2.963v4.207c8.987 0 10.026.237 10.026 2.963 0 2.611-1.985 3.078-7.277 3.078-5.696 0-8.766-.467-8.766-4.831h-6.655c0 8.689 6.063 10.714 15.05 10.714 9.096 0 14.31-2.025 14.31-8.065 0-2.844-1.515-4.716-3.992-5.96 2.478-1.244 3.992-3.12 3.992-5.964z"/>
        </symbol>
        <symbol id="icon-logo-mobile" viewBox="0 0 21 32">
            <path d="M20.522 15.385c-2.247 1.858-4.577 1.94-4.577 1.94 2.535-.628 4.131-2.187 5.072-3.519.358-1.57.432-3.47.122-5.791l-.999-.907v3.464a9.458 9.458 0 0 1-1 1.353V6.1l-.999-.768v7.58c-.32.276-.653.534-.998.772V4.322l-.999-.768v10.753a15.34 15.34 0 0 1-1.999.939v-6.41l-.999.768V15.6c-.097.031-.194.062-.294.092-.232.07-.468.149-.707.235v-5.555l.999-.767V.769l-1-.769v10.373l-.999.768v5.181a18.57 18.57 0 0 0-.999.468v-4.96l-.999.768v4.738c-.155.09-.309.183-.463.278-.678-1.317-1.536-2.371-3.338-2.731-1.712-.343-3.159 1.067-3.645 1.613a2.269 2.269 0 0 0-.633-.096l-1.067.016.847.691c.144.119.577.528.67.858 0 0 .742 2.609.341 4.32l-.023.098c-.443 1.886-1.046 4.464 1.435 8.528.151.357.323.723.521 1.091.016-.464.059-.927.128-1.385l.037-.027-.027-.045c.279-1.896 1.119-5.172 3.642-6.889 2.054-1.398 5.748-1.954 8.792-3.706-2.124.247-3.658-.394-3.658-.394a8.199 8.199 0 0 0 5.258-.708 8.689 8.689 0 0 0 2.558-3.462zM2.46 27.302c-.545-2.004-.202-3.47.093-4.725l.023-.098c.451-1.924-.112-3.996-.33-4.667a2.764 2.764 0 0 0-.223-.514s1.542-1.966 3.184-1.637c1.518.303 2.241 1.191 2.843 2.369-3.076 2.104-5.688 5.304-5.59 9.272z"/>
            <path d="m15.143 2.546-1-.768v7.059l1-.767V2.546z"/>
        </symbol>
        <symbol id="icon-select_arrow_base" viewBox="0 0 46 32">
            <path stroke-width="6.857" d="M41.143 4.571 22.857 22.857 4.571 4.571"/>
        </symbol>
        <symbol id="icon-select_arrow_hover" viewBox="0 0 46 32">
            <path stroke-width="6.857" d="M4.571 25.143 22.857 6.857l18.286 18.286"/>
        </symbol>
        <symbol id="icon-about-icon-01_gray" viewBox="0 0 32 32">
            <path stroke-linejoin="round" stroke-linecap="round" stroke-width="1.778" d="M8.297 8.588v13.176m0-13.176V2h5.778v13.176M8.297 8.588l5.778 6.588m0 0v12.21c0 .324-.014.634-.041.92m.041-13.13-5.778 6.588m0 .001v5.622c0 1.444.287 2.613.642 2.613h4.494c.275 0 .51-.704.601-1.694m-5.737-6.541 5.737 6.542"/>
            <path stroke-linejoin="round" stroke-linecap="round" stroke-width="1.778" d="M4.444 2v4h20.954c1.192 0 2.157-.298 2.157-.667V2.666c0-.286-.581-.529-1.398-.624A6.718 6.718 0 0 0 25.398 2H4.444zM23.704 7v11l-1.926 2 1.926 2h.963"/>
        </symbol>
        <symbol id="icon-about-icon-01_red" viewBox="0 0 32 32">
            <path stroke-linejoin="round" stroke-linecap="round" stroke-width="1.778" d="M8.297 8.588v13.176m0-13.176V2h5.778v13.176M8.297 8.588l5.778 6.588m0 0v12.21c0 .324-.014.634-.041.92m.041-13.13-5.778 6.588m0 .001v5.622c0 1.444.287 2.613.642 2.613h4.494c.275 0 .51-.704.601-1.694m-5.737-6.541 5.737 6.542"/>
            <path stroke-linejoin="round" stroke-linecap="round" stroke-width="1.778" d="M4.444 2v4h20.954c1.192 0 2.157-.298 2.157-.667V2.666c0-.286-.581-.529-1.398-.624A6.718 6.718 0 0 0 25.398 2H4.444zM23.704 7v11l-1.926 2 1.926 2h.963"/>
        </symbol>
        <symbol id="icon-about-icon-01_white" viewBox="0 0 32 32">
            <path stroke-linejoin="round" stroke-linecap="round" stroke-width="1.778" d="M8.297 8.588v13.176m0-13.176V2h5.778v13.176M8.297 8.588l5.778 6.588m0 0v12.21c0 .324-.014.634-.041.92m.041-13.13-5.778 6.588m0 .001v5.622c0 1.444.287 2.613.642 2.613h4.494c.275 0 .51-.704.601-1.694m-5.737-6.541 5.737 6.542"/>
            <path stroke-linejoin="round" stroke-linecap="round" stroke-width="1.778" d="M4.444 2v4h20.954c1.192 0 2.157-.298 2.157-.667V2.666c0-.286-.581-.529-1.398-.624A6.718 6.718 0 0 0 25.398 2H4.444zM23.704 7v11l-1.926 2 1.926 2h.963"/>
        </symbol>
        <symbol id="icon-about-icon-02_gray" viewBox="0 0 32 32">
            <path stroke-linejoin="round" stroke-linecap="round" stroke-width="2.222" d="M1.778 1.778H12.84V12.84H1.778V1.778zM19.156 1.778h11.062V12.84H19.156V1.778zM19.156 19.161h11.062v11.062H19.156V19.161zM1.778 19.161H12.84v11.062H1.778V19.161z"/>
        </symbol>
        <symbol id="icon-about-icon-02_red" viewBox="0 0 32 32">
            <path stroke-linejoin="round" stroke-linecap="round" stroke-width="2.222" d="M1.778 1.778H12.84V12.84H1.778V1.778zM19.156 1.778h11.062V12.84H19.156V1.778zM19.156 19.161h11.062v11.062H19.156V19.161zM1.778 19.161H12.84v11.062H1.778V19.161z"/>
        </symbol>
        <symbol id="icon-about-icon-02_white" viewBox="0 0 32 32">
            <path stroke-linejoin="round" stroke-linecap="round" stroke-width="2.222" d="M1.778 1.778H12.84V12.84H1.778V1.778zM19.156 1.778h11.062V12.84H19.156V1.778zM19.156 19.161h11.062v11.062H19.156V19.161zM1.778 19.161H12.84v11.062H1.778V19.161z"/>
        </symbol>
        <symbol id="icon-about-icon-03_gray" viewBox="0 0 32 32">
            <path stroke-linejoin="round" stroke-linecap="round" stroke-width="2.526" d="m16.1 1.684 4.633 8.781 9.783 1.693-6.92 7.12 1.413 9.827-8.91-4.381-8.91 4.381 1.413-9.827-6.92-7.12 9.783-1.693 4.633-8.781z"/>
        </symbol>
        <symbol id="icon-about-icon-03_red" viewBox="0 0 32 32">
            <path stroke-linejoin="round" stroke-linecap="round" stroke-width="2.526" d="m16.1 1.684 4.633 8.781 9.783 1.693-6.92 7.12 1.413 9.827-8.91-4.381-8.91 4.381 1.413-9.827-6.92-7.12 9.783-1.693 4.633-8.781z"/>
        </symbol>
        <symbol id="icon-about-icon-03_white" viewBox="0 0 32 32">
            <path stroke-linejoin="round" stroke-linecap="round" stroke-width="2.526" d="m16.1 1.684 4.633 8.781 9.783 1.693-6.92 7.12 1.413 9.827-8.91-4.381-8.91 4.381 1.413-9.827-6.92-7.12 9.783-1.693 4.633-8.781z"/>
        </symbol>
        <symbol id="icon-about-icon-04_gray" viewBox="0 0 32 32">
            <path d="M12.235 1.882V.47c-.78 0-1.412.632-1.412 1.412h1.412zm0 10.353v1.412c.78 0 1.412-.632 1.412-1.412h-1.412zm-10.353 0v-1.412c-.78 0-1.412.632-1.412 1.412h1.412zm0 17.883H.47c0 .78.632 1.412 1.412 1.412v-1.412zm28.236 0v1.412c.78 0 1.412-.632 1.412-1.412h-1.412zm0-28.236h1.412c0-.78-.632-1.412-1.412-1.412v1.412zm-6.589 12.706a1.412 1.412 0 1 0 0 2.824v-2.824zm-6.117 8.941a1.412 1.412 0 1 0-2.824 0h2.824zM10.824 1.882v10.353h2.824V1.882h-2.824zm1.411 8.942H1.882v2.824h10.353v-2.824zM.471 12.235v17.882h2.824V12.235H.471zM30.118.471H12.236v2.824h17.882V.471zm1.411 29.647V16h-2.824v14.118h2.824zm0-14.118V1.882h-2.824V16h2.824zm-1.411-1.412H23.53v2.824h6.588v-2.824zM1.882 31.529H16v-2.824H1.882v2.824zm14.118 0h14.118v-2.824H16v2.824zm0-1.411h1.412V23.542h-2.824V30.118c0 .001 0 0 0 0H16z"/>
        </symbol>
        <symbol id="icon-about-icon-04_red" viewBox="0 0 32 32">
            <path d="M12.235 1.882V.47c-.78 0-1.412.632-1.412 1.412h1.412zm0 10.353v1.412c.78 0 1.412-.632 1.412-1.412h-1.412zm-10.353 0v-1.412c-.78 0-1.412.632-1.412 1.412h1.412zm0 17.883H.47c0 .78.632 1.412 1.412 1.412v-1.412zm28.236 0v1.412c.78 0 1.412-.632 1.412-1.412h-1.412zm0-28.236h1.412c0-.78-.632-1.412-1.412-1.412v1.412zm-6.589 12.706a1.412 1.412 0 1 0 0 2.824v-2.824zm-6.117 8.941a1.412 1.412 0 1 0-2.824 0h2.824zM10.824 1.882v10.353h2.824V1.882h-2.824zm1.411 8.942H1.882v2.824h10.353v-2.824zM.471 12.235v17.882h2.824V12.235H.471zM30.118.471H12.236v2.824h17.882V.471zm1.411 29.647V16h-2.824v14.118h2.824zm0-14.118V1.882h-2.824V16h2.824zm-1.411-1.412H23.53v2.824h6.588v-2.824zM1.882 31.529H16v-2.824H1.882v2.824zm14.118 0h14.118v-2.824H16v2.824zm0-1.411h1.412V23.542h-2.824V30.118c0 .001 0 0 0 0H16z"/>
        </symbol>
        <symbol id="icon-about-icon-04_white" viewBox="0 0 32 32">
            <path d="M12.235 1.882V.47c-.78 0-1.412.632-1.412 1.412h1.412zm0 10.353v1.412c.78 0 1.412-.632 1.412-1.412h-1.412zm-10.353 0v-1.412c-.78 0-1.412.632-1.412 1.412h1.412zm0 17.883H.47c0 .78.632 1.412 1.412 1.412v-1.412zm28.236 0v1.412c.78 0 1.412-.632 1.412-1.412h-1.412zm0-28.236h1.412c0-.78-.632-1.412-1.412-1.412v1.412zm-6.589 12.706a1.412 1.412 0 1 0 0 2.824v-2.824zm-6.117 8.941a1.412 1.412 0 1 0-2.824 0h2.824zM10.824 1.882v10.353h2.824V1.882h-2.824zm1.411 8.942H1.882v2.824h10.353v-2.824zM.471 12.235v17.882h2.824V12.235H.471zM30.118.471H12.236v2.824h17.882V.471zm1.411 29.647V16h-2.824v14.118h2.824zm0-14.118V1.882h-2.824V16h2.824zm-1.411-1.412H23.53v2.824h6.588v-2.824zM1.882 31.529H16v-2.824H1.882v2.824zm14.118 0h14.118v-2.824H16v2.824zm0-1.411h1.412V23.542h-2.824V30.118c0 .001 0 0 0 0H16z"/>
        </symbol>
        <symbol id="icon-about-icon-05_gray" viewBox="0 0 32 32">
            <path stroke-linejoin="round" stroke-linecap="round" stroke-width="2.824" d="M27.618 6.678c-12.329 0-13.474 20.253-24.377 20.253M29.193 6.491l-3.445 4.653M29.191 6.491l-4.438-3.905M3.241 4.5c4.387 0 7.194 3.279 9.786 7.197m14.591 13.055c-4.072 0-6.923-2.209-9.31-5.167 0 0 2.021 2.549 3.849 3.585 1.898 1.075 5.461 1.582 5.461 1.582zM29.193 24.94l-3.445-4.653M29.191 24.939l-4.438 3.905"/>
        </symbol>
        <symbol id="icon-about-icon-05_red" viewBox="0 0 32 32">
            <path stroke-linejoin="round" stroke-linecap="round" stroke-width="2.824" d="M27.618 6.678c-12.329 0-13.474 20.253-24.377 20.253M29.193 6.491l-3.445 4.653M29.191 6.491l-4.438-3.905M3.241 4.5c4.387 0 7.194 3.279 9.786 7.197m14.591 13.055c-4.072 0-6.923-2.209-9.31-5.167 0 0 2.021 2.549 3.849 3.585 1.898 1.075 5.461 1.582 5.461 1.582zM29.193 24.94l-3.445-4.653M29.191 24.939l-4.438 3.905"/>
        </symbol>
        <symbol id="icon-about-icon-05_white" viewBox="0 0 32 32">
            <path stroke-linejoin="round" stroke-linecap="round" stroke-width="2.824" d="M27.618 6.678c-12.329 0-13.474 20.253-24.377 20.253M29.193 6.491l-3.445 4.653M29.191 6.491l-4.438-3.905M3.241 4.5c4.387 0 7.194 3.279 9.786 7.197m14.591 13.055c-4.072 0-6.923-2.209-9.31-5.167 0 0 2.021 2.549 3.849 3.585 1.898 1.075 5.461 1.582 5.461 1.582zM29.193 24.94l-3.445-4.653M29.191 24.939l-4.438 3.905"/>
        </symbol>
        <symbol id="icon-about-icon-06_gray" viewBox="0 0 32 32">
            <path stroke-linejoin="round" stroke-linecap="round" stroke-width="2.4" d="M28 13.382C28 22.546 16 30.4 16 30.4S4 22.545 4 13.382C4 6.874 9.372 1.6 16 1.6s12 5.274 12 11.782z"/>
            <path stroke-linejoin="round" stroke-linecap="round" stroke-width="2.4" d="M15.998 17.309c2.209 0 4-1.758 4-3.927s-1.791-3.927-4-3.927-4 1.758-4 3.927 1.791 3.927 4 3.927z"/>
        </symbol>
        <symbol id="icon-about-icon-06_red" viewBox="0 0 32 32">
            <path stroke-linejoin="round" stroke-linecap="round" stroke-width="2.4" d="M28 13.382C28 22.546 16 30.4 16 30.4S4 22.545 4 13.382C4 6.874 9.372 1.6 16 1.6s12 5.274 12 11.782z"/>
            <path stroke-linejoin="round" stroke-linecap="round" stroke-width="2.4" d="M15.998 17.309c2.209 0 4-1.758 4-3.927s-1.791-3.927-4-3.927-4 1.758-4 3.927 1.791 3.927 4 3.927z"/>
        </symbol>
        <symbol id="icon-about-icon-06_white" viewBox="0 0 32 32">
            <path stroke-linejoin="round" stroke-linecap="round" stroke-width="2.4" d="M28 13.382C28 22.546 16 30.4 16 30.4S4 22.545 4 13.382C4 6.874 9.372 1.6 16 1.6s12 5.274 12 11.782z"/>
            <path stroke-linejoin="round" stroke-linecap="round" stroke-width="2.4" d="M15.998 17.309c2.209 0 4-1.758 4-3.927s-1.791-3.927-4-3.927-4 1.758-4 3.927 1.791 3.927 4 3.927z"/>
        </symbol>
        <symbol id="icon-about-icon-07_gray" viewBox="0 0 32 32">
            <path stroke-linejoin="round" stroke-linecap="round" stroke-width="2.667" d="M1.778 8.533v19.911l9.05-4.978 10.343 4.978 9.05-4.978V3.555l-9.05 4.978-10.343-4.978-9.05 4.978zM10.828 3.556v19.911M21.172 8.533v19.911"/>
        </symbol>
        <symbol id="icon-about-icon-07_red" viewBox="0 0 32 32">
            <path stroke-linejoin="round" stroke-linecap="round" stroke-width="2.667" d="M1.778 8.533v19.911l9.05-4.978 10.343 4.978 9.05-4.978V3.555l-9.05 4.978-10.343-4.978-9.05 4.978zM10.828 3.556v19.911M21.172 8.533v19.911"/>
        </symbol>
        <symbol id="icon-about-icon-07_white" viewBox="0 0 32 32">
            <path stroke-linejoin="round" stroke-linecap="round" stroke-width="2.667" d="M1.778 8.533v19.911l9.05-4.978 10.343 4.978 9.05-4.978V3.555l-9.05 4.978-10.343-4.978-9.05 4.978zM10.828 3.556v19.911M21.172 8.533v19.911"/>
        </symbol>
        <symbol id="icon-about-icon-08_gray" viewBox="0 0 32 32">
            <path stroke-linejoin="round" stroke-linecap="round" stroke-width="2.222" d="M24.296 4.338h2.37v7.681L14.814 13.58m9.482-9.242v-2.56H5.334v6.4h18.963l-.001-3.84zm-9.481 9.242-2.37 2.56 1.185 14.082H16l1.185-14.082-2.37-2.56z"/>
        </symbol>
        <symbol id="icon-about-icon-08_red" viewBox="0 0 32 32">
            <path stroke-linejoin="round" stroke-linecap="round" stroke-width="2.222" d="M24.296 4.338h2.37v7.681L14.814 13.58m9.482-9.242v-2.56H5.334v6.4h18.963l-.001-3.84zm-9.481 9.242-2.37 2.56 1.185 14.082H16l1.185-14.082-2.37-2.56z"/>
        </symbol>
        <symbol id="icon-about-icon-08_white" viewBox="0 0 32 32">
            <path stroke-linejoin="round" stroke-linecap="round" stroke-width="2.222" d="M24.296 4.338h2.37v7.681L14.814 13.58m9.482-9.242v-2.56H5.334v6.4h18.963l-.001-3.84zm-9.481 9.242-2.37 2.56 1.185 14.082H16l1.185-14.082-2.37-2.56z"/>
        </symbol>
        <symbol id="icon-angle-down" viewBox="0 0 20 32">
            <path d="m9.469 21.738-9.25-9.175a.75.75 0 0 1 0-1.063l1.238-1.238a.75.75 0 0 1 1.062 0L10 17.668l7.481-7.406a.75.75 0 0 1 1.063 0l1.238 1.238a.75.75 0 0 1 0 1.063l-9.25 9.175a.75.75 0 0 1-1.063 0z"/>
        </symbol>
        <symbol id="icon-angle-left" viewBox="0 0 12 32">
            <path d="m.263 15.469 9.175-9.25a.75.75 0 0 1 1.063 0l1.238 1.237a.75.75 0 0 1 0 1.063L4.333 16l7.406 7.481a.75.75 0 0 1 0 1.063l-1.238 1.238a.75.75 0 0 1-1.063 0l-9.175-9.25a.75.75 0 0 1 0-1.063z"/>
        </symbol>
        <symbol id="icon-angle-right" viewBox="0 0 12 32">
            <path d="m11.738 16.531-9.175 9.25a.75.75 0 0 1-1.063 0L.262 24.543a.75.75 0 0 1 0-1.063l7.406-7.481L.262 8.518a.75.75 0 0 1 0-1.063L1.5 6.218a.75.75 0 0 1 1.062 0l9.175 9.25a.75.75 0 0 1 0 1.063z"/>
        </symbol>
        <symbol id="icon-angle-up" viewBox="0 0 20 32">
            <path d="m10.531 10.262 9.25 9.175a.75.75 0 0 1 0 1.063l-1.238 1.238a.75.75 0 0 1-1.063 0l-7.481-7.406-7.481 7.406a.75.75 0 0 1-1.063 0L.217 20.5a.75.75 0 0 1 0-1.063l9.25-9.175a.75.75 0 0 1 1.063 0z"/>
        </symbol>
        <symbol id="icon-arrow-right" viewBox="0 0 32 32">
            <path d="M31.399 16.679a.96.96 0 0 0 0-1.358L25.29 9.212a.96.96 0 0 0-1.358 1.358l5.431 5.431-5.431 5.431a.96.96 0 0 0 1.358 1.358l6.109-6.109zM0 16.96h30.72v-1.92H0v1.92z"/>
        </symbol>
        <symbol id="icon-calendar" viewBox="0 0 32 32">
            <path d="M3.765 5.909c0-1.098.889-1.987 1.987-1.987V2.04a3.868 3.868 0 0 0-3.869 3.869h1.882zm1.987-1.987h20.497V2.04H5.752v1.882zm20.496 0c1.098 0 1.987.889 1.987 1.987h1.882a3.868 3.868 0 0 0-3.869-3.869v1.882zm1.987 1.987v20.497h1.882V5.909h-1.882zm0 20.497a1.986 1.986 0 0 1-1.987 1.987v1.882a3.868 3.868 0 0 0 3.869-3.869h-1.882zm-1.987 1.987H5.751v1.882h20.497v-1.882zm-20.496 0a1.986 1.986 0 0 1-1.987-1.987H1.883a3.868 3.868 0 0 0 3.869 3.869v-1.882zm-1.987-1.987V5.909H1.883v20.497h1.882zM20.706.785v5.647h1.882V.785h-1.882zm-11.294 0v5.647h1.882V.785H9.412zM2.824 12.707h26.353v-1.882H2.824v1.882zm5.647 6.901h3.765v-1.882H8.471v1.882zm0 1.883h3.765v-1.882H8.471v1.882z"/>
        </symbol>
        <symbol id="icon-clear" viewBox="0 0 32 32">
            <path stroke-linejoin="round" stroke-linecap="round" stroke-width="5.333" d="M26.667 5.333 5.334 26.666M5.333 5.333l21.333 21.333"/>
        </symbol>
        <symbol id="icon-close" viewBox="0 0 32 32">
            <path stroke-linejoin="round" stroke-linecap="round" stroke-width="4.571" d="M29.714 2.286 2.285 29.715M2.286 2.286l27.429 27.429"/>
        </symbol>
        <symbol id="icon-distanceicon" viewBox="0 0 32 32">
            <path d="M20.854 3.2a3.2 3.2 0 1 1-6.4 0 3.2 3.2 0 0 1 6.4 0zM5.92 13.867c1.707-3.413 7.111-5.689 9.6-6.4.711 0 2.347.427 3.201 2.133.853 3.413 4.622 5.689 6.4 6.4.711.711 1.493 2.133-1.067 2.133s-5.333-2.844-6.4-4.267l-1.067 4.267c4.267 3.2 4.267 6.4 5.333 8.533.853 1.707.356 2.844 0 3.2-.711.356-2.347.213-3.2-3.2-1.067-4.267-4.267-5.333-6.4-7.467-1.707-1.707-.711-4.978 0-6.4-1.707-.853-3.556 1.778-4.267 3.2-1.422.711-3.84 1.28-2.133-2.133z"/>
            <path d="m14.454 23.467-3.2-3.2c0 3.413-2.133 6.044-3.2 6.4-1.067.711-2.56 2.347 0 3.2s5.333-4.267 6.4-6.4z"/>
        </symbol>
        <symbol id="icon-eye" viewBox="0 0 36 32">
            <path d="M35.585 14.477C32.061 8.497 25.489 4.5 18 4.5c-7.491 0-14.062 4-17.585 9.977C.154 14.913 0 15.438 0 16s.154 1.087.423 1.537l-.008-.014C3.939 23.503 10.512 27.5 18 27.5c7.491 0 14.062-4 17.585-9.977.261-.436.415-.961.415-1.523s-.154-1.087-.423-1.537l.008.014zM18 24.5c-6.41 0-12.006-3.419-15-8.5 2.76-4.683 7.73-7.954 13.51-8.438A3.5 3.5 0 1 1 10.5 10v-.003a8.5 8.5 0 1 0 14.257-1.154A17.281 17.281 0 0 1 33 16c-2.994 5.081-8.59 8.5-15 8.5z"/>
        </symbol>
        <symbol id="icon-filter" viewBox="0 0 32 32">
            <path stroke-linejoin="round" stroke-linecap="round" stroke-width="2.526" d="M5.523 27.789v-9.17M5.523 13.38V4.21M16 27.789V16M16 10.76V4.21M26.48 27.789v-6.55M26.48 16V4.211M1.592 18.62h7.86M12.072 10.76h7.86M22.553 21.24h7.86"/>
        </symbol>
        <symbol id="icon-finishing" viewBox="0 0 32 32">
            <path stroke-linejoin="round" stroke-linecap="round" stroke-width="2" d="M24.556 4.52H27v7.561l-12.222 1.537m9.778-9.098V2H5.001v6.3h19.556V4.52zm-9.778 9.098-2.444 2.52L13.556 30h2.445l1.222-13.862-2.444-2.52z"/>
        </symbol>
        <symbol id="icon-forward" viewBox="0 0 32 32">
            <path stroke-width="1.185" d="M.593 16C.593 7.491 7.491.593 16 .593S31.407 7.491 31.407 16 24.509 31.407 16 31.407.593 24.509.593 16z"/>
            <path stroke-linejoin="round" stroke-linecap="round" stroke-width="2.37" d="m14.222 11.852 4.126 4.126-4.126 4.126"/>
        </symbol>
        <symbol id="icon-info-circle" viewBox="0 0 32 32">
            <path d="M16 .5C7.44.5.5 7.443.5 16c0 8.562 6.94 15.5 15.5 15.5S31.5 24.562 31.5 16C31.5 7.443 24.56.5 16 .5zm0 6.875a2.625 2.625 0 1 1 0 5.25 2.625 2.625 0 0 1 0-5.25zm3.5 15.875a.75.75 0 0 1-.75.75h-5.5a.75.75 0 0 1-.75-.75v-1.5a.75.75 0 0 1 .75-.75H14v-4h-.75a.75.75 0 0 1-.75-.75v-1.5a.75.75 0 0 1 .75-.75h4a.75.75 0 0 1 .75.75V21h.75a.75.75 0 0 1 .75.75v1.5z"/>
        </symbol>
        <symbol id="icon-list" viewBox="0 0 32 32">
            <path stroke-linejoin="round" stroke-linecap="round" stroke-width="2.133" d="M9.6 4.8h20.8M9.6 16h20.8M9.6 27.2h20.8M3.2 4.8H1.6M3.2 16H1.6M3.2 27.2H1.6"/>
        </symbol>
        <symbol id="icon-map-marker-alt" viewBox="0 0 24 32">
            <path d="M12 6c-3.308 0-6 2.692-6 6s2.692 6 6 6 6-2.692 6-6-2.692-6-6-6zm0 10c-2.206 0-4-1.794-4-4s1.794-4 4-4 4 1.794 4 4-1.794 4-4 4zm0-16C5.373 0 0 5.373 0 12c0 4.838 1.686 6.189 10.767 19.354a1.501 1.501 0 0 0 2.467 0C22.315 18.189 24.001 16.838 24.001 12c0-6.627-5.373-12-12-12zm0 29.621C3.294 17.031 2 16.031 2 12c0-2.671 1.04-5.182 2.929-7.071S9.329 2 12 2s5.182 1.04 7.071 2.929S22 9.329 22 12c0 4.031-1.293 5.029-10 17.621z"/>
        </symbol>
        <symbol id="icon-more" viewBox="0 0 32 32">
            <path stroke-linejoin="round" stroke-linecap="round" stroke-width="5" d="M28 22v.02M16 22v.02M4 22v.02"/>
        </symbol>
        <symbol id="icon-print" viewBox="0 0 32 32">
            <path stroke-linejoin="round" stroke-linecap="round" stroke-width="2.286" d="M7.772 11.886v-9.6h16.457v9.6"/>
            <path stroke-linejoin="round" stroke-linecap="round" stroke-width="2.286" d="M7.771 24.229H5.028a2.742 2.742 0 0 1-2.743-2.743v-6.857a2.742 2.742 0 0 1 2.743-2.743h21.943a2.742 2.742 0 0 1 2.743 2.743v6.857a2.742 2.742 0 0 1-2.743 2.743h-2.743"/>
            <path stroke-linejoin="round" stroke-linecap="round" stroke-width="2.286" d="M7.772 18.743h16.457v10.971H7.772V18.743z"/>
        </symbol>
        <symbol id="icon-share" viewBox="0 0 32 32">
            <path stroke-linejoin="round" stroke-linecap="round" stroke-width="2.286" d="M24.214 10.514c2.174 0 3.929-1.842 3.929-4.114s-1.755-4.114-3.929-4.114-3.929 1.842-3.929 4.114 1.755 4.114 3.929 4.114zM8.5 20.115c2.174 0 3.929-1.842 3.929-4.114s-1.755-4.114-3.929-4.114-3.929 1.842-3.929 4.114 1.755 4.114 3.929 4.114zM24.214 29.714c2.174 0 3.929-1.842 3.929-4.114s-1.755-4.114-3.929-4.114-3.929 1.842-3.929 4.114 1.755 4.114 3.929 4.114zM11.891 18.07l8.944 5.458M20.822 8.471l-8.931 5.458"/>
        </symbol>
        <symbol id="icon-smartphone" viewBox="0 0 32 32">
            <path stroke-width="2.182" d="M11.636 30.545h8.727m-8.727 0a4.364 4.364 0 0 1-4.364-4.364m4.364 4.364V29.09m-4.363-2.908V5.818c0-.587.116-1.147.326-1.658m-.326 22.022 4.364 2.909m13.09-2.909V5.818c0-.376-.048-.741-.137-1.09m.137 21.454a4.364 4.364 0 0 1-4.364 4.364m4.364-4.364-4.364 2.909m.001 1.454V29.09m0-27.635h-8.727m8.727 0V2.91m0-1.455a4.364 4.364 0 0 1 4.226 3.274M11.636 1.455V2.91m0-1.455a4.366 4.366 0 0 0-4.038 2.706m4.038 22.021h8.727m-8.727 0a4.364 4.364 0 0 1-4.364-4.364V8.727a4.364 4.364 0 0 1 4.364-4.364m0 21.819v2.909m8.728-2.909a4.364 4.364 0 0 0 4.364-4.364V8.727a4.364 4.364 0 0 0-4.364-4.364m0 21.819v2.909m0-24.727h-8.727m8.727 0V2.909m-8.728 1.455V2.909m0 0L7.598 4.16m12.766-1.251 4.226 1.819"/>
        </symbol>
        <symbol id="icon-tile" viewBox="0 0 32 32">
            <path stroke-linejoin="round" stroke-linecap="round" stroke-width="2.286" d="M1.777 1.778h11.062V12.84H1.777V1.778zM19.161 1.778h11.062V12.84H19.161V1.778zM19.161 19.16h11.062v11.062H19.161V19.16zM1.777 19.16h11.062v11.062H1.777V19.16z"/>
        </symbol>
        <symbol id="icon-time" viewBox="0 0 32 32">
            <path stroke-linejoin="round" stroke-linecap="round" stroke-width="2.667" d="M16 29.333c7.364 0 13.333-5.969 13.333-13.333S23.364 2.667 16 2.667 2.667 8.636 2.667 16 8.636 29.333 16 29.333z"/>
            <path stroke-linejoin="round" stroke-linecap="round" stroke-width="2.667" d="M16 8v8l5.333 5.333"/>
        </symbol>
    </defs>
</svg>
