<svg width="15" height="18" fill="none" xmlns="http://www.w3.org/2000/svg">
    <path d="M3.167 4.83v7.413m0-7.412V1.125h3.25v7.412M3.167 4.83l3.25 3.706m0 0v6.868c0 .182-.008.356-.023.517m.023-7.385-3.25 3.706m0 0v3.162c0 .812.162 1.47.361 1.47h2.528c.155 0 .287-.396.338-.953m-3.227-3.68 3.227 3.68" stroke="#fff" stroke-linecap="round" stroke-linejoin="round"/>
    <path d="M1 1.125v2.25H12.787C13.457 3.375 14 3.207 14 3V1.5c0-.16-.327-.298-.786-.351a3.724 3.724 0 0 0-.427-.024H1zM11.833 3.938v6.187L10.75 11.25l1.083 1.125h.542" stroke="#fff" stroke-linecap="round" stroke-linejoin="round"/>
</svg>
