<svg width="17" height="17" fill="none" xmlns="http://www.w3.org/2000/svg">
    <path d="M6.5 1V.25a.75.75 0 0 0-.75.75h.75zm0 5.5v.75a.75.75 0 0 0 .75-.75H6.5zM1 6.5v-.75a.75.75 0 0 0-.75.75H1zM1 16H.25c0 .414.336.75.75.75V16zm15 0v.75a.75.75 0 0 0 .75-.75H16zm0-15h.75A.75.75 0 0 0 16 .25V1zm-3.5 6.75a.75.75 0 0 0 0 1.5v-1.5zM9.25 12.5a.75.75 0 0 0-1.5 0h1.5zM5.75 1v5.5h1.5V1h-1.5zm.75 4.75H1v1.5h5.5v-1.5zM.25 6.5V16h1.5V6.5H.25zM16 .25H6.5v1.5H16V.25zM16.75 16V8.5h-1.5V16h1.5zm0-7.5V1h-1.5v7.5h1.5zM16 7.75h-3.5v1.5H16v-1.5zm-15 9h7.5v-1.5H1v1.5zm7.5 0H16v-1.5H8.5v1.5zm0-.75h.75V12.5h-1.5V16h.75z" fill="#818285"/>
</svg>
