<svg width="16" height="17" fill="none" xmlns="http://www.w3.org/2000/svg">
    <path d="M1.5 3.14c0-.584.472-1.056 1.056-1.056v-1C1.42 1.084.5 2.004.5 3.139h1zm1.056-1.056h10.888v-1H2.556v1zm10.888 0c.584 0 1.056.472 1.056 1.055h1c0-1.135-.92-2.055-2.056-2.055v1zM14.5 3.139v10.89h1V3.138h-1zm0 10.89c0 .582-.472 1.055-1.056 1.055v1c1.136 0 2.056-.92 2.056-2.056h-1zm-1.056 1.055H2.556v1h10.888v-1zm-10.888 0A1.055 1.055 0 0 1 1.5 14.028h-1c0 1.136.92 2.056 2.056 2.056v-1zM1.5 14.028V3.14h-1v10.89h1zm9-13.611v3h1v-3h-1zm-6 0v3h1v-3h-1zM1 6.75h14v-1H1v1zm3 3.667h2v-1H4v1zm0 1h2v-1H4v1z" fill="#FF502F"/>
</svg>
