<svg width="18" height="22" viewBox="0 0 18 22" fill="none" xmlns="http://www.w3.org/2000/svg">
<g opacity="0.5">
<path d="M3.66699 6.05891V9.00897V14.8432M3.66699 6.05891V1.66675H7.66699V10.4511M3.66699 6.05891L7.66699 10.4511M7.66699 10.4511V18.5912C7.66699 18.807 7.65699 19.0136 7.63871 19.2043M7.66699 10.4511L3.66699 14.8432M3.66699 14.8432V18.5912C3.66699 19.5538 3.86588 20.3334 4.11144 20.3334H7.22255C7.41305 20.3334 7.57546 19.8642 7.63871 19.2043M3.66699 14.8432L7.63871 19.2043" stroke="#818285" stroke-linecap="round" stroke-linejoin="round"/>
<path d="M1 1.66671L1 4.33337L3.46154 4.33337L7.29333 4.33337L10.4118 4.33337L13.9004 4.33337L15.5067 4.33337C16.3317 4.33337 17 4.13448 17 3.88893L17 3.33337L17 2.11115C17 1.92065 16.5978 1.75824 16.0322 1.69498C15.8688 1.6767 15.6917 1.66671 15.5067 1.66671L14.1765 1.66671L7.66667 1.66671L1 1.66671Z" stroke="#818285" stroke-linecap="round" stroke-linejoin="round"/>
<path d="M14.3333 5V12.3333L13 13.6667L14.3333 15H15" stroke="#818285" stroke-linecap="round" stroke-linejoin="round"/>
</g>
</svg>
