<svg width="10" height="15" fill="none" xmlns="http://www.w3.org/2000/svg">
    <path d="M7.275 1.5a1.5 1.5 0 1 1-3 0 1.5 1.5 0 0 1 3 0zM.275 6.5c.8-1.6 3.333-2.667 4.5-3 .334 0 1.1.2 1.5 1 .4 1.6 2.167 2.667 3 3 .334.333.7 1-.5 1s-2.5-1.333-3-2l-.5 2c2 1.5 2 3 2.5 4 .4.8.167 1.333 0 1.5-.333.167-1.1.1-1.5-1.5-.5-2-2-2.5-3-3.5-.8-.8-.333-2.333 0-3-.8-.4-1.666.833-2 1.5-.667.333-1.8.6-1-1z" fill="#818285"/>
    <path d="m4.275 11-1.5-1.5c0 1.6-1 2.833-1.5 3-.5.333-1.2 1.1 0 1.5 1.2.4 2.5-2 3-3z" fill="#818285"/>
</svg>
