<svg width="10" height="15" viewBox="0 0 10 15" fill="none" xmlns="http://www.w3.org/2000/svg">
<path d="M7.27539 1.5C7.27539 2.32843 6.60382 3 5.77539 3C4.94696 3 4.27539 2.32843 4.27539 1.5C4.27539 0.671573 4.94696 0 5.77539 0C6.60382 0 7.27539 0.671573 7.27539 1.5Z" fill="#818285"/>
<path d="M0.275156 6.5C1.07516 4.9 3.60849 3.83333 4.77516 3.5C5.10857 3.5 5.87539 3.7 6.27539 4.5C6.67539 6.1 8.44206 7.16667 9.27539 7.5C9.60872 7.83333 9.97539 8.5 8.77539 8.5C7.57539 8.5 6.27539 7.16667 5.77539 6.5L5.27539 8.5C7.27539 10 7.27539 11.5 7.77539 12.5C8.17539 13.3 7.94206 13.8333 7.77539 14C7.44206 14.1667 6.67539 14.1 6.27539 12.5C5.77539 10.5 4.27539 10 3.27539 9C2.47539 8.2 2.94206 6.66667 3.27539 6C2.47539 5.6 1.60857 6.83333 1.27516 7.5C0.608489 7.83333 -0.524844 8.1 0.275156 6.5Z" fill="#818285"/>
<path d="M4.27539 11L2.77539 9.5C2.77539 11.1 1.77539 12.3333 1.27539 12.5C0.775391 12.8333 0.0753906 13.6 1.27539 14C2.47539 14.4 3.77539 12 4.27539 11Z" fill="#818285"/>
</svg>
