<svg width="18" height="22" viewBox="0 0 18 22" fill="none" xmlns="http://www.w3.org/2000/svg">
<g opacity="0.5">
<path d="M3.66699 6.05866V9.00873V14.843M3.66699 6.05866V1.6665H7.66699V10.4508M3.66699 6.05866L7.66699 10.4508M7.66699 10.4508V18.5909C7.66699 18.8068 7.65699 19.0134 7.63871 19.2041M7.66699 10.4508L3.66699 14.843M3.66699 14.843V18.5909C3.66699 19.5535 3.86588 20.3332 4.11144 20.3332H7.22255C7.41305 20.3332 7.57546 19.8639 7.63871 19.2041M3.66699 14.843L7.63871 19.2041" stroke="#818285" stroke-linecap="round" stroke-linejoin="round"/>
<path d="M1 1.66659L1 4.33325L3.46154 4.33325L7.29333 4.33325L10.4118 4.33325L13.9004 4.33325L15.5067 4.33325C16.3317 4.33325 17 4.13436 17 3.88881L17 3.33325L17 2.11103C17 1.92053 16.5978 1.75811 16.0322 1.69486C15.8688 1.67658 15.6917 1.66659 15.5067 1.66659L14.1765 1.66659L7.66667 1.66659L1 1.66659Z" stroke="#818285" stroke-linecap="round" stroke-linejoin="round"/>
<path d="M14.3333 5V12.3333L13 13.6667L14.3333 15H15" stroke="#818285" stroke-linecap="round" stroke-linejoin="round"/>
</g>
</svg>
