<svg width="20" height="20" viewBox="0 0 20 20" fill="none" xmlns="http://www.w3.org/2000/svg">
<g clip-path="url(#clip0_3446_9417)">
<path d="M0 9.58333C0 5.06571 0 2.80689 1.40345 1.40345C2.80689 0 5.06571 0 9.58333 0H10.4167C14.9343 0 17.1931 0 18.5965 1.40345C20 2.80689 20 5.06571 20 9.58333V10.4167C20 14.9343 20 17.1931 18.5965 18.5965C17.1931 20 14.9343 20 10.4167 20H9.58333C5.06571 20 2.80689 20 1.40345 18.5965C0 17.1931 0 14.9343 0 10.4167L0 9.58333Z" fill="#3B5998"/>
<path fill-rule="evenodd" clip-rule="evenodd" d="M13.5004 4H11.6538C9.95427 4 8.57609 5.3644 8.57609 7.04689V8.87503H6.72949V11.3125H8.57609V16.1876H11.0382V11.3125H12.8848L13.5004 8.87503H11.0382V7.04689C11.0382 6.71051 11.314 6.43751 11.6538 6.43751H13.5004V4Z" fill="white"/>
</g>
<defs>
<clipPath id="clip0_3446_9417">
<rect width="20" height="20" fill="white"/>
</clipPath>
</defs>
</svg>
