<svg width="40" height="40" fill="none" xmlns="http://www.w3.org/2000/svg">
    <rect width="40" height="40" rx="20" fill="#FFC426"/>
    <path d="M13.704 17.917a6.728 6.728 0 0 0-.556 2.187 6.773 6.773 0 0 0 10.713 6.048m-10.157-8.235a6.779 6.779 0 0 1 2.049-2.61m-2.049 2.61 2.049-2.61m-2.049 2.61 4.213 5.16 5.943 3.075m0 0a6.782 6.782 0 0 0 2.212-2.71m-2.212 2.71 2.212-2.71m-10.32-8.134a6.77 6.77 0 0 1 10.32 8.133m-10.32-8.133 5.637 3.303 4.683 4.83m-2.755-8.621.91-2.713a1.042 1.042 0 0 1 1.783-.341l3.774 4.457c.5.591.204 1.502-.548 1.685l-2.887.703-3.032-3.791zm-6.51 11.871-1.169 2.732a1.042 1.042 0 0 1-1.753.263l-3.774-4.457a1.042 1.042 0 0 1 .63-1.702l2.826-.45 3.24 3.614z" stroke="#fff" stroke-width="1.5" stroke-linecap="round" stroke-linejoin="round"/>
</svg>
