<svg width="20" height="18" viewBox="0 0 20 18" fill="none" xmlns="http://www.w3.org/2000/svg">
<path d="M5.7387 7.22222C5.7387 7.22222 2.89548 7.22222 2.42161 7.22222C1.94774 7.22222 1 7.22222 1 9C1 10.6296 1 13.8 1 15.2222C1 17 1.94774 17 2.42161 17C3.33479 17 4.48994 17 5.7387 17M5.7387 7.22222L9.52965 1C10.4774 1.14815 11.4251 1.8 11.4251 3.22222C11.4251 4.64444 10.4774 6.48148 10.4774 7.22222H16.6377C18.5332 7.22222 19.3861 7.57778 19.007 9C18.628 10.4222 17.5854 15.2222 17.1116 16.1111C16.6377 17 16.6377 17 14.7422 17C12.8467 17 9.67398 17 5.7387 17M5.7387 7.22222V17" stroke="#FF502F"/>
</svg>
