<svg width="24" height="24" fill="none" xmlns="http://www.w3.org/2000/svg">
    <rect width="24" height="24" rx="12" fill="#FF88A0"/>
    <path d="m18.634 14.143-.53-.53.53.53zm-4.487 4.49.527.533.003-.003-.53-.53zm-1.771 0-.53.53.002.003.528-.534zM7 13.26h-.75c0 .199.08.39.22.53l.53-.53zM7 7v-.75a.75.75 0 0 0-.75.75H7zm6.258 0 .53-.53a.75.75 0 0 0-.53-.22V7zm5.376 5.378-.53.53.53-.53zm-.53 1.235-4.488 4.49 1.061 1.06 4.487-4.49-1.06-1.06zM13.619 18.1a.5.5 0 0 1-.355.151v1.5a2 2 0 0 0 1.41-.584l-1.055-1.067zm-.355.151a.503.503 0 0 1-.36-.15l-1.056 1.066c.375.371.877.584 1.416.584v-1.5zm-.358-.148L7.53 12.73l-1.06 1.061 5.376 5.372 1.06-1.061zM7.75 13.261V7h-1.5v6.26h1.5zM7 7.75h6.258v-1.5H7v1.5zm5.728-.22 5.376 5.378 1.06-1.06L13.79 6.47l-1.061 1.06zm5.376 5.378a.498.498 0 0 1 0 .705l1.06 1.06c.781-.78.781-2.044 0-2.825l-1.06 1.06zm-6.847-1.838c0 .104-.085.189-.19.189v1.5c.934 0 1.69-.757 1.69-1.69h-1.5zm-.19.189a.189.189 0 0 1-.188-.19h-1.5c0 .933.756 1.69 1.689 1.69v-1.5zm-.188-.19c0-.104.085-.189.189-.189v-1.5c-.933 0-1.689.757-1.689 1.69h1.5zm.189-.189c.104 0 .189.085.189.19h1.5c0-.933-.756-1.69-1.69-1.69v1.5z" fill="#fff"/>
</svg>
