<svg width="20" height="20" viewBox="0 0 20 20" fill="none" xmlns="http://www.w3.org/2000/svg">
<g clip-path="url(#clip0_3380:15577)">
<path d="M0 9.58333C0 5.06571 0 2.80689 1.40345 1.40345C2.80689 0 5.06571 0 9.58333 0H10.4167C14.9343 0 17.1931 0 18.5965 1.40345C20 2.80689 20 5.06571 20 9.58333V10.4167C20 14.9343 20 17.1931 18.5965 18.5965C17.1931 20 14.9343 20 10.4167 20H9.58333C5.06571 20 2.80689 20 1.40345 18.5965C0 17.1931 0 14.9343 0 10.4167L0 9.58333Z" fill="#FF8800"/>
<path d="M10.0209 10.2169C11.8561 10.2169 13.3521 8.72088 13.3521 6.8858C13.3521 5.0507 11.8561 3.55469 10.0209 3.55469C8.16593 3.55469 6.66992 5.0507 6.66992 6.8858C6.66992 8.72088 8.16593 10.2169 10.0209 10.2169ZM10.0209 5.50947C10.7789 5.50947 11.3973 6.12783 11.3973 6.8858C11.3973 7.64378 10.7789 8.26209 10.0209 8.26209C9.26304 8.26209 8.64466 7.64378 8.64466 6.8858C8.62468 6.12783 9.24306 5.50947 10.0209 5.50947Z" fill="white"/>
<path d="M11.3578 12.9504C12.0359 12.7908 12.6942 12.5315 13.2926 12.1526C13.7514 11.8733 13.891 11.255 13.5918 10.7962C13.3126 10.3374 12.6942 10.1978 12.2354 10.497C10.879 11.3547 9.10378 11.3547 7.74739 10.497C7.28862 10.2178 6.69022 10.3374 6.39101 10.7962C6.13171 11.255 6.27133 11.8534 6.73011 12.1326C7.32851 12.5116 7.98675 12.7709 8.66497 12.9305L6.8099 14.7855C6.43091 15.1646 6.43091 15.7828 6.8099 16.1619C7.00937 16.3614 7.24873 16.4411 7.50803 16.4411C7.76734 16.4411 8.0067 16.3414 8.20618 16.1619L10.0413 14.3267L11.8764 16.1619C12.2554 16.5408 12.8737 16.5408 13.2527 16.1619C13.6316 15.7828 13.6316 15.1646 13.2527 14.7855L11.3578 12.9504Z" fill="white"/>
</g>
<defs>
<clipPath id="clip0_3380:15577">
<path d="M0 0H20V20H0V0Z" fill="white"/>
</clipPath>
</defs>
</svg>
