<svg width="19" height="16" viewBox="0 0 19 16" fill="none" xmlns="http://www.w3.org/2000/svg">
<path d="M13.4444 14.9987V13.4431C13.4444 11.725 12.0514 10.332 10.3333 10.332H4.11111C2.393 10.332 1 11.725 1 13.4431V14.9987" stroke="#FF502F" stroke-width="1.5" stroke-linecap="round" stroke-linejoin="round"/>
<path fill-rule="evenodd" clip-rule="evenodd" d="M7.22244 7.22222C8.94055 7.22222 10.3336 5.82922 10.3336 4.11111C10.3336 2.393 8.94055 1 7.22244 1C5.50433 1 4.11133 2.393 4.11133 4.11111C4.11133 5.82922 5.50433 7.22222 7.22244 7.22222Z" stroke="#FF502F" stroke-width="1.5" stroke-linecap="round" stroke-linejoin="round"/>
<path d="M18.1107 14.9991V13.4436C18.1099 12.0257 17.1501 10.7883 15.7773 10.4336" stroke="#FF502F" stroke-width="1.5" stroke-linecap="round" stroke-linejoin="round"/>
<path d="M12.667 1.10156C14.0437 1.4539 15.0065 2.69445 15.0065 4.11545C15.0065 5.53645 14.0437 6.77701 12.667 7.12934" stroke="#FF502F" stroke-width="1.5" stroke-linecap="round" stroke-linejoin="round"/>
</svg>
