<svg width="24" height="24" fill="none" xmlns="http://www.w3.org/2000/svg">
    <rect width="24" height="24" rx="12" fill="#40C8A7"/>
    <path d="M9.6 5.579v1.536m3.2-2.336v2.336m-7 11.095h12m-8-1.752H13c1.767 0 3.2-1.394 3.2-3.114V9.45a.79.79 0 0 0-.8-.78h-8a.79.79 0 0 0-.8.78v3.893c0 1.72 1.432 3.115 3.2 3.115zm10.396-5.143c.106 1.239-1.993 2.252-3.33 1.986-.588-.117-.638-.482-.638-.482s-.028-1.148-.028-1.884c0-.642.18-1.214.666-1.359 1.665-.496 3.228.557 3.33 1.739z" stroke="#fff" stroke-width="1.5" stroke-linecap="round"/>
</svg>
