<svg width="24" height="24" fill="none" xmlns="http://www.w3.org/2000/svg">
    <rect width="24" height="24" rx="12" fill="#4E5DE2"/>
    <path d="m12 6 .27-.7-.27-.104-.27.104.27.7zM4 9.088l-.27-.7-1.813.7 1.813.7.27-.7zm8 3.089-.27.7.27.103.27-.104-.27-.7zm8-3.089.27.7 1.813-.7-1.813-.7-.27.7zm-.998.386-.27-.7.27.7zM7.2 12.75l.273-.699-.858-.335-.154.909.739.125zm.8 3.938-.497.56.497-.56zm8 0 .497.56-.497-.56zm.8-3.938.74-.125-.154-.909-.859.335.273.699zM12 14.625l-.273.699.273.106.273-.106-.273-.699zM11.73 5.3l-8 3.089.54 1.399 8-3.088-.54-1.4zm-8 4.488 8 3.088.54-1.4-8-3.087-.54 1.399zm16.54-1.4-8-3.088-.54 1.4 8 3.088.54-1.4zm-8 4.488 7.002-2.703-.54-1.4-7.002 2.704.54 1.4zm7.002-2.703.998-.385-.54-1.4-.998.386.54 1.4zm-1.02-.7V16.5h1.5V9.474h-1.5zM7.2 12.75l-.74-.125v.005l-.002.009a3.287 3.287 0 0 0-.02.135 8.912 8.912 0 0 0-.066 1.557c.042.872.248 2.136 1.13 2.918l.995-1.123c-.393-.348-.587-1.053-.626-1.867a7.417 7.417 0 0 1 .069-1.385v.001l-.74-.125zm.303 4.499c1.174 1.04 3.022 1.501 4.497 1.501v-1.5c-1.253 0-2.694-.408-3.503-1.124l-.994 1.123zM12 18.75c1.475 0 3.323-.46 4.497-1.501l-.994-1.123c-.809.716-2.25 1.124-3.503 1.124v1.5zm4.497-1.501c.883-.782 1.089-2.046 1.13-2.918a8.904 8.904 0 0 0-.087-1.701v-.005l-.74.125-.74.125v.002a2.8 2.8 0 0 0 .015.095 7.419 7.419 0 0 1 .055 1.287c-.04.814-.234 1.519-.627 1.867l.994 1.123zm.03-5.198-4.8 1.875.546 1.398 4.8-1.875-.546-1.398zm-4.254 1.875-4.8-1.875-.546 1.398 4.8 1.875.546-1.398z" fill="#fff"/>
</svg>
