<svg width="12" height="14" fill="none" xmlns="http://www.w3.org/2000/svg">
    <path clip-rule="evenodd" d="M9.594 4.6c.95 0 1.719-.806 1.719-1.8S10.544 1 9.592 1c-.95 0-1.718.806-1.718 1.8s.768 1.8 1.719 1.8zM2.719 8.8c.95 0 1.719-.806 1.719-1.8s-.768-1.8-1.72-1.8C1.769 5.2 1 6.006 1 7s.768 1.8 1.719 1.8zM9.594 13c.95 0 1.719-.806 1.719-1.8s-.768-1.8-1.72-1.8c-.95 0-1.718.806-1.718 1.8S8.643 13 9.594 13z" stroke="#818285" stroke-linecap="round" stroke-linejoin="round"/>
    <path d="m4.202 7.906 3.913 2.388M8.11 3.706 4.201 6.094" stroke="#818285" stroke-linecap="round" stroke-linejoin="round"/>
</svg>
