<svg width="24" height="24" fill="none" xmlns="http://www.w3.org/2000/svg">
    <rect width="24" height="24" rx="12" fill="#C13BC8"/>
    <path d="M17 12.137c-.5.163-1.6.098-2-1.458-.4-1.556-1.167-3.89-1.5-4.863C13 5.33 12 4.552 12 5.33m5 6.807v-.486h2V17h-2.5v-.973m.5-3.89-.5 3.89M12 5.33v9.725m0-9.725c0-.778-1.5.486-1.5.486S9.4 9.123 9 10.68c-.4 1.556-1.5 1.62-2 1.458m5 2.918c.333.324 1.2.973 2 .973h2.5m-4.5-.973c-.333.324-1.2.973-2 .973H7.5m-.5-3.89v-.487H5V17h2.5v-.973m-.5-3.89.5 3.89" stroke="#fff" stroke-width="1.5"/>
</svg>
