<svg width="20" height="20" viewBox="0 0 20 20" fill="none" xmlns="http://www.w3.org/2000/svg">
<g clip-path="url(#clip0_3380:8424)">
<path d="M0 9.58333C0 5.06571 0 2.80689 1.40345 1.40345C2.80689 0 5.06571 0 9.58333 0H10.4167C14.9343 0 17.1931 0 18.5965 1.40345C20 2.80689 20 5.06571 20 9.58333V10.4167C20 14.9343 20 17.1931 18.5965 18.5965C17.1931 20 14.9343 20 10.4167 20H9.58333C5.06571 20 2.80689 20 1.40345 18.5965C0 17.1931 0 14.9343 0 10.4167L0 9.58333Z" fill="#2787F5"/>
<path fill-rule="evenodd" clip-rule="evenodd" d="M5.4168 6.25H3.95813C3.54137 6.25 3.45801 6.44617 3.45801 6.66242C3.45801 7.04871 3.95253 8.9645 5.76059 11.4983C6.96597 13.2287 8.66422 14.1667 10.2096 14.1667C11.1368 14.1667 11.2515 13.9583 11.2515 13.5995V12.2917C11.2515 11.875 11.3393 11.7918 11.6329 11.7918C11.8493 11.7918 12.2202 11.9 13.0856 12.7343C14.0746 13.7231 14.2377 14.1667 14.794 14.1667H16.2526C16.6694 14.1667 16.8778 13.9583 16.7576 13.5472C16.626 13.1375 16.1538 12.5429 15.5273 11.8382C15.1873 11.4365 14.6773 11.0039 14.5228 10.7876C14.3064 10.5095 14.3682 10.3859 14.5228 10.1387C14.5228 10.1387 16.2999 7.63579 16.4854 6.78608C16.5781 6.47704 16.4854 6.25 16.0443 6.25H14.5856C14.2147 6.25 14.0437 6.44617 13.951 6.66242C13.951 6.66242 13.2092 8.47008 12.1584 9.64429C11.8184 9.98417 11.6638 10.0923 11.4784 10.0923C11.3857 10.0923 11.2515 9.98417 11.2515 9.67521V6.78608C11.2515 6.41525 11.1438 6.25 10.8347 6.25H8.54251C8.31076 6.25 8.17134 6.42208 8.17134 6.58521C8.17134 6.93671 8.69676 7.01779 8.75092 8.00658V10.1542C8.75092 10.625 8.66584 10.7104 8.48042 10.7104C7.98592 10.7104 6.78305 8.89462 6.06963 6.81696C5.92984 6.41313 5.78959 6.25 5.4168 6.25Z" fill="white"/>
</g>
<defs>
<clipPath id="clip0_3380:8424">
<path d="M0 0H20V20H0V0Z" fill="white"/>
</clipPath>
</defs>
</svg>
