<svg width="28" height="28" viewBox="0 0 28 28" fill="none" xmlns="http://www.w3.org/2000/svg">
<g clip-path="url(#clip0_931_13403)">
<path d="M2.23059 24.6566L4.66351 24.5072L4.78803 26.5346L2.35512 26.684L2.23059 24.6566Z" fill="white"/>
<path d="M1.06006 5.59875L3.49297 5.44932L4.61373 23.6962L2.18082 23.8456L1.06006 5.59875Z" fill="white"/>
<path d="M2.07724 2.28014L1.01021 4.78777L3.44313 4.63834L2.07724 2.28014Z" fill="white"/>
<path d="M5.16614 19.4375L5.43452 23.807C5.62857 23.9644 5.83038 24.1091 6.04758 24.226L5.16614 19.4375Z" fill="white"/>
<path d="M4.64028 10.8756C4.71569 10.5527 4.79892 10.2313 4.90033 9.91414C4.7939 9.74526 4.66634 9.52394 4.5415 9.26746L4.64028 10.8756Z" fill="white"/>
<path d="M13.5305 3.20475C11.6462 3.32049 9.88933 3.80814 8.35149 4.58801C8.98918 5.32177 9.64863 6.27072 9.69976 7.10318C9.76262 8.12663 9.38166 9.12076 9.13034 9.65432C9.97659 11.4909 10.3658 13.5135 10.2458 15.5356L9.73801 24.0868C11.9918 21.9947 11.1204 15.1562 14.2527 14.9638C17.9021 14.7397 17.2585 24.1406 21.3133 23.8915C25.3682 23.6425 26.3107 19.1074 25.9371 13.0251C25.5635 6.94283 20.0182 2.80626 13.5305 3.20475ZM13.9539 10.098C12.6101 10.1805 11.4541 9.15831 11.3715 7.81453C11.289 6.47075 12.3112 5.31472 13.655 5.23218C14.9988 5.14964 16.1548 6.17188 16.2373 7.51566C16.3199 8.85944 15.2976 10.0155 13.9539 10.098ZM18.1083 11.4709C18.0258 10.1271 19.048 8.97108 20.3918 8.88854C21.7356 8.80601 22.8916 9.82824 22.9742 11.172C23.0567 12.5158 22.0345 13.6718 20.6907 13.7544C19.3469 13.8369 18.1909 12.8147 18.1083 11.4709ZM22.3056 20.1674C21.1861 20.2362 20.2225 19.3841 20.1537 18.2645C20.0849 17.145 20.937 16.1813 22.0566 16.1126C23.1761 16.0438 24.1398 16.8959 24.2085 18.0155C24.2773 19.135 23.4252 20.0987 22.3056 20.1674Z" fill="white"/>
<path d="M8.22727 9.63576C8.22727 9.63576 8.96353 8.36949 8.88881 7.15303C8.81409 5.93657 6.66213 4.03367 6.66213 4.03367C6.66213 4.03367 4.75923 6.18563 4.83395 7.40209C4.90867 8.61855 5.79436 9.78519 5.79436 9.78519L8.22727 9.63576Z" fill="white"/>
<path d="M8.58564 10.4278L5.53557 10.6152C5.0779 12.2819 4.99786 14.0337 5.31193 15.741L7.04887 25.1805C7.13307 25.6369 7.54437 25.9584 8.00703 25.93C8.46969 25.9015 8.83854 25.5321 8.86628 25.0692L9.43494 15.4882C9.53768 13.7549 9.24386 12.026 8.58564 10.4278Z" fill="white"/>
</g>
<defs>
<clipPath id="clip0_931_13403">
<rect width="26" height="26" fill="white" transform="translate(0 1.59375) rotate(-3.51481)"/>
</clipPath>
</defs>
</svg>
