<svg width="422" height="285" viewBox="0 0 422 285" fill="none" xmlns="http://www.w3.org/2000/svg">
<path d="M57.7991 8.56136C19.7558 13.3576 6.8483 33.3421 5.14994 42.7348C-5.04022 78.7069 2.6024 171.035 5.14994 214.202C7.69748 257.368 21.2844 268.16 46.7597 277.153C72.2351 286.146 195.366 284.947 219.143 284.947C242.92 284.947 329.537 283.148 345.671 282.549C361.805 281.949 411.907 280.75 417.851 235.785C423.796 190.82 422.097 127.269 420.399 84.7023C418.7 42.1353 410.209 24.7488 383.035 10.36C355.861 -4.02887 228.484 0.767404 205.556 0.767404C182.628 0.767404 105.353 2.56601 57.7991 8.56136Z" fill="#FF6900"/>
</svg>
