<svg width="86" height="88" viewBox="0 0 86 88" fill="none" xmlns="http://www.w3.org/2000/svg">
<circle cx="13.0585" cy="44.8043" r="12.8173" fill="white"/>
<circle cx="19.4672" cy="27.7147" r="12.8173" fill="white"/>
<path d="M41.183 75.4245C41.953 74.0921 42.6442 72.6718 43.2605 71.2157C45.5835 78.9379 49.2433 82.6144 52.6971 83.7657C54.1196 84.2398 55.9125 84.256 57.6462 84.0056C59.4574 83.744 61.5021 83.1493 63.5323 82.1343C67.6285 80.0862 71.7345 76.2806 73.609 70.0325C75.4526 63.887 73.7521 58.9647 71.258 55.5177C73.9974 54.6137 76.0655 53.1296 77.1292 52.0659L77.2254 51.9697L77.3126 51.8651C79.3498 49.4204 81.7889 45.2426 82.5135 40.4606C83.2629 35.5145 82.1524 29.9083 77.0148 25.2845C74.2386 22.7859 71.0737 21.8896 67.8882 22.2392C64.8373 22.574 61.9772 24.0224 59.505 25.7994C58.813 26.2968 58.1343 26.8324 57.4722 27.3965C58.2193 24.2966 58.782 21.2293 58.782 18.9695C58.782 16.615 57.8367 14.1225 56.4633 11.956C55.0617 9.74502 53.0581 7.62097 50.5992 6.03462C48.1296 4.44128 45.1367 3.35254 41.8132 3.35254C38.4646 3.35254 34.9857 4.45881 31.5873 6.93038C25.5373 11.3304 24.6569 18.8468 25.3768 25.3351C26.0536 31.4352 28.2182 37.554 30.1698 41.7114C27.3077 43.1235 23.7009 45.2134 20.4089 47.7579C16.4296 50.8336 12.2942 55.0391 11.1973 59.9748C10.1444 64.7131 9.33547 69.6404 11.2465 73.9835C13.242 78.5189 17.7541 81.5597 24.9928 83.787C28.6498 84.9122 31.9819 84.2893 34.788 82.5359C37.4784 80.8547 39.5692 78.2174 41.183 75.4245Z" fill="#EB008C" stroke="white" stroke-width="6"/>
<circle cx="13.0586" cy="44.604" r="2.13621" fill="#EB008C"/>
<circle cx="19.4673" cy="27.5144" r="2.13621" fill="#EB008C"/>
<path d="M19.4663 27.5144C18.7542 30.3627 21.1752 37.7682 36.556 44.6041" stroke="#EB008C"/>
<path d="M13.0586 44.604C13.4146 43.5359 15.4084 41.3997 20.5353 41.3997C25.6622 41.3997 36.9129 43.5359 41.8974 44.604" stroke="#EB008C"/>
</svg>
