<svg width="86" height="88" viewBox="0 0 86 88" fill="none" xmlns="http://www.w3.org/2000/svg">
<circle cx="12.9003" cy="44.701" r="12.9003" fill="white"/>
<circle cx="19.3505" cy="27.5006" r="12.9003" fill="white"/>
<path d="M41.1906 75.5095C41.9739 74.1541 42.6762 72.7081 43.3015 71.226C45.6375 79.0294 49.3266 82.7374 52.8022 83.896C54.2299 84.3719 56.031 84.3885 57.7744 84.1367C59.5953 83.8737 61.6513 83.2758 63.6927 82.2551C67.8114 80.1957 71.9399 76.3694 73.8247 70.0867C75.682 63.8959 73.9617 58.9398 71.4459 55.4734C74.2122 54.5654 76.3005 53.0678 77.3727 51.9956L77.4689 51.8994L77.556 51.7949C79.6048 49.3363 82.0577 45.1347 82.7863 40.326C83.5398 35.3532 82.4235 29.7177 77.2582 25.069C74.4683 22.558 71.2884 21.6576 68.0876 22.0088C65.0216 22.3453 62.1461 23.8011 59.6594 25.5885C58.9474 26.1003 58.2496 26.6522 57.5692 27.2338C58.328 24.0947 58.901 20.9851 58.901 18.6987C58.901 16.3337 57.9513 13.8287 56.5703 11.6502C55.161 9.42707 53.1464 7.29134 50.6741 5.69634C48.191 4.09436 45.1824 3 41.8417 3C38.476 3 34.9785 4.11189 31.5611 6.59729C25.4806 11.0195 24.5938 18.5751 25.3181 25.1034C26 31.2488 28.1829 37.4136 30.1486 41.5968C27.2663 43.0177 23.6294 45.1237 20.3107 47.6888C16.3062 50.784 12.1489 55.0131 11.0466 59.9737C9.98671 64.7431 9.17432 69.6964 11.0948 74.0611C13.0999 78.618 17.6344 81.6761 24.9181 83.9173C28.5931 85.048 31.9409 84.4221 34.7607 82.6601C37.4648 80.9705 39.5671 78.319 41.1906 75.5095Z" fill="#FF6900" stroke="white" stroke-width="6"/>
<circle cx="12.9004" cy="44.4992" r="2.15004" fill="#FF6900"/>
<circle cx="19.3504" cy="27.2987" r="2.15004" fill="#FF6900"/>
<path d="M19.35 27.2988C18.6334 30.1656 21.0701 37.619 36.5504 44.4992" stroke="#FF6900"/>
<path d="M12.9001 44.4992C13.2585 43.4242 15.2652 41.2742 20.4253 41.2742C25.5854 41.2742 36.909 43.4242 41.9257 44.4992" stroke="#FF6900"/>
</svg>
