<svg width="350" height="508" viewBox="0 0 350 508" fill="none" xmlns="http://www.w3.org/2000/svg">
<mask id="mask0_1031_13999" style="mask-type:alpha" maskUnits="userSpaceOnUse" x="0" y="0" width="350" height="508">
<path d="M6.12292 38.1772C0.220908 53.7729 0.757455 84.3147 0.0867728 99.9105C-0.58391 115.506 2.76947 394.281 5.4522 434.57C8.13493 474.859 13.5004 485.906 28.2554 496.303C43.0104 506.7 65.8137 508 140.93 508C216.047 508 295.187 504.751 312.625 498.902C330.063 493.054 341.464 483.307 347.5 446.917C353.536 410.526 346.83 63.5203 346.159 53.7729C345.488 44.0256 341.464 10.8846 307.259 4.38631C273.055 -2.11193 114.773 -0.162456 72.5205 2.43684C30.2675 5.03614 13.5004 18.6824 6.12292 38.1772Z" fill="white"/>
</mask>
<g mask="url(#mask0_1031_13999)">
<path d="M6.12292 38.1772C0.220908 53.7729 0.757455 84.3147 0.0867728 99.9105C-0.58391 115.506 2.76947 394.281 5.4522 434.57C8.13493 474.859 13.5004 485.906 28.2554 496.303C43.0104 506.7 65.8137 508 140.93 508C216.047 508 295.187 504.751 312.625 498.902C330.063 493.054 341.464 483.307 347.5 446.917C353.536 410.526 346.83 63.5203 346.159 53.7729C345.488 44.0256 341.464 10.8846 307.259 4.38631C273.055 -2.11193 114.773 -0.162456 72.5205 2.43684C30.2675 5.03614 13.5004 18.6824 6.12292 38.1772Z" fill="white"/>
</g>
</svg>
