<svg width="35" height="35" viewBox="0 0 35 35" fill="none" xmlns="http://www.w3.org/2000/svg">
<g clip-path="url(#clip0_933_19491)">
<path d="M27.841 27.7085H14.7248C12.8333 27.7085 11.1563 26.4675 10.6444 24.6897L6.21104 9.66745C6.05354 9.1235 5.53 8.75016 4.93208 8.75016H1.45833C0.651875 8.75016 0 8.09683 0 7.29183C0 6.48683 0.651875 5.8335 1.45833 5.8335H4.93208C6.82354 5.8335 8.49917 7.07454 9.01104 8.85225L9.84083 11.6668H32.146C33.056 11.6668 33.9194 12.1 34.4546 12.8262C34.9854 13.5466 35.1385 14.4479 34.8746 15.2995L31.866 24.8487C31.2769 26.5725 29.6625 27.7085 27.841 27.7085ZM32.1475 14.5835H32.1621H32.1475Z" fill="white"/>
<path d="M16.0417 35.0001C14.4331 35.0001 13.125 33.692 13.125 32.0834C13.125 30.4749 14.4331 29.1667 16.0417 29.1667C17.6502 29.1667 18.9583 30.4749 18.9583 32.0834C18.9583 33.692 17.6502 35.0001 16.0417 35.0001ZM16.0417 32.082V32.0834V32.082Z" fill="white"/>
<path d="M26.2499 35.0001C24.6414 35.0001 23.3333 33.692 23.3333 32.0834C23.3333 30.4749 24.6414 29.1667 26.2499 29.1667C27.8584 29.1667 29.1666 30.4749 29.1666 32.0834C29.1666 33.692 27.8584 35.0001 26.2499 35.0001ZM26.2499 32.082V32.0834V32.082Z" fill="white"/>
</g>
<defs>
<clipPath id="clip0_933_19491">
<rect width="35" height="35" fill="white"/>
</clipPath>
</defs>
</svg>
