<svg width="345" height="184" viewBox="0 0 345 184" fill="none" xmlns="http://www.w3.org/2000/svg">
<path d="M7.10999 40.7962C0.430342 57.547 1.54368 56.1511 0.152024 92.4445C-1.23964 128.738 7.11011 147.583 17.547 160.146C27.9839 172.709 48.8579 179.921 59.2948 181.084C134.905 184.574 291.83 187.784 314.652 172.709C343.18 153.864 343.18 126.644 343.875 118.967C344.571 111.289 348.746 64.5265 334.83 35.2126C320.914 5.89875 296.561 1.71105 250.639 0.315154C204.716 -1.08075 99.651 2.409 66.9485 5.89875C34.2461 9.3885 15.4595 19.8577 7.10999 40.7962Z" fill="white"/>
<mask id="mask0_949_19568" style="mask-type:alpha" maskUnits="userSpaceOnUse" x="0" y="0" width="345" height="184">
<path d="M7.10999 40.7962C0.430342 57.547 1.54368 56.1511 0.152024 92.4445C-1.23964 128.738 7.11011 147.583 17.547 160.146C27.9839 172.709 48.8579 179.921 59.2948 181.084C134.905 184.574 291.83 187.784 314.652 172.709C343.18 153.864 343.18 126.644 343.875 118.967C344.571 111.289 348.746 64.5265 334.83 35.2126C320.914 5.89875 296.561 1.71105 250.639 0.315154C204.716 -1.08075 99.651 2.409 66.9485 5.89875C34.2461 9.3885 15.4595 19.8577 7.10999 40.7962Z" fill="white"/>
</mask>
<g mask="url(#mask0_949_19568)">
</g>
</svg>
