<svg width="748" height="478" viewBox="0 0 748 478" fill="none" xmlns="http://www.w3.org/2000/svg">
<path d="M740.195 69.4071C732.823 21.878 694.676 5.73031 676.525 3.59759C671.498 2.74024 670.66 2.68357 634.636 0.85553C605.817 -0.606903 384.142 1.46487 276.907 2.68356C235.298 3.2929 142.529 5.24281 104.326 8.16767C56.5731 11.8237 54.8976 12.7378 40.6555 17.3079C26.4133 21.878 7.9823 44.7285 4.63122 65.7509C1.95038 82.5689 0.721614 121.506 0.442377 138.873C-0.395395 225.704 0.944991 405.584 13.009 430.445C28.0888 461.522 45.682 467.92 70.8152 473.404C95.9484 478.888 224.128 477.06 314.607 477.06C405.086 477.06 641.338 473.404 672.336 471.576C703.333 469.748 725.115 457.866 736.006 432.273C744.719 411.799 746.897 302.482 746.897 250.383C747.735 209.862 747.568 116.936 740.195 69.4071Z" fill="white"/>
</svg>
