<svg width="336" height="648" viewBox="0 0 336 648" fill="none" xmlns="http://www.w3.org/2000/svg">
<path d="M287.358 641.888C320.837 635.493 332.212 602.402 333.714 586.655C334.318 582.295 334.358 581.568 335.646 550.318C336.676 525.318 335.216 333.022 334.358 239.999C333.929 203.905 332.555 123.43 330.495 90.2905C327.92 48.8662 327.276 47.4127 324.057 35.0581C320.837 22.7035 304.742 6.71515 289.933 3.80816C278.087 1.4826 250.659 0.416741 238.426 0.174491C177.262 -0.55226 50.5542 0.61051 33.0418 11.0756C11.1513 24.157 6.64443 39.4186 2.78139 61.2208C-1.08165 83.023 0.206033 194.215 0.206026 272.703C0.20602 351.191 2.78135 556.132 4.06901 583.022C5.35669 609.911 13.7266 628.806 31.754 638.254C46.176 645.812 123.179 647.702 159.878 647.702C188.421 648.429 253.878 648.283 287.358 641.888Z" fill="white"/>
</svg>
