<svg width="34" height="34" viewBox="0 0 34 34" fill="none" xmlns="http://www.w3.org/2000/svg">
<path d="M31.7175 0.194336H3.0026C1.81377 0.194336 0.848923 1.15918 0.848923 2.34801V31.0622C0.848923 32.2511 1.81305 33.2159 3.00188 33.2159H31.7161C32.9057 33.2159 33.8698 32.2511 33.8698 31.0622V2.34801C33.8712 1.15918 32.9064 0.194336 31.7175 0.194336ZM8.81465 29.8512C8.81465 30.521 8.20372 31.0443 7.53465 31.0443H4.2144C3.54676 31.0443 3.02198 30.521 3.02198 29.8512V26.5309C3.02198 25.8618 3.54676 25.2509 4.2144 25.2509H7.53465C8.20444 25.2509 8.81465 25.8626 8.81465 26.5309V29.8512ZM8.81465 18.3656C8.81465 19.0347 8.20372 19.6018 7.53465 19.6018H4.2144C3.54676 19.6018 3.02198 19.034 3.02198 18.3656V15.0454C3.02198 14.3763 3.54676 13.8092 4.2144 13.8092H7.53465C8.20444 13.8092 8.81465 14.377 8.81465 15.0454V18.3656ZM8.81465 6.88006C8.81465 7.54914 8.20372 8.16078 7.53465 8.16078H4.2144C3.54676 8.16078 3.02198 7.54914 3.02198 6.88006V3.55909C3.02198 2.89002 3.54676 2.36668 4.2144 2.36668H7.53465C8.20444 2.36668 8.81465 2.89002 8.81465 3.55909V6.88006ZM31.6974 29.8512C31.6974 30.521 31.1741 31.0443 30.5057 31.0443H27.1855C26.515 31.0443 25.9055 30.521 25.9055 29.8512V26.5309C25.9055 25.8618 26.5164 25.2509 27.1855 25.2509H30.5057C31.1741 25.2509 31.6974 25.8626 31.6974 26.5309V29.8512ZM31.6974 18.3656C31.6974 19.0347 31.1741 19.6018 30.5057 19.6018H27.1855C26.515 19.6018 25.9055 19.034 25.9055 18.3656V15.0454C25.9055 14.3763 26.5164 13.8092 27.1855 13.8092H30.5057C31.1741 13.8092 31.6974 14.377 31.6974 15.0454V18.3656ZM31.6974 6.88006C31.6974 7.54914 31.1741 8.16078 30.5057 8.16078H27.1855C26.515 8.16078 25.9055 7.54914 25.9055 6.88006V3.55909C25.9055 2.89002 26.5164 2.36668 27.1855 2.36668H30.5057C31.1741 2.36668 31.6974 2.89002 31.6974 3.55909V6.88006Z" fill="white"/>
</svg>
