<svg width="142" height="96" viewBox="0 0 142 96" fill="none" xmlns="http://www.w3.org/2000/svg">
<path d="M122.672 9.71553C120.302 8.66851 117.96 8.73955 115.928 9.85627C114.066 10.8796 112.786 12.6051 111.902 14.2604C111.582 14.8599 111.292 15.4912 111.031 16.14C110.976 16.0607 110.922 15.9824 110.866 15.9054C108.957 13.2409 105.343 12.4962 102.417 12.8205C99.2736 13.1689 95.8457 14.8057 93.7403 18.201C92.737 19.8189 92.4425 21.5531 92.7585 23.2281C93.0292 24.6626 93.7141 25.8903 94.4803 26.8806C93.273 27.3618 92.2537 28.0743 91.1772 29.0376C89.1068 30.8902 88.489 33.9941 88.8109 36.6124C89.1545 39.4076 90.6345 42.4501 93.7391 44.3194C95.4708 45.362 97.3219 45.627 99.0207 45.5148C98.0434 48.2221 98.1613 51.2881 99.7358 53.7911C101.56 56.6901 104.914 58.1856 109.001 57.8587C113.127 57.5286 115.562 54.4521 116.875 51.779C116.891 51.747 116.906 51.7151 116.922 51.683C117.735 52.5647 118.695 53.3836 119.819 54.0603C123.294 56.1529 126.97 55.2713 129.446 53.2563C131.845 51.3035 133.456 48.0683 133.157 44.6377C132.985 42.6604 132.06 40.9418 130.953 39.5443C133.272 39.3479 136.062 38.6188 137.634 35.9787C139.108 33.5031 138.931 30.2457 138 26.6101C137.443 24.4343 136.162 22.8232 134.385 21.8741C132.914 21.0882 131.297 20.8571 129.832 20.8707C130.14 19.8912 130.29 18.8013 130.141 17.631C129.711 14.249 127.029 11.6404 122.672 9.71553Z" fill="#47D7AC" stroke="white" stroke-width="6"/>
<path d="M118.268 33.3335C118.407 29.5385 114.946 28.8693 113.198 29.0091C109.702 29.2888 108.743 31.7305 108.998 34.6662C109.254 37.602 112.27 38.5432 114.017 38.4035C115.764 38.2637 118.095 38.0772 118.268 33.3335Z" fill="white"/>
<path d="M33.9199 22.0872C33.2784 21.3247 32.6858 20.6571 32.1762 20.1364C30.8282 18.7591 28.9217 17.925 27.0726 17.4906C25.169 17.0433 23.0181 16.9442 20.9169 17.2951C16.683 18.0023 12.1923 20.6931 11.0836 26.4679C10.5841 29.0696 11.3448 31.6111 12.4769 33.7802C13.6204 35.9714 15.2931 38.0762 17.0902 39.9678C18.5217 41.4746 20.0928 42.9089 21.6575 44.2114C19.2673 44.7126 14.572 46.0199 10.5399 48.2351C7.54819 49.8787 4.53038 52.8666 3.63264 56.6496C3.16564 58.6176 3.29443 60.7537 4.28223 62.8407C5.25423 64.8942 6.96088 66.6996 9.32254 68.2377C13.5844 71.0133 19.3404 70.8266 24.0988 69.9634C25.1459 69.7734 26.1846 69.5431 27.1992 69.2849C26.1353 70.8281 25.1493 72.3263 24.427 73.5543C22.748 76.4087 21.9546 81.1099 22.9315 85.0466C23.4377 87.0865 24.4921 89.2069 26.4585 90.683C28.4781 92.1991 31.0579 92.7348 33.9884 92.3134C36.8418 91.9032 39.1893 90.097 41.0231 88.0619C42.8945 85.9851 44.5314 83.3375 45.9248 80.602C46.2694 79.9253 46.6029 79.2357 46.9248 78.539C47.2151 79.963 47.5993 81.5369 48.0988 83.0879C48.7462 85.0982 49.6442 87.254 50.9061 89.015C52.1591 90.7634 54.0468 92.4887 56.7123 92.8071C60.3459 93.2412 64.1525 92.4162 67.1762 90.1703C70.2579 87.8812 72.3211 84.2645 72.6243 79.5781C72.8675 75.8186 71.6524 71.5058 70.2607 67.8943C70.1741 67.6697 70.0863 67.4464 69.9974 67.2245C72.4514 68.1083 75.2822 68.6669 78.0549 68.748C81.7861 68.8572 86.0098 68.1121 89.0035 65.4332C91.6825 63.036 93.3653 59.867 93.5637 56.451C93.7646 52.9922 92.4233 49.5737 89.5994 46.8232C88.1268 45.3888 86.081 44.6248 84.1877 44.1766C82.2213 43.7112 80.0106 43.4945 77.8401 43.4209C77.3166 43.4031 76.7898 43.3936 76.263 43.3912C76.4893 43.206 76.7212 43.0157 76.959 42.8201C81.7294 38.8962 83.9233 35.1288 84.7558 31.7494C85.4414 28.9659 85.1187 26.547 84.966 25.403C84.9398 25.2059 84.9185 25.0467 84.9083 24.9299C84.7642 23.2766 84.1478 21.0096 82.1309 19.1818C80.1238 17.3628 77.1723 16.3806 73.1898 16.3648C70.9406 16.3559 68.8257 17.319 67.0607 18.4651C65.2504 19.6407 63.5019 21.2102 61.9208 22.8555C61.0553 23.7562 60.2177 24.7029 59.4244 25.6567C59.4171 25.4767 59.4097 25.2957 59.4023 25.1136C59.2727 21.9417 59.122 18.4946 58.7829 14.6039C58.3492 9.62797 55.1237 5.5853 50.867 3.95126C46.4731 2.26459 41.2805 3.24168 37.2787 7.6106L39.4999 9.64283L37.2787 7.6106C35.4823 9.57184 34.5582 12.0791 34.1214 14.5821C33.7008 16.9924 33.6988 19.5832 33.9199 22.0872Z" fill="#FF0050" stroke="white" stroke-width="6"/>
<path d="M57.0245 49.2416C55.6417 44.1481 51.7656 42.7628 50.0003 42.7069C43.488 42.0451 39.2353 47.1164 40.2786 52.3554C41.322 57.5944 46.7206 58.9367 50.2169 58.657C53.7132 58.3773 58.753 55.6086 57.0245 49.2416Z" fill="white"/>
</svg>
