<svg width="63" height="90" viewBox="0 0 63 90" fill="none" xmlns="http://www.w3.org/2000/svg">
<path d="M11.7125 12.066C10.8231 13.7178 10.7123 15.5008 11.4377 17.1319C12.0154 18.4308 13.0082 19.373 13.9456 20.0389C12.7756 21.4421 12.3975 23.3478 12.443 24.848C12.509 27.0248 13.4378 29.5168 15.6865 31.2033C16.8332 32.0633 18.1486 32.4192 19.4667 32.2864C20.0075 32.2319 20.5086 32.0997 20.9649 31.9233C21.178 32.3065 21.4248 32.6733 21.6996 33.0398C23.0159 34.7948 25.2784 35.3898 27.0782 35.3255C29.0563 35.2549 31.3025 34.3921 32.8059 32.2873C33.3018 31.5931 33.6091 30.8622 33.7848 30.1397C35.2442 30.4593 36.8109 30.3328 38.2313 29.5942C40.5134 28.4075 41.7181 26.0211 41.7181 23.2344C41.7181 20.879 40.4763 19.1999 39.1498 18.0888C39.3655 17.8494 39.5721 17.5937 39.7671 17.3208C41.5152 14.8734 41.0548 12.0916 39.7631 10.192C38.5258 8.37243 36.3344 7.00812 33.8453 7.00812C33.101 7.00812 32.406 7.1521 31.7698 7.38133C31.5056 6.23628 30.9219 5.03223 29.6847 4.13872C27.8741 2.83103 25.5109 2.84459 23.2583 3.22001C21.6167 3.49362 20.3001 4.36379 19.4661 5.6686C19.0984 6.24383 18.8576 6.85061 18.7033 7.44508C18.4009 7.40497 18.0856 7.38861 17.7581 7.40171C15.0951 7.50823 13.1281 9.43713 11.7125 12.066Z" fill="#47D7AC" stroke="white" stroke-width="6"/>
<path d="M26.4914 16.4679C24.2638 16.1895 23.7069 18.2082 23.7069 19.2524C23.7069 21.341 25.0992 22.0366 26.8395 22.0366C28.5798 22.0366 29.2759 20.2963 29.2759 19.2524C29.2759 18.2085 29.2759 16.816 26.4914 16.4679Z" fill="white"/>
<path d="M29.9834 36.6922C29.7857 37.3084 29.6262 37.9589 29.4973 38.6196C27.7702 36.6657 26.0007 35.5269 24.2679 34.9328C22.3931 34.29 20.6539 34.3824 20.0445 34.4147C19.9593 34.4192 19.8961 34.4226 19.8578 34.4226C18.6747 34.4226 16.9654 34.725 15.4959 36.1081C14.0397 37.4786 13.2514 39.5043 13.0395 42.0463C12.9008 43.7118 13.485 45.2598 14.1254 46.4575C14.6876 47.5089 15.4206 48.5254 16.1944 49.4562C15.0537 49.4167 13.8436 49.3891 12.5486 49.3891C9.10861 49.3891 6.15194 51.3784 4.79318 54.2318C3.37389 57.2123 3.80586 60.8655 6.50851 63.8139C7.78775 65.2094 9.46084 65.9785 11.0535 66.4045C11.6271 66.5579 12.2153 66.6736 12.8082 66.7584C12.2355 67.523 11.8416 68.3908 11.5831 69.2012C11.1833 70.4543 11.0043 71.8836 11.1257 73.3095C11.3704 76.1854 12.9589 79.543 16.9453 80.682C18.8306 81.2207 20.6706 80.8014 22.138 80.1843C23.6283 79.5575 25.0473 78.5978 26.2945 77.5898C26.6761 77.2814 27.0516 76.9602 27.4187 76.6311C27.7373 78.0896 28.2306 79.8327 28.9504 81.4523C29.8635 83.5067 31.6925 85.7748 34.3108 86.6475C35.6966 87.1095 37.254 87.1521 38.8145 86.5669C40.3388 85.9954 41.6554 84.9058 42.7712 83.4552C44.6651 80.9932 44.9664 77.6953 44.8074 74.9406C44.8436 74.9668 44.8793 74.9925 44.9147 75.0177C46.7824 76.3518 49.8423 77.1407 52.5247 76.714C53.9404 76.4888 55.5359 75.877 56.7398 74.5119C57.9847 73.1003 58.4793 71.2605 58.3541 69.2569C58.2219 67.1428 57.058 65.402 55.8603 64.1164C55.0083 63.2019 53.9924 62.3598 52.9212 61.5977C54.1239 61.3026 55.4578 60.8584 56.6206 60.1607C57.8642 59.4146 59.2879 58.1399 59.6939 56.11C60.1727 53.7158 59.837 51.0987 58.4779 48.8983C57.0799 46.6348 54.7265 45.0261 51.6394 44.5511C49.819 44.2711 47.8192 44.5003 46 44.8999C46.2601 43.9873 46.4494 43.04 46.5518 42.0975C46.8066 39.7536 46.5823 36.8459 44.8817 34.5784C43.4333 32.6472 41.3739 31.2792 39.0025 30.9304C36.587 30.5752 34.1534 31.326 32.1528 33.0765C30.9904 34.0936 30.3598 35.5191 29.9834 36.6922Z" fill="#EE2737" stroke="white" stroke-width="6"/>
<path d="M32.8642 53.4347C29.8013 53.9916 28.8035 56.2192 28.6875 57.2634C27.9914 61.092 30.7759 63.8768 33.9084 63.5287C37.0409 63.1807 38.0851 60.0478 38.0851 57.9595C38.0851 55.8711 36.6929 52.7386 32.8642 53.4347Z" fill="white"/>
</svg>
