<svg width="50" height="50" viewBox="0 0 50 50" fill="none" xmlns="http://www.w3.org/2000/svg">
<path d="M1.55518 33.6954C5.0875 43.2153 14.2511 49.9998 25.0002 49.9998C35.7493 49.9998 44.9129 43.2153 48.4452 33.6954L25.0002 31.5216L1.55518 33.6954Z" fill="#FFDA44"/>
<path d="M25.0002 0C14.2511 0 5.0875 6.78438 1.55518 16.3044L25.0002 18.4782L48.4452 16.3043C44.9129 6.78437 35.7493 0 25.0002 0Z" fill="black"/>
<path d="M1.55498 16.3043C0.550098 19.0126 0 21.9419 0 24.9999C0 28.0579 0.550098 30.9872 1.55498 33.6955H48.4451C49.45 30.9872 50 28.0579 50 24.9999C50 21.9419 49.45 19.0126 48.445 16.3043H1.55498Z" fill="#D80027"/>
</svg>
