<svg width="501" height="89" viewBox="0 0 501 89" fill="none" xmlns="http://www.w3.org/2000/svg">
<path fill-rule="evenodd" clip-rule="evenodd" d="M272.508 1.36255C253.855 0.819622 235.036 1.01646 224.128 1.13057C221.016 1.16312 218.548 1.18894 216.911 1.18894C202.516 1.18894 86.2476 2.18679 45.2769 4.1825C12.5004 5.77906 2.0916 22.1439 0.98428 30.1267C0.98428 30.1267 -1.23035 34.1181 0.98428 56.0709C3.19891 78.0236 15.3794 82.015 26.4525 85.0086C35.3111 87.4034 93.6297 88.6674 121.682 89C148.745 88.7097 206.179 88.0139 243.91 87.3108C257.577 87.6578 270.927 87.8848 280.644 88C311.649 87.6674 382.517 86.8026 417.951 86.0043C462.244 85.0064 484.39 79.0193 488.82 75.0279C493.249 71.0365 498.785 65.0494 499.893 58.0644C501 51.0794 501 44.0945 501 36.1116C501 28.1288 499.893 16.1546 484.39 7.17391C470.651 -0.785331 407.336 -0.123037 383.09 0.130579C379.979 0.163126 377.511 0.188943 375.873 0.188943C366.86 0.188943 317.908 0.580146 272.508 1.36255Z" fill="white"/>
</svg>
