<svg width="84" height="84" viewBox="0 0 84 84" fill="none" xmlns="http://www.w3.org/2000/svg">
<g clip-path="url(#clip0_273:4555)">
<path d="M68.058 9.07715C67.8678 41.5724 41.5726 67.8675 9.07739 68.0577C19.108 80.7407 35.5302 86.5363 51.2991 82.9597C67.0687 79.3823 79.3826 67.0685 82.9599 51.2989C86.5366 35.53 80.741 19.1077 68.058 9.07715Z" fill="#83D8F4"/>
<path d="M68.057 9.0766C51.3483 -4.1622 27.3697 -2.77764 12.296 12.2961C-2.77783 27.3699 -4.16238 51.3485 9.07641 68.0572C41.5716 67.867 67.8668 41.5718 68.057 9.0766Z" fill="#91DCF5"/>
<path d="M62.2751 17.3811C59.0746 18.8293 57.3082 17.1209 55.0341 18.8293C52.2247 20.9436 51.0954 26.4181 53.5859 30.4148C55.3488 33.2306 58.5096 33.937 62.0785 34.7163C65.6905 27.3063 67.7128 19.2238 68.0162 10.9858C66.9633 13.7571 64.9169 16.0368 62.2751 17.3811Z" fill="#00BB77"/>
<path d="M68.5154 9.43652C68.3846 9.96475 68.2156 10.4824 68.0098 10.9858C67.7072 19.2238 65.6841 27.3063 62.0728 34.7163L62.2751 34.7594C67.2426 35.8455 69.1688 33.5431 73.8606 34.7594C75.9537 35.3597 77.9174 36.3419 79.6534 37.6558C81.6651 39.3154 83.1522 41.5238 83.9329 44.0121C83.9647 43.3446 83.9979 42.6771 83.9979 42.0004C84.0092 29.3669 78.3204 17.403 68.5154 9.43652Z" fill="#00A468"/>
<path d="M40.5522 59.3788C43.4196 62.5503 44.1727 67.9089 42.0004 70.9644C40.234 73.4556 37.8156 72.6007 36.2076 75.3089C34.9913 77.5696 34.9913 80.2899 36.2076 82.5499C36.4311 82.9586 36.6976 83.3412 37.0031 83.6926C38.6613 83.8927 40.3301 83.9946 42.0004 83.9981C57.3153 84.0023 71.4168 75.6668 78.7977 62.2476C76.1637 60.4855 72.0489 58.1541 68.0678 57.9306C63.9877 57.5318 59.8949 58.555 56.4823 60.827C52.2105 63.9553 51.3705 68.3869 49.2413 68.068C47.7352 67.8509 46.9099 65.4177 46.3449 63.7234C45.0516 59.8653 45.7531 57.2546 45.7411 55.0908C43.9725 56.5058 42.1248 57.8182 40.2064 59.021C40.3556 59.1674 40.4786 59.2968 40.5522 59.3788Z" fill="#00A468"/>
<path d="M44.8967 52.1379C43.4053 50.0526 40.6249 49.6616 37.6557 49.2416C31.4288 48.3725 28.9814 51.0518 26.0702 49.2416C23.6978 47.6618 22.5452 44.7817 23.1738 42.0006C24.3907 38.366 29.7055 39.5971 36.2075 34.7596C38.3077 33.2103 43.3035 29.4887 43.4485 24.6223C43.5934 19.8577 38.9448 18.4965 37.6557 13.0368C37.0957 10.6849 38.1408 5.27606 40.7897 0.046875C25.1997 0.487414 11.1392 9.53366 4.27517 23.5376V23.551C3.346 28.696 3.37075 33.9684 4.34729 39.1042C5.2312 44.9408 6.04157 50.2407 10.1401 55.0343C11.9362 57.1486 14.7017 60.3639 18.8292 60.8271C23.4057 61.3341 29.4446 58.4087 30.4147 57.9307C31.7123 57.0786 33.21 56.5794 34.7593 56.4825C36.8298 56.6148 38.7744 57.5206 40.2063 59.0211C42.1247 57.8183 43.9725 56.5059 45.741 55.0909C45.7898 54.0408 45.4935 53.0035 44.8967 52.1379Z" fill="#00BB77"/>
<path d="M30.4148 11.5885C30.4148 17.9894 18.8293 33.3113 18.8293 33.3113C18.8293 33.3113 11.6032 23.7531 8.56186 16.585C7.81301 15.0166 7.36611 13.3216 7.24377 11.5885C7.24377 5.1904 12.4312 0.00292969 18.8293 0.00292969C25.2281 0.00292969 30.4148 5.1904 30.4148 11.5885Z" fill="#FF5023"/>
<path d="M23.1739 10.14C23.1739 12.5393 21.2286 14.4846 18.8293 14.4846C16.43 14.4846 14.4847 12.5393 14.4847 10.14C14.4847 7.74071 16.43 5.79541 18.8293 5.79541C21.2286 5.79541 23.1739 7.74071 23.1739 10.14Z" fill="#F1F2F2"/>
<path d="M73.8606 50.6895C73.5424 53.4056 72.6592 56.0248 71.2683 58.3795C68.611 63.2665 65.6057 67.9561 62.2751 72.4124C62.2751 72.4124 58.4807 67.3876 55.2222 61.884C54.0215 59.8878 52.9474 57.8174 52.0077 55.6861C51.2588 54.1177 50.8119 52.4227 50.6896 50.6895C50.6896 44.2915 55.877 39.104 62.2751 39.104C68.6739 39.104 73.8606 44.2915 73.8606 50.6895Z" fill="#FFCD00"/>
<path d="M66.6196 49.2416C66.6196 51.6408 64.6743 53.5861 62.2751 53.5861C59.8758 53.5861 57.9305 51.6408 57.9305 49.2416C57.9305 46.8423 59.8758 44.897 62.2751 44.897C64.6743 44.897 66.6196 46.8423 66.6196 49.2416Z" fill="#F1F2F2"/>
</g>
<defs>
<clipPath id="clip0_273:4555">
<rect width="84" height="84" fill="white"/>
</clipPath>
</defs>
</svg>
