<svg width="62" height="61" viewBox="0 0 62 61" fill="none" xmlns="http://www.w3.org/2000/svg">
<path d="M23.5208 4.16585C15.1276 4.41271 9.77669 7.89161 6.66865 12.7226C3.6889 17.3541 2.99996 22.8675 3 26.9748C3.00007 33.4322 3.00419 33.4833 3.31782 37.3654C3.38365 38.1804 3.46313 39.1642 3.55908 40.4116C3.90089 44.8554 6.10516 48.6455 8.80063 51.4203C11.4732 54.1715 14.8625 56.1686 18.0057 56.8671C20.7973 57.4875 26.6092 57.9845 32.3045 57.9565C35.1831 57.9424 38.1328 57.7943 40.7457 57.4371C43.2629 57.0929 45.8271 56.5115 47.6822 55.4293C55.4837 50.8784 57.921 43.1136 58.513 36.6011C58.5232 36.4895 58.5336 36.3757 58.5442 36.2598C58.8163 33.2788 59.2139 28.9253 58.8596 24.5324C58.4952 20.0145 57.3044 14.9519 53.8932 11.1996C50.8391 7.84008 47.971 5.76384 43.2016 4.77706C38.7981 3.866 32.7754 3.89366 23.5208 4.16585Z" fill="#FF6900" stroke="white" stroke-width="6"/>
</svg>
