<svg width="50" height="50" viewBox="0 0 50 50" fill="none" xmlns="http://www.w3.org/2000/svg">
<path d="M25 50C38.8071 50 50 38.8071 50 25C50 11.1929 38.8071 0 25 0C11.1929 0 0 11.1929 0 25C0 38.8071 11.1929 50 25 50Z" fill="#F0F0F0"/>
<path d="M50.0001 25.0002C50.0001 15.0886 44.232 6.52459 35.8696 2.48083V47.5194C44.232 43.4758 50.0001 34.9117 50.0001 25.0002Z" fill="#D80027"/>
<path d="M0 25.0002C0 34.9117 5.76807 43.4758 14.1305 47.5195V2.48083C5.76807 6.52459 0 15.0886 0 25.0002Z" fill="#6DA544"/>
<path d="M18.478 25.0002C18.478 28.6021 21.398 31.522 24.9998 31.522C28.6017 31.522 31.5216 28.6021 31.5216 25.0002V22.8263H18.478V25.0002Z" fill="#6DA544"/>
<path d="M33.6956 20.6523H27.1738C27.1738 19.4517 26.2005 18.4784 24.9999 18.4784C23.7993 18.4784 22.826 19.4517 22.826 20.6523H16.3042C16.3042 21.853 17.35 22.8262 18.5505 22.8262H18.4781C18.4781 24.0269 19.4514 25.0002 20.652 25.0002C20.652 26.2008 21.6253 27.1741 22.826 27.1741H27.1738C28.3745 27.1741 29.3477 26.2008 29.3477 25.0002C30.5484 25.0002 31.5217 24.0269 31.5217 22.8262H31.4492C32.6499 22.8262 33.6956 21.853 33.6956 20.6523Z" fill="#FF9811"/>
</svg>
