<svg width="350" height="570" viewBox="0 0 350 570" fill="none" xmlns="http://www.w3.org/2000/svg">
<path d="M6.12292 42.8366C0.220908 60.3358 0.757455 94.6051 0.0867728 112.104C-0.58391 129.603 2.76947 442.402 5.4522 487.608C8.13493 532.814 13.5004 545.209 28.2554 556.876C43.0104 568.542 65.8137 570 140.93 570C216.047 570 295.187 566.354 312.625 559.792C330.063 553.23 341.464 542.293 347.5 501.461C353.536 460.63 346.83 71.2728 346.159 60.3358C345.488 49.3988 341.464 12.213 307.259 4.92165C273.055 -2.36968 114.773 -0.182283 72.5205 2.73425C30.2675 5.65078 13.5004 20.9626 6.12292 42.8366Z" fill="white"/>
</svg>
