<svg width="462" height="374" viewBox="0 0 462 374" fill="none" xmlns="http://www.w3.org/2000/svg">
<path d="M457.642 54.0209C453.083 16.8392 429.49 4.20699 418.264 2.53858C415.155 1.86789 414.637 1.82355 392.357 0.393487C374.533 -0.750565 237.433 0.870168 171.111 1.82354C145.376 2.30023 88.001 3.82563 64.3738 6.11373C34.8398 8.97385 33.8035 9.68889 24.9951 13.264C16.1868 16.8392 4.78769 34.715 2.71512 51.1607C1.05707 64.3173 0.297115 94.7777 0.124415 108.363C-0.393715 176.291 0.435289 317.01 7.8965 336.458C17.223 360.77 28.104 365.775 43.6482 370.065C59.1924 374.355 138.468 372.925 194.427 372.925C250.386 372.925 396.502 370.065 415.673 368.635C434.844 367.205 448.316 357.909 455.052 337.889C460.44 321.872 461.787 236.354 461.787 195.597C462.306 163.897 462.202 91.2025 457.642 54.0209Z" fill="white"/>
</svg>
