<svg width="540" height="441" viewBox="0 0 540 441" fill="none" xmlns="http://www.w3.org/2000/svg">
<path d="M534.907 63.8428C529.577 19.9009 502.001 4.9719 488.88 3.00014C485.246 2.2075 484.64 2.15511 458.599 0.46503C437.765 -0.887031 277.519 1.02838 200 2.15509C169.92 2.71845 102.858 4.52119 75.2421 7.22531C40.7219 10.6055 39.5106 11.4505 29.2151 15.6757C18.9196 19.9009 5.59601 41.0268 3.17352 60.4627C1.23553 76.0114 0.347285 112.01 0.145441 128.066C-0.460214 208.344 0.508773 374.648 9.22966 397.633C20.1308 426.364 32.8488 432.279 51.0174 437.349C69.1859 442.42 161.846 440.73 227.252 440.73C292.659 440.73 463.444 437.349 485.851 435.659C508.259 433.969 524.005 422.984 531.878 399.323C538.177 380.394 539.751 279.327 539.751 231.16C540.357 193.697 540.236 107.785 534.907 63.8428Z" fill="white"/>
</svg>
