<svg width="1195" height="396" viewBox="0 0 1195 396" fill="none" xmlns="http://www.w3.org/2000/svg">
<path d="M6.87015 331.985C14.8242 379.978 80.1502 394.001 111.819 395.014C146.065 397.292 692.904 395.014 766.921 394.254C826.134 393.647 1022.85 388.938 1113.8 386.66C1130.38 385.648 1167.05 378.003 1181.19 355.526C1195.33 333.048 1195.92 250.477 1194.45 212.002C1193.34 174.539 1189.81 92.6267 1184.51 64.6814C1177.88 29.7496 1161.31 15.3214 1128.17 6.96815C1101.65 0.285568 1042.73 -0.372575 1016.59 0.133681C728.992 0.893076 145.403 2.56372 111.819 3.17121C69.8395 3.9306 37.8024 10.765 16.8127 31.2684C-4.1771 51.7718 -3.07238 271.993 6.87015 331.985Z" fill="white"/>
<mask id="mask0_616_11546" style="mask-type:alpha" maskUnits="userSpaceOnUse" x="0" y="0" width="1195" height="396">
<path d="M6.87015 331.985C14.8242 379.978 80.1502 394.001 111.819 395.014C146.065 397.292 692.904 395.014 766.921 394.254C826.134 393.647 1022.85 388.938 1113.8 386.66C1130.38 385.648 1167.05 378.003 1181.19 355.526C1195.33 333.048 1195.92 250.477 1194.45 212.002C1193.34 174.539 1189.81 92.6267 1184.51 64.6814C1177.88 29.7496 1161.31 15.3214 1128.17 6.96815C1101.65 0.285568 1042.73 -0.372575 1016.59 0.133681C728.992 0.893076 145.403 2.56372 111.819 3.17121C69.8395 3.9306 37.8024 10.765 16.8127 31.2684C-4.1771 51.7718 -3.07238 271.993 6.87015 331.985Z" fill="white"/>
</mask>
<g mask="url(#mask0_616_11546)">
</g>
</svg>
