<svg width="319" height="215" viewBox="0 0 319 215" fill="none" xmlns="http://www.w3.org/2000/svg">
<path d="M43.6917 6.45857C14.9339 10.0768 5.17679 25.1528 3.89296 32.2386C-3.81002 59.3754 1.96722 129.027 3.89296 161.591C5.81871 194.155 16.0894 202.296 35.3468 209.08C54.6043 215.864 147.682 214.96 165.656 214.96C183.629 214.96 249.105 213.603 261.301 213.151C273.497 212.699 311.37 211.794 315.864 177.873C320.357 143.952 319.073 96.0101 317.79 63.8982C316.506 31.7863 310.087 18.6701 289.545 7.81541C269.004 -3.03932 172.717 0.578919 155.385 0.578919C138.053 0.578919 79.639 1.93576 43.6917 6.45857Z" fill="#FF6900"/>
</svg>
