<svg width="821" height="689" viewBox="0 0 821 689" fill="none" xmlns="http://www.w3.org/2000/svg">
<path d="M112.448 20.6975C38.4349 32.2927 13.3233 80.606 10.0192 103.313C-9.80573 190.277 5.06296 413.485 10.0192 517.842C14.9754 622.199 41.4087 648.288 90.971 670.029C140.533 691.77 380.084 688.871 426.343 688.871C472.601 688.871 641.113 684.523 672.502 683.074C703.892 681.624 801.364 678.726 812.929 570.021C824.493 461.315 821.189 307.679 817.885 204.771C814.581 101.864 798.06 59.8313 745.193 25.0457C692.327 -9.73998 444.515 1.85523 399.909 1.85523C355.303 1.85523 204.964 6.20344 112.448 20.6975Z" fill="white"/>
</svg>
