<svg width="339" height="530" viewBox="0 0 339 530" fill="none" xmlns="http://www.w3.org/2000/svg">
<path d="M49.0765 4.99914C15.298 10.2299 3.82194 37.2951 2.30623 50.1738C1.69692 53.7402 1.65665 54.3346 0.357475 79.894C-0.681864 100.341 0.790533 257.621 1.65665 333.704C2.08971 363.226 3.47549 429.046 5.55417 456.151C8.15251 490.032 8.8021 491.221 12.05 501.326C15.298 511.431 31.5376 524.508 46.4781 526.885C58.4305 528.787 86.1029 529.659 98.4451 529.857C160.156 530.452 287.994 529.501 305.663 520.941C327.749 510.242 332.296 497.759 336.194 479.927C340.091 462.095 338.792 371.152 338.792 306.956C338.792 242.76 336.194 75.1387 334.895 53.1458C333.595 31.1529 325.151 15.6984 306.962 7.97115C292.412 1.78936 214.721 0.243909 177.695 0.24391C148.896 -0.350494 82.855 -0.231613 49.0765 4.99914Z" fill="white"/>
</svg>
