<svg width="722" height="521" viewBox="0 0 722 521" fill="none" xmlns="http://www.w3.org/2000/svg">
<path d="M98.8885 15.6508C33.8003 24.4187 11.7168 60.9517 8.81103 78.1223C-8.62331 143.882 4.45245 312.664 8.81103 391.576C13.1696 470.487 36.4154 490.215 80.0013 506.655C123.587 523.095 334.252 520.903 374.932 520.903C415.612 520.903 563.804 517.615 591.409 516.519C619.013 515.423 704.732 513.231 714.902 431.032C725.072 348.832 722.166 232.657 719.26 154.842C716.355 77.0263 701.826 45.2425 655.335 18.9387C608.843 -7.36506 390.914 1.40287 351.686 1.40287C312.459 1.40287 180.249 4.69084 98.8885 15.6508Z" fill="#9F9F9F"/>
</svg>
