<svg width="375" height="731" viewBox="0 0 375 731" fill="none" xmlns="http://www.w3.org/2000/svg">
<path d="M-4.81963 11.4151C-52.3286 17.8102 -68.4477 44.4562 -70.5687 56.9798C-83.2943 104.943 -73.7501 228.047 -70.5687 285.602C-67.3873 343.158 -50.4198 357.547 -18.6057 369.537C13.2083 381.528 166.976 379.929 196.669 379.929C226.362 379.929 334.53 377.531 354.679 376.732C374.828 375.932 437.396 374.333 444.819 314.38C452.242 254.427 450.121 169.692 448 112.936C445.879 56.1804 435.275 32.9984 401.34 13.8133C367.405 -5.37183 208.335 1.02321 179.702 1.02321C151.069 1.02321 54.5666 3.42134 -4.81963 11.4151Z" fill="white"/>
<path d="M-4.81963 362.415C-52.3286 368.81 -68.4477 395.456 -70.5687 407.98C-83.2943 455.943 -73.7501 579.047 -70.5687 636.602C-67.3873 694.158 -50.4198 708.547 -18.6057 720.537C13.2083 732.528 166.976 730.929 196.669 730.929C226.362 730.929 334.53 728.531 354.679 727.732C374.828 726.932 437.396 725.333 444.819 665.38C452.242 605.427 450.121 520.692 448 463.936C445.879 407.18 435.275 383.998 401.34 364.813C367.405 345.628 208.335 352.023 179.702 352.023C151.069 352.023 54.5666 354.421 -4.81963 362.415Z" fill="white"/>
</svg>
