<svg width="31" height="26" viewBox="0 0 31 26" fill="none" xmlns="http://www.w3.org/2000/svg">
<path d="M29.748 11.6572L18.9742 0.883097C18.6667 0.57555 18.2568 0.406738 17.8197 0.406738C17.3821 0.406738 16.9725 0.575792 16.6649 0.883097L15.6868 1.86152C15.3794 2.16858 15.2102 2.57873 15.2102 3.01604C15.2102 3.4531 15.3794 3.87707 15.6868 4.18413L21.9721 10.4833H2.00334C1.10302 10.4833 0.391632 11.1881 0.391632 12.0887V13.4719C0.391632 14.3725 1.10302 15.1484 2.00334 15.1484H22.0434L15.687 21.4827C15.3797 21.7902 15.2104 22.1892 15.2104 22.6265C15.2104 23.0633 15.3797 23.4682 15.687 23.7755L16.6652 24.7507C16.9727 25.0583 17.3824 25.2259 17.8199 25.2259C18.257 25.2259 18.6669 25.0561 18.9744 24.7486L29.7483 13.9747C30.0566 13.6662 30.2261 13.2543 30.2249 12.8166C30.2259 12.3773 30.0566 11.9652 29.748 11.6572Z" fill="white"/>
</svg>
