<svg width="424" height="260" viewBox="0 0 424 260" fill="none" xmlns="http://www.w3.org/2000/svg">
<path d="M29.8275 47.6627C18.8463 51.3201 13.3043 61.1531 10.7081 71.0892C8.10981 81.0335 8.24847 91.7743 9.16449 98.701C10.4973 113.763 14.5028 148.393 19.9286 165.742C23.0369 175.68 31.0213 179.962 39.0885 181.332C47.0499 182.683 55.5166 181.324 60.9129 179.685C181.437 143.77 301.488 156.734 346.51 167.703C353.029 170.448 363.034 172.755 371.829 170.258C376.374 168.968 380.616 166.383 383.762 161.944C386.885 157.537 388.763 151.537 389.044 143.681C389.93 118.908 391.353 113.459 393.831 103.974C395.049 99.3148 396.52 93.6822 398.307 84.308C400.631 72.1198 396.732 63.2602 390.761 57.2942C384.947 51.4851 377.315 48.5418 371.993 47.5659C297.151 31.5476 217.72 29.5576 154.048 32.5554C122.193 34.0551 94.2479 36.805 72.7487 39.6831C51.3426 42.5488 36.1151 45.5685 29.8275 47.6627Z" fill="#772583" stroke="white" stroke-width="6"/>
<path d="M365.661 141.926C364.693 143.725 364.581 145.639 365.358 147.385C366.058 148.959 367.333 150.067 368.491 150.824C368.516 150.841 368.542 150.858 368.568 150.874C367.026 152.4 366.512 154.701 366.568 156.534C366.641 158.944 367.668 161.689 370.143 163.545C371.38 164.473 372.787 164.851 374.195 164.709C374.935 164.634 375.61 164.423 376.208 164.148C376.483 164.711 376.825 165.24 377.227 165.776C378.628 167.644 381.074 168.309 383.071 168.238C385.247 168.16 387.704 167.213 389.349 164.911C389.993 164.008 390.345 163.045 390.509 162.104C392.239 162.594 394.133 162.512 395.824 161.633C398.282 160.354 399.614 157.771 399.614 154.674C399.614 151.894 398.015 149.967 396.398 148.744C396.767 148.376 397.117 147.969 397.437 147.52C399.327 144.875 398.838 141.868 397.427 139.792C396.069 137.796 393.666 136.305 390.952 136.305C389.941 136.305 389.008 136.552 388.175 136.923C387.954 135.512 387.348 133.973 385.833 132.878C383.895 131.479 381.32 131.465 378.73 131.896C376.953 132.192 375.545 133.128 374.653 134.524C374.168 135.282 373.885 136.096 373.728 136.883C373.272 136.788 372.788 136.741 372.278 136.762C369.439 136.875 367.274 138.931 365.661 141.926Z" fill="#47D7AC" stroke="white" stroke-width="6"/>
<path d="M382.406 146.811C379.818 146.488 379.171 148.833 379.171 150.047C379.171 152.474 380.789 153.282 382.811 153.282C384.833 153.282 385.642 151.26 385.642 150.047C385.642 148.834 385.642 147.216 382.406 146.811Z" fill="white"/>
<path d="M386.927 170.46C386.604 171.467 386.37 172.562 386.199 173.662C384.027 170.952 381.805 169.461 379.665 168.727C377.595 168.017 375.694 168.113 374.952 168.15C374.84 168.156 374.754 168.16 374.698 168.16C373.403 168.16 371.552 168.491 369.963 169.987C368.387 171.47 367.5 173.693 367.26 176.573C367.11 178.374 367.741 180.074 368.466 181.43C369.216 182.832 370.242 184.19 371.307 185.409C371.384 185.497 371.461 185.584 371.538 185.671C369.895 185.604 368.131 185.551 366.205 185.551C362.399 185.551 359.132 187.752 357.632 190.902C356.072 194.178 356.532 198.212 359.545 201.499C360.948 203.03 362.797 203.888 364.593 204.368C365.523 204.617 366.491 204.778 367.463 204.874C366.528 205.835 365.917 207.073 365.546 208.235C365.101 209.632 364.9 211.228 365.036 212.82C365.309 216.027 367.066 219.709 371.448 220.961C373.491 221.545 375.508 221.096 377.16 220.402C378.834 219.698 380.443 218.612 381.872 217.457C382.529 216.926 383.171 216.362 383.788 215.783C384.136 217.59 384.745 219.958 385.708 222.126C386.734 224.434 388.775 226.942 391.647 227.899C393.159 228.403 394.854 228.449 396.556 227.811C398.221 227.187 399.682 225.988 400.939 224.354C403.274 221.318 403.445 217.083 403.123 213.725C403.466 213.989 403.793 214.234 404.097 214.451C406.162 215.926 409.589 216.813 412.581 216.337C414.152 216.087 415.889 215.414 417.191 213.937C418.535 212.413 419.086 210.411 418.946 208.182C418.803 205.888 417.536 203.967 416.178 202.51C414.978 201.222 413.481 200.052 411.92 199.019C412.174 198.969 412.429 198.915 412.683 198.856C414.139 198.52 415.772 198.002 417.167 197.165C418.552 196.335 420.078 194.951 420.512 192.78C421.047 190.104 420.669 187.191 419.162 184.751C417.616 182.247 415.009 180.455 411.555 179.924C409.247 179.569 406.654 179.945 404.362 180.515C404.784 179.243 405.087 177.888 405.234 176.54C405.524 173.872 405.257 170.64 403.388 168.147C401.77 165.99 399.485 164.481 396.874 164.097C394.219 163.707 391.532 164.528 389.305 166.476C388.054 167.571 387.355 169.127 386.927 170.46Z" fill="#EE2737" stroke="white" stroke-width="6"/>
<path d="M389.812 189.767C386.253 190.414 385.093 193.002 384.959 194.216C384.15 198.665 387.385 201.901 391.025 201.496C394.665 201.092 395.879 197.451 395.879 195.025C395.879 192.598 394.261 188.958 389.812 189.767Z" fill="white"/>
</svg>
