<svg width="330" height="438" viewBox="0 0 330 438" fill="none" xmlns="http://www.w3.org/2000/svg">
<path d="M45.1983 13.1575C15.4489 20.5286 5.3553 51.2416 4.0272 65.6767C-3.9414 120.96 2.03505 262.854 4.0272 329.194C6.01935 395.534 16.6442 412.119 36.5657 425.94C56.4872 439.761 152.774 437.918 171.368 437.918C189.961 437.918 257.694 435.154 270.311 434.233C282.928 433.311 322.107 431.469 326.756 362.364C331.404 293.26 330.076 195.593 328.748 130.174C327.42 64.7553 320.779 38.035 299.53 15.9216C278.28 -6.19174 178.672 1.17938 160.743 1.17938C142.814 1.17938 82.3852 3.94355 45.1983 13.1575Z" fill="white"/>
</svg>
