<svg width="299" height="126" viewBox="0 0 299 126" fill="none" xmlns="http://www.w3.org/2000/svg">
<g filter="url(#filter0_d_957_19598)">
<path d="M19.5008 49.7398C8.03066 55.043 9.75317 68.9237 12.0482 75.2012C14.222 82.3933 19.7832 98.6992 24.6378 106.385C29.4924 114.071 42.972 110.633 49.105 107.954C122.127 76.4403 199.19 69.0084 228.594 69.2317C236.868 70.4027 252.921 69.0852 250.946 54.4472C248.476 36.1496 250.62 38.4373 251.485 24.2192C252.176 12.8448 239.775 10.5065 233.488 10.7591C137.035 12.2601 33.8384 43.1107 19.5008 49.7398Z" fill="#FFB81C"/>
<path d="M18.2418 47.0167C11.3603 50.1984 8.46635 56.0258 7.64388 61.6728C6.84503 67.1576 7.94097 72.6643 9.20057 76.1487C10.3099 79.8114 12.2547 85.7118 14.5354 91.679C16.8114 97.6341 19.503 103.873 22.1013 107.987C25.4131 113.23 31.4478 114.304 36.5395 114.053C41.7431 113.797 47.0062 112.144 50.3002 110.706C122.699 79.4623 199.151 72.0436 228.377 72.2302C232.791 72.8265 239.362 72.8034 244.773 70.5345C247.572 69.3612 250.22 67.5175 251.992 64.6909C253.785 61.8309 254.489 58.2707 253.919 54.0459C252.695 44.9789 252.649 41.2426 252.951 38.0901C253.061 36.948 253.213 35.9009 253.394 34.6525C253.477 34.0788 253.566 33.4626 253.661 32.7751C253.953 30.6439 254.258 28.0446 254.479 24.4013C254.688 20.9741 253.908 18.0548 252.374 15.6627C250.861 13.3022 248.728 11.6319 246.487 10.4671C242.092 8.18289 236.875 7.62618 233.405 7.76003C184.917 8.51818 134.806 16.6452 95.0561 25.3965C55.3892 34.1296 25.7291 43.5549 18.2418 47.0167Z" stroke="white" stroke-width="6"/>
</g>
<g filter="url(#filter1_d_957_19598)">
<circle cx="239.317" cy="74.6271" r="9.37518" fill="white"/>
<circle cx="244.005" cy="62.1269" r="9.37518" fill="white"/>
<path d="M286.752 80.5083L286.848 80.4121L286.935 80.3075C288.494 78.4365 290.36 75.2483 290.917 71.5706C291.499 67.7288 290.627 63.3417 286.637 59.7505C284.435 57.7683 281.891 57.0405 279.335 57.321C277.019 57.5751 274.885 58.6299 273.069 59.8958C273.37 58.3665 273.568 56.9153 273.568 55.7303C273.568 53.806 272.801 51.8334 271.746 50.1689C270.663 48.4599 269.116 46.8199 267.213 45.5921C265.299 44.3573 262.961 43.5016 260.35 43.5016C257.714 43.5016 255.006 44.3748 252.396 46.2727C247.609 49.7548 246.991 55.6458 247.527 60.4753C247.996 64.7078 249.416 68.932 250.779 71.9949C248.774 73.0303 246.396 74.4535 244.201 76.1501C241.264 78.4203 238.037 81.6457 237.17 85.5488C236.404 88.9963 235.738 92.848 237.255 96.2947C238.856 99.9337 242.436 102.257 247.81 103.911C250.721 104.807 253.399 104.308 255.638 102.909C257.762 101.582 259.372 99.5294 260.587 97.4274C260.834 96.9986 261.071 96.5582 261.297 96.1092C263.047 100.655 265.528 103.047 268.056 103.89C269.264 104.292 270.716 104.29 272.046 104.098C273.454 103.895 275.033 103.435 276.597 102.653C279.761 101.071 282.935 98.1257 284.379 93.3118C285.669 89.0102 284.731 85.4798 283.12 82.8604C284.778 82.1592 286.038 81.2216 286.752 80.5083Z" fill="#FF6900" stroke="white" stroke-width="6"/>
<circle cx="239.317" cy="74.4806" r="1.56253" fill="#FF6900"/>
<circle cx="244.005" cy="61.9804" r="1.56253" fill="#FF6900"/>
<path d="M244.004 61.9803C243.484 64.0637 245.254 69.4805 256.505 74.4806" stroke="#FF6900"/>
<path d="M239.317 74.4806C239.577 73.6994 241.036 72.1368 244.786 72.1368C248.536 72.1368 256.765 73.6994 260.411 74.4806" stroke="#FF6900"/>
</g>
<defs>
<filter id="filter0_d_957_19598" x="0.372086" y="4.74146" width="261.14" height="120.344" filterUnits="userSpaceOnUse" color-interpolation-filters="sRGB">
<feFlood flood-opacity="0" result="BackgroundImageFix"/>
<feColorMatrix in="SourceAlpha" type="matrix" values="0 0 0 0 0 0 0 0 0 0 0 0 0 0 0 0 0 0 127 0" result="hardAlpha"/>
<feOffset dy="4"/>
<feGaussianBlur stdDeviation="2"/>
<feComposite in2="hardAlpha" operator="out"/>
<feColorMatrix type="matrix" values="0 0 0 0 0 0 0 0 0 0 0 0 0 0 0 0 0 0 0.25 0"/>
<feBlend mode="normal" in2="BackgroundImageFix" result="effect1_dropShadow_957_19598"/>
<feBlend mode="normal" in="SourceGraphic" in2="effect1_dropShadow_957_19598" result="shape"/>
</filter>
<filter id="filter1_d_957_19598" x="225.942" y="40.5016" width="72.1373" height="74.8593" filterUnits="userSpaceOnUse" color-interpolation-filters="sRGB">
<feFlood flood-opacity="0" result="BackgroundImageFix"/>
<feColorMatrix in="SourceAlpha" type="matrix" values="0 0 0 0 0 0 0 0 0 0 0 0 0 0 0 0 0 0 127 0" result="hardAlpha"/>
<feOffset dy="4"/>
<feGaussianBlur stdDeviation="2"/>
<feComposite in2="hardAlpha" operator="out"/>
<feColorMatrix type="matrix" values="0 0 0 0 0 0 0 0 0 0 0 0 0 0 0 0 0 0 0.25 0"/>
<feBlend mode="normal" in2="BackgroundImageFix" result="effect1_dropShadow_957_19598"/>
<feBlend mode="normal" in="SourceGraphic" in2="effect1_dropShadow_957_19598" result="shape"/>
</filter>
</defs>
</svg>
