<svg width="35" height="35" viewBox="0 0 35 35" fill="none" xmlns="http://www.w3.org/2000/svg">
<g clip-path="url(#clip0_273:3292)">
<path d="M10.4273 25.6841V32.4478C10.4273 32.9203 10.7306 33.3388 11.1798 33.4876C11.2921 33.524 11.4073 33.5415 11.521 33.5415C11.8623 33.5415 12.1919 33.3811 12.4018 33.0953L16.3583 27.7112L10.4273 25.6841Z" fill="white"/>
<path d="M34.3949 0.202838C34.0594 -0.0348708 33.619 -0.0669541 33.2544 0.124088L0.441945 17.2595C0.0540283 17.4622 -0.17493 17.8764 -0.142847 18.3124C-0.109305 18.7499 0.180903 19.1233 0.593612 19.2647L9.71549 22.3826L29.1419 5.77221L14.1094 23.8833L29.3972 29.1085C29.5109 29.1464 29.6305 29.1668 29.7501 29.1668C29.9484 29.1668 30.1453 29.1128 30.3188 29.0078C30.5959 28.8387 30.784 28.5543 30.8322 28.2349L34.8426 1.25575C34.9024 0.847421 34.7303 0.442004 34.3949 0.202838Z" fill="white"/>
</g>
<defs>
<clipPath id="clip0_273:3292">
<rect width="35" height="35" fill="white"/>
</clipPath>
</defs>
</svg>
