<svg width="538" height="276" viewBox="0 0 538 276" fill="none" xmlns="http://www.w3.org/2000/svg">
<g filter="url(#filter0_d_934_19546)">
<path d="M14.9167 59.8055C4.66109 84.1299 6.37047 82.1029 4.23378 134.806C2.09708 187.509 14.9169 214.874 30.9413 233.117C46.9656 251.36 79.0146 261.833 95.039 263.522C211.127 268.59 452.063 273.252 487.103 251.36C530.903 223.995 530.903 184.468 531.972 173.319C533.04 162.171 539.45 94.2651 518.084 51.6973C496.718 9.12962 459.328 3.04852 388.82 1.02149C318.313 -1.00555 157 4.06204 106.79 9.12963C56.5803 14.1972 27.7363 29.4 14.9167 59.8055Z" fill="#D00070"/>
</g>
<defs>
<filter id="filter0_d_934_19546" x="0.000366211" y="0.563843" width="537.698" height="275.193" filterUnits="userSpaceOnUse" color-interpolation-filters="sRGB">
<feFlood flood-opacity="0" result="BackgroundImageFix"/>
<feColorMatrix in="SourceAlpha" type="matrix" values="0 0 0 0 0 0 0 0 0 0 0 0 0 0 0 0 0 0 127 0" result="hardAlpha"/>
<feOffset dy="4"/>
<feGaussianBlur stdDeviation="2"/>
<feComposite in2="hardAlpha" operator="out"/>
<feColorMatrix type="matrix" values="0 0 0 0 0 0 0 0 0 0 0 0 0 0 0 0 0 0 0.25 0"/>
<feBlend mode="normal" in2="BackgroundImageFix" result="effect1_dropShadow_934_19546"/>
<feBlend mode="normal" in="SourceGraphic" in2="effect1_dropShadow_934_19546" result="shape"/>
</filter>
</defs>
</svg>
