<svg width="354" height="569" viewBox="0 0 354 569" fill="none" xmlns="http://www.w3.org/2000/svg">
<path d="M6.19289 43.0391C0.223433 60.49 0.766112 94.6647 0.0877645 112.116C-0.590583 129.566 2.80112 441.502 5.51451 486.583C8.22791 531.665 13.6547 544.026 28.5783 555.66C43.502 567.294 66.5658 568.748 142.541 568.748C218.516 568.748 298.561 565.112 316.198 558.568C333.835 552.024 345.367 541.117 351.472 500.398C357.577 459.68 350.793 71.3968 350.115 60.49C349.437 49.5831 345.367 12.5 310.771 5.22875C276.175 -2.04247 116.085 0.138898 73.3493 3.04738C30.6134 5.95587 13.6547 21.2254 6.19289 43.0391Z" fill="white"/>
</svg>
