<svg width="31" height="26" viewBox="0 0 31 26" fill="none" xmlns="http://www.w3.org/2000/svg">
<path d="M0.8685 11.6572L11.6423 0.883097C11.9499 0.57555 12.3598 0.406738 12.7969 0.406738C13.2344 0.406738 13.6441 0.575792 13.9516 0.883097L14.9298 1.86152C15.2371 2.16858 15.4064 2.57873 15.4064 3.01604C15.4064 3.4531 15.2371 3.87707 14.9298 4.18413L8.64449 10.4833H28.6132C29.5135 10.4833 30.2249 11.1881 30.2249 12.0887V13.4719C30.2249 14.3725 29.5135 15.1484 28.6132 15.1484H8.57318L14.9296 21.4827C15.2369 21.7902 15.4062 22.1892 15.4062 22.6265C15.4062 23.0633 15.2369 23.4682 14.9296 23.7755L13.9514 24.7507C13.6438 25.0583 13.2342 25.2259 12.7966 25.2259C12.3595 25.2259 11.9496 25.0561 11.6421 24.7486L0.868258 13.9747C0.559984 13.6662 0.390446 13.2543 0.391659 12.8166C0.390688 12.3773 0.559982 11.9652 0.8685 11.6572Z" fill="white"/>
</svg>
