<svg width="83" height="83" viewBox="0 0 83 83" fill="none" xmlns="http://www.w3.org/2000/svg">
<path d="M41.5 83C64.4198 83 83 64.4198 83 41.5C83 18.5802 64.4198 0 41.5 0C18.5802 0 0 18.5802 0 41.5C0 64.4198 18.5802 83 41.5 83Z" fill="#F0F0F0"/>
<path d="M80.4187 55.9353C82.087 51.4396 83 46.5769 83 41.5006C83 36.4243 82.087 31.5617 80.4187 27.0659H2.58127C0.913162 31.5617 0 36.4243 0 41.5006C0 46.5769 0.913162 51.4396 2.58127 55.9353L41.5 59.544L80.4187 55.9353Z" fill="#0052B4"/>
<path d="M41.4998 82.9994C59.3433 82.9994 74.5549 71.7373 80.4185 55.9341H2.58105C8.44471 71.7373 23.6562 82.9994 41.4998 82.9994Z" fill="#D80027"/>
</svg>
