<svg width="34" height="34" viewBox="0 0 34 34" fill="none" xmlns="http://www.w3.org/2000/svg">
<g clip-path="url(#clip0_273:4629)">
<path d="M33.5569 17.1615C33.1997 16.5265 32.3663 16.2884 31.6915 16.6852L27.167 19.3047L26.016 19.9794V26.2503L27.0876 26.8853C27.1273 26.8853 27.1273 26.925 27.167 26.925L31.6122 29.5048C31.8106 29.6636 32.0884 29.7429 32.3663 29.7429C33.1203 29.7429 33.7157 29.1476 33.7157 28.3935V23.0752L33.7554 17.8362C33.7554 17.5981 33.7157 17.36 33.5569 17.1615Z" fill="white"/>
<path d="M7.12419 15.1373C10.6565 15.1373 13.5141 12.2797 13.5141 8.74734C13.5141 5.21503 10.6565 2.35742 7.12419 2.35742C3.59187 2.35742 0.734267 5.21503 0.734267 8.74734C0.694578 12.2797 3.59187 15.1373 7.12419 15.1373ZM7.12419 6.12787C8.59268 6.12787 9.74366 7.31854 9.74366 8.74734C9.74366 10.2158 8.55299 11.3668 7.12419 11.3668C5.69538 11.3668 4.50472 10.1761 4.50472 8.74734C4.46503 7.27885 5.65569 6.12787 7.12419 6.12787Z" fill="white"/>
<path d="M23.3172 15.4945C22.2853 16.0105 21.1343 16.328 19.904 16.328C18.3958 16.328 16.967 15.8914 15.7763 15.0977H11.2518C10.0611 15.8914 8.63231 16.328 7.12413 16.328C5.89378 16.328 4.7428 16.0502 3.71089 15.4945C2.79804 16.0105 2.16302 17.0424 2.16302 18.1537V27.8378C2.16302 29.6238 3.63151 31.0526 5.37782 31.0526H21.69C23.476 31.0526 24.9048 29.5841 24.9048 27.8378V18.1537C24.8651 17.0424 24.2301 16.0105 23.3172 15.4945Z" fill="white"/>
<path d="M19.904 15.1373C23.4364 15.1373 26.294 12.2797 26.294 8.74734C26.294 5.21503 23.4364 2.35742 19.904 2.35742C16.3717 2.35742 13.5141 5.21503 13.5141 8.74734C13.5141 12.2797 16.3717 15.1373 19.904 15.1373ZM19.904 6.12787C21.3725 6.12787 22.5235 7.31854 22.5235 8.74734C22.5235 10.2158 21.3328 11.3668 19.904 11.3668C18.4752 11.3668 17.2846 10.1761 17.2846 8.74734C17.2846 7.27885 18.4355 6.12787 19.904 6.12787Z" fill="white"/>
</g>
<defs>
<clipPath id="clip0_273:4629">
<rect width="33.0216" height="33.0216" fill="white" transform="translate(0.73381 0.194336)"/>
</clipPath>
</defs>
</svg>
