<svg width="157" height="67" viewBox="0 0 157 67" fill="none" xmlns="http://www.w3.org/2000/svg">
<path d="M144.185 9.21855C149.186 10.8856 151.543 15.3276 152.589 19.3318C153.636 23.344 153.581 27.6144 153.219 30.3929C152.716 36.0547 151.202 49.2293 149.099 55.9593C147.653 60.5881 143.891 62.5207 140.426 63.1096C137.067 63.6803 133.583 63.1092 131.371 62.437C86.5916 49.0839 41.9529 53.8664 25.1767 57.923C22.5257 59.0134 18.3804 59.984 14.5659 58.9002C12.5053 58.3148 10.5275 57.1187 9.06567 55.0545C7.62616 53.0217 6.8524 50.382 6.73775 47.1715C6.41219 38.0557 5.92465 36.1952 5.01686 32.7311C4.55887 30.9835 3.99391 28.8276 3.28882 25.1258C2.29466 19.9065 3.97742 15.9552 6.63953 13.2932C9.144 10.7888 12.3738 9.54515 14.6501 9.12202C42.9789 3.0573 72.9905 2.3115 97.002 3.44293C109.026 4.0095 119.581 5.04855 127.712 6.13805C135.751 7.21507 141.634 8.36852 144.185 9.21855Z" fill="#77008C" stroke="white" stroke-width="6"/>
</svg>
