<svg width="375" height="979" viewBox="0 0 375 979" fill="none" xmlns="http://www.w3.org/2000/svg">
<g clip-path="url(#clip0_1298_25022)">
<path fill-rule="evenodd" clip-rule="evenodd" d="M393 213.88C471.985 192.15 523 157.737 523 119C523 53.2781 376.149 1.43585e-06 195 9.24993e-07C13.8506 4.14134e-07 -133 53.2781 -133 119C-133 158.225 -80.6906 193.017 9.59765e-07 214.696L4.14585e-06 927.409C-10.9408 931.886 -17 936.819 -17 942C-17 962.435 77.2441 979 193.5 979C309.756 979 404 962.435 404 942C404 937.861 400.133 933.88 393 930.164L393 213.88Z" fill="#EB008C"/>
</g>
<defs>
<clipPath id="clip0_1298_25022">
<rect width="375" height="979" fill="white"/>
</clipPath>
</defs>
</svg>
