<svg width="50" height="50" viewBox="0 0 50 50" fill="none" xmlns="http://www.w3.org/2000/svg">
<path d="M0 25.0002C0 28.0582 0.550098 30.9875 1.55498 33.6958L25 35.8697L48.445 33.6958C49.4499 30.9875 50 28.0582 50 25.0002C50 21.9421 49.4499 19.0128 48.445 16.3045L25 14.1306L1.55498 16.3045C0.550098 19.0128 0 21.9421 0 25.0002H0Z" fill="#FFDA44"/>
<path d="M48.4447 16.3044C44.9124 6.78447 35.7488 0 24.9997 0C14.2506 0 5.08701 6.78447 1.55469 16.3044H48.4447Z" fill="#D80027"/>
<path d="M1.55469 33.6957C5.08701 43.2156 14.2506 50.0001 24.9997 50.0001C35.7488 50.0001 44.9124 43.2156 48.4447 33.6957H1.55469Z" fill="#D80027"/>
</svg>
