<?xml version="1.0" encoding="UTF-8" standalone="no"?>
<svg
   width="120.451"
   height="132.935"
   viewBox="0 0 120.451 132.935"
   fill="none"
   version="1.1"
   id="svg39"
   sodipodi:docname="three.svg"
   inkscape:version="1.1.2 (b8e25be833, 2022-02-05)"
   xmlns:inkscape="http://www.inkscape.org/namespaces/inkscape"
   xmlns:sodipodi="http://sodipodi.sourceforge.net/DTD/sodipodi-0.dtd"
   xmlns="http://www.w3.org/2000/svg"
   xmlns:svg="http://www.w3.org/2000/svg">
  <sodipodi:namedview
     id="namedview41"
     pagecolor="#ffffff"
     bordercolor="#666666"
     borderopacity="1.0"
     inkscape:pageshadow="2"
     inkscape:pageopacity="0.0"
     inkscape:pagecheckerboard="0"
     showgrid="false"
     inkscape:zoom="3.2831325"
     inkscape:cx="66.856881"
     inkscape:cy="63.658716"
     inkscape:window-width="1366"
     inkscape:window-height="705"
     inkscape:window-x="-8"
     inkscape:window-y="-8"
     inkscape:window-maximized="1"
     inkscape:current-layer="svg39" />
  <g
     filter="url(#filter0_d_934_19535)"
     id="g18"
     transform="translate(-9.6732798,-23.946301)">
    <path
       d="m 123.012,65.9529 -7.226,-35.0134 c -0.622,-3.0154 -3.796,-4.7572 -6.674,-3.6629 l -33.4168,12.707 c -3.9859,1.5157 -4.3668,7.0051 -0.6285,9.0568 L 115.71,71.3468 c 3.738,2.0517 8.164,-1.2175 7.302,-5.3939 z"
       fill="#47d7ac"
       stroke="#ffffff"
       stroke-width="6"
       id="path2" />
    <path
       d="m 123.012,65.9529 -7.226,-35.0134 c -0.622,-3.0154 -3.796,-4.7572 -6.674,-3.6629 l -33.4168,12.707 c -3.9859,1.5157 -4.3668,7.0051 -0.6285,9.0568 L 115.71,71.3468 c 3.738,2.0517 8.164,-1.2175 7.302,-5.3939 z"
       fill="#47d7ac"
       stroke="#ffffff"
       stroke-width="6"
       id="path4" />
    <path
       d="M 118.754,104.461 106.823,47.2567 c -0.627,-3.0058 -3.79,-4.7416 -6.662,-3.6564 L 45.4972,64.2548 c -3.9937,1.5091 -4.3811,7.0064 -0.6384,9.0605 l 66.5952,36.5497 c 3.743,2.054 8.172,-1.225 7.3,-5.404 z"
       fill="#47d7ac"
       stroke="#ffffff"
       stroke-width="6"
       id="path6" />
    <path
       d="M 110.792,139.644 93.616,71.0461 C 92.9089,68.2219 89.9477,66.5967 87.1855,67.5169 L 20.0941,89.8661 c -4.1396,1.3789 -4.6505,7.0276 -0.8255,9.1269 l 84.2674,46.249 c 3.825,2.099 8.316,-1.365 7.256,-5.598 z"
       fill="#47d7ac"
       stroke="#ffffff"
       stroke-width="6"
       id="path8" />
    <rect
       x="58.319099"
       y="106.263"
       width="20.6619"
       height="28.298401"
       rx="5"
       transform="rotate(28.7595,58.3191,106.263)"
       fill="#47d7ac"
       stroke="#ffffff"
       stroke-width="6"
       id="rect10" />
    <path
       d="m 88.1337,70.3631 c 1.1048,-0.3681 2.2893,0.282 2.5722,1.4117 l 17.1761,68.5982 c 0.424,1.693 -1.372,3.079 -2.902,2.239 L 20.712,96.3631 c -1.53,-0.8397 -1.3256,-3.0992 0.3302,-3.6508 z"
       fill="#47d7ac"
       id="path12" />
    <path
       d="m 101.221,46.4067 c 1.149,-0.4341 2.414,0.2602 2.665,1.4625 l 11.932,57.2038 c 0.348,1.672 -1.423,2.984 -2.921,2.162 L 46.3023,70.6854 c -1.4971,-0.8217 -1.3422,-3.0206 0.2553,-3.6242 z"
       fill="#47d7ac"
       id="path14" />
    <path
       d="m 110.178,30.0808 c 1.152,-0.4378 2.421,0.2589 2.67,1.4651 l 7.226,35.0134 c 0.345,1.6705 -1.425,2.9782 -2.921,2.1575 L 76.5101,46.4105 c -1.4953,-0.8207 -1.3429,-3.0165 0.2514,-3.6227 z"
       fill="#47d7ac"
       id="path16" />
  </g>
  <defs
     id="defs37">
    <filter
       id="filter0_d_934_19535"
       x="9.6732798"
       y="23.946301"
       width="120.451"
       height="132.935"
       filterUnits="userSpaceOnUse"
       color-interpolation-filters="sRGB">
      <feFlood
         flood-opacity="0"
         result="BackgroundImageFix"
         id="feFlood20" />
      <feColorMatrix
         in="SourceAlpha"
         type="matrix"
         values="0 0 0 0 0 0 0 0 0 0 0 0 0 0 0 0 0 0 127 0"
         result="hardAlpha"
         id="feColorMatrix22" />
      <feOffset
         dy="4"
         id="feOffset24" />
      <feGaussianBlur
         stdDeviation="2"
         id="feGaussianBlur26" />
      <feComposite
         in2="hardAlpha"
         operator="out"
         id="feComposite28" />
      <feColorMatrix
         type="matrix"
         values="0 0 0 0 0 0 0 0 0 0 0 0 0 0 0 0 0 0 0.25 0"
         id="feColorMatrix30" />
      <feBlend
         mode="normal"
         in2="BackgroundImageFix"
         result="effect1_dropShadow_934_19535"
         id="feBlend32" />
      <feBlend
         mode="normal"
         in="SourceGraphic"
         in2="effect1_dropShadow_934_19535"
         result="shape"
         id="feBlend34" />
    </filter>
  </defs>
</svg>
