<svg width="1012" height="598" viewBox="0 0 1012 598" fill="none" xmlns="http://www.w3.org/2000/svg">
<path d="M5.81807 501.33C12.554 573.805 67.8762 594.981 94.6953 596.51C123.697 599.951 586.794 596.51 649.476 595.364C699.622 594.446 866.212 587.336 943.239 583.896C957.272 582.367 988.332 570.823 1000.31 536.879C1012.28 502.936 1012.78 378.246 1011.53 320.144C1010.6 263.571 1007.6 139.876 1003.11 97.6754C997.501 44.925 983.467 23.1369 955.401 10.5227C932.948 0.431286 883.052 -0.562551 860.91 0.201976C617.356 1.3487 123.136 3.87152 94.6953 4.78888C59.1444 5.93567 32.0135 16.2563 14.238 47.2185C-3.53743 78.1807 -2.60188 410.737 5.81807 501.33Z" fill="white"/>
<mask id="mask0_992_19671" style="mask-type:alpha" maskUnits="userSpaceOnUse" x="0" y="0" width="1012" height="598">
<path d="M5.81807 501.33C12.554 573.805 67.8762 594.981 94.6953 596.51C123.697 599.951 586.794 596.51 649.476 595.364C699.622 594.446 866.212 587.336 943.239 583.896C957.272 582.367 988.332 570.823 1000.31 536.879C1012.28 502.936 1012.78 378.246 1011.53 320.144C1010.6 263.571 1007.6 139.876 1003.11 97.6754C997.501 44.925 983.467 23.1369 955.401 10.5227C932.948 0.431286 883.052 -0.562551 860.91 0.201976C617.356 1.3487 123.136 3.87152 94.6953 4.78888C59.1444 5.93567 32.0135 16.2563 14.238 47.2185C-3.53743 78.1807 -2.60188 410.737 5.81807 501.33Z" fill="white"/>
</mask>
<g mask="url(#mask0_992_19671)">
<rect x="-85" y="-66" width="554" height="821" fill="#C4C4C4"/>
</g>
</svg>
