<svg width="244" height="199" viewBox="0 0 244 199" fill="none" xmlns="http://www.w3.org/2000/svg">
<g filter="url(#filter0_d_1050_19459)">
<path d="M195.576 103.592L189.856 70.6939C189.315 67.5818 185.984 65.79 183.016 67.0139L151.63 79.9521C147.737 81.5566 147.42 86.8715 151.098 88.8502L188.203 108.81C191.881 110.789 196.285 107.672 195.576 103.592Z" fill="#2DAE88" stroke="white" stroke-width="6"/>
<path d="M195.576 103.592L189.856 70.6939C189.315 67.5818 185.984 65.79 183.016 67.0139L151.63 79.9521C147.737 81.5566 147.42 86.8715 151.098 88.8502L188.203 108.81C191.881 110.789 196.285 107.672 195.576 103.592Z" fill="#2DAE88" stroke="white" stroke-width="6"/>
<path d="M191.205 139.644L181.712 85.716C181.166 82.6134 177.846 80.8276 174.883 82.0422L123.372 103.154C119.472 104.752 119.148 110.075 122.83 112.056L183.834 144.872C187.517 146.853 191.924 143.727 191.205 139.644Z" fill="#2DAE88" stroke="white" stroke-width="6"/>
<path d="M183.549 172.614L169.461 107.858C168.825 104.934 165.711 103.258 162.854 104.302L99.5717 127.426C95.526 128.905 95.0842 134.376 98.8471 136.4L176.217 178.033C179.98 180.058 184.45 176.754 183.549 172.614Z" fill="#2DAE88" stroke="white" stroke-width="6"/>
<rect x="-1.17178" y="-4.02078" width="19.3224" height="27.5273" rx="5" transform="matrix(0.876718 0.471791 -0.486126 0.86847 134.604 145.526)" fill="#2DAE88" stroke="white" stroke-width="6"/>
<path d="M163.767 107.206C164.905 106.795 166.142 107.462 166.4 108.627L180.755 173.285C181.124 174.946 179.335 176.275 177.826 175.462L100.28 133.622C98.7716 132.808 98.9519 130.61 100.575 130.024L163.767 107.206Z" fill="#2DAE88"/>
<path d="M175.926 84.8774C177.106 84.3986 178.426 85.1103 178.649 86.3461L188.365 140.193C188.661 141.832 186.897 143.09 185.421 142.294L124.268 109.308C122.792 108.512 122.925 106.373 124.49 105.738L175.926 84.8774Z" fill="#2DAE88"/>
<path d="M184.102 69.8063C185.284 69.3238 186.608 70.0378 186.829 71.2775L192.684 104.121C192.976 105.758 191.213 107.013 189.738 106.217L152.55 86.1574C151.075 85.3621 151.206 83.2268 152.767 82.5896L184.102 69.8063Z" fill="#2DAE88"/>
</g>
<g filter="url(#filter1_d_1050_19459)">
<path d="M143.609 66.5165L122.509 22.122C121.187 19.3411 117.69 18.4041 115.155 20.1516L74.6848 48.0484C71.1737 50.4687 72.1093 55.8911 76.2284 56.9948L137.799 73.4925C141.918 74.5962 145.439 70.368 143.609 66.5165Z" fill="#47D7AC" stroke="white" stroke-width="6"/>
<path d="M143.609 66.5165L122.509 22.122C121.187 19.3411 117.69 18.4041 115.155 20.1516L74.6848 48.0484C71.1737 50.4687 72.1093 55.8911 76.2284 56.9948L137.799 73.4925C141.918 74.5962 145.439 70.368 143.609 66.5165Z" fill="#47D7AC" stroke="white" stroke-width="6"/>
<path d="M150.224 117.071L116.16 45.7885C114.837 43.0181 111.352 42.0843 108.82 43.8216L43.6788 88.5226C40.1586 90.9382 41.0899 96.3699 45.2137 97.4749L144.419 124.057C148.542 125.162 152.065 120.923 150.224 117.071Z" fill="#47D7AC" stroke="white" stroke-width="6"/>
<path d="M151.159 164.606L106.743 80.4231C105.385 77.8481 102.122 76.9739 99.6579 78.5246L19.1013 129.221C15.4084 131.545 16.2557 137.153 20.4703 138.282L145.443 171.769C149.658 172.898 153.195 168.465 151.159 164.606Z" fill="#47D7AC" stroke="white" stroke-width="6"/>
<rect x="74.4785" y="137.804" width="25.2932" height="35.3417" rx="5" transform="rotate(15 74.4785 137.804)" fill="#47D7AC" stroke="white" stroke-width="6"/>
<path d="M101.256 81.0636C102.241 80.4433 103.547 80.793 104.09 81.823L148.506 166.006C149.32 167.549 147.905 169.323 146.219 168.871L21.2468 135.384C19.5609 134.933 19.222 132.69 20.6991 131.76L101.256 81.0636Z" fill="#47D7AC"/>
<path d="M110.518 46.295C111.53 45.6001 112.924 45.9736 113.454 47.0817L147.517 118.365C148.254 119.905 146.845 121.601 145.195 121.159L45.9902 94.5769C44.3407 94.1349 43.9681 91.9622 45.3762 90.9959L110.518 46.295Z" fill="#47D7AC"/>
<path d="M116.858 22.6216C117.872 21.9226 119.27 22.2974 119.799 23.4098L140.899 67.8043C141.631 69.3449 140.223 71.0362 138.575 70.5947L77.0049 54.097C75.3572 53.6555 74.983 51.4866 76.3874 50.5185L116.858 22.6216Z" fill="#47D7AC"/>
</g>
<defs>
<filter id="filter0_d_1050_19459" x="89.2571" y="63.6594" width="113.405" height="125.958" filterUnits="userSpaceOnUse" color-interpolation-filters="sRGB">
<feFlood flood-opacity="0" result="BackgroundImageFix"/>
<feColorMatrix in="SourceAlpha" type="matrix" values="0 0 0 0 0 0 0 0 0 0 0 0 0 0 0 0 0 0 127 0" result="hardAlpha"/>
<feOffset dy="4"/>
<feGaussianBlur stdDeviation="2"/>
<feComposite in2="hardAlpha" operator="out"/>
<feColorMatrix type="matrix" values="0 0 0 0 0 0 0 0 0 0 0 0 0 0 0 0 0 0 0.25 0"/>
<feBlend mode="normal" in2="BackgroundImageFix" result="effect1_dropShadow_1050_19459"/>
<feBlend mode="normal" in="SourceGraphic" in2="effect1_dropShadow_1050_19459" result="shape"/>
</filter>
<filter id="filter1_d_1050_19459" x="9.76172" y="16.2661" width="148.998" height="172.1" filterUnits="userSpaceOnUse" color-interpolation-filters="sRGB">
<feFlood flood-opacity="0" result="BackgroundImageFix"/>
<feColorMatrix in="SourceAlpha" type="matrix" values="0 0 0 0 0 0 0 0 0 0 0 0 0 0 0 0 0 0 127 0" result="hardAlpha"/>
<feOffset dy="4"/>
<feGaussianBlur stdDeviation="2"/>
<feComposite in2="hardAlpha" operator="out"/>
<feColorMatrix type="matrix" values="0 0 0 0 0 0 0 0 0 0 0 0 0 0 0 0 0 0 0.25 0"/>
<feBlend mode="normal" in2="BackgroundImageFix" result="effect1_dropShadow_1050_19459"/>
<feBlend mode="normal" in="SourceGraphic" in2="effect1_dropShadow_1050_19459" result="shape"/>
</filter>
</defs>
</svg>
