<svg width="164" height="167" viewBox="0 0 164 167" fill="none" xmlns="http://www.w3.org/2000/svg">
<path d="M64.1411 16.2137L66.9272 17.2812L64.1411 16.2137L52.3761 47.2907C50.928 51.1158 54.6091 54.9795 58.5682 53.7899L98.3205 41.8461C102.28 40.6566 103.034 35.4604 99.5888 33.1054L71.6015 13.9722C68.9268 12.1436 65.2655 13.2437 64.1411 16.2137Z" fill="#3DC7A9" stroke="white" stroke-width="6"/>
<path d="M64.1411 16.2137L66.9272 17.2812L64.1411 16.2137L52.3761 47.2907C50.928 51.1158 54.6091 54.9795 58.5682 53.7899L98.3205 41.8461C102.28 40.6566 103.034 35.4604 99.5888 33.1054L71.6015 13.9722C68.9268 12.1436 65.2655 13.2437 64.1411 16.2137Z" fill="#3DC7A9" stroke="white" stroke-width="6"/>
<path d="M76.4959 30.0847L74.8271 32.5068L76.4959 30.0847C73.8245 28.2663 70.1753 29.3628 69.0476 32.3226L71.8213 33.3917L69.0476 32.3226L49.6504 83.2349C48.1925 87.0613 51.8751 90.9345 55.8389 89.7436L121.187 70.1088C125.151 68.9179 125.901 63.713 122.447 61.3622L76.4959 30.0847Z" fill="#3DC7A9" stroke="white" stroke-width="6"/>
<path d="M83.7854 54.047C81.1815 52.4171 77.7569 53.4466 76.5733 56.2151L50.6623 116.826C49.0175 120.674 52.7273 124.73 56.7775 123.513L139.695 98.5859C143.745 97.3683 144.411 91.9968 140.792 89.7316L83.7854 54.047Z" fill="#3DC7A9" stroke="white" stroke-width="6"/>
<rect x="-3.75866" y="-1.97004" width="19.1312" height="27.6471" rx="5" transform="matrix(0.948783 -0.2853 0.304102 0.94198 89.079 102.141)" fill="#3DC7A9" stroke="white" stroke-width="6"/>
<path d="M79.4333 57.5672C79.9103 56.4664 81.2706 56.0557 82.3085 56.6991L139.288 92.0217C140.743 92.9238 140.479 95.0848 138.853 95.5755L55.6869 120.685C54.0615 121.176 52.5773 119.543 53.2461 118L79.4333 57.5672Z" fill="#3DC7A9"/>
<path d="M71.934 33.5361C72.3893 32.3586 73.8392 31.921 74.9045 32.6396L120.831 63.62C122.22 64.5569 121.922 66.6509 120.331 67.131L54.776 86.9144C53.1854 87.3944 51.7119 85.8351 52.3055 84.2999L71.934 33.5361Z" fill="#3DC7A9"/>
<path d="M66.998 17.3673C67.452 16.1857 68.9068 15.7467 69.9734 16.4694L97.9394 35.4171C99.3248 36.3557 99.0249 38.4462 97.4361 38.9257L57.5667 50.9573C55.9778 51.4368 54.5049 49.8812 55.0946 48.3466L66.998 17.3673Z" fill="#3DC7A9"/>
<path d="M51.355 64.3341L50.6859 67.1976L51.355 64.3341C48.5114 63.6719 45.7172 65.5268 45.2953 68.3567L41.7144 92.3752C41.0843 96.6013 45.8872 99.5822 49.4819 97.1959L77.1972 78.798C80.7919 76.4118 79.7359 70.9437 75.4894 69.9547L51.355 64.3341Z" fill="#A4D65E" stroke="white" stroke-width="6"/>
<path d="M51.355 64.3341L50.6859 67.1976L51.355 64.3341C48.5114 63.6719 45.7172 65.5268 45.2953 68.3567L41.7144 92.3752C41.0843 96.6013 45.8872 99.5822 49.4819 97.1959L77.1972 78.798C80.7919 76.4118 79.7359 70.9437 75.4894 69.9547L51.355 64.3341Z" fill="#A4D65E" stroke="white" stroke-width="6"/>
<path d="M59.3048 76.2067C56.4682 75.5523 53.6839 77.4006 53.2571 80.2214L47.1533 120.56C46.5133 124.79 51.3203 127.78 54.9192 125.391L101.589 94.4105C105.187 92.0214 104.124 86.546 99.8704 85.5647L59.3048 76.2067Z" fill="#A4D65E" stroke="white" stroke-width="6"/>
<path d="M70.6503 93.2273C67.9456 92.7142 65.3452 94.4411 64.8328 97.0906L55.3802 145.965C54.5499 150.258 59.4335 153.432 63.111 150.99L122.456 111.58C126.133 109.138 124.925 103.523 120.543 102.692L70.6503 93.2273Z" fill="#A4D65E" stroke="white" stroke-width="6"/>
<rect x="-4.16838" y="-0.800234" width="17.5834" height="22.2551" rx="5" transform="matrix(0.824776 -0.547362 0.564686 0.814107 83.7098 126.538)" fill="#A4D65E" stroke="white" stroke-width="6"/>
<path d="M67.7156 97.5356C67.9173 96.4652 68.9665 95.7666 70.0548 95.9783L119.928 105.678C121.675 106.018 122.15 108.261 120.682 109.239L61.5659 148.597C60.0981 149.575 58.1487 148.312 58.4725 146.594L67.7156 97.5356Z" fill="#A4D65E"/>
<path d="M56.174 80.5751C56.3409 79.436 57.4639 78.6886 58.6047 78.9574L99.1524 88.5114C100.848 88.9108 101.265 91.0991 99.8288 92.0551L53.3487 122.99C51.9123 123.946 49.9936 122.757 50.2416 121.064L56.174 80.5751Z" fill="#A4D65E"/>
<path d="M48.2326 68.7494C48.3975 67.6067 49.5246 66.8565 50.6681 67.1285L74.7961 72.8669C76.4884 73.2694 76.9031 75.4547 75.4683 76.4096L47.8607 94.7838C46.426 95.7387 44.509 94.5532 44.7531 92.862L48.2326 68.7494Z" fill="#A4D65E"/>
</svg>
