<svg width="50" height="50" viewBox="0 0 50 50" fill="none" xmlns="http://www.w3.org/2000/svg">
<path d="M25 50C38.8071 50 50 38.8071 50 25C50 11.1929 38.8071 0 25 0C11.1929 0 0 11.1929 0 25C0 38.8071 11.1929 50 25 50Z" fill="#F0F0F0"/>
<path d="M5.16807 9.77979C3.2043 12.3348 1.72354 15.2796 0.861328 18.4787H13.867L5.16807 9.77979Z" fill="#0052B4"/>
<path d="M49.1388 18.4784C48.2766 15.2793 46.7957 12.3345 44.832 9.77954L36.1333 18.4784H49.1388Z" fill="#0052B4"/>
<path d="M0.861328 31.5221C1.72363 34.7211 3.20439 37.6659 5.16807 40.2208L13.8667 31.5221H0.861328Z" fill="#0052B4"/>
<path d="M40.2208 5.16816C37.6658 3.20439 34.7211 1.72363 31.522 0.861328V13.8669L40.2208 5.16816Z" fill="#0052B4"/>
<path d="M9.77979 44.8321C12.3348 46.7958 15.2796 48.2766 18.4786 49.1389V36.1334L9.77979 44.8321Z" fill="#0052B4"/>
<path d="M18.4785 0.861328C15.2795 1.72363 12.3347 3.20439 9.77979 5.16807L18.4785 13.8668V0.861328Z" fill="#0052B4"/>
<path d="M31.522 49.1389C34.721 48.2766 37.6658 46.7958 40.2207 44.8322L31.522 36.1334V49.1389Z" fill="#0052B4"/>
<path d="M36.1333 31.5221L44.832 40.2209C46.7957 37.666 48.2766 34.7211 49.1388 31.5221H36.1333Z" fill="#0052B4"/>
<path d="M49.7884 21.7392H28.261H28.2609V0.211621C27.1935 0.0726563 26.1052 0 25 0C23.8946 0 22.8065 0.0726563 21.7392 0.211621V21.739V21.7391H0.211621C0.0726563 22.8065 0 23.8948 0 25C0 26.1054 0.0726563 27.1935 0.211621 28.2608H21.739H21.7391V49.7884C22.8065 49.9273 23.8946 50 25 50C26.1052 50 27.1935 49.9274 28.2608 49.7884V28.261V28.2609H49.7884C49.9273 27.1935 50 26.1054 50 25C50 23.8948 49.9273 22.8065 49.7884 21.7392Z" fill="#D80027"/>
<path d="M31.522 31.5217L42.6778 42.6776C43.1909 42.1647 43.6804 41.6284 44.1474 41.0726L34.5964 31.5216H31.522V31.5217Z" fill="#D80027"/>
<path d="M18.4782 31.5217H18.478L7.32227 42.6775C7.83516 43.1906 8.37139 43.68 8.92724 44.147L18.4782 34.5959V31.5217Z" fill="#D80027"/>
<path d="M18.4784 18.4784V18.4782L7.32256 7.32227C6.80947 7.83516 6.32002 8.37139 5.85303 8.92725L15.4041 18.4783H18.4784V18.4784Z" fill="#D80027"/>
<path d="M31.522 18.4784L42.6779 7.32234C42.165 6.80925 41.6288 6.3198 41.0729 5.85291L31.522 15.404V18.4784Z" fill="#D80027"/>
</svg>
