<svg width="397" height="157" viewBox="0 0 397 157" fill="none" xmlns="http://www.w3.org/2000/svg">
<path d="M24.8275 19.6627C13.8463 23.3201 8.30432 33.1531 5.70814 43.0892C3.10981 53.0335 3.24847 63.7743 4.16449 70.701C5.49733 85.7628 9.50282 120.393 14.9286 137.742C18.0369 147.68 26.0213 151.962 34.0885 153.332C42.0499 154.683 50.5166 153.324 55.9129 151.685C176.437 115.77 296.488 128.734 341.51 139.703C348.029 142.448 358.034 144.755 366.829 142.258C371.374 140.968 375.616 138.383 378.762 133.944C381.885 129.537 383.763 123.537 384.044 115.681C384.93 90.9084 386.353 85.4587 388.831 75.9737C390.049 71.3148 391.52 65.6822 393.307 56.308C395.631 44.1198 391.732 35.2602 385.761 29.2942C379.947 23.4851 372.315 20.5418 366.993 19.5659C292.151 3.54757 212.72 1.55757 149.048 4.55535C117.193 6.05511 89.2479 8.805 67.7487 11.6831C46.3426 14.5488 31.1151 17.5685 24.8275 19.6627Z" fill="#772583" stroke="white" stroke-width="6"/>
</svg>
