<svg width="45" height="45" viewBox="0 0 45 45" fill="none" xmlns="http://www.w3.org/2000/svg">
<path d="M11.25 0C9.70312 0 8.4375 1.26562 8.4375 2.8125V42.1875C8.4375 43.7344 9.70312 45 11.25 45H39.375C40.9219 45 42.1875 43.7344 42.1875 42.1875V11.25L30.9375 0H11.25Z" fill="#E2E5E7"/>
<path d="M33.75 11.25H42.1875L30.9375 0V8.4375C30.9375 9.98438 32.2031 11.25 33.75 11.25Z" fill="#B0B7BD"/>
<path d="M42.1875 19.6875L33.75 11.25H42.1875V19.6875Z" fill="#CAD1D8"/>
<path d="M36.5625 36.5625C36.5625 37.3359 35.9297 37.9688 35.1562 37.9688H4.21875C3.44531 37.9688 2.8125 37.3359 2.8125 36.5625V22.5C2.8125 21.7266 3.44531 21.0938 4.21875 21.0938H35.1562C35.9297 21.0938 36.5625 21.7266 36.5625 22.5V36.5625Z" fill="#F15642"/>
<path d="M8.94238 26.6442C8.94238 26.2729 9.23488 25.8679 9.70598 25.8679H12.3033C13.7658 25.8679 15.0821 26.8467 15.0821 28.7226C15.0821 30.5001 13.7658 31.4901 12.3033 31.4901H10.426V32.9751C10.426 33.4701 10.111 33.75 9.70598 33.75C9.33473 33.75 8.94238 33.4701 8.94238 32.9751V26.6442ZM10.426 27.284V30.0853H12.3033C13.0571 30.0853 13.6533 29.4201 13.6533 28.7226C13.6533 27.9365 13.0571 27.284 12.3033 27.284H10.426Z" fill="white"/>
<path d="M17.2841 33.75C16.9128 33.75 16.5078 33.5475 16.5078 33.0539V26.6667C16.5078 26.2631 16.9128 25.9692 17.2841 25.9692H19.8589C24.9973 25.9692 24.8848 33.75 19.9602 33.75H17.2841ZM17.9928 27.3417V32.3789H19.8589C22.895 32.3789 23.03 27.3417 19.8589 27.3417H17.9928Z" fill="white"/>
<path d="M26.7073 27.4317V29.219H29.5746C29.9796 29.219 30.3846 29.624 30.3846 30.0164C30.3846 30.3876 29.9796 30.6914 29.5746 30.6914H26.7073V33.0525C26.7073 33.4462 26.4274 33.7486 26.0337 33.7486C25.5387 33.7486 25.2363 33.4462 25.2363 33.0525V26.6653C25.2363 26.2617 25.5401 25.9678 26.0337 25.9678H29.981C30.476 25.9678 30.7685 26.2617 30.7685 26.6653C30.7685 27.0253 30.476 27.4303 29.981 27.4303H26.7073V27.4317Z" fill="white"/>
<path d="M35.1562 37.9688H8.4375V39.375H35.1562C35.9297 39.375 36.5625 38.7422 36.5625 37.9688V36.5625C36.5625 37.3359 35.9297 37.9688 35.1562 37.9688Z" fill="#CAD1D8"/>
</svg>
