<?xml version="1.0" encoding="UTF-8" standalone="no"?>
<svg
   width="35"
   height="28"
   viewBox="0 0 35 28"
   fill="none"
   version="1.1"
   id="svg10"
   sodipodi:docname="no-view.svg"
   inkscape:version="1.1.2 (b8e25be833, 2022-02-05)"
   xmlns:inkscape="http://www.inkscape.org/namespaces/inkscape"
   xmlns:sodipodi="http://sodipodi.sourceforge.net/DTD/sodipodi-0.dtd"
   xmlns="http://www.w3.org/2000/svg"
   xmlns:svg="http://www.w3.org/2000/svg">
  <defs
     id="defs14" />
  <sodipodi:namedview
     id="namedview12"
     pagecolor="#ffffff"
     bordercolor="#666666"
     borderopacity="1.0"
     inkscape:pageshadow="2"
     inkscape:pageopacity="0.0"
     inkscape:pagecheckerboard="0"
     showgrid="false"
     width="150px"
     inkscape:zoom="5.4851283"
     inkscape:cx="10.756357"
     inkscape:cy="15.496447"
     inkscape:window-width="1920"
     inkscape:window-height="1009"
     inkscape:window-x="-8"
     inkscape:window-y="-8"
     inkscape:window-maximized="1"
     inkscape:current-layer="svg10" />
  <g
     style="fill:none"
     id="g1103"
     transform="matrix(0.99999709,0,0,0.99999709,1.0410281e-8,0.50004491)">
    <path
       d="m 21.6243,9.37515 c -0.2844,-0.28438 -0.7467,-0.28438 -1.0311,0 -0.2844,0.28437 -0.2844,0.74815 0,1.03105 0.8254,0.8254 1.2819,1.9236 1.2819,3.0931 0,2.4121 -1.963,4.375 -4.375,4.375 -1.1696,0 -2.2677,-0.455 -3.0932,-1.2818 -0.2843,-0.2844 -0.7466,-0.2844 -1.031,0 -0.2844,0.2829 -0.2844,0.7467 0,1.031 1.0995,1.1025 2.5652,1.7092 4.1242,1.7092 3.217,0 5.8333,-2.6162 5.8333,-5.8333 0,-1.5591 -0.6066,-3.0247 -1.7091,-4.12425 z"
       fill="#9f9f9f"
       id="path1082" />
    <path
       d="m 18.5167,7.76664 c -0.331,-0.05831 -0.6693,-0.10062 -1.0164,-0.10062 -3.2171,0 -5.8333,2.61628 -5.8333,5.83328 0,0.3471 0.0423,0.6855 0.1021,1.0165 0.0626,0.3529 0.3704,0.6023 0.716,0.6023 0.0423,0 0.0846,-0.003 0.1283,-0.0117 0.3952,-0.07 0.6607,-0.4492 0.5907,-0.8444 -0.0452,-0.2479 -0.0788,-0.5002 -0.0788,-0.7627 0,-2.412 1.9629,-4.37497 4.375,-4.37497 0.2625,0 0.5148,0.03356 0.7627,0.07731 0.3879,0.07875 0.7744,-0.19544 0.8444,-0.59062 0.07,-0.39519 -0.1954,-0.77438 -0.5907,-0.84438 z"
       fill="#9f9f9f"
       id="path1084" />
    <path
       d="M 34.8265,13.0284 C 34.6617,12.833 30.717,8.22905 25.2759,5.41011 24.923,5.22492 24.4782,5.36492 24.293,5.72367 c -0.1852,0.35732 -0.0452,0.79769 0.3135,0.98294 4.1913,2.17 7.5396,5.55629 8.6844,6.79299 -1.7383,1.8826 -8.5794,8.75 -15.7908,8.75 -2.4471,0 -4.9131,-0.5907 -7.3325,-1.7574 -0.35876,-0.1764 -0.7977,-0.0233 -0.9727,0.3399 -0.17643,0.3616 -0.02331,0.7976 0.33982,0.9726 2.61768,1.2644 5.29808,1.9032 7.96548,1.9032 8.9848,0 16.991,-9.3392 17.3279,-9.7374 0.2303,-0.2713 0.2289,-0.6694 -0.0016,-0.9421 z"
       fill="#9f9f9f"
       id="path1086" />
    <path
       d="m 22.2849,4.13102 c -1.6595,-0.55857 -3.2695,-0.84 -4.7848,-0.84 -8.98481,0 -16.991065,9.33918 -17.32794,9.73728 -0.2129398,0.2508 -0.2304398,0.6155 -0.040811,0.8882 0.100625,0.1443 2.511251,3.567 6.689371,6.3423 0.12394,0.0831 0.2625,0.1225 0.4025,0.1225 0.23482,0 0.46669,-0.1138 0.60669,-0.3282 C 8.05304,19.7192 7.96116,19.2656 7.62572,19.044 4.55741,17.0038 2.45741,14.5406 1.67135,13.5388 3.34991,11.7158 10.2362,4.74939 17.5001,4.74939 c 1.3577,0 2.8117,0.25669 4.3196,0.76269 0.382,0.13706 0.7962,-0.07437 0.9231,-0.45794 C 22.8712,4.67208 22.667,4.25939 22.2849,4.13102 Z"
       fill="#9f9f9f"
       id="path1088" />
    <path
       d="m 30.411,0.58877 c -0.2844,-0.284375 -0.7467,-0.284375 -1.0311,0 L 4.58828,25.3805 c -0.28437,0.2843 -0.28437,0.7466 0,1.031 0.14294,0.1415 0.32956,0.213 0.51625,0.213 0.18669,0 0.37331,-0.0715 0.51482,-0.213 L 30.411,1.61983 c 0.2843,-0.28437 0.2843,-0.746685 0,-1.03106 z"
       fill="#9f9f9f"
       id="path1090" />
  </g>
</svg>
