<svg width="15" height="12" viewBox="0 0 15 12" fill="none" xmlns="http://www.w3.org/2000/svg">
<path d="M8.59922 10.2463C10.0584 9.37931 11.5953 7.48768 11.8677 5.93104C11.7704 5.97044 11.4202 6.02956 11.0895 6.02956C9.59144 6.02956 8.40467 4.82759 8.40467 3.13301C8.40467 1.43842 9.76654 4.9615e-07 11.4981 6.47524e-07C13.3658 8.10804e-07 15 1.51724 15 4.17734C15 7.34975 13.2685 10.2069 10.7782 12L8.59922 10.2463ZM0.194552 10.2463C1.6537 9.37931 3.19066 7.48768 3.46303 5.93103C3.36576 5.97044 3.01556 6.02956 2.68482 6.02956C1.18677 6.02956 -3.26642e-07 4.82759 -1.78497e-07 3.133C-3.03521e-08 1.43842 1.36187 -2.38609e-07 3.09339 -8.7235e-08C4.96109 7.60449e-08 6.59533 1.51724 6.59533 4.17734C6.59533 7.34975 4.86381 10.2069 2.37354 12L0.194552 10.2463Z" fill="#FFDD00"/>
</svg>
