<svg width="22" height="22" viewBox="0 0 22 22" fill="none" xmlns="http://www.w3.org/2000/svg">
<path fill-rule="evenodd" clip-rule="evenodd" d="M17.8205 12.992C17.5378 12.8761 17.2351 12.8165 16.9295 12.8165C16.644 12.8002 16.3586 12.8522 16.097 12.968C15.8708 13.0772 15.6549 13.2067 15.452 13.355C15.2546 13.4983 15.074 13.6633 14.9135 13.847C14.7575 14.027 14.606 14.192 14.4575 14.3405C14.3227 14.4768 14.1773 14.6022 14.0225 14.7155C13.8663 14.8274 13.6751 14.8794 13.4837 14.8621C13.2923 14.8448 13.1136 14.7592 12.98 14.621C12.8149 14.4662 12.6509 14.3102 12.488 14.153C12.278 13.949 12.02 13.703 11.7155 13.4135C11.3969 13.1113 11.0804 12.8067 10.766 12.5L9.74604 11.504C9.11977 10.8917 8.51442 10.2583 7.93104 9.605C7.72153 9.37467 7.52569 9.13225 7.34454 8.879C7.20354 8.6765 7.13304 8.528 7.13304 8.4335C7.12433 8.26419 7.17826 8.09759 7.28454 7.9655C7.39404 7.8245 7.52454 7.6805 7.67154 7.5305C7.82154 7.3835 7.98504 7.226 8.16354 7.0625C8.34354 6.8975 8.50854 6.722 8.65704 6.5345C8.80404 6.347 8.93004 6.1325 9.03204 5.8895C9.13254 5.6495 9.18354 5.375 9.18354 5.0705C9.18353 4.45152 8.93936 3.85754 8.50404 3.4175C8.2238 3.1424 7.95794 2.85302 7.70754 2.5505C7.42136 2.20971 7.11213 1.88896 6.78204 1.5905C6.46161 1.29726 6.11175 1.03788 5.73804 0.8165C5.39864 0.611043 5.00979 0.501647 4.61304 0.5C3.99459 0.500411 3.40121 0.744551 2.96154 1.1795C2.55504 1.586 2.19954 1.949 1.89504 2.27C1.60281 2.57393 1.34339 2.90777 1.12104 3.266C0.905563 3.62146 0.747615 4.00873 0.653042 4.4135C0.542935 4.91382 0.491588 5.42528 0.500042 5.9375C0.500042 6.7655 0.633542 7.625 0.899043 8.516C1.16454 9.4055 1.52304 10.2935 1.97604 11.1755C2.42904 12.059 2.98104 12.926 3.62904 13.778C4.27704 14.6285 4.98054 15.437 5.73804 16.2035C6.49554 16.9685 7.30104 17.6765 8.15304 18.3245C9.00354 18.9725 9.87504 19.532 10.766 20C11.6555 20.4695 12.551 20.8355 13.4495 21.101C14.3008 21.3597 15.1849 21.4941 16.0745 21.5C16.583 21.4997 17.09 21.4444 17.5865 21.335C17.9958 21.2426 18.3873 21.0846 18.746 20.867C19.091 20.657 19.421 20.399 19.742 20.0945C20.063 19.7885 20.4215 19.4375 20.8205 19.0385C21.2557 18.5984 21.4999 18.0044 21.5 17.3855C21.4831 17.1224 21.4316 16.8627 21.347 16.613C21.2593 16.3515 21.1291 16.1062 20.9615 15.887C20.7865 15.6572 20.6023 15.4346 20.4095 15.2195C20.2109 14.997 20.0001 14.7857 19.778 14.5865C19.5636 14.3943 19.3486 14.2028 19.133 14.012C18.9444 13.8456 18.7608 13.6735 18.5825 13.496C18.3653 13.2782 18.106 13.1067 17.8205 12.992ZM17.27 19.871C16.8787 19.9651 16.4769 20.0084 16.0745 20C15.3033 19.9854 14.538 19.8632 13.8005 19.637C12.9754 19.3876 12.1782 19.0539 11.4215 18.641C9.73926 17.7198 8.19969 16.5592 6.85104 15.1955C6.16554 14.5022 5.51999 13.7705 4.91754 13.004C4.33265 12.2629 3.81557 11.4707 3.37254 10.637C2.95963 9.86612 2.62158 9.05742 2.36304 8.222C2.12814 7.47118 2.00581 6.68969 2.00004 5.903C1.99966 5.50379 2.047 5.10597 2.14104 4.718C2.22654 4.391 2.35554 4.097 2.52804 3.8405C2.69904 3.5825 2.91054 3.332 3.15954 3.0905C3.41004 2.8475 3.69504 2.5655 4.01454 2.246C4.09232 2.16602 4.18573 2.10291 4.28895 2.06059C4.39218 2.01827 4.50301 1.99764 4.61454 2C4.70754 1.9925 4.85154 2.054 5.04654 2.1875C5.24154 2.321 5.45304 2.48 5.67954 2.6675C6.1687 3.07552 6.62003 3.52685 7.02804 4.016C7.21554 4.241 7.37154 4.4495 7.49604 4.637C7.62054 4.8245 7.68354 4.9685 7.68354 5.0705C7.69701 5.24041 7.64253 5.40872 7.53204 5.5385C7.42254 5.6645 7.29204 5.8085 7.14504 5.9735C6.99504 6.137 6.83154 6.293 6.65304 6.4415C6.47304 6.59 6.30804 6.7655 6.15954 6.968C6.01049 7.17236 5.88471 7.39273 5.78454 7.625C5.67885 7.8817 5.62728 8.15745 5.63304 8.435C5.64054 8.7545 5.70354 9.0545 5.82054 9.335C5.93754 9.617 6.10554 9.8675 6.32454 10.085L11.9135 15.6755C12.1286 15.8957 12.3858 16.0702 12.6698 16.1888C12.9538 16.3073 13.2588 16.3674 13.5665 16.3655C13.848 16.3804 14.1291 16.3291 14.387 16.2155C14.8376 16.0068 15.2405 15.7076 15.5705 15.3365C15.7355 15.1565 15.8855 14.9915 16.028 14.843C16.1675 14.696 16.313 14.57 16.4615 14.468C16.5983 14.3707 16.7617 14.3178 16.9295 14.3165C17.039 14.3165 17.1875 14.3795 17.375 14.504C17.5625 14.6285 17.7695 14.789 17.996 14.984C18.2225 15.179 18.4565 15.395 18.6995 15.629C18.941 15.863 19.157 16.097 19.3445 16.3325C19.5305 16.5665 19.688 16.778 19.8125 16.9655C19.937 17.153 20 17.2955 20 17.399C20.0011 17.5081 19.9799 17.6163 19.9376 17.717C19.8953 17.8176 19.8328 17.9084 19.754 17.984C19.418 18.3125 19.133 18.599 18.899 18.839C18.6716 19.0754 18.4203 19.2875 18.149 19.472C17.8804 19.6533 17.5833 19.7881 17.27 19.871ZM21.5 1.556L14.54 8.528H19.472V10.028H11.972V2.528H13.472V7.46L20.4455 0.5L21.5 1.5545V1.556Z" fill="#1B1B1B"/>
</svg>
