<svg width="44" height="44" viewBox="0 0 44 44" fill="none" xmlns="http://www.w3.org/2000/svg">
<path d="M41.2012 21.1323L22.8679 2.79902C22.6389 2.57138 22.3291 2.4436 22.0062 2.4436C21.6833 2.4436 21.3736 2.57138 21.1446 2.79902L2.81123 21.1323C2.61099 21.3662 2.50636 21.6669 2.51825 21.9745C2.53013 22.2821 2.65764 22.5739 2.87532 22.7916C3.09299 23.0093 3.38478 23.1368 3.69238 23.1487C3.99999 23.1605 4.30075 23.0559 4.53456 22.8557L22.0001 5.39013L39.4657 22.8679C39.6995 23.0681 40.0002 23.1728 40.3078 23.1609C40.6155 23.149 40.9072 23.0215 41.1249 22.8038C41.3426 22.5861 41.4701 22.2944 41.482 21.9867C41.4939 21.6791 41.3892 21.3784 41.189 21.1446L41.2012 21.1323Z" fill="#1B1B1B"/>
<path d="M34.2221 39.1111H28.111V26.8889H15.8888V39.1111H9.7777V22L7.33325 24.4444V39.1111C7.33325 39.7594 7.59079 40.3812 8.04921 40.8396C8.50764 41.298 9.12939 41.5556 9.7777 41.5556H18.3333V29.3333H25.6666V41.5556H34.2221C34.8704 41.5556 35.4922 41.298 35.9506 40.8396C36.409 40.3812 36.6666 39.7594 36.6666 39.1111V24.1511L34.2221 21.7067V39.1111Z" fill="#1B1B1B"/>
</svg>
