<svg width="36" height="31" viewBox="0 0 36 31" fill="none" xmlns="http://www.w3.org/2000/svg">
<path d="M33.5217 20.5V28C33.5217 28.75 32.9304 29.5 32.0435 29.5H3.95652" stroke="#FFDD00" stroke-width="2" stroke-miterlimit="10" stroke-linecap="round" stroke-linejoin="round"/>
<path d="M3.95652 7H32.0435C32.9304 7 33.5217 7.75 33.5217 8.5V14.5" stroke="#FFDD00" stroke-width="2" stroke-miterlimit="10" stroke-linecap="round" stroke-linejoin="round"/>
<path d="M1 7.00012V8.50012V26.5001" stroke="#FFDD00" stroke-width="2" stroke-miterlimit="10" stroke-linecap="round" stroke-linejoin="round"/>
<path d="M3.95652 1C2.33043 1 1 2.35 1 4C1 5.65 2.33043 7 3.95652 7" stroke="#FFDD00" stroke-width="2" stroke-miterlimit="10" stroke-linecap="round" stroke-linejoin="round"/>
<path d="M1 8.49976V3.99976" stroke="#FFDD00" stroke-width="2" stroke-miterlimit="10" stroke-linecap="round" stroke-linejoin="round"/>
<path d="M29.087 7V2.5C29.087 1.6 28.4957 1 27.6087 1H3.95652" stroke="#FFDD00" stroke-width="2" stroke-miterlimit="10" stroke-linecap="round" stroke-linejoin="round"/>
<path d="M1 26.5002C1 28.1502 2.33043 29.5002 3.95652 29.5002" stroke="#FFDD00" stroke-width="2" stroke-miterlimit="10" stroke-linecap="round" stroke-linejoin="round"/>
<path d="M24.6522 20.5C23.0261 20.5 21.6957 19.15 21.6957 17.5C21.6957 15.85 23.0261 14.5 24.6522 14.5" stroke="#FFDD00" stroke-width="2" stroke-miterlimit="10" stroke-linecap="round" stroke-linejoin="round"/>
<path d="M24.6522 20.5H33.5217C34.4087 20.5 35 19.9 35 19V16C35 15.1 34.4087 14.5 33.5217 14.5H24.6522" stroke="#FFDD00" stroke-width="2" stroke-miterlimit="10" stroke-linecap="round" stroke-linejoin="round"/>
</svg>
