<svg width="129" height="63" viewBox="0 0 129 63" fill="none" xmlns="http://www.w3.org/2000/svg">
<g clip-path="url(#clip0_1_8732)">
<path d="M40.7095 57H35.5107V37.5H45.3115C46.5345 37.5 47.5671 37.6354 48.4092 37.9062C49.2555 38.1771 49.9368 38.5939 50.4531 39.1567C50.9736 39.7196 51.3545 40.4559 51.5957 41.3657C51.8411 42.2713 51.9639 43.3652 51.9639 44.6475C51.9639 46.0778 51.8665 47.2563 51.6719 48.1831C51.4772 49.1056 51.1408 49.8462 50.6626 50.4048C50.1886 50.9634 49.52 51.3717 48.6567 51.6299C47.7935 51.8838 46.6784 52.0107 45.3115 52.0107H40.7095V57ZM40.7095 47.4849H44.2705C44.9772 47.4849 45.485 47.4214 45.7939 47.2944C46.1071 47.1675 46.3208 46.9136 46.4351 46.5327C46.5535 46.1476 46.6128 45.5192 46.6128 44.6475C46.6128 43.945 46.5557 43.4118 46.4414 43.0479C46.3271 42.6797 46.105 42.4173 45.7749 42.2607C45.4448 42.1042 44.9434 42.0259 44.2705 42.0259H40.7095V47.4849ZM65.1987 49.6177H70.5562V50.189C70.5562 50.8914 70.5413 51.467 70.5117 51.9155C70.4863 52.3599 70.4165 52.8127 70.3022 53.2739C70.1922 53.731 70.0166 54.1626 69.7754 54.5688C69.5342 54.9709 69.1956 55.356 68.7598 55.7241C68.2139 56.1685 67.6151 56.4964 66.9634 56.708C66.3159 56.9154 65.6706 57.0423 65.0273 57.0889C64.3841 57.1354 63.5653 57.1587 62.5708 57.1587C60.9712 57.1587 59.6636 57.0973 58.6479 56.9746C57.6323 56.8519 56.7204 56.5557 55.9121 56.0859C55.1081 55.612 54.486 54.8714 54.0459 53.8643C53.61 52.8529 53.3921 51.4881 53.3921 49.77V44.73C53.3921 42.6649 53.7433 41.097 54.4458 40.0264C55.1525 38.9515 56.1533 38.2363 57.4482 37.8809C58.7432 37.5212 60.4507 37.3413 62.5708 37.3413C64.382 37.3413 65.8652 37.5339 67.0205 37.9189C68.1758 38.304 69.0496 38.9642 69.6421 39.8994C70.2345 40.8304 70.5308 42.1105 70.5308 43.7397V44.4951H65.1733V43.7397C65.1141 43.1854 64.9512 42.7749 64.6846 42.5083C64.4222 42.2375 64.0837 42.064 63.6689 41.9878C63.2542 41.9074 62.6978 41.8672 61.9995 41.8672C61.0177 41.8672 60.2983 41.9793 59.8413 42.2036C59.3885 42.4279 59.0923 42.7897 58.9526 43.2891C58.8172 43.7842 58.7495 44.5417 58.7495 45.5615V48.6021C58.7495 49.4611 58.777 50.1213 58.832 50.5825C58.8913 51.0396 59.0246 51.4246 59.2319 51.7378C59.4393 52.0509 59.7588 52.2795 60.1904 52.4233C60.6221 52.563 61.2251 52.6328 61.9995 52.6328C62.8162 52.6328 63.4425 52.5841 63.8784 52.4868C64.3143 52.3853 64.6423 52.161 64.8623 51.814C65.0866 51.467 65.1987 50.9253 65.1987 50.189V49.6177ZM78.2876 37.5V44.8315H79.8491L84.8701 37.5H91.1606L84.2988 47.0659L91.7319 57H85.2827L79.8491 49.3574H78.2876V57H73.0889V37.5H78.2876ZM107.982 52.9438V57H92.5889V52.9438C92.5889 51.7632 92.6735 50.828 92.8428 50.1382C93.0163 49.4484 93.3379 48.8813 93.8076 48.437C94.2773 47.9927 94.9438 47.6139 95.8071 47.3008C96.6704 46.9876 97.8849 46.6491 99.4507 46.2852C100.805 45.9678 101.67 45.7456 102.047 45.6187C102.424 45.4875 102.677 45.2865 102.809 45.0156C102.944 44.7448 103.012 44.2581 103.012 43.5557C103.012 42.904 102.929 42.4279 102.764 42.1274C102.603 41.827 102.337 41.6302 101.964 41.5371C101.592 41.444 101.031 41.3975 100.282 41.3975C99.4359 41.3975 98.8328 41.444 98.4731 41.5371C98.1134 41.626 97.868 41.827 97.7368 42.1401C97.6056 42.4491 97.5358 42.9569 97.5273 43.6636V44.6221H92.5889V43.6636C92.5889 42.356 92.7518 41.2874 93.0776 40.458C93.4077 39.6286 93.8944 38.9896 94.5376 38.541C95.1851 38.0882 95.9701 37.7751 96.8926 37.6016C97.8193 37.4281 98.9492 37.3413 100.282 37.3413C102.021 37.3413 103.429 37.4831 104.503 37.7666C105.578 38.0459 106.423 38.6341 107.036 39.5312C107.65 40.4242 107.957 41.7402 107.957 43.4795C107.957 44.5924 107.868 45.4896 107.69 46.1709C107.516 46.8522 107.229 47.4087 106.827 47.8403C106.429 48.2677 105.906 48.6232 105.259 48.9067C104.611 49.1903 103.725 49.4865 102.599 49.7954C102.019 49.952 101.272 50.1276 100.358 50.3223C99.4486 50.5127 98.8286 50.6777 98.4985 50.8174C98.1685 50.9528 97.923 51.1792 97.7622 51.4966C97.6056 51.8097 97.5273 52.2922 97.5273 52.9438H107.982ZM125.755 37.5V49.3828H127.418V53.1533H125.755V57H120.817V53.1533H110.623V47.5864L118.087 37.5H125.755ZM120.817 49.3828V41.5054H120.633L114.71 49.3828H120.817Z" fill="#1B1B1B"/>
<path d="M8 61L38.4791 8.98718C42.0155 2.95218 49.8153 0.992751 55.7841 4.63989L89 24.936" stroke="#1B1B1B" stroke-width="2.50039" stroke-linecap="round"/>
<path d="M2 58.9998L35.9999 1.99979" stroke="#FFDD00" stroke-width="2.50039" stroke-linecap="round"/>
</g>
<defs>
<clipPath id="clip0_1_8732">
<rect width="129" height="63" fill="white"/>
</clipPath>
</defs>
</svg>
