<svg width="185" height="116" viewBox="0 0 185 116" fill="none" xmlns="http://www.w3.org/2000/svg">
<path d="M74.2578 75H67.8594V51H79.9219C81.4271 51 82.6979 51.1667 83.7344 51.5C84.776 51.8333 85.6146 52.3464 86.25 53.0391C86.8906 53.7318 87.3594 54.638 87.6562 55.7578C87.9583 56.8724 88.1094 58.2188 88.1094 59.7969C88.1094 61.5573 87.9896 63.0078 87.75 64.1484C87.5104 65.2839 87.0964 66.1953 86.5078 66.8828C85.9245 67.5703 85.1016 68.0729 84.0391 68.3906C82.9766 68.7031 81.6042 68.8594 79.9219 68.8594H74.2578V75ZM74.2578 63.2891H78.6406C79.5104 63.2891 80.1354 63.2109 80.5156 63.0547C80.901 62.8984 81.1641 62.5859 81.3047 62.1172C81.4505 61.6432 81.5234 60.8698 81.5234 59.7969C81.5234 58.9323 81.4531 58.276 81.3125 57.8281C81.1719 57.375 80.8984 57.0521 80.4922 56.8594C80.0859 56.6667 79.4688 56.5703 78.6406 56.5703H74.2578V63.2891ZM104.078 65.9141H110.672V66.6172C110.672 67.4818 110.654 68.1901 110.618 68.7422C110.586 69.2891 110.5 69.8464 110.36 70.4141C110.224 70.9766 110.008 71.5078 109.711 72.0078C109.414 72.5026 108.998 72.9766 108.461 73.4297C107.789 73.9766 107.052 74.3802 106.25 74.6406C105.453 74.8958 104.659 75.0521 103.868 75.1094C103.076 75.1667 102.068 75.1953 100.844 75.1953C98.8753 75.1953 97.2659 75.1198 96.0159 74.9688C94.7659 74.8177 93.6435 74.4531 92.6488 73.875C91.6592 73.2917 90.8935 72.3802 90.3519 71.1406C89.8154 69.8958 89.5472 68.2161 89.5472 66.1016V59.8984C89.5472 57.3568 89.9795 55.4271 90.8441 54.1094C91.7139 52.7865 92.9456 51.9062 94.5394 51.4688C96.1331 51.026 98.2347 50.8047 100.844 50.8047C103.073 50.8047 104.899 51.0417 106.321 51.5156C107.743 51.9896 108.818 52.8021 109.547 53.9531C110.276 55.099 110.641 56.6745 110.641 58.6797V59.6094H104.047V58.6797C103.974 57.9974 103.774 57.4922 103.446 57.1641C103.123 56.8307 102.706 56.6172 102.196 56.5234C101.685 56.4245 101 56.375 100.141 56.375C98.9326 56.375 98.0472 56.513 97.4847 56.7891C96.9274 57.0651 96.5628 57.5104 96.3909 58.125C96.2243 58.7344 96.1409 59.6667 96.1409 60.9219V64.6641C96.1409 65.7214 96.1748 66.5339 96.2425 67.1016C96.3154 67.6641 96.4795 68.138 96.7347 68.5234C96.9899 68.9089 97.3831 69.1901 97.9144 69.3672C98.4456 69.5391 99.1878 69.625 100.141 69.625C101.146 69.625 101.917 69.5651 102.453 69.4453C102.99 69.3203 103.394 69.0443 103.664 68.6172C103.94 68.1901 104.078 67.5234 104.078 66.6172V65.9141ZM119.868 51V60.0234H121.79L127.969 51H135.712L127.266 62.7734L136.415 75H128.477L121.79 65.5938H119.868V75H113.469V51H119.868ZM156.095 70.0078V75H137.149V70.0078C137.149 68.5547 137.254 67.4036 137.462 66.5547C137.675 65.7057 138.071 65.0078 138.649 64.4609C139.228 63.9141 140.048 63.4479 141.11 63.0625C142.173 62.6771 143.668 62.2604 145.595 61.8125C147.261 61.4219 148.326 61.1484 148.79 60.9922C149.254 60.8307 149.566 60.5833 149.728 60.25C149.894 59.9167 149.978 59.3177 149.978 58.4531C149.978 57.651 149.876 57.0651 149.673 56.6953C149.475 56.3255 149.147 56.0833 148.688 55.9688C148.23 55.8542 147.54 55.7969 146.618 55.7969C145.576 55.7969 144.834 55.8542 144.392 55.9688C143.949 56.0781 143.647 56.3255 143.485 56.7109C143.324 57.0911 143.238 57.7161 143.228 58.5859V59.7656H137.149V58.5859C137.149 56.9766 137.35 55.6615 137.751 54.6406C138.157 53.6198 138.756 52.8333 139.548 52.2812C140.345 51.724 141.311 51.3385 142.446 51.125C143.587 50.9115 144.978 50.8047 146.618 50.8047C148.759 50.8047 150.491 50.9792 151.813 51.3281C153.136 51.6719 154.175 52.3958 154.931 53.5C155.686 54.599 156.063 56.2188 156.063 58.3594C156.063 59.7292 155.954 60.8333 155.735 61.6719C155.522 62.5104 155.168 63.1953 154.673 63.7266C154.183 64.2526 153.54 64.6901 152.743 65.0391C151.946 65.388 150.855 65.7526 149.47 66.1328C148.756 66.3255 147.837 66.5417 146.712 66.7812C145.592 67.0156 144.829 67.2188 144.423 67.3906C144.017 67.5573 143.714 67.8359 143.517 68.2266C143.324 68.612 143.228 69.2057 143.228 70.0078H156.095ZM177.65 51V65.625H179.697V70.2656H177.65V75H171.572V70.2656H159.025V63.4141L168.212 51H177.65ZM171.572 65.625V55.9297H171.345L164.056 65.625H171.572Z" fill="white"/>
<path d="M10.7727 113L69.8533 13.7743C74.365 6.19691 84.2018 3.77224 91.7182 8.38479L133.773 34.1922" stroke="white" stroke-width="3.16364" stroke-linecap="round"/>
<path d="M3.77271 110L65.7727 5.99997" stroke="#FFDD00" stroke-width="3.16364" stroke-linecap="round"/>
<path opacity="0.4" d="M74.323 94.928C74.3977 94.928 74.463 94.9583 74.519 95.019L75.058 95.6C74.6473 96.076 74.148 96.447 73.56 96.713C72.9767 96.979 72.2697 97.112 71.439 97.112C70.7203 97.112 70.067 96.9883 69.479 96.741C68.891 96.489 68.3893 96.139 67.974 95.691C67.5587 95.2383 67.2367 94.697 67.008 94.067C66.7793 93.437 66.665 92.744 66.665 91.988C66.665 91.232 66.784 90.539 67.022 89.909C67.26 89.279 67.5937 88.7377 68.023 88.285C68.457 87.8323 68.975 87.4823 69.577 87.235C70.179 86.983 70.844 86.857 71.572 86.857C72.286 86.857 72.916 86.9713 73.462 87.2C74.008 87.4287 74.4887 87.739 74.904 88.131L74.456 88.754C74.428 88.8007 74.3907 88.8403 74.344 88.873C74.302 88.901 74.2437 88.915 74.169 88.915C74.085 88.915 73.9823 88.8707 73.861 88.782C73.7397 88.6887 73.581 88.586 73.385 88.474C73.189 88.362 72.944 88.2617 72.65 88.173C72.356 88.0797 71.9943 88.033 71.565 88.033C71.047 88.033 70.5733 88.124 70.144 88.306C69.7147 88.4833 69.3437 88.7423 69.031 89.083C68.723 89.4237 68.4827 89.839 68.31 90.329C68.1373 90.819 68.051 91.372 68.051 91.988C68.051 92.6133 68.1397 93.171 68.317 93.661C68.499 94.151 68.744 94.5663 69.052 94.907C69.3647 95.243 69.731 95.4997 70.151 95.677C70.5757 95.8543 71.033 95.943 71.523 95.943C71.8217 95.943 72.09 95.9267 72.328 95.894C72.5707 95.8567 72.7923 95.8007 72.993 95.726C73.1983 95.6513 73.3873 95.558 73.56 95.446C73.7373 95.3293 73.9123 95.1917 74.085 95.033C74.1643 94.963 74.2437 94.928 74.323 94.928ZM81.7918 90.861H79.0688V97H77.8228V90.861H75.0998V89.909H81.7918V90.861ZM84.0928 95.292C84.3215 95.6 84.5711 95.817 84.8418 95.943C85.1125 96.069 85.4158 96.132 85.7518 96.132C86.4145 96.132 86.9231 95.8963 87.2778 95.425C87.6325 94.9537 87.8098 94.2817 87.8098 93.409C87.8098 92.947 87.7678 92.5503 87.6838 92.219C87.6045 91.8877 87.4878 91.617 87.3338 91.407C87.1798 91.1923 86.9908 91.036 86.7668 90.938C86.5428 90.84 86.2885 90.791 86.0038 90.791C85.5978 90.791 85.2408 90.8843 84.9328 91.071C84.6295 91.2577 84.3495 91.5213 84.0928 91.862V95.292ZM84.0298 91.008C84.3285 90.6393 84.6738 90.343 85.0658 90.119C85.4578 89.895 85.9058 89.783 86.4098 89.783C86.8205 89.783 87.1915 89.8623 87.5228 90.021C87.8541 90.175 88.1365 90.406 88.3698 90.714C88.6031 91.0173 88.7828 91.3953 88.9088 91.848C89.0348 92.3007 89.0978 92.821 89.0978 93.409C89.0978 93.9317 89.0278 94.4193 88.8878 94.872C88.7478 95.32 88.5448 95.7097 88.2788 96.041C88.0175 96.3677 87.6955 96.6267 87.3128 96.818C86.9348 97.0047 86.5078 97.098 86.0318 97.098C85.5978 97.098 85.2245 97.0257 84.9118 96.881C84.6038 96.7317 84.3308 96.5263 84.0928 96.265V99.401H82.8398V89.909H83.5888C83.7661 89.909 83.8758 89.9953 83.9178 90.168L84.0298 91.008ZM93.5228 89.797C94.0408 89.797 94.5075 89.8833 94.9228 90.056C95.3381 90.2287 95.6928 90.4737 95.9868 90.791C96.2808 91.1083 96.5048 91.4933 96.6588 91.946C96.8175 92.394 96.8968 92.8957 96.8968 93.451C96.8968 94.011 96.8175 94.515 96.6588 94.963C96.5048 95.411 96.2808 95.7937 95.9868 96.111C95.6928 96.4283 95.3381 96.6733 94.9228 96.846C94.5075 97.014 94.0408 97.098 93.5228 97.098C93.0001 97.098 92.5288 97.014 92.1088 96.846C91.6935 96.6733 91.3388 96.4283 91.0448 96.111C90.7508 95.7937 90.5245 95.411 90.3658 94.963C90.2118 94.515 90.1348 94.011 90.1348 93.451C90.1348 92.8957 90.2118 92.394 90.3658 91.946C90.5245 91.4933 90.7508 91.1083 91.0448 90.791C91.3388 90.4737 91.6935 90.2287 92.1088 90.056C92.5288 89.8833 93.0001 89.797 93.5228 89.797ZM93.5228 96.125C94.2228 96.125 94.7455 95.8917 95.0908 95.425C95.4361 94.9537 95.6088 94.298 95.6088 93.458C95.6088 92.6133 95.4361 91.9553 95.0908 91.484C94.7455 91.0127 94.2228 90.777 93.5228 90.777C93.1681 90.777 92.8578 90.8377 92.5918 90.959C92.3305 91.0803 92.1111 91.2553 91.9338 91.484C91.7611 91.7127 91.6305 91.995 91.5418 92.331C91.4578 92.6623 91.4158 93.038 91.4158 93.458C91.4158 94.298 91.5885 94.9537 91.9338 95.425C92.2838 95.8917 92.8135 96.125 93.5228 96.125ZM104.42 89.909V97H103.174V92.184C103.174 92.0907 103.179 91.9903 103.188 91.883C103.197 91.7757 103.209 91.6683 103.223 91.561C103.181 91.6543 103.139 91.7407 103.097 91.82C103.055 91.8993 103.011 91.9717 102.964 92.037L99.5412 96.692C99.4898 96.7667 99.4245 96.839 99.3452 96.909C99.2705 96.9743 99.1865 97.007 99.0932 97.007H98.3372V89.916H99.5902V94.732C99.5902 94.8207 99.5855 94.9187 99.5762 95.026C99.5668 95.1287 99.5552 95.2337 99.5412 95.341C99.5832 95.2523 99.6252 95.1707 99.6672 95.096C99.7092 95.0167 99.7512 94.9443 99.7932 94.879L103.216 90.224C103.267 90.1493 103.333 90.0793 103.412 90.014C103.491 89.944 103.578 89.909 103.671 89.909H104.42ZM112.144 90.861H109.421V97H108.175V90.861H105.452V89.909H112.144V90.861ZM117.651 92.681C117.651 92.3917 117.609 92.128 117.525 91.89C117.445 91.6473 117.326 91.4397 117.168 91.267C117.014 91.0897 116.825 90.9543 116.601 90.861C116.377 90.763 116.122 90.714 115.838 90.714C115.24 90.714 114.767 90.889 114.417 91.239C114.071 91.5843 113.857 92.065 113.773 92.681H117.651ZM118.659 96.006C118.505 96.1927 118.32 96.356 118.106 96.496C117.891 96.6313 117.66 96.7433 117.413 96.832C117.17 96.9207 116.918 96.986 116.657 97.028C116.395 97.0747 116.136 97.098 115.88 97.098C115.39 97.098 114.937 97.0163 114.522 96.853C114.111 96.685 113.754 96.4423 113.451 96.125C113.152 95.803 112.919 95.4063 112.751 94.935C112.583 94.4637 112.499 93.9223 112.499 93.311C112.499 92.8163 112.573 92.3543 112.723 91.925C112.877 91.4957 113.096 91.1247 113.381 90.812C113.665 90.4947 114.013 90.2473 114.424 90.07C114.834 89.888 115.296 89.797 115.81 89.797C116.234 89.797 116.626 89.8693 116.986 90.014C117.35 90.154 117.662 90.3593 117.924 90.63C118.19 90.896 118.397 91.2273 118.547 91.624C118.696 92.016 118.771 92.464 118.771 92.968C118.771 93.164 118.75 93.2947 118.708 93.36C118.666 93.4253 118.586 93.458 118.47 93.458H113.731C113.745 93.906 113.805 94.2957 113.913 94.627C114.025 94.9583 114.179 95.236 114.375 95.46C114.571 95.6793 114.804 95.845 115.075 95.957C115.345 96.0643 115.649 96.118 115.985 96.118C116.297 96.118 116.566 96.083 116.79 96.013C117.018 95.9383 117.214 95.859 117.378 95.775C117.541 95.691 117.676 95.614 117.784 95.544C117.896 95.4693 117.991 95.432 118.071 95.432C118.173 95.432 118.253 95.4717 118.309 95.551L118.659 96.006ZM126.377 97H125.131V90.889H122.891C122.835 91.7897 122.751 92.569 122.639 93.227C122.527 93.8803 122.392 94.438 122.233 94.9C122.079 95.3573 121.904 95.7307 121.708 96.02C121.517 96.3047 121.314 96.5263 121.099 96.685C120.889 96.8437 120.67 96.951 120.441 97.007C120.217 97.063 119.993 97.091 119.769 97.091C119.373 97.091 119.174 97.028 119.174 96.902V96.111H119.538C119.697 96.111 119.858 96.083 120.021 96.027C120.185 95.971 120.343 95.8637 120.497 95.705C120.656 95.5463 120.808 95.3247 120.952 95.04C121.097 94.7507 121.228 94.3773 121.344 93.92C121.466 93.458 121.568 92.9003 121.652 92.247C121.741 91.589 121.809 90.8097 121.855 89.909H126.377V97ZM130.934 96.09C131.186 96.09 131.403 96.0597 131.585 95.999C131.771 95.9337 131.925 95.845 132.047 95.733C132.168 95.6163 132.259 95.481 132.32 95.327C132.38 95.173 132.411 95.005 132.411 94.823C132.411 94.655 132.385 94.4987 132.334 94.354C132.282 94.2047 132.196 94.074 132.075 93.962C131.958 93.85 131.804 93.7613 131.613 93.696C131.421 93.6307 131.188 93.598 130.913 93.598H129.408V96.09H130.934ZM130.913 92.688C131.403 92.688 131.813 92.7463 132.145 92.863C132.481 92.9797 132.749 93.136 132.95 93.332C133.155 93.528 133.302 93.7543 133.391 94.011C133.479 94.2677 133.524 94.5337 133.524 94.809C133.524 95.1263 133.468 95.4203 133.356 95.691C133.244 95.957 133.078 96.188 132.859 96.384C132.639 96.5753 132.369 96.727 132.047 96.839C131.725 96.9463 131.354 97 130.934 97H128.211V89.909H129.408V92.688H130.913ZM140.678 89.909V97H139.425V93.682H136.023V97H134.77V89.909H136.023V92.737H139.425V89.909H140.678ZM146.362 93.808C145.788 93.8267 145.298 93.8733 144.892 93.948C144.49 94.018 144.161 94.1113 143.905 94.228C143.653 94.3447 143.468 94.4823 143.352 94.641C143.24 94.7997 143.184 94.977 143.184 95.173C143.184 95.3597 143.214 95.5207 143.275 95.656C143.335 95.7913 143.417 95.9033 143.52 95.992C143.627 96.076 143.751 96.139 143.891 96.181C144.035 96.2183 144.189 96.237 144.353 96.237C144.572 96.237 144.773 96.216 144.955 96.174C145.137 96.1273 145.307 96.062 145.466 95.978C145.629 95.894 145.783 95.7937 145.928 95.677C146.077 95.5603 146.222 95.4273 146.362 95.278V93.808ZM142.337 90.91C142.729 90.532 143.151 90.2497 143.604 90.063C144.056 89.8763 144.558 89.783 145.109 89.783C145.505 89.783 145.858 89.8483 146.166 89.979C146.474 90.1097 146.733 90.2917 146.943 90.525C147.153 90.7583 147.311 91.0407 147.419 91.372C147.526 91.7033 147.58 92.0673 147.58 92.464V97H147.027C146.905 97 146.812 96.9813 146.747 96.944C146.681 96.902 146.63 96.8227 146.593 96.706L146.453 96.034C146.266 96.2067 146.084 96.3607 145.907 96.496C145.729 96.6267 145.543 96.7387 145.347 96.832C145.151 96.9207 144.941 96.9883 144.717 97.035C144.497 97.0863 144.252 97.112 143.982 97.112C143.706 97.112 143.447 97.0747 143.205 97C142.962 96.9207 142.75 96.804 142.568 96.65C142.39 96.496 142.248 96.3023 142.141 96.069C142.038 95.831 141.987 95.551 141.987 95.229C141.987 94.949 142.064 94.6807 142.218 94.424C142.372 94.1627 142.621 93.9317 142.967 93.731C143.312 93.5303 143.762 93.367 144.318 93.241C144.873 93.1103 145.554 93.0357 146.362 93.017V92.464C146.362 91.9133 146.243 91.498 146.005 91.218C145.767 90.9333 145.419 90.791 144.962 90.791C144.654 90.791 144.395 90.8307 144.185 90.91C143.979 90.9847 143.8 91.071 143.646 91.169C143.496 91.2623 143.366 91.3487 143.254 91.428C143.146 91.5027 143.039 91.54 142.932 91.54C142.848 91.54 142.775 91.519 142.715 91.477C142.654 91.4303 142.603 91.3743 142.561 91.309L142.337 90.91ZM153.069 93.22V90.749H151.879C151.613 90.749 151.389 90.7887 151.207 90.868C151.025 90.9427 150.878 91.0407 150.766 91.162C150.658 91.2787 150.581 91.4117 150.535 91.561C150.488 91.7057 150.465 91.8503 150.465 91.995C150.465 92.3777 150.605 92.6787 150.885 92.898C151.165 93.1127 151.547 93.22 152.033 93.22H153.069ZM154.259 89.909V97H153.069V94.011H152.523C152.392 94.011 152.282 94.0227 152.194 94.046C152.11 94.0647 152.035 94.0927 151.97 94.13C151.909 94.1673 151.855 94.2163 151.809 94.277C151.762 94.333 151.713 94.3983 151.662 94.473L150.108 96.566C150.028 96.7153 149.93 96.825 149.814 96.895C149.702 96.965 149.536 97 149.317 97H148.449L150.507 94.326C150.675 94.046 150.896 93.8593 151.172 93.766C150.812 93.7193 150.509 93.6353 150.262 93.514C150.014 93.3927 149.811 93.2503 149.653 93.087C149.499 92.919 149.387 92.7347 149.317 92.534C149.247 92.3333 149.212 92.1303 149.212 91.925C149.212 91.6823 149.258 91.4397 149.352 91.197C149.45 90.9543 149.604 90.7397 149.814 90.553C150.024 90.3617 150.294 90.2077 150.626 90.091C150.962 89.9697 151.368 89.909 151.844 89.909H154.259ZM71.292 106.259C71.3573 106.156 71.4437 106.072 71.551 106.007C71.6583 105.942 71.7727 105.909 71.894 105.909H72.867L71.026 108.611C70.914 108.784 70.7973 108.926 70.676 109.038C70.5547 109.145 70.4053 109.229 70.228 109.29C70.452 109.351 70.641 109.446 70.795 109.577C70.949 109.703 71.0867 109.866 71.208 110.067L73.07 113H72.202C71.978 113 71.8053 112.963 71.684 112.888C71.5627 112.813 71.4577 112.706 71.369 112.566L69.99 110.361C69.7707 109.997 69.4417 109.815 69.003 109.815H68.24V113.007H66.987V105.909H68.24V108.975H68.912C69.2853 108.975 69.577 108.816 69.787 108.499L71.292 106.259ZM76.8087 105.797C77.3267 105.797 77.7933 105.883 78.2087 106.056C78.624 106.229 78.9787 106.474 79.2727 106.791C79.5667 107.108 79.7907 107.493 79.9447 107.946C80.1033 108.394 80.1827 108.896 80.1827 109.451C80.1827 110.011 80.1033 110.515 79.9447 110.963C79.7907 111.411 79.5667 111.794 79.2727 112.111C78.9787 112.428 78.624 112.673 78.2087 112.846C77.7933 113.014 77.3267 113.098 76.8087 113.098C76.286 113.098 75.8147 113.014 75.3947 112.846C74.9793 112.673 74.6247 112.428 74.3307 112.111C74.0367 111.794 73.8103 111.411 73.6517 110.963C73.4977 110.515 73.4207 110.011 73.4207 109.451C73.4207 108.896 73.4977 108.394 73.6517 107.946C73.8103 107.493 74.0367 107.108 74.3307 106.791C74.6247 106.474 74.9793 106.229 75.3947 106.056C75.8147 105.883 76.286 105.797 76.8087 105.797ZM76.8087 112.125C77.5087 112.125 78.0313 111.892 78.3767 111.425C78.722 110.954 78.8947 110.298 78.8947 109.458C78.8947 108.613 78.722 107.955 78.3767 107.484C78.0313 107.013 77.5087 106.777 76.8087 106.777C76.454 106.777 76.1437 106.838 75.8777 106.959C75.6163 107.08 75.397 107.255 75.2197 107.484C75.047 107.713 74.9163 107.995 74.8277 108.331C74.7437 108.662 74.7017 109.038 74.7017 109.458C74.7017 110.298 74.8743 110.954 75.2197 111.425C75.5697 111.892 76.0993 112.125 76.8087 112.125ZM89.526 105.888V113H88.399V108.289C88.399 108.158 88.406 108.014 88.42 107.855C88.4387 107.692 88.462 107.54 88.49 107.4L86.026 111.719C85.9887 111.789 85.9397 111.845 85.879 111.887C85.8183 111.929 85.7483 111.95 85.669 111.95H85.529C85.4497 111.95 85.3773 111.929 85.312 111.887C85.2513 111.845 85.2023 111.789 85.165 111.719L82.659 107.386C82.6823 107.526 82.7033 107.68 82.722 107.848C82.7407 108.011 82.75 108.158 82.75 108.289V113H81.623V105.888H82.624C82.7127 105.888 82.799 105.909 82.883 105.951C82.967 105.988 83.0393 106.061 83.1 106.168L85.312 109.864C85.4193 110.079 85.515 110.305 85.599 110.543C85.6783 110.296 85.7717 110.069 85.879 109.864L88.049 106.168C88.1097 106.056 88.182 105.981 88.266 105.944C88.35 105.907 88.4363 105.888 88.525 105.888H89.526ZM97.2621 113H96.0091V106.861H92.6071V113H91.3541V105.909H97.2621V113ZM102.946 109.808C102.372 109.827 101.882 109.873 101.476 109.948C101.074 110.018 100.745 110.111 100.489 110.228C100.237 110.345 100.052 110.482 99.9358 110.641C99.8238 110.8 99.7678 110.977 99.7678 111.173C99.7678 111.36 99.7981 111.521 99.8588 111.656C99.9194 111.791 100.001 111.903 100.104 111.992C100.211 112.076 100.335 112.139 100.475 112.181C100.619 112.218 100.773 112.237 100.937 112.237C101.156 112.237 101.357 112.216 101.539 112.174C101.721 112.127 101.891 112.062 102.05 111.978C102.213 111.894 102.367 111.794 102.512 111.677C102.661 111.56 102.806 111.427 102.946 111.278V109.808ZM98.9208 106.91C99.3128 106.532 99.7351 106.25 100.188 106.063C100.64 105.876 101.142 105.783 101.693 105.783C102.089 105.783 102.442 105.848 102.75 105.979C103.058 106.11 103.317 106.292 103.527 106.525C103.737 106.758 103.895 107.041 104.003 107.372C104.11 107.703 104.164 108.067 104.164 108.464V113H103.611C103.489 113 103.396 112.981 103.331 112.944C103.265 112.902 103.214 112.823 103.177 112.706L103.037 112.034C102.85 112.207 102.668 112.361 102.491 112.496C102.313 112.627 102.127 112.739 101.931 112.832C101.735 112.921 101.525 112.988 101.301 113.035C101.081 113.086 100.836 113.112 100.566 113.112C100.29 113.112 100.031 113.075 99.7888 113C99.5461 112.921 99.3338 112.804 99.1518 112.65C98.9744 112.496 98.8321 112.302 98.7248 112.069C98.6221 111.831 98.5708 111.551 98.5708 111.229C98.5708 110.949 98.6478 110.681 98.8018 110.424C98.9558 110.163 99.2054 109.932 99.5508 109.731C99.8961 109.53 100.346 109.367 100.902 109.241C101.457 109.11 102.138 109.036 102.946 109.017V108.464C102.946 107.913 102.827 107.498 102.589 107.218C102.351 106.933 102.003 106.791 101.546 106.791C101.238 106.791 100.979 106.831 100.769 106.91C100.563 106.985 100.384 107.071 100.23 107.169C100.08 107.262 99.9498 107.349 99.8378 107.428C99.7304 107.503 99.6231 107.54 99.5158 107.54C99.4318 107.54 99.3594 107.519 99.2988 107.477C99.2381 107.43 99.1868 107.374 99.1448 107.309L98.9208 106.91ZM111.83 105.909V113H110.577V109.682H107.175V113H105.922V105.909H107.175V108.737H110.577V105.909H111.83ZM119.753 105.909V113H118.507V108.184C118.507 108.091 118.512 107.99 118.521 107.883C118.531 107.776 118.542 107.668 118.556 107.561C118.514 107.654 118.472 107.741 118.43 107.82C118.388 107.899 118.344 107.972 118.297 108.037L114.874 112.692C114.823 112.767 114.758 112.839 114.678 112.909C114.604 112.974 114.52 113.007 114.426 113.007H113.67V105.916H114.923V110.732C114.923 110.821 114.919 110.919 114.909 111.026C114.9 111.129 114.888 111.234 114.874 111.341C114.916 111.252 114.958 111.171 115 111.096C115.042 111.017 115.084 110.944 115.126 110.879L118.549 106.224C118.601 106.149 118.666 106.079 118.745 106.014C118.825 105.944 118.911 105.909 119.004 105.909H119.753ZM125.314 109.22V106.749H124.124C123.858 106.749 123.634 106.789 123.452 106.868C123.27 106.943 123.123 107.041 123.011 107.162C122.904 107.279 122.827 107.412 122.78 107.561C122.734 107.706 122.71 107.85 122.71 107.995C122.71 108.378 122.85 108.679 123.13 108.898C123.41 109.113 123.793 109.22 124.278 109.22H125.314ZM126.504 105.909V113H125.314V110.011H124.768C124.638 110.011 124.528 110.023 124.439 110.046C124.355 110.065 124.281 110.093 124.215 110.13C124.155 110.167 124.101 110.216 124.054 110.277C124.008 110.333 123.959 110.398 123.907 110.473L122.353 112.566C122.274 112.715 122.176 112.825 122.059 112.895C121.947 112.965 121.782 113 121.562 113H120.694L122.752 110.326C122.92 110.046 123.142 109.859 123.417 109.766C123.058 109.719 122.755 109.635 122.507 109.514C122.26 109.393 122.057 109.25 121.898 109.087C121.744 108.919 121.632 108.735 121.562 108.534C121.492 108.333 121.457 108.13 121.457 107.925C121.457 107.682 121.504 107.44 121.597 107.197C121.695 106.954 121.849 106.74 122.059 106.553C122.269 106.362 122.54 106.208 122.871 106.091C123.207 105.97 123.613 105.909 124.089 105.909H126.504Z" fill="white"/>
</svg>
