<svg width="35" height="35" viewBox="0 0 35 35" fill="none" xmlns="http://www.w3.org/2000/svg">
<path d="M34 1H12.4783V34H34V1Z" stroke="#FFDD00" stroke-width="2" stroke-miterlimit="10" stroke-linecap="round" stroke-linejoin="round"/>
<path d="M12.4783 9.60864H1V33.9999H12.4783V9.60864Z" stroke="#FFDD00" stroke-width="2" stroke-miterlimit="10" stroke-linecap="round" stroke-linejoin="round"/>
<path d="M12.4783 13.9131H5.30435V18.2174H12.4783V13.9131Z" stroke="#FFDD00" stroke-width="2" stroke-miterlimit="10" stroke-linecap="round" stroke-linejoin="round"/>
<path d="M12.4783 22.5217H5.30435V26.8261H12.4783V22.5217Z" stroke="#FFDD00" stroke-width="2" stroke-miterlimit="10" stroke-linecap="round" stroke-linejoin="round"/>
<path d="M26.8261 33.9998H19.6522V29.6955C19.6522 28.1172 20.9435 26.8259 22.5217 26.8259H23.9565C25.5348 26.8259 26.8261 28.1172 26.8261 29.6955V33.9998Z" stroke="#FFDD00" stroke-width="2" stroke-miterlimit="10" stroke-linecap="round" stroke-linejoin="round"/>
<path d="M16.7826 5.30444H18.2174" stroke="#FFDD00" stroke-width="2" stroke-miterlimit="10" stroke-linecap="round" stroke-linejoin="round"/>
<path d="M22.5217 5.30444H23.9565" stroke="#FFDD00" stroke-width="2" stroke-miterlimit="10" stroke-linecap="round" stroke-linejoin="round"/>
<path d="M28.2609 5.30444H29.6957" stroke="#FFDD00" stroke-width="2" stroke-miterlimit="10" stroke-linecap="round" stroke-linejoin="round"/>
<path d="M16.7826 9.60864H18.2174" stroke="#FFDD00" stroke-width="2" stroke-miterlimit="10" stroke-linecap="round" stroke-linejoin="round"/>
<path d="M22.5217 9.60864H23.9565" stroke="#FFDD00" stroke-width="2" stroke-miterlimit="10" stroke-linecap="round" stroke-linejoin="round"/>
<path d="M28.2609 9.60864H29.6957" stroke="#FFDD00" stroke-width="2" stroke-miterlimit="10" stroke-linecap="round" stroke-linejoin="round"/>
<path d="M16.7826 13.9131H18.2174" stroke="#FFDD00" stroke-width="2" stroke-miterlimit="10" stroke-linecap="round" stroke-linejoin="round"/>
<path d="M22.5217 13.9131H23.9565" stroke="#FFDD00" stroke-width="2" stroke-miterlimit="10" stroke-linecap="round" stroke-linejoin="round"/>
<path d="M28.2609 13.9131H29.6957" stroke="#FFDD00" stroke-width="2" stroke-miterlimit="10" stroke-linecap="round" stroke-linejoin="round"/>
<path d="M16.7826 18.2173H18.2174" stroke="#FFDD00" stroke-width="2" stroke-miterlimit="10" stroke-linecap="round" stroke-linejoin="round"/>
<path d="M22.5217 18.2173H23.9565" stroke="#FFDD00" stroke-width="2" stroke-miterlimit="10" stroke-linecap="round" stroke-linejoin="round"/>
<path d="M28.2609 18.2173H29.6957" stroke="#FFDD00" stroke-width="2" stroke-miterlimit="10" stroke-linecap="round" stroke-linejoin="round"/>
<path d="M16.7826 22.5217H18.2174" stroke="#FFDD00" stroke-width="2" stroke-miterlimit="10" stroke-linecap="round" stroke-linejoin="round"/>
<path d="M22.5217 22.5217H23.9565" stroke="#FFDD00" stroke-width="2" stroke-miterlimit="10" stroke-linecap="round" stroke-linejoin="round"/>
<path d="M28.2609 22.5217H29.6957" stroke="#FFDD00" stroke-width="2" stroke-miterlimit="10" stroke-linecap="round" stroke-linejoin="round"/>
</svg>
