<svg width="23" height="23" viewBox="0 0 23 23" fill="none" xmlns="http://www.w3.org/2000/svg">
<path d="M21.5625 0H1.4375C1.04818 0 0.711263 0.142253 0.426758 0.426758C0.142253 0.711263 0 1.04818 0 1.4375V21.5625C0 21.9518 0.142253 22.2887 0.426758 22.5732C0.711263 22.8577 1.04818 23 1.4375 23H21.5625C21.9518 23 22.2887 22.8577 22.5732 22.5732C22.8577 22.2887 23 21.9518 23 21.5625V1.4375C23 1.18294 22.9364 0.943359 22.8091 0.71875C22.6818 0.494141 22.5059 0.318197 22.2812 0.190918C22.0566 0.0636393 21.8171 0 21.5625 0ZM21.5625 21.5625H1.4375V1.4375H21.5625V21.5625ZM5.03125 7.90625H6.46875V9.34375C6.46875 9.55339 6.53988 9.72559 6.68213 9.86035C6.82438 9.99512 6.99284 10.0625 7.1875 10.0625C7.38216 10.0625 7.55062 9.99512 7.69287 9.86035C7.83512 9.72559 7.90625 9.55339 7.90625 9.34375V7.90625H9.34375C9.53841 7.90625 9.70687 7.83887 9.84912 7.7041C9.99137 7.56934 10.0625 7.40088 10.0625 7.19873C10.0625 6.99658 9.99137 6.82438 9.84912 6.68213C9.70687 6.53988 9.53841 6.46875 9.34375 6.46875H7.90625V5.03125C7.90625 4.83659 7.83512 4.66813 7.69287 4.52588C7.55062 4.38363 7.38216 4.3125 7.1875 4.3125C6.99284 4.3125 6.82438 4.38363 6.68213 4.52588C6.53988 4.66813 6.46875 4.83659 6.46875 5.03125V6.46875H5.03125C4.83659 6.46875 4.66813 6.53988 4.52588 6.68213C4.38363 6.82438 4.3125 6.99658 4.3125 7.19873C4.3125 7.40088 4.38363 7.56934 4.52588 7.7041C4.66813 7.83887 4.83659 7.90625 5.03125 7.90625ZM9.73682 13.2856C9.59456 13.1434 9.42236 13.0723 9.22021 13.0723C9.01807 13.0723 8.84961 13.1396 8.71484 13.2744L7.1875 14.8018L5.66016 13.2744C5.52539 13.1396 5.35693 13.0723 5.15479 13.0723C4.95264 13.0723 4.78044 13.1434 4.63818 13.2856C4.49593 13.4279 4.4248 13.5964 4.4248 13.791C4.4248 13.9857 4.49967 14.1504 4.64941 14.2852L6.17676 15.8125L4.64941 17.3398C4.55957 17.4297 4.49593 17.5382 4.4585 17.6655C4.42106 17.7928 4.42106 17.9163 4.4585 18.0361C4.49593 18.1559 4.55957 18.2607 4.64941 18.3506C4.70931 18.4255 4.78418 18.4816 4.87402 18.519C4.96387 18.5565 5.05745 18.5752 5.15479 18.5752C5.25212 18.5752 5.3457 18.5565 5.43555 18.519C5.52539 18.4816 5.60026 18.4255 5.66016 18.3506L7.1875 16.8457L8.71484 18.3506C8.77474 18.4255 8.84961 18.4816 8.93945 18.519C9.0293 18.5565 9.12288 18.5752 9.22021 18.5752C9.31755 18.5752 9.41113 18.5565 9.50098 18.519C9.59082 18.4816 9.66569 18.4255 9.72559 18.3506C10.07 18.0212 10.07 17.6842 9.72559 17.3398L8.19824 15.8125L9.72559 14.2852C9.87533 14.1504 9.9502 13.9857 9.9502 13.791C9.9502 13.5964 9.87907 13.4279 9.73682 13.2856ZM13.6562 7.90625H17.9688C18.1634 7.90625 18.3319 7.83887 18.4741 7.7041C18.6164 7.56934 18.6875 7.40088 18.6875 7.19873C18.6875 6.99658 18.6164 6.82438 18.4741 6.68213C18.3319 6.53988 18.1634 6.46875 17.9688 6.46875H13.6562C13.4616 6.46875 13.2931 6.53988 13.1509 6.68213C13.0086 6.82438 12.9375 6.99658 12.9375 7.19873C12.9375 7.40088 13.0086 7.56934 13.1509 7.7041C13.2931 7.83887 13.4616 7.90625 13.6562 7.90625ZM13.6562 15.0938H17.9688C18.1634 15.0938 18.3319 15.0264 18.4741 14.8916C18.6164 14.7568 18.6875 14.5884 18.6875 14.3862C18.6875 14.1841 18.6164 14.0119 18.4741 13.8696C18.3319 13.7274 18.1634 13.6562 17.9688 13.6562H13.6562C13.4616 13.6562 13.2931 13.7274 13.1509 13.8696C13.0086 14.0119 12.9375 14.1841 12.9375 14.3862C12.9375 14.5884 13.0086 14.7568 13.1509 14.8916C13.2931 15.0264 13.4616 15.0938 13.6562 15.0938ZM13.6562 17.9688H17.9688C18.1634 17.9688 18.3319 17.9014 18.4741 17.7666C18.6164 17.6318 18.6875 17.4634 18.6875 17.2612C18.6875 17.0591 18.6164 16.8869 18.4741 16.7446C18.3319 16.6024 18.1634 16.5312 17.9688 16.5312H13.6562C13.4616 16.5312 13.2931 16.6024 13.1509 16.7446C13.0086 16.8869 12.9375 17.0591 12.9375 17.2612C12.9375 17.4634 13.0086 17.6318 13.1509 17.7666C13.2931 17.9014 13.4616 17.9688 13.6562 17.9688Z" fill="#1B1B1B"/>
</svg>
