<svg width="17" height="14" viewBox="0 0 17 14" fill="none" xmlns="http://www.w3.org/2000/svg">
<path d="M5.34636 13.9999C11.7618 13.9999 15.2701 8.61417 15.2701 3.94406C15.2701 3.7911 15.267 3.63877 15.2602 3.48728C15.9411 2.98836 16.533 2.36576 17 1.6571C16.3751 1.93869 15.7024 2.128 14.9971 2.21364C15.7171 1.77593 16.27 1.0838 16.5307 0.258731C15.8568 0.663577 15.1105 0.957703 14.316 1.11657C13.6796 0.429602 12.7733 0 11.77 0C9.84397 0 8.28194 1.58272 8.28194 3.53374C8.28194 3.81122 8.31261 4.08091 8.37239 4.33964C5.47361 4.19184 2.90304 2.78557 1.18299 0.647037C0.883575 1.16924 0.710789 1.77603 0.710789 2.42349C0.710789 3.64951 1.32656 4.73216 2.26284 5.36529C1.69063 5.34749 1.15315 5.18831 0.683239 4.92336C0.68272 4.93821 0.68272 4.95265 0.68272 4.96845C0.68272 6.68012 1.88494 8.10924 3.48107 8.43308C3.1879 8.51388 2.87944 8.55739 2.56132 8.55739C2.33697 8.55739 2.11823 8.53505 1.90573 8.49365C2.34975 9.89792 3.63743 10.9198 5.16401 10.9484C3.97021 11.8966 2.4664 12.4613 0.832009 12.4613C0.550896 12.4613 0.273005 12.445 0 12.4123C1.54363 13.4149 3.37659 14 5.34646 14" fill="white"/>
</svg>
