<svg width="19" height="11" viewBox="0 0 19 11" fill="none" xmlns="http://www.w3.org/2000/svg">
<path d="M16.8464 4.59887C17.1166 4.24445 17.3311 3.96008 17.4895 3.74554C18.6304 2.20641 19.1249 1.2232 18.9733 0.794545L18.9139 0.694153C18.8744 0.633853 18.7719 0.578478 18.6072 0.528354C18.4423 0.478267 18.2313 0.470263 17.9742 0.503329L15.1252 0.523719C15.0592 0.517055 14.9933 0.518612 14.9273 0.528354C14.8613 0.538531 14.8185 0.548744 14.7986 0.558486C14.7787 0.568699 14.7624 0.576884 14.7493 0.583548L14.7098 0.61368C14.6768 0.633635 14.6405 0.668874 14.601 0.719215C14.5614 0.76952 14.5282 0.827828 14.502 0.894973C14.1921 1.70463 13.8393 2.45757 13.4436 3.15354C13.1995 3.56847 12.9752 3.92843 12.771 4.2325C12.5665 4.53726 12.395 4.76137 12.2565 4.90497C12.1181 5.04882 11.9927 5.1645 11.8807 5.2512C11.7684 5.33852 11.6827 5.3751 11.6236 5.3618C11.5641 5.34851 11.508 5.33522 11.4553 5.32146C11.363 5.26141 11.2887 5.1796 11.2328 5.07566C11.1767 4.97219 11.1389 4.84159 11.119 4.68423C11.0993 4.52709 11.0875 4.39146 11.0844 4.27752C11.0809 4.16384 11.0827 4.00336 11.0895 3.79566C11.096 3.58818 11.0993 3.44791 11.0993 3.3741C11.0993 3.12008 11.1043 2.84393 11.1142 2.54605C11.124 2.24838 11.1323 2.01232 11.1389 1.8383C11.1454 1.66454 11.1487 1.48034 11.1487 1.28618C11.1487 1.09246 11.1371 0.939954 11.1139 0.829385C11.0908 0.719215 11.056 0.612159 11.0102 0.508218C10.9639 0.404711 10.8963 0.324238 10.8072 0.267523C10.7181 0.210555 10.6078 0.165574 10.4759 0.131856C10.1262 0.0513831 9.68101 0.00839401 9.14039 0.0013318C7.91366 -0.011525 7.12556 0.0686946 6.77606 0.242461C6.63758 0.31627 6.5122 0.416445 6.40016 0.543674C6.28134 0.691075 6.26496 0.771511 6.3508 0.784368C6.74658 0.844669 7.02666 0.988738 7.19155 1.21614L7.25098 1.33649C7.29706 1.42381 7.34317 1.57765 7.38946 1.79839C7.43558 2.01917 7.46527 2.26341 7.47858 2.53116C7.51156 3.01965 7.51156 3.4377 7.47858 3.78592C7.4456 4.1341 7.41437 4.40497 7.38468 4.59869C7.35495 4.79284 7.3104 4.94999 7.25119 5.07033C7.19177 5.19112 7.15225 5.26471 7.13237 5.29151C7.11249 5.31809 7.09611 5.33493 7.08301 5.34163C6.99717 5.37488 6.90827 5.39172 6.8159 5.39172C6.72349 5.39172 6.61142 5.34471 6.4795 5.25095C6.34755 5.15765 6.2106 5.02865 6.06905 4.86462C5.92707 4.70085 5.76738 4.47146 5.58914 4.17687C5.41111 3.88276 5.2263 3.53454 5.03517 3.13315L4.87702 2.8419C4.77808 2.65484 4.64284 2.38199 4.47138 2.02402C4.29992 1.66606 4.14809 1.31986 4.01638 0.984971C3.96352 0.844669 3.88443 0.737613 3.77896 0.663804L3.7296 0.633672C3.69662 0.607053 3.64376 0.578478 3.57124 0.548527C3.4985 0.518395 3.42294 0.496665 3.34363 0.483156L0.633099 0.503111C0.356132 0.503111 0.168286 0.566961 0.0693489 0.694153L0.0298025 0.754236C0.00981521 0.787917 0 0.841554 0 0.914928C0 0.988738 0.0198803 1.07895 0.0594266 1.18579C0.455212 2.12956 0.885546 3.03964 1.35036 3.91601C1.81542 4.79284 2.21931 5.49899 2.56223 6.03427C2.90516 6.56999 3.25465 7.07488 3.61093 7.55008C3.9672 8.02527 4.20287 8.32956 4.31819 8.46324C4.43351 8.59735 4.52417 8.69778 4.59016 8.76445L4.83744 9.00558C4.99558 9.16609 5.22822 9.35844 5.53492 9.58276C5.84159 9.80705 6.18105 10.0278 6.55392 10.2451C6.92636 10.4627 7.36016 10.6398 7.85467 10.7772C8.34921 10.9146 8.83062 10.9698 9.29893 10.9428H10.4366C10.6675 10.9228 10.8421 10.8495 10.9608 10.722L11.0003 10.6719C11.0265 10.632 11.0514 10.57 11.0746 10.4864C11.0975 10.4028 11.1094 10.3106 11.1094 10.2104C11.1025 9.92276 11.1242 9.66298 11.1736 9.43246C11.2229 9.20151 11.279 9.02774 11.3418 8.91029C11.4045 8.79346 11.4752 8.69462 11.5545 8.61415C11.6336 8.53368 11.6895 8.48558 11.7227 8.46874C11.7557 8.45234 11.7821 8.4406 11.8018 8.4335C11.9599 8.38005 12.1462 8.43195 12.3607 8.58909C12.575 8.74671 12.7762 8.94039 12.9643 9.17134C13.1521 9.4023 13.378 9.66139 13.6419 9.94931C13.9055 10.237 14.1364 10.4511 14.3343 10.5916L14.5322 10.7124C14.6641 10.7924 14.8354 10.866 15.0466 10.9332C15.2576 10.9999 15.4424 11.0168 15.6005 10.9833L18.133 10.9429C18.3836 10.9429 18.5782 10.9013 18.7167 10.8175C18.8552 10.7344 18.9376 10.6417 18.964 10.5416C18.9902 10.4412 18.9919 10.3279 18.969 10.2004C18.9459 10.0734 18.9227 9.98477 18.8998 9.93468C18.8767 9.88459 18.8552 9.84247 18.8353 9.80922C18.5055 9.20702 17.8757 8.46737 16.9459 7.59078L16.926 7.57083L16.9162 7.56065L16.9064 7.55087H16.8964C16.4742 7.1426 16.2073 6.86819 16.0952 6.72746C15.8908 6.46018 15.8445 6.1891 15.9567 5.91472C16.0354 5.70666 16.332 5.26826 16.8464 4.59887Z" fill="white"/>
</svg>
