<svg width="20" height="11" viewBox="0 0 20 11" fill="none" xmlns="http://www.w3.org/2000/svg">
<path d="M17.733 4.59887C18.0175 4.24445 18.2433 3.96008 18.41 3.74554C19.6109 2.20641 20.1315 1.2232 19.9719 0.794545L19.9093 0.694153C19.8678 0.633853 19.7599 0.578478 19.5865 0.528354C19.4129 0.478267 19.1908 0.470263 18.9202 0.503329L15.9213 0.523719C15.8518 0.517055 15.7824 0.518612 15.7129 0.528354C15.6435 0.538531 15.5985 0.548744 15.5775 0.558486C15.5566 0.568699 15.5393 0.576884 15.5255 0.583548L15.4839 0.61368C15.4492 0.633635 15.4111 0.668874 15.3695 0.719215C15.3278 0.76952 15.2929 0.827828 15.2653 0.894973C14.939 1.70463 14.5677 2.45757 14.1511 3.15354C13.8942 3.56847 13.6581 3.92843 13.4431 4.2325C13.2279 4.53726 13.0474 4.76137 12.9016 4.90497C12.7559 5.04882 12.6238 5.1645 12.5059 5.2512C12.3878 5.33852 12.2976 5.3751 12.2353 5.3618C12.1727 5.34851 12.1137 5.33522 12.0583 5.32146C11.961 5.26141 11.8828 5.1796 11.824 5.07566C11.7649 4.97219 11.7251 4.84159 11.7042 4.68423C11.6835 4.52709 11.6711 4.39146 11.6678 4.27752C11.6642 4.16384 11.666 4.00336 11.6731 3.79566C11.68 3.58818 11.6835 3.44791 11.6835 3.3741C11.6835 3.12008 11.6888 2.84393 11.6992 2.54605C11.7095 2.24838 11.7183 2.01232 11.7251 1.8383C11.732 1.66454 11.7355 1.48034 11.7355 1.28618C11.7355 1.09246 11.7233 0.939954 11.6988 0.829385C11.6745 0.719215 11.6379 0.612159 11.5897 0.508218C11.5409 0.404711 11.4698 0.324238 11.376 0.267523C11.2823 0.210555 11.1661 0.165574 11.0273 0.131856C10.6591 0.0513831 10.1905 0.00839401 9.62146 0.0013318C8.33017 -0.011525 7.50059 0.0686946 7.1327 0.242461C6.98693 0.31627 6.85494 0.416445 6.73701 0.543674C6.61194 0.691075 6.59469 0.771511 6.68505 0.784368C7.10167 0.844669 7.39648 0.988738 7.57005 1.21614L7.63261 1.33649C7.68111 1.42381 7.72965 1.57765 7.77838 1.79839C7.82692 2.01917 7.85818 2.26341 7.87219 2.53116C7.90691 3.01965 7.90691 3.4377 7.87219 3.78592C7.83748 4.1341 7.8046 4.40497 7.77335 4.59869C7.74205 4.79284 7.69516 4.94999 7.63283 5.07033C7.57028 5.19112 7.52869 5.26471 7.50776 5.29151C7.48684 5.31809 7.46959 5.33493 7.4558 5.34163C7.36545 5.37488 7.27186 5.39172 7.17463 5.39172C7.07736 5.39172 6.95939 5.34471 6.82053 5.25095C6.68163 5.15765 6.53747 5.02865 6.38847 4.86462C6.23902 4.70085 6.07093 4.47146 5.8833 4.17687C5.6959 3.88276 5.50136 3.53454 5.30018 3.13315L5.1337 2.8419C5.02956 2.65484 4.8872 2.38199 4.70672 2.02402C4.52623 1.66606 4.36641 1.31986 4.22777 0.984971C4.17213 0.844669 4.08888 0.737613 3.97786 0.663804L3.9259 0.633672C3.89118 0.607053 3.83554 0.578478 3.7592 0.548527C3.68263 0.518395 3.60309 0.496665 3.51961 0.483156L0.66642 0.503111C0.374875 0.503111 0.177143 0.566961 0.0729989 0.694153L0.0313711 0.754236C0.0103318 0.787917 0 0.841554 0 0.914928C0 0.988738 0.0209266 1.07895 0.0625544 1.18579C0.47917 2.12956 0.932154 3.03964 1.42143 3.91601C1.91097 4.79284 2.33611 5.49899 2.69709 6.03427C3.05806 6.56999 3.42595 7.07488 3.80098 7.55008C4.176 8.02527 4.42408 8.32956 4.54547 8.46324C4.66686 8.59735 4.76228 8.69778 4.83175 8.76445L5.09204 9.00558C5.25851 9.16609 5.50339 9.35844 5.82623 9.58276C6.14904 9.80705 6.50637 10.0278 6.89886 10.2451C7.29091 10.4627 7.74754 10.6398 8.26807 10.7772C8.78864 10.9146 9.29539 10.9698 9.78835 10.9428H10.9859C11.2289 10.9228 11.4128 10.8495 11.5377 10.722L11.5793 10.6719C11.6069 10.632 11.6331 10.57 11.6574 10.4864C11.6816 10.4028 11.6941 10.3106 11.6941 10.2104C11.6869 9.92276 11.7097 9.66298 11.7616 9.43246C11.8136 9.20151 11.8727 9.02774 11.9387 8.91029C12.0047 8.79346 12.0792 8.69462 12.1626 8.61415C12.2459 8.53368 12.3047 8.48558 12.3397 8.46874C12.3744 8.45234 12.4023 8.4406 12.423 8.4335C12.5894 8.38005 12.7855 8.43195 13.0113 8.58909C13.2369 8.74671 13.4487 8.94039 13.6466 9.17134C13.8443 9.4023 14.0821 9.66139 14.3598 9.94931C14.6374 10.237 14.8804 10.4511 15.0887 10.5916L15.297 10.7124C15.4359 10.7924 15.6162 10.866 15.8385 10.9332C16.0606 10.9999 16.2552 11.0168 16.4216 10.9833L19.0874 10.9429C19.3511 10.9429 19.556 10.9013 19.7018 10.8175C19.8475 10.7344 19.9343 10.6417 19.9621 10.5416C19.9897 10.4412 19.9915 10.3279 19.9674 10.2004C19.943 10.0734 19.9187 9.98477 19.8945 9.93468C19.8702 9.88459 19.8476 9.84247 19.8267 9.80922C19.4795 9.20702 18.8166 8.46737 17.8378 7.59078L17.8168 7.57083L17.8065 7.56065L17.7962 7.55087H17.7857C17.3413 7.1426 17.0603 6.86819 16.9423 6.72746C16.7271 6.46018 16.6784 6.1891 16.7966 5.91472C16.8793 5.70666 17.1916 5.26826 17.733 4.59887Z" fill="white"/>
</svg>
