<svg width="17" height="12" viewBox="0 0 17 12" fill="none" xmlns="http://www.w3.org/2000/svg">
<path d="M16.6497 1.87771C16.4538 1.14347 15.8796 0.564674 15.1514 0.366965C13.8211 0 8.49981 0 8.49981 0C8.49981 0 3.17869 0 1.84838 0.353052C1.1342 0.550552 0.545985 1.14357 0.350086 1.87771C0 3.21879 0 6 0 6C0 6 0 8.79523 0.350086 10.1223C0.546192 10.8564 1.12019 11.4352 1.84848 11.6329C3.19269 12 8.50002 12 8.50002 12C8.50002 12 13.8211 12 15.1514 11.6469C15.8797 11.4493 16.4538 10.8705 16.6499 10.1364C16.9999 8.79523 16.9999 6.01412 16.9999 6.01412C16.9999 6.01412 17.0139 3.21879 16.6497 1.87771ZM6.80562 8.56938V3.43062L11.2306 6L6.80562 8.56938Z" fill="white"/>
</svg>
