<svg width="110" height="73" viewBox="0 0 110 73" fill="none" xmlns="http://www.w3.org/2000/svg">
<path d="M75.6209 10.3639C75.3628 9.85229 75.066 9.38402 74.7305 8.9591L74.4768 8.64258L74.3477 8.49516L74.1757 8.30439C74.0079 8.13529 73.866 7.98353 73.6423 7.78408C72.0852 6.34457 70.2916 5.45139 68.6054 4.86604C67.8656 4.62324 67.1516 4.43679 66.4591 4.28504C67.5559 3.34416 68.257 2.7935 68.3129 2.74581C68.3861 2.67643 68.4807 2.49433 68.5022 2.45097C69.5216 0.152958 67.7753 0.23534 66.7128 0.569201C66.5623 0.61256 66.5279 0.634239 66.4376 0.707949C66.3472 0.781659 64.9063 1.90898 62.8545 3.76907C61.8566 3.70403 60.9663 3.6997 60.2178 3.6997C58.2005 3.73438 57.0563 3.8818 57.0563 3.87747C57.0563 3.8818 55.6713 4.01622 53.654 4.41945C51.6366 4.81835 48.9956 5.51209 46.4965 6.46598C41.3693 8.31739 37.3648 11.669 37.7519 11.4002C36.0658 12.7356 34.6851 14.1578 33.9022 15.4802C33.5022 16.135 33.2699 16.768 33.1968 17.2796C33.1151 17.7913 33.1839 18.1685 33.2656 18.3419C33.3431 18.511 33.4162 18.511 33.4807 18.3202C33.5495 18.1295 33.6097 17.7609 33.8721 17.2363C34.3797 16.187 35.7819 14.5784 38.5262 12.7183C39.3391 12.172 40.2209 11.6343 41.1457 11.127L41.8425 10.7628L42.5866 10.3943C43.0555 10.1515 43.5372 9.926 44.0276 9.71788C45.9847 8.86371 48.0493 8.23068 49.886 7.76674C53.5809 6.8432 56.4068 6.65676 56.3982 6.64375C56.3982 6.64809 57.4693 6.48332 59.3317 6.40094C59.5726 6.39227 59.8221 6.38793 60.0931 6.3836C57.4865 8.95043 54.4841 12.211 51.727 15.6407C48.5096 19.608 45.6234 23.7878 43.662 27.031C43.6534 27.0353 43.6534 27.0397 43.6534 27.044C43.606 27.0397 43.5587 27.0397 43.5157 27.0397C40.2252 26.8315 37.5111 26.2419 35.6056 25.7432C33.7044 25.2273 32.6075 24.8154 32.4914 24.785C32.3279 24.7417 31.9838 24.694 31.9064 24.6896C30.8999 24.6376 30.2246 24.6593 29.8289 24.7807C29.4331 24.9064 29.3127 25.1189 29.3643 25.379C29.4159 25.6348 29.6439 25.9384 29.9493 26.2375C30.259 26.5367 30.6633 26.8359 31.0332 27.0657C31.2397 27.2088 31.3042 27.2348 31.4806 27.2998C31.6053 27.3345 32.7667 27.7681 34.7754 28.3144C36.5863 28.8 39.1025 29.3507 42.1436 29.6282C41.1371 31.4146 40.5865 32.5462 40.5822 32.5462C40.5822 32.5462 39.2789 35.3255 38.3412 38.1698C37.3519 41.0012 36.8486 43.9062 36.9476 43.6634C36.5562 46.0871 36.7239 48.125 36.9992 48.5282C37.1368 48.732 37.2831 48.5456 37.468 47.8432C37.6573 47.1364 37.9154 45.9267 38.4659 44.1143C39.1499 41.9811 40.208 39.4749 41.1715 37.5281C42.1264 35.5813 42.9264 34.1852 42.9264 34.1852C42.9264 34.1852 43.7695 32.4291 45.3051 29.7973C48.2128 29.8406 51.4431 29.5718 54.7465 28.7653C53.8862 30.1745 53.1765 31.4406 52.6131 32.5072C51.1248 32.7413 49.8086 32.8844 48.7418 32.9841C46.8751 33.1532 45.7524 33.1879 45.6492 33.1923C45.4857 33.2139 45.1674 33.3007 45.1029 33.3223C43.2791 33.9597 42.8877 34.467 43.1974 34.9093C43.4899 35.3428 44.4835 35.6724 45.2965 35.8328C45.533 35.8892 45.6019 35.8848 45.7782 35.8762C45.8901 35.8675 47.0557 35.8328 48.9827 35.6637C49.6236 35.603 50.3635 35.525 51.1721 35.4252C51.0087 35.7851 50.9226 35.9889 50.9226 35.9932C50.9226 35.9932 50.428 37.0989 49.886 38.8549C49.6193 39.7308 49.3397 40.7757 49.1849 41.9507C49.0472 43.1171 48.9698 44.4482 49.5333 45.8443C49.8172 46.5381 50.3505 47.2318 51.0603 47.6741C51.77 48.1207 52.5571 48.3071 53.2497 48.3548C54.6519 48.4372 55.7702 48.1206 56.6778 47.8518C58.4629 47.2621 59.4221 46.6811 59.2242 46.7809C62.8933 44.8687 65.216 42.5664 65.5687 41.9811C65.7278 41.6732 65.3966 41.7729 64.3686 42.38C63.332 42.9566 61.6115 44.11 58.7382 45.3457C57.8908 45.6926 56.9832 46.0091 56.0498 46.2215C55.1164 46.434 54.14 46.5467 53.34 46.4036C52.5141 46.2606 52.0367 45.8833 51.7829 45.2893C51.5119 44.691 51.4775 43.8975 51.5678 43.1474C51.7399 41.6299 52.2388 40.2597 52.5958 39.3058C52.9658 38.3519 53.2367 37.7883 53.2281 37.7883C53.2367 37.7796 53.5636 36.9168 54.3078 35.3775C54.3809 35.2301 54.4626 35.0654 54.5444 34.9049C55.2584 34.7705 56.0068 34.6101 56.7853 34.4236C58.3596 34.0464 60.1017 33.5131 61.7964 32.7934C63.5126 32.0779 65.2633 31.2021 66.9623 30.1008C68.6527 28.9951 70.2959 27.6554 71.6594 25.9904C72.3433 25.1536 72.9369 24.23 73.3885 23.2024C73.8316 22.1705 74.1499 21.0215 74.0337 19.7511C73.9993 19.4172 73.9305 19.079 73.8273 18.7408C74.2703 18.2509 74.6875 17.7349 75.0531 17.1669C75.6811 16.1827 76.1672 15.051 76.2747 13.837C76.4167 12.6012 76.1328 11.3785 75.6209 10.3639ZM46.9482 27.0917C48.7892 24.1823 51.1979 20.7527 53.8475 17.4661C57.0133 13.5118 60.5146 9.78292 63.3191 7.1207C63.5212 6.92558 63.7148 6.74781 63.9127 6.56571C64.859 6.68277 65.8526 6.86488 66.8806 7.15105C68.3473 7.57596 69.8528 8.23068 71.1303 9.25394C71.4658 9.53144 71.6852 9.72655 72.0422 10.0994L72.2057 10.2902L72.3992 10.5244C72.5196 10.6848 72.6358 10.8452 72.739 11.01C73.1605 11.6734 73.4186 12.3801 73.4401 13.1042C73.4917 14.1838 72.9799 15.3415 72.1368 16.4255C72.0637 16.3734 71.9949 16.3214 71.9218 16.278C71.2809 15.9052 70.5969 15.6884 69.913 15.5973C69.8184 15.5756 69.6033 15.5583 69.4012 15.5496C69.199 15.5366 69.0528 15.5409 68.8678 15.5409C68.5237 15.5626 68.1925 15.5973 67.8742 15.6667C66.5924 15.9312 65.5429 16.4905 64.6267 17.0845C63.7105 17.6829 62.9277 18.3549 62.1964 19.0357C60.0458 21.0995 58.3897 23.2588 57.0047 25.2706C56.1746 25.5568 55.3487 25.8213 54.5444 26.0294C51.942 26.7145 49.3569 27.0267 46.9482 27.0917ZM70.1582 18.4286C68.9753 19.4172 67.6247 20.3104 66.2225 21.1299C64.902 21.8887 63.5083 22.5694 62.1061 23.2068C62.6481 22.5694 63.2158 21.9364 63.8223 21.3293C65.0826 20.0849 66.5709 18.8709 68.0936 18.3939C68.842 18.1598 69.5173 18.1685 70.1281 18.4113C70.141 18.4156 70.1453 18.42 70.1582 18.4286ZM69.5904 24.0956C68.5022 25.5048 67.0698 26.7188 65.5558 27.7291C64.0374 28.748 62.4244 29.5675 60.8415 30.2439C60.4458 30.4043 60.0587 30.5604 59.6371 30.7295C59.2715 30.8596 58.8715 31.0027 58.4887 31.1284C57.7316 31.3755 56.9789 31.5837 56.2477 31.7701C56.7036 30.9723 57.2112 30.1181 57.779 29.2206C58.1446 28.6483 58.5274 28.0543 58.936 27.4472C59.7103 27.1611 60.4802 26.8749 61.2544 26.5584C63.3019 25.7129 65.3321 24.7547 67.2935 23.6534C68.6011 22.9119 69.8743 22.1011 71.083 21.1949C71.0314 21.416 70.9669 21.6372 70.8808 21.8583C70.5883 22.6344 70.1281 23.3889 69.5904 24.0956Z" fill="#373737"/>
<path d="M6.47679 63.3789C10.6577 63.3789 12.9718 61.6922 12.9718 59.0517C12.9718 56.099 9.82323 55.2014 7.22953 55.2014H4.74765C3.99492 55.2014 3.65941 56.0729 3.65941 56.8317V72.4842H0.424805V56.6063C0.424805 55.6784 0.786118 54.499 1.73241 54.499H8.39519C11.2943 54.499 16.7011 55.3965 16.7011 59.2208C16.7011 63.0407 10.6233 64.0813 6.97144 64.0813C6.13268 64.0813 5.18639 64.0509 4.76916 63.9686L4.96272 63.2965C5.27672 63.3789 5.88751 63.3789 6.47679 63.3789Z" fill="#373737"/>
<path d="M24.0521 71.7817H24.9468L24.7231 72.4841H21.239C20.3185 72.4841 19.9873 71.4175 19.9873 70.4896V52.1099H22.8563V70.2641C22.852 70.9405 23.2692 71.7817 24.0521 71.7817Z" fill="#373737"/>
<path d="M33.3815 72.4841C30.5083 72.4841 27.4973 71.4175 27.4973 68.0702C27.4973 63.8818 33.9665 63.4352 36.8914 63.4352H39.0378V62.594C39.0378 59.8971 37.7818 58.1237 34.9687 58.1237C32.289 58.1237 30.1727 58.657 28.4436 59.6153L28.25 58.8565C30.4222 57.7031 32.9041 57.4517 35.386 57.4517C38.5647 57.4517 41.9068 58.605 41.9068 62.1431V72.4841H39.0378V64.1376H36.8355C33.8246 64.1376 30.7319 64.8703 30.7319 68.5211C30.7319 70.572 31.7901 71.7817 34.1859 71.7817H37.5581L37.9238 72.4841H33.3815Z" fill="#373737"/>
<path d="M50.0493 70.91C49.8256 71.1919 49.7439 71.387 49.7439 71.4997C49.7439 71.7815 50.1052 71.7815 50.3848 71.7815H59.0004V72.4839H47.0685C46.4276 72.4839 45.9243 72.484 45.9243 72.0634C45.9243 71.7555 46.2039 71.2482 46.9007 70.3507L55.1808 59.6151C55.4045 59.3072 55.654 59.0254 55.654 58.7999C55.654 58.6612 55.5421 58.5745 55.1808 58.5745H47.2362V57.8721H58.1659C58.9445 57.8721 59.3918 57.8981 59.3918 58.2363C59.3918 58.5181 59.0563 59.0211 58.3896 59.9229L50.0493 70.91Z" fill="#373737"/>
<path d="M68.9235 72.4841C66.0545 72.4841 63.0393 71.4175 63.0393 68.0702C63.0393 63.8818 69.5085 63.4352 72.4334 63.4352H74.5798V62.594C74.5798 59.8971 73.3281 58.1237 70.5107 58.1237C67.8353 58.1237 65.7147 58.657 63.9899 59.6153L63.792 58.8565C65.9685 57.7031 68.4461 57.4517 70.928 57.4517C74.1066 57.4517 77.4488 58.605 77.4488 62.1431V72.4841H74.5755V64.1376H72.3732C69.3623 64.1376 66.2696 64.8703 66.2696 68.5211C66.2696 70.572 67.3277 71.7817 69.7279 71.7817H73.1001L73.4657 72.4841H68.9235Z" fill="#373737"/>
<path d="M82.7525 72.4841H82.0557V58.5443C82.0557 57.8722 82.417 57.5601 82.8643 57.5601C83.1181 57.5601 83.4235 57.6988 83.673 57.9243L94.6586 68.2089C94.9382 68.4908 95.1619 68.5732 95.2737 68.5732C95.4974 68.5732 95.5533 68.3477 95.5533 68.1526V57.8679H96.2501V71.5215C96.2501 72.4494 95.9705 72.7876 95.6092 72.7876C95.192 72.7876 94.6328 72.367 94.2414 71.9725L83.6773 61.9696C83.4278 61.7442 83.2299 61.6314 83.0923 61.6314C82.8686 61.6314 82.7568 61.8569 82.7568 62.0824V72.4841H82.7525Z" fill="#373737"/>
<path d="M109.64 56.7969C109.64 59.4245 107.537 61.5144 104.878 61.5144C102.212 61.5144 100.091 59.4245 100.091 56.7969C100.091 54.1694 102.212 52.1099 104.909 52.1099C107.537 52.1099 109.64 54.1694 109.64 56.7969ZM101.274 56.7969C101.274 58.8781 102.835 60.5388 104.909 60.5388C106.917 60.5691 108.449 58.8781 108.449 56.8229C108.449 54.7374 106.917 53.0507 104.844 53.0507C102.84 53.0551 101.274 54.7374 101.274 56.7969ZM104.139 59.2207H103.063V54.5379C103.493 54.4816 104.087 54.3949 104.848 54.3949C105.73 54.3949 106.13 54.538 106.44 54.7678C106.719 54.9672 106.922 55.3097 106.922 55.765C106.922 56.333 106.491 56.7059 105.954 56.8793V56.9357C106.414 57.0788 106.633 57.4517 106.78 58.0804C106.917 58.7914 107.033 59.0516 107.119 59.2207H105.98C105.846 59.0516 105.756 58.657 105.614 58.0804C105.528 57.5947 105.248 57.3649 104.646 57.3649H104.134V59.2207H104.139ZM104.169 56.5975H104.676C105.274 56.5975 105.756 56.398 105.756 55.9124C105.756 55.4832 105.442 55.197 104.767 55.197C104.478 55.197 104.281 55.2274 104.169 55.2534V56.5975Z" fill="#373737"/>
</svg>
