<?xml version="1.0" encoding="utf-8"?>
<!-- Generator: Adobe Illustrator 21.0.0, SVG Export Plug-In . SVG Version: 6.00 Build 0)  -->
<svg version="1.1" id="Layer_1" xmlns="http://www.w3.org/2000/svg" xmlns:xlink="http://www.w3.org/1999/xlink" x="0px" y="0px"
	 viewBox="0 0 244.4 88.9" style="enable-background:new 0 0 244.4 88.9;" xml:space="preserve">
<style type="text/css">
	.st0{display:none;clip-path:url(#SVGID_2_);fill:#1c4ac2;}
	.st1{clip-path:url(#SVGID_4_);}
	.st2{fill:#1c4ac2;}
	.st3{display:none;clip-path:url(#SVGID_6_);}
	.st4{display:inline;fill:none;stroke:#929497;stroke-width:0.5;}
	.st5{display:inline;fill:none;stroke:#929497;stroke-width:0.5;stroke-dasharray:3;}
	.st6{clip-path:url(#SVGID_8_);fill:#FFFFFF;}
	.st7{clip-path:url(#SVGID_10_);fill:none;stroke:#231F20;stroke-width:0.5;}
	.st8{clip-path:url(#SVGID_12_);}
</style>
<g>
	<g>
		<defs>
			<rect id="SVGID_1_" x="-29.3" y="-113.9" width="301.8" height="312.7"/>
		</defs>
		<clipPath id="SVGID_2_">
			<use xlink:href="#SVGID_1_"  style="overflow:visible;"/>
		</clipPath>
		<rect x="-57.7" y="-143.3" class="st0" width="358.4" height="905.5"/>
	</g>
	<g>
		<defs>
			<rect id="SVGID_3_" x="-29.3" y="-113.9" width="301.8" height="312.7"/>
		</defs>
		<clipPath id="SVGID_4_">
			<use xlink:href="#SVGID_3_"  style="overflow:visible;"/>
		</clipPath>
		<g class="st1">
			<g>
				<path class="st2" d="M2,85.4c0,1.7,0.7,2.3,2.7,2.3c0.7,0,1.9-0.1,2.9-0.3l0.2,1.4C7,89,5.7,89.1,4.8,89.1c-3,0-4.2-1.3-4.2-3.6
					v-5.4c0-2.3,1.2-3.6,4.2-3.6c0.9,0,2.2,0.1,3.1,0.3l-0.2,1.4c-0.9-0.2-2.1-0.3-2.9-0.3c-2,0-2.7,0.6-2.7,2.3V85.4z"/>
				<path class="st2" d="M20,84.5h-3v4.4h-1.6V76.7h4.7c2.6,0,3.5,1.1,3.5,3v1.8c0,1.4-0.5,2.4-1.9,2.8l3.2,4.6h-1.8L20,84.5z
					 M20,78.1h-3v5h3c1.5,0,2-0.4,2-1.6v-1.8C22.2,78.5,21.5,78.1,20,78.1z"/>
				<path class="st2" d="M32.3,76.7h7.2v1.4h-5.6v3.8h5.2v1.4h-5.2v4.1h5.6v1.4h-7.2C32.3,88.8,32.3,76.7,32.3,76.7z"/>
				<path class="st2" d="M56.8,88.9h-1.6l-1-2.9H49l-1,2.9h-1.6l4.1-12.2h2.1L56.8,88.9z M51.7,77.8l-2.2,6.8h4.4L51.7,77.8z"/>
				<path class="st2" d="M66.6,78.1h-3.7v-1.4h8.9v1.4h-3.7v10.8h-1.6L66.6,78.1L66.6,78.1z"/>
				<path class="st2" d="M80.7,88.9h-1.6V76.7h1.6V88.9z"/>
				<path class="st2" d="M87.8,76.7h1.5l3.6,10.8l3.6-10.8H98l-4,12.2h-2.1L87.8,76.7z"/>
				<path class="st2" d="M105.1,76.7h7.2v1.4h-5.6v3.8h5.2v1.4h-5.2v4.1h5.6v1.4h-7.2V76.7z"/>
				<path class="st2" d="M129.4,76.7h4.4c2.6,0,3.5,1.1,3.5,3v1.8c0,1.9-0.9,3-3.5,3H131v4.4h-1.6L129.4,76.7L129.4,76.7z
					 M133.9,78.1h-2.8v5h2.8c1.5,0,2-0.4,2-1.6v-1.8C135.9,78.5,135.4,78.1,133.9,78.1z"/>
				<path class="st2" d="M149.6,84.5h-3v4.4h-1.6V76.7h4.7c2.6,0,3.5,1.1,3.5,3v1.8c0,1.4-0.5,2.4-1.9,2.8l3.2,4.6h-1.8L149.6,84.5z
					 M149.6,78.1h-3v5h3c1.5,0,2-0.4,2-1.6v-1.8C151.6,78.5,151.1,78.1,149.6,78.1z"/>
				<path class="st2" d="M163.4,88.9h-1.6V76.7h1.6V88.9z"/>
				<path class="st2" d="M173.4,78.5v10.4h-1.5V76.7h2.2l5.3,10.5V76.7h1.5v12.2h-2.2L173.4,78.5z"/>
				<path class="st2" d="M191.6,78.1h-3.7v-1.4h8.9v1.4h-3.6v10.8h-1.6V78.1z"/>
				<path class="st2" d="M204.1,76.7h7.2v1.4h-5.6v3.8h5.2v1.4h-5.2v4.1h5.6v1.4h-7.2V76.7z"/>
				<path class="st2" d="M223.8,84.5h-3v4.4h-1.5V76.7h4.7c2.6,0,3.5,1.1,3.5,3v1.8c0,1.4-0.5,2.4-1.9,2.8l3.2,4.6H227L223.8,84.5z
					 M223.9,78.1h-3v5h3c1.5,0,2-0.4,2-1.6v-1.8C225.9,78.5,225.4,78.1,223.9,78.1z"/>
				<path class="st2" d="M242.8,76.7h1.7l-4.1,8.5v3.7h-1.6v-3.7l-4.1-8.5h1.7l3.2,6.8L242.8,76.7z"/>
			</g>
			<g>
				<g>
					<g>
						<path class="st2" d="M12.7,46.2V61H0.1V8.6H24c13.9,0,18.3,5.4,18.3,14.7v8.1c0,9.5-5.1,14.8-18.9,14.8L12.7,46.2L12.7,46.2z
							 M30,30.8V24c0-3.5-1.7-5.1-6.4-5.1H12.7v17.3h10.9C28.3,36.2,30,34.4,30,30.8z"/>
						<path class="st2" d="M77.2,45.7H66.1V61H53.6V8.6h24.6C92,8.6,96.4,14,96.4,23.3v7.6c0,5.9-1.6,9.4-6.9,12.3L101.6,61H87.4
							L77.2,45.7z M84.3,30.2V24c0-3.7-1.7-5.1-6-5.1H66.1v16.9h11.8C82.6,35.8,84.3,33.9,84.3,30.2z"/>
						<path class="st2" d="M154.1,24.3V61h-11.9V8.6h15.2l20.6,36.8V8.6h11.9V61h-15.2L154.1,24.3z"/>
						<path class="st2" d="M217.1,19.4h-16V8.6h44.5v10.8h-16V61H217L217.1,19.4L217.1,19.4z"/>
					</g>
				</g>
				<polygon class="st2" points="113.3,31.7 113.3,61 125.6,61 125.6,22.9 				"/>
				<polygon class="st2" points="132.6,9.7 122.6,9.7 119.4,0.1 116.4,9.7 106.4,9.7 112.6,14.2 114.4,15.5 112.6,21 111.4,25 
					112.6,24.1 				"/>
			</g>
		</g>
	</g>
	<g>
		<defs>
			<rect id="SVGID_5_" x="-29.3" y="-113.9" width="301.8" height="312.7"/>
		</defs>
		<clipPath id="SVGID_6_">
			<use xlink:href="#SVGID_5_"  style="overflow:visible;"/>
		</clipPath>
		<g class="st3">
			<rect x="-29.4" y="-115.1" class="st4" width="301.8" height="848.9"/>
			<rect x="-29.4" y="554.9" class="st5" width="301.8" height="34.9"/>
			<rect x="-29.4" y="198.8" class="st5" width="301.8" height="34.9"/>
		</g>
	</g>
	<g>
		<defs>
			<rect id="SVGID_7_" x="-29.3" y="-113.9" width="301.8" height="312.7"/>
		</defs>
		<clipPath id="SVGID_8_">
			<use xlink:href="#SVGID_7_"  style="overflow:visible;"/>
		</clipPath>
		<path class="st6" d="M-67.1,771.6h377.3v-924.4H-67.1V771.6z M272.5-113.9v847.4H-29.4v-847.4H272.5z"/>
	</g>
	<g>
		<defs>
			<rect id="SVGID_9_" x="-29.3" y="-113.9" width="301.8" height="312.7"/>
		</defs>
		<clipPath id="SVGID_10_">
			<use xlink:href="#SVGID_9_"  style="overflow:visible;"/>
		</clipPath>
		<rect x="-29.4" y="-113.9" class="st7" width="301.8" height="847.4"/>
	</g>
	<g>
		<defs>
			<rect id="SVGID_11_" x="-29.3" y="-113.9" width="301.8" height="312.7"/>
		</defs>
		<clipPath id="SVGID_12_">
			<use xlink:href="#SVGID_11_"  style="overflow:visible;"/>
		</clipPath>
		<g class="st8">
			<text transform="matrix(1 0 0 1 31.4902 124.4941)" style="fill:#FFFFFF; font-family:'ArialMT'; font-size:23.2928px;">+7 (495) 212-14-12</text>
			<text transform="matrix(1 0 0 1 36.6902 152.4941)" style="fill:#FFFFFF; font-family:'ArialMT'; font-size:23.2928px;">www.first-print.ru</text>
		</g>
	</g>
</g>
</svg>
