<svg width="24" height="24" fill="none" xmlns="http://www.w3.org/2000/svg">
    <g clip-path="url(#a)">
        <path d="M0 11.5c0-5.421 0-8.132 1.684-9.816C3.368 0 6.08 0 11.5 0h1c5.421 0 8.132 0 9.816 1.684C24 3.368 24 6.08 24 11.5v1c0 5.421 0 8.132-1.684 9.816C20.632 24 17.92 24 12.5 24h-1c-5.421 0-8.132 0-9.816-1.684C0 20.632 0 17.92 0 12.5v-1z" fill="#F80"/>
        <path d="M12.025 12.26a4.004 4.004 0 0 0 3.998-3.997 4.004 4.004 0 0 0-3.998-3.997c-2.226 0-4.021 1.795-4.021 3.997s1.795 3.997 4.021 3.997zm0-5.649c.91 0 1.652.742 1.652 1.652 0 .91-.742 1.652-1.652 1.652-.91 0-1.651-.742-1.651-1.652-.024-.91.718-1.652 1.651-1.652zM13.629 15.54a7.566 7.566 0 0 0 2.322-.957c.55-.335.718-1.077.359-1.627a1.166 1.166 0 0 0-1.628-.36 5.083 5.083 0 0 1-5.386 0 1.192 1.192 0 0 0-1.627.36 1.194 1.194 0 0 0 .407 1.603 7.56 7.56 0 0 0 2.322.958L8.17 17.743a1.17 1.17 0 0 0 0 1.651c.24.24.527.335.838.335.311 0 .599-.12.838-.335l2.202-2.202 2.202 2.202a1.17 1.17 0 0 0 1.652 0 1.17 1.17 0 0 0 0-1.651l-2.274-2.202z" fill="#fff"/>
    </g>
    <defs>
        <clipPath id="a">
            <path d="M0 0h24v24H0V0z" fill="#fff"/>
        </clipPath>
    </defs>
</svg>
