<svg width="24" height="24" fill="none" xmlns="http://www.w3.org/2000/svg">
    <g clip-path="url(#a)">
        <path d="M0 11.5c0-5.421 0-8.132 1.684-9.816C3.368 0 6.08 0 11.5 0h1c5.421 0 8.132 0 9.816 1.684C24 3.368 24 6.08 24 11.5v1c0 5.421 0 8.132-1.684 9.816C20.632 24 17.92 24 12.5 24h-1c-5.421 0-8.132 0-9.816-1.684C0 20.632 0 17.92 0 12.5v-1z" fill="#46BCFF"/>
        <path fill-rule="evenodd" clip-rule="evenodd" d="M19.478 6a7.058 7.058 0 0 1-2.055 1.034 2.873 2.873 0 0 0-3.258-.842c-1.15.453-1.903 1.599-1.887 2.869v.676C9.942 9.8 7.731 8.65 6.388 6.675c0 0-2.619 6.083 3.272 8.786a7.444 7.444 0 0 1-4.582 1.351c5.891 3.38 13.091 0 13.091-7.771 0-.189-.018-.376-.052-.561A5.256 5.256 0 0 0 19.478 6z" fill="#fff"/>
    </g>
    <defs>
        <clipPath id="a">
            <path fill="#fff" d="M0 0h24v24H0z"/>
        </clipPath>
    </defs>
</svg>
