<svg width="24" height="24" fill="none" xmlns="http://www.w3.org/2000/svg">
    <g clip-path="url(#a)">
        <path d="M0 11.5c0-5.421 0-8.132 1.684-9.816C3.368 0 6.08 0 11.5 0h1c5.421 0 8.132 0 9.816 1.684C24 3.368 24 6.08 24 11.5v1c0 5.421 0 8.132-1.684 9.816C20.632 24 17.92 24 12.5 24h-1c-5.421 0-8.132 0-9.816-1.684C0 20.632 0 17.92 0 12.5v-1z" fill="#F5F5F5"/>
        <path fill-rule="evenodd" clip-rule="evenodd" d="M5.1 8.251a3.45 3.45 0 0 1 3.45-3.45h6.9a3.45 3.45 0 0 1 3.45 3.45v6.9a3.45 3.45 0 0 1-3.45 3.45h-6.9a3.45 3.45 0 0 1-3.45-3.45v-6.9z" fill="#CCC"/>
        <path fill-rule="evenodd" clip-rule="evenodd" d="M14.722 11.266a2.76 2.76 0 1 1-5.461.81 2.76 2.76 0 0 1 5.461-.81zM16.877 7.45a1.15 1.15 0 1 1-2.275.337 1.15 1.15 0 0 1 2.275-.337z" fill="#F5F5F5"/>
    </g>
    <defs>
        <clipPath id="a">
            <path fill="#fff" d="M0 0h24v24H0z"/>
        </clipPath>
    </defs>
</svg>
