<svg width="24" height="24" fill="none" xmlns="http://www.w3.org/2000/svg">
    <g clip-path="url(#a)">
        <path d="M0 11.5c0-5.421 0-8.132 1.684-9.816C3.368 0 6.08 0 11.5 0h1c5.421 0 8.132 0 9.816 1.684C24 3.368 24 6.08 24 11.5v1c0 5.421 0 8.132-1.684 9.816C20.632 24 17.92 24 12.5 24h-1c-5.421 0-8.132 0-9.816-1.684C0 20.632 0 17.92 0 12.5v-1z" fill="#3B5998"/>
        <path fill-rule="evenodd" clip-rule="evenodd" d="M16.2 4.8h-2.216c-2.04 0-3.693 1.637-3.693 3.656v2.194H8.075v2.925h2.216v5.85h2.954v-5.85h2.216l.739-2.925h-2.955V8.456c0-.404.331-.731.74-.731H16.2V4.8z" fill="#fff"/>
    </g>
    <defs>
        <clipPath id="a">
            <path fill="#fff" d="M0 0h24v24H0z"/>
        </clipPath>
    </defs>
</svg>
