<svg width="24" height="24" fill="none" xmlns="http://www.w3.org/2000/svg">
    <g clip-path="url(#a)">
        <path d="M0 11.5c0-5.421 0-8.132 1.684-9.816C3.368 0 6.08 0 11.5 0h1c5.421 0 8.132 0 9.816 1.684C24 3.368 24 6.08 24 11.5v1c0 5.421 0 8.132-1.684 9.816C20.632 24 17.92 24 12.5 24h-1c-5.421 0-8.132 0-9.816-1.684C0 20.632 0 17.92 0 12.5v-1z" fill="#2787F5"/>
        <path fill-rule="evenodd" clip-rule="evenodd" d="M6.5 7.5H4.75c-.5 0-.6.235-.6.495 0 .463.594 2.762 2.763 5.803C8.36 15.874 10.398 17 12.253 17c1.112 0 1.25-.25 1.25-.68v-1.57c0-.5.105-.6.457-.6.26 0 .705.13 1.743 1.131C16.89 16.468 17.087 17 17.753 17h1.75c.501 0 .751-.25.607-.743-.158-.492-.725-1.206-1.476-2.051-.409-.482-1.02-1.001-1.206-1.26-.26-.335-.185-.483 0-.78 0 0 2.133-3.003 2.355-4.023.111-.37 0-.643-.53-.643h-1.75c-.445 0-.65.235-.761.495 0 0-.89 2.17-2.151 3.578-.408.408-.594.538-.816.538-.111 0-.273-.13-.273-.5V8.142c0-.445-.129-.643-.5-.643h-2.75c-.278 0-.446.207-.446.402 0 .422.63.52.696 1.706v2.577c0 .565-.102.667-.325.667-.593 0-2.037-2.178-2.893-4.672-.167-.484-.336-.68-.783-.68z" fill="#fff"/>
    </g>
    <defs>
        <clipPath id="a">
            <path d="M0 0h24v24H0V0z" fill="#fff"/>
        </clipPath>
    </defs>
</svg>
