<?xml version="1.0" encoding="UTF-8" ?>
<!DOCTYPE svg PUBLIC "-//W3C//DTD SVG 1.1//EN" "http://www.w3.org/Graphics/SVG/1.1/DTD/svg11.dtd">
<svg width="346pt" height="117pt" viewBox="0 0 346 117" version="1.1" xmlns="http://www.w3.org/2000/svg">
<g id="#18b170ff">
<path fill="#18b170" opacity="1.00" d=" M 116.68 1.71 C 127.19 0.14 138.80 1.10 147.51 7.76 C 158.46 15.72 163.25 29.29 165.32 42.16 C 167.44 58.74 166.91 76.16 160.72 91.87 C 156.46 103.05 146.89 112.69 134.85 114.87 C 123.93 116.95 111.70 115.99 102.43 109.34 C 92.72 102.23 87.49 90.62 85.40 79.04 C 82.38 62.15 82.67 44.32 88.06 27.92 C 92.36 15.13 102.92 3.81 116.68 1.71 M 118.99 18.14 C 114.20 20.07 110.64 24.19 108.47 28.78 C 102.80 40.27 103.16 53.45 103.47 65.93 C 104.00 75.68 105.58 86.18 112.05 93.91 C 118.10 101.46 131.04 101.90 137.39 94.50 C 143.36 87.91 145.06 78.71 146.19 70.18 C 147.04 57.67 147.29 44.71 143.10 32.72 C 141.28 27.83 138.66 22.93 134.28 19.87 C 129.92 16.70 123.96 16.45 118.99 18.14 Z" />
<path fill="#18b170" opacity="1.00" d=" M 208.88 2.17 C 225.68 -2.40 245.02 5.00 253.87 20.14 C 249.18 24.03 244.97 28.45 240.82 32.89 C 239.08 25.59 233.10 20.14 226.12 17.82 C 220.18 17.10 213.65 16.74 208.35 20.00 C 200.44 24.66 196.58 33.85 194.97 42.51 C 193.43 53.26 193.56 64.27 195.60 74.94 C 197.36 83.63 201.24 92.71 209.25 97.33 C 217.91 101.49 228.70 99.99 236.27 94.18 C 236.21 87.15 236.23 80.13 236.25 73.10 C 230.02 72.99 223.78 73.40 217.57 72.76 C 217.70 67.39 217.61 62.02 217.65 56.66 C 229.68 56.59 241.72 56.74 253.76 56.58 C 254.51 67.36 253.91 78.20 254.10 89.01 C 254.03 94.25 254.37 99.52 253.70 104.74 C 248.96 107.71 244.28 110.94 238.84 112.52 C 227.86 115.81 215.78 117.25 204.73 113.46 C 193.92 110.07 185.48 101.29 180.80 91.17 C 175.12 79.36 173.81 65.96 174.35 53.02 C 174.73 42.05 177.02 30.93 182.73 21.43 C 188.62 12.04 197.90 4.54 208.88 2.17 Z" />
<path fill="#18b170" opacity="1.00" d=" M 288.72 3.78 C 295.96 0.78 304.04 0.70 311.72 1.56 C 324.26 3.35 334.83 12.76 339.53 24.30 C 344.12 34.46 345.18 45.70 346.00 56.68 L 346.00 58.20 C 345.30 66.53 345.06 74.99 342.88 83.11 C 340.33 93.08 335.53 103.03 327.02 109.23 C 318.20 115.74 306.56 116.76 296.01 115.21 C 286.62 113.73 278.07 108.15 272.88 100.20 C 264.53 87.88 263.03 72.51 262.70 58.02 C 263.02 45.46 264.32 32.43 270.30 21.15 C 274.24 13.52 280.64 6.97 288.72 3.78 M 298.49 17.75 C 293.25 19.62 289.41 24.17 287.20 29.14 C 287.08 29.22 286.84 29.40 286.71 29.49 C 282.06 41.67 281.83 54.93 282.59 67.78 C 283.10 74.85 284.32 81.91 287.21 88.42 C 289.48 93.19 293.42 97.38 298.46 99.21 C 304.38 100.85 311.06 100.07 315.91 96.09 C 318.04 93.77 319.74 91.11 321.27 88.37 C 326.81 74.66 326.54 59.54 325.47 45.06 C 324.11 36.56 322.11 27.13 315.50 21.12 L 315.58 20.76 C 313.89 19.74 312.20 18.72 310.54 17.66 C 306.57 16.99 302.40 16.54 298.49 17.75 Z" />
<path fill="#18b170" opacity="1.00" d=" M 0.64 2.41 C 7.83 2.42 15.02 2.41 22.22 2.42 C 21.88 3.32 21.22 5.11 20.88 6.01 C 20.50 36.55 20.87 67.10 20.70 97.65 C 37.73 97.58 54.76 97.73 71.79 97.57 C 72.24 102.96 72.01 108.36 72.07 113.76 C 48.24 113.78 24.42 113.74 0.60 113.78 C 0.70 76.66 0.63 39.54 0.64 2.41 Z" />
</g>
</svg>
