<svg width="69" height="69" viewBox="0 0 69 69" fill="none" xmlns="http://www.w3.org/2000/svg">
<rect x="68" y="68.0068" width="67" height="39.9951" transform="rotate(-180 68 68.0068)" stroke="#666666" stroke-width="1.66981" stroke-linejoin="round"/>
<rect x="68" y="68.0068" width="67" height="10.832" transform="rotate(-180 68 68.0068)" stroke="#666666" stroke-width="1.66981" stroke-linejoin="round"/>
<rect x="68" y="57.1741" width="67" height="4.99939" transform="rotate(-180 68 57.1741)" stroke="#666666" stroke-width="1.66981" stroke-linejoin="round"/>
<rect x="68" y="43.8428" width="67" height="4.99939" transform="rotate(-180 68 43.8428)" stroke="#666666" stroke-width="1.66981" stroke-linejoin="round"/>
<rect x="68" y="38.8416" width="67" height="10.832" transform="rotate(-180 68 38.8416)" stroke="#666666" stroke-width="1.66981" stroke-linejoin="round"/>
<line x1="0.834906" y1="-0.834906" x2="19.3183" y2="-0.834906" transform="matrix(-0.81545 0.578827 -0.852928 -0.522029 54.0938 56.3398)" stroke="#666666" stroke-width="1.66981" stroke-linecap="round"/>
<line x1="0.834906" y1="-0.834906" x2="19.3183" y2="-0.834906" transform="matrix(-0.81545 0.578827 -0.852928 -0.522029 28.8086 56.3398)" stroke="#666666" stroke-width="1.66981" stroke-linecap="round"/>
<line x1="0.834906" y1="-0.834906" x2="19.3183" y2="-0.834906" transform="matrix(-0.81545 0.578827 -0.852928 -0.522029 59.1484 27.1787)" stroke="#666666" stroke-width="1.66981" stroke-linecap="round"/>
<line x1="0.834906" y1="-0.834906" x2="19.3183" y2="-0.834906" transform="matrix(-0.81545 0.578827 -0.852928 -0.522029 35.1328 27.1787)" stroke="#666666" stroke-width="1.66981" stroke-linecap="round"/>
<line x1="60.8448" y1="51.3421" x2="60.8448" y2="44.6796" stroke="#666666" stroke-width="1.66981" stroke-linecap="round"/>
<line x1="53.2588" y1="51.3421" x2="53.2588" y2="44.6796" stroke="#666666" stroke-width="1.66981" stroke-linecap="round"/>
<line x1="45.6729" y1="51.3421" x2="45.6729" y2="44.6796" stroke="#666666" stroke-width="1.66981" stroke-linecap="round"/>
<line x1="38.0948" y1="51.3421" x2="38.0948" y2="44.6796" stroke="#666666" stroke-width="1.66981" stroke-linecap="round"/>
<line x1="30.5088" y1="51.3421" x2="30.5088" y2="44.6796" stroke="#666666" stroke-width="1.66981" stroke-linecap="round"/>
<line x1="22.9229" y1="51.3421" x2="22.9229" y2="44.6796" stroke="#666666" stroke-width="1.66981" stroke-linecap="round"/>
<line x1="15.337" y1="51.3421" x2="15.337" y2="44.6796" stroke="#666666" stroke-width="1.66981" stroke-linecap="round"/>
<line x1="7.75103" y1="51.3421" x2="7.75103" y2="44.6796" stroke="#666666" stroke-width="1.66981" stroke-linecap="round"/>
<path d="M44.4737 1.00684C44.4737 1.00684 50.1579 6.47901 44.4737 10.2891C38.7895 14.0992 44.4737 19.5714 44.4737 19.5714" stroke="#666666" stroke-width="1.76" stroke-linecap="round"/>
<path d="M34.4229 1.00684C34.4229 1.00684 40.1071 6.47901 34.4229 10.2891C28.7387 14.0992 34.4229 19.5714 34.4229 19.5714" stroke="#666666" stroke-width="1.76" stroke-linecap="round"/>
<path d="M24.3721 1.00684C24.3721 1.00684 30.0563 6.47901 24.3721 10.2891C18.6879 14.0992 24.3721 19.5714 24.3721 19.5714" stroke="#666666" stroke-width="1.76" stroke-linecap="round"/>
</svg>
