<svg width="77" height="77" viewBox="0 0 77 77" fill="none" xmlns="http://www.w3.org/2000/svg">
<g filter="url(#filter0_d_150_10180)">
<rect x="72" y="68.0068" width="67" height="39.9951" transform="rotate(-180 72 68.0068)" stroke="#BB8E34" stroke-width="1.66981" stroke-linejoin="round"/>
<rect x="72" y="68.0068" width="67" height="10.832" transform="rotate(-180 72 68.0068)" stroke="#BB8E34" stroke-width="1.66981" stroke-linejoin="round"/>
<rect x="72" y="57.1741" width="67" height="4.99939" transform="rotate(-180 72 57.1741)" stroke="#BB8E34" stroke-width="1.66981" stroke-linejoin="round"/>
<rect x="72" y="43.8428" width="67" height="4.99939" transform="rotate(-180 72 43.8428)" stroke="#BB8E34" stroke-width="1.66981" stroke-linejoin="round"/>
<rect x="72" y="38.8416" width="67" height="10.832" transform="rotate(-180 72 38.8416)" stroke="#BB8E34" stroke-width="1.66981" stroke-linejoin="round"/>
<line x1="0.834906" y1="-0.834906" x2="19.3183" y2="-0.834906" transform="matrix(-0.81545 0.578827 -0.852928 -0.522029 58.0938 56.3398)" stroke="#BB8E34" stroke-width="1.66981" stroke-linecap="round"/>
<line x1="0.834906" y1="-0.834906" x2="19.3183" y2="-0.834906" transform="matrix(-0.81545 0.578827 -0.852928 -0.522029 32.8086 56.3398)" stroke="#BB8E34" stroke-width="1.66981" stroke-linecap="round"/>
<line x1="0.834906" y1="-0.834906" x2="19.3183" y2="-0.834906" transform="matrix(-0.81545 0.578827 -0.852928 -0.522029 63.1484 27.1787)" stroke="#BB8E34" stroke-width="1.66981" stroke-linecap="round"/>
<line x1="0.834906" y1="-0.834906" x2="19.3183" y2="-0.834906" transform="matrix(-0.81545 0.578827 -0.852928 -0.522029 39.1328 27.1787)" stroke="#BB8E34" stroke-width="1.66981" stroke-linecap="round"/>
<line x1="64.8448" y1="51.3421" x2="64.8448" y2="44.6796" stroke="#BB8E34" stroke-width="1.66981" stroke-linecap="round"/>
<line x1="57.2588" y1="51.3421" x2="57.2588" y2="44.6796" stroke="#BB8E34" stroke-width="1.66981" stroke-linecap="round"/>
<line x1="49.6729" y1="51.3421" x2="49.6729" y2="44.6796" stroke="#BB8E34" stroke-width="1.66981" stroke-linecap="round"/>
<line x1="42.0948" y1="51.3421" x2="42.0948" y2="44.6796" stroke="#BB8E34" stroke-width="1.66981" stroke-linecap="round"/>
<line x1="34.5088" y1="51.3421" x2="34.5088" y2="44.6796" stroke="#BB8E34" stroke-width="1.66981" stroke-linecap="round"/>
<line x1="26.9229" y1="51.3421" x2="26.9229" y2="44.6796" stroke="#BB8E34" stroke-width="1.66981" stroke-linecap="round"/>
<line x1="19.337" y1="51.3421" x2="19.337" y2="44.6796" stroke="#BB8E34" stroke-width="1.66981" stroke-linecap="round"/>
<line x1="11.751" y1="51.3421" x2="11.751" y2="44.6796" stroke="#BB8E34" stroke-width="1.66981" stroke-linecap="round"/>
<path d="M49.084 0.37287C48.7339 0.035801 48.1768 0.0463887 47.8397 0.396518C47.5026 0.746648 47.5132 1.30373 47.8634 1.6408L49.084 0.37287ZM47.8634 20.2054C48.2135 20.5425 48.7706 20.5319 49.1076 20.1817C49.4447 19.8316 49.4341 19.2745 49.084 18.9375L47.8634 20.2054ZM48.4737 1.00684C47.8634 1.6408 47.8631 1.64057 47.8629 1.64036C47.8629 1.64031 47.8627 1.64012 47.8626 1.64004C47.8624 1.63986 47.8623 1.63977 47.8623 1.63976C47.8623 1.63974 47.8626 1.64004 47.8632 1.64066C47.8645 1.6419 47.8671 1.64442 47.8709 1.64819C47.8785 1.65573 47.8911 1.66827 47.908 1.68559C47.9421 1.72024 47.9937 1.7739 48.0588 1.84482C48.1894 1.98693 48.373 2.19683 48.5777 2.46073C48.9913 2.99399 49.4704 3.7213 49.7841 4.53555C50.0975 5.34907 50.2265 6.19717 50.0188 7.0147C49.8154 7.81528 49.2599 8.70273 47.9837 9.55815L48.9637 11.0201C50.5296 9.97047 51.3951 8.74511 51.7246 7.44805C52.0498 6.16795 51.8235 4.93362 51.4264 3.90283C51.0296 2.87277 50.4429 1.9939 49.9684 1.38207C49.729 1.07342 49.5129 0.826036 49.3548 0.654003C49.2757 0.567852 49.2107 0.500217 49.1642 0.452853C49.141 0.42916 49.1223 0.410506 49.1088 0.397111C49.102 0.390412 49.0965 0.385025 49.0924 0.380976C49.0903 0.378952 49.0885 0.377262 49.0871 0.37591C49.0865 0.375234 49.0858 0.374642 49.0853 0.374136C49.0851 0.373882 49.0847 0.373565 49.0846 0.373439C49.0843 0.373144 49.084 0.37287 48.4737 1.00684ZM47.9837 9.55815C46.4178 10.6078 45.5523 11.8331 45.2228 13.1302C44.8975 14.4103 45.1238 15.6446 45.5209 16.6754C45.9178 17.7055 46.5044 18.5844 46.979 19.1962C47.2184 19.5048 47.4345 19.7522 47.5926 19.9243C47.6717 20.0104 47.7367 20.078 47.7832 20.1254C47.8064 20.1491 47.8251 20.1677 47.8386 20.1811C47.8454 20.1878 47.8509 20.1932 47.855 20.1973C47.8571 20.1993 47.8588 20.201 47.8602 20.2023C47.8609 20.203 47.8615 20.2036 47.8621 20.2041C47.8623 20.2044 47.8626 20.2047 47.8628 20.2048C47.8631 20.2051 47.8634 20.2054 48.4737 19.5714C49.084 18.9375 49.0842 18.9377 49.0845 18.9379C49.0845 18.9379 49.0847 18.9381 49.0848 18.9382C49.085 18.9384 49.0851 18.9385 49.0851 18.9385C49.0851 18.9385 49.0848 18.9382 49.0842 18.9376C49.0829 18.9364 49.0803 18.9338 49.0765 18.9301C49.0689 18.9225 49.0563 18.91 49.0393 18.8927C49.0053 18.858 48.9537 18.8044 48.8885 18.7334C48.758 18.5913 48.5744 18.3814 48.3697 18.1175C47.9561 17.5843 47.477 16.857 47.1633 16.0427C46.8499 15.2292 46.7209 14.3811 46.9286 13.5636C47.1319 12.763 47.6875 11.8755 48.9637 11.0201L47.9837 9.55815Z" fill="#BB8E34"/>
<path d="M39.0332 0.37287C38.6831 0.035801 38.126 0.0463888 37.7889 0.396519C37.4519 0.746648 37.4625 1.30373 37.8126 1.6408L39.0332 0.37287ZM37.8126 20.2054C38.1627 20.5425 38.7198 20.5319 39.0569 20.1817C39.3939 19.8316 39.3833 19.2745 39.0332 18.9375L37.8126 20.2054ZM38.4229 1.00684C37.8126 1.6408 37.8123 1.64057 37.8121 1.64036C37.8121 1.64031 37.8119 1.64012 37.8118 1.64004C37.8116 1.63986 37.8115 1.63977 37.8115 1.63976C37.8115 1.63974 37.8118 1.64004 37.8124 1.64066C37.8137 1.6419 37.8163 1.64442 37.8201 1.64819C37.8277 1.65573 37.8403 1.66827 37.8573 1.68559C37.8913 1.72024 37.9429 1.7739 38.0081 1.84482C38.1386 1.98693 38.3222 2.19683 38.5269 2.46073C38.9405 2.99399 39.4196 3.7213 39.7333 4.53555C40.0467 5.34907 40.1757 6.19717 39.968 7.0147C39.7646 7.81528 39.2091 8.70273 37.9329 9.55815L38.9129 11.0201C40.4788 9.97047 41.3443 8.74511 41.6738 7.44805C41.999 6.16795 41.7728 4.93361 41.3757 3.90283C40.9788 2.87276 40.3922 1.9939 39.9176 1.38207C39.6782 1.07342 39.4621 0.826036 39.304 0.654003C39.2249 0.567852 39.1599 0.500217 39.1134 0.452853C39.0902 0.42916 39.0715 0.410506 39.058 0.39711C39.0512 0.390412 39.0457 0.385024 39.0416 0.380976C39.0395 0.378952 39.0378 0.377262 39.0364 0.37591C39.0357 0.375234 39.0351 0.374642 39.0345 0.374135C39.0343 0.373882 39.0339 0.373565 39.0338 0.373439C39.0335 0.373144 39.0332 0.37287 38.4229 1.00684ZM37.9329 9.55815C36.367 10.6078 35.5015 11.8331 35.172 13.1302C34.8468 14.4103 35.073 15.6446 35.4702 16.6754C35.867 17.7055 36.4537 18.5844 36.9282 19.1962C37.1676 19.5048 37.3837 19.7522 37.5418 19.9243C37.6209 20.0104 37.6859 20.078 37.7324 20.1254C37.7556 20.1491 37.7743 20.1677 37.7878 20.1811C37.7946 20.1878 37.8001 20.1932 37.8042 20.1973C37.8063 20.1993 37.808 20.201 37.8094 20.2023C37.8101 20.203 37.8107 20.2036 37.8113 20.2041C37.8115 20.2044 37.8119 20.2047 37.812 20.2048C37.8123 20.2051 37.8126 20.2054 38.4229 19.5714C39.0332 18.9375 39.0335 18.9377 39.0337 18.9379C39.0337 18.9379 39.0339 18.9381 39.034 18.9382C39.0342 18.9384 39.0343 18.9385 39.0343 18.9385C39.0343 18.9385 39.034 18.9382 39.0334 18.9376C39.0321 18.9364 39.0295 18.9338 39.0257 18.9301C39.0181 18.9225 39.0055 18.91 38.9885 18.8927C38.9545 18.858 38.9029 18.8044 38.8377 18.7334C38.7072 18.5913 38.5236 18.3814 38.3189 18.1175C37.9053 17.5843 37.4262 16.857 37.1125 16.0427C36.7991 15.2292 36.6701 14.3811 36.8778 13.5636C37.0812 12.763 37.6367 11.8755 38.9129 11.0201L37.9329 9.55815Z" fill="#BB8E34"/>
<path d="M28.9824 0.37287C28.6323 0.0358009 28.0752 0.0463889 27.7382 0.396519C27.4011 0.746648 27.4117 1.30373 27.7618 1.6408L28.9824 0.37287ZM27.7618 20.2054C28.1119 20.5425 28.669 20.5319 29.0061 20.1817C29.3432 19.8316 29.3326 19.2745 28.9824 18.9375L27.7618 20.2054ZM28.3721 1.00684C27.7618 1.6408 27.7616 1.64057 27.7613 1.64036C27.7613 1.64031 27.7611 1.64012 27.761 1.64004C27.7608 1.63986 27.7607 1.63977 27.7607 1.63976C27.7607 1.63974 27.761 1.64004 27.7616 1.64066C27.7629 1.6419 27.7655 1.64442 27.7693 1.64819C27.7769 1.65573 27.7895 1.66827 27.8065 1.68559C27.8405 1.72024 27.8921 1.7739 27.9573 1.84482C28.0879 1.98693 28.2714 2.19683 28.4761 2.46073C28.8897 2.99399 29.3688 3.7213 29.6825 4.53555C29.9959 5.34907 30.1249 6.19717 29.9172 7.0147C29.7139 7.81528 29.1583 8.70273 27.8821 9.55815L28.8621 11.0201C30.428 9.97047 31.2935 8.74511 31.6231 7.44805C31.9483 6.16795 31.722 4.93361 31.3249 3.90283C30.928 2.87276 30.3414 1.9939 29.8668 1.38207C29.6274 1.07342 29.4113 0.826036 29.2533 0.654003C29.1741 0.567852 29.1091 0.500217 29.0627 0.452852C29.0394 0.42916 29.0207 0.410506 29.0072 0.39711C29.0004 0.390412 28.9949 0.385024 28.9908 0.380976C28.9887 0.378952 28.987 0.377262 28.9856 0.37591C28.9849 0.375234 28.9843 0.374642 28.9837 0.374135C28.9835 0.373882 28.9832 0.373565 28.983 0.373439C28.9827 0.373144 28.9824 0.37287 28.3721 1.00684ZM27.8821 9.55815C26.3162 10.6078 25.4507 11.8331 25.1212 13.1302C24.796 14.4103 25.0223 15.6446 25.4194 16.6754C25.8162 17.7055 26.4029 18.5844 26.8774 19.1962C27.1168 19.5048 27.3329 19.7522 27.491 19.9243C27.5701 20.0104 27.6351 20.078 27.6816 20.1254C27.7048 20.1491 27.7235 20.1677 27.737 20.1811C27.7438 20.1878 27.7493 20.1932 27.7534 20.1973C27.7555 20.1993 27.7573 20.201 27.7587 20.2023C27.7594 20.203 27.76 20.2036 27.7605 20.2041C27.7608 20.2044 27.7611 20.2047 27.7612 20.2048C27.7615 20.2051 27.7618 20.2054 28.3721 19.5714C28.9824 18.9375 28.9827 18.9377 28.9829 18.9379C28.9829 18.9379 28.9831 18.9381 28.9832 18.9382C28.9834 18.9384 28.9835 18.9385 28.9835 18.9385C28.9835 18.9385 28.9832 18.9382 28.9826 18.9376C28.9813 18.9364 28.9787 18.9338 28.9749 18.9301C28.9673 18.9225 28.9547 18.91 28.9378 18.8927C28.9037 18.858 28.8521 18.8044 28.787 18.7334C28.6564 18.5913 28.4728 18.3814 28.2681 18.1175C27.8545 17.5843 27.3754 16.857 27.0617 16.0427C26.7483 15.2292 26.6193 14.3811 26.827 13.5636C27.0304 12.763 27.5859 11.8755 28.8621 11.0201L27.8821 9.55815Z" fill="#BB8E34"/>
</g>
<defs>
<filter id="filter0_d_150_10180" x="0.165039" y="0.126953" width="76.6699" height="76.7148" filterUnits="userSpaceOnUse" color-interpolation-filters="sRGB">
<feFlood flood-opacity="0" result="BackgroundImageFix"/>
<feColorMatrix in="SourceAlpha" type="matrix" values="0 0 0 0 0 0 0 0 0 0 0 0 0 0 0 0 0 0 127 0" result="hardAlpha"/>
<feOffset dy="4"/>
<feGaussianBlur stdDeviation="2"/>
<feComposite in2="hardAlpha" operator="out"/>
<feColorMatrix type="matrix" values="0 0 0 0 0.4 0 0 0 0 0.4 0 0 0 0 0.4 0 0 0 0.25 0"/>
<feBlend mode="normal" in2="BackgroundImageFix" result="effect1_dropShadow_150_10180"/>
<feBlend mode="normal" in="SourceGraphic" in2="effect1_dropShadow_150_10180" result="shape"/>
</filter>
</defs>
</svg>
