<svg width="69" height="69" viewBox="0 0 69 69" fill="none" xmlns="http://www.w3.org/2000/svg">
<rect x="1.98438" y="53.377" width="66.0147" height="14.6243" stroke="#BB8E34" stroke-width="1.76275" stroke-linejoin="round"/>
<path d="M11.5227 60.0797C11.5227 61.3184 10.5792 62.2451 9.50866 62.2451C8.43814 62.2451 7.49465 61.3184 7.49465 60.0797C7.49465 58.8409 8.43814 57.9143 9.50866 57.9143C10.5792 57.9143 11.5227 58.8409 11.5227 60.0797Z" stroke="#BB8E34" stroke-width="1.76275"/>
<line x1="0.881373" y1="-0.881373" x2="20.1935" y2="-0.881373" transform="matrix(-0.65945 -0.751749 0.717315 -0.696749 68 68.001)" stroke="#BB8E34" stroke-width="1.76275" stroke-linecap="round" stroke-linejoin="round"/>
<path d="M16.1861 54.5205V53.6391H14.4233V54.5205H16.1861ZM14.4233 56.9573C14.4233 57.444 14.8179 57.8386 15.3047 57.8386C15.7915 57.8386 16.1861 57.444 16.1861 56.9573H14.4233ZM14.4233 54.5205V56.9573H16.1861V54.5205H14.4233Z" fill="#BB8E34"/>
<path d="M23.69 53.9126V53.0312H21.9272V53.9126H23.69ZM21.9272 56.3493C21.9272 56.8361 22.3218 57.2307 22.8086 57.2307C23.2954 57.2307 23.69 56.8361 23.69 56.3493H21.9272ZM21.9272 53.9126V56.3493H23.69V53.9126H21.9272Z" fill="#BB8E34"/>
<path d="M19.6587 53.9126V53.0312H17.896V53.9126H19.6587ZM17.896 58.7874C17.896 59.2741 18.2906 59.6687 18.7773 59.6687C19.2641 59.6687 19.6587 59.2741 19.6587 58.7874H17.896ZM17.896 53.9126V58.7874H19.6587V53.9126H17.896Z" fill="#BB8E34"/>
<path d="M27.1861 53.9126V53.0312H25.4233V53.9126H27.1861ZM25.4233 58.7874C25.4233 59.2741 25.8179 59.6687 26.3047 59.6687C26.7915 59.6687 27.1861 59.2741 27.1861 58.7874H25.4233ZM25.4233 53.9126V58.7874H27.1861V53.9126H25.4233Z" fill="#BB8E34"/>
<path d="M30.6626 54.5205V53.6391H28.8999V54.5205H30.6626ZM28.8999 56.9573C28.8999 57.444 29.2945 57.8386 29.7812 57.8386C30.268 57.8386 30.6626 57.444 30.6626 56.9573H28.8999ZM28.8999 54.5205V56.9573H30.6626V54.5205H28.8999Z" fill="#BB8E34"/>
<path d="M37.0298 54.5205V53.6391H35.2671V54.5205H37.0298ZM35.2671 56.9573C35.2671 57.444 35.6617 57.8386 36.1484 57.8386C36.6352 57.8386 37.0298 57.444 37.0298 56.9573H35.2671ZM35.2671 54.5205V56.9573H37.0298V54.5205H35.2671Z" fill="#BB8E34"/>
<path d="M34.1392 53.9126V53.0312H32.3764V53.9126H34.1392ZM32.3764 58.7874C32.3764 59.2741 32.771 59.6687 33.2578 59.6687C33.7446 59.6687 34.1392 59.2741 34.1392 58.7874H32.3764ZM32.3764 53.9126V58.7874H34.1392V53.9126H32.3764Z" fill="#BB8E34"/>
<path d="M40.5025 53.9126V53.0312H38.7397V53.9126H40.5025ZM38.7397 58.7874C38.7397 59.2741 39.1343 59.6687 39.6211 59.6687C40.1079 59.6687 40.5025 59.2741 40.5025 58.7874H38.7397ZM38.7397 53.9126V58.7874H40.5025V53.9126H38.7397Z" fill="#BB8E34"/>
<path d="M43.397 54.5205V53.6391H41.6343V54.5205H43.397ZM41.6343 56.9573C41.6343 57.444 42.0289 57.8386 42.5156 57.8386C43.0024 57.8386 43.397 57.444 43.397 56.9573H41.6343ZM41.6343 54.5205V56.9573H43.397V54.5205H41.6343Z" fill="#BB8E34"/>
<path d="M49.772 54.5205V53.6391H48.0093V54.5205H49.772ZM48.0093 56.9573C48.0093 57.444 48.4039 57.8386 48.8906 57.8386C49.3774 57.8386 49.772 57.444 49.772 56.9573H48.0093ZM48.0093 54.5205V56.9573H49.772V54.5205H48.0093Z" fill="#BB8E34"/>
<path d="M46.8775 53.9126V53.0312H45.1147V53.9126H46.8775ZM45.1147 58.7874C45.1147 59.2741 45.5093 59.6687 45.9961 59.6687C46.4829 59.6687 46.8775 59.2741 46.8775 58.7874H45.1147ZM45.1147 53.9126V58.7874H46.8775V53.9126H45.1147Z" fill="#BB8E34"/>
<rect x="54.1016" y="26.5691" width="13.8978" height="26.8113" stroke="#BB8E34" stroke-width="1.76275" stroke-linejoin="round"/>
<line x1="59.6118" y1="26.5691" x2="59.6118" y2="53.3804" stroke="#BB8E34" stroke-width="1.76275" stroke-linejoin="round"/>
<line x1="64.2486" y1="27.4505" x2="64.2486" y2="52.499" stroke="#BB8E34" stroke-width="1.76275" stroke-linecap="round" stroke-linejoin="round"/>
<path d="M49.8053 21.7823V48.2223L4.90638 48.4151V21.4669M53.2206 21.7743L27.3466 1L1 21.292L4.89701 21.2261M49.8102 21.7696H52.9463M6.04417 27.553H48.8474M33.417 47.5611V31.8001H21.0956V47.5611M30.9577 40.1982C30.9577 40.7785 30.4061 41.249 29.7256 41.249C29.0451 41.249 28.4934 40.7785 28.4934 40.1982C28.4934 39.6179 29.0451 39.1475 29.7256 39.1475C30.4061 39.1475 30.9577 39.6179 30.9577 40.1982Z" stroke="#BB8E34" stroke-width="1.76" stroke-linecap="round" stroke-linejoin="round"/>
</svg>
