<svg width="69" height="69" viewBox="0 0 69 69" fill="none" xmlns="http://www.w3.org/2000/svg">
<rect x="1" y="1.00684" width="67" height="67" stroke="#666666" stroke-width="1.76" stroke-linejoin="round"/>
<path d="M5.85547 10.8618C5.85547 8.10039 8.09405 5.86182 10.8555 5.86182H58.1453C60.9067 5.86182 63.1453 8.10039 63.1453 10.8618V44.7024H5.85547V10.8618Z" stroke="#666666" stroke-width="1.76" stroke-linejoin="round"/>
<path fill-rule="evenodd" clip-rule="evenodd" d="M22.3589 52.8397C21.3758 52.8689 20.1659 53.1639 19.1688 53.9445C18.104 54.7781 17.1664 56.2566 17.1034 58.8769C19.6884 58.4545 21.0235 57.3232 21.7028 56.1544C22.3398 55.0584 22.4656 53.818 22.3589 52.8397ZM15.3578 59.876C15.1804 56.2261 16.3648 53.9045 18.0839 52.5586C19.7613 51.2455 21.809 50.9717 23.1913 51.1099C23.592 51.15 23.903 51.453 23.9702 51.8308C24.2851 53.1817 24.2819 55.2196 23.2245 57.0388C22.1237 58.9328 19.976 60.4282 16.3141 60.7468C15.8299 60.7889 15.4032 60.4306 15.3611 59.9464C15.3591 59.9228 15.358 59.8993 15.3578 59.876Z" fill="#666666"/>
<path fill-rule="evenodd" clip-rule="evenodd" d="M35.4321 49.9606C35.1158 49.7172 34.6753 49.7172 34.359 49.9606L29.6833 53.5572C29.2981 53.8535 29.2261 54.406 29.5224 54.7913C29.8187 55.1765 30.3712 55.2486 30.7564 54.9522L34.8955 51.7683L39.0346 54.9522C39.4198 55.2486 39.9723 55.1765 40.2687 54.7913C40.565 54.406 40.4929 53.8535 40.1077 53.5572L35.4321 49.9606ZM32.5374 55.6932C32.5374 55.2072 32.1434 54.8132 31.6574 54.8132C31.1714 54.8132 30.7774 55.2072 30.7774 55.6932V60.0092C30.7774 60.4952 31.1714 60.8892 31.6574 60.8892H38.1313C38.6174 60.8892 39.0113 60.4952 39.0113 60.0092V55.6932C39.0113 55.2072 38.6174 54.8132 38.1313 54.8132C37.6453 54.8132 37.2513 55.2072 37.2513 55.6932V59.1292H32.5374V55.6932Z" fill="#666666"/>
<path fill-rule="evenodd" clip-rule="evenodd" d="M47.943 53.8566C47.943 52.576 48.913 51.6167 50.0151 51.6167C51.1001 51.6167 52.0572 52.5465 52.0865 53.7974C52.0852 53.8163 52.0845 53.8354 52.0845 53.8546C52.0845 54.1236 52.2164 54.3617 52.419 54.5079C52.5518 54.6046 52.7154 54.6617 52.8923 54.6617C52.9079 54.6617 52.9234 54.6612 52.9387 54.6603C54.0203 54.6884 54.9617 55.638 54.9617 56.8996C54.9617 58.1802 53.9916 59.1394 52.8896 59.1394C52.8706 59.1394 52.8518 59.1401 52.8331 59.1414H47.1606C47.1523 59.1411 47.1438 59.141 47.1354 59.141C46.0334 59.141 45.0633 58.1817 45.0633 56.9011C45.0633 55.628 46.022 54.6726 47.116 54.6614L47.1379 54.6617C47.5825 54.6617 47.943 54.3012 47.943 53.8566ZM47.1099 60.751C45.0462 60.7366 43.4531 58.9753 43.4531 56.9011C43.4531 55.0722 44.6918 53.4865 46.3994 53.1272C46.7227 51.3774 48.1867 50.0066 50.0151 50.0066C51.8433 50.0066 53.3072 51.3772 53.6306 53.1267C55.3357 53.4881 56.5719 55.0725 56.5719 56.8996C56.5719 58.9596 55.0004 60.7111 52.9572 60.7489C52.9358 60.7506 52.9141 60.7515 52.8923 60.7515H47.1379C47.1285 60.7515 47.1192 60.7513 47.1099 60.751Z" fill="#666666"/>
<path d="M15.5625 14.6023H25.7582V24.7979H15.5625" stroke="#666666" stroke-width="1.76" stroke-linecap="round" stroke-linejoin="round"/>
<path d="M15.5622 24.7979V34.9935H25.7578" stroke="#666666" stroke-width="1.76" stroke-linecap="round" stroke-linejoin="round"/>
<path d="M30.6133 14.6023H40.8089V24.7979H30.6133" stroke="#666666" stroke-width="1.76" stroke-linecap="round" stroke-linejoin="round"/>
<path d="M30.6129 24.7979V34.9935H40.8086" stroke="#666666" stroke-width="1.76" stroke-linecap="round" stroke-linejoin="round"/>
<circle cx="52.4616" cy="25.2833" r="1.94203" stroke="#666666" stroke-width="1.76" stroke-linejoin="round"/>
<circle cx="52.4626" cy="20.4284" r="0.971014" transform="rotate(-180 52.4626 20.4284)" fill="#666666"/>
<circle cx="52.4626" cy="34.0226" r="0.971014" transform="rotate(-180 52.4626 34.0226)" fill="#666666"/>
<circle cx="52.4626" cy="16.5444" r="0.971014" transform="rotate(-180 52.4626 16.5444)" fill="#666666"/>
<circle cx="52.4626" cy="30.1384" r="0.971014" transform="rotate(-180 52.4626 30.1384)" fill="#666666"/>
</svg>
