<svg width="69" height="69" viewBox="0 0 69 69" fill="none" xmlns="http://www.w3.org/2000/svg">
<rect x="1" y="1" width="67" height="67" stroke="#BB8E34" stroke-width="1.76" stroke-linejoin="round"/>
<path d="M5.85547 10.855C5.85547 8.09356 8.09405 5.85498 10.8555 5.85498H58.1453C60.9067 5.85498 63.1453 8.09356 63.1453 10.855V44.6956H5.85547V10.855Z" stroke="#BB8E34" stroke-width="1.76" stroke-linejoin="round"/>
<path fill-rule="evenodd" clip-rule="evenodd" d="M22.3589 52.8329C21.3758 52.862 20.1659 53.1571 19.1688 53.9376C18.104 54.7713 17.1664 56.2498 17.1034 58.8701C19.6884 58.4476 21.0235 57.3163 21.7028 56.1476C22.3398 55.0516 22.4656 53.8111 22.3589 52.8329ZM15.3578 59.8691C15.1804 56.2193 16.3648 53.8977 18.0839 52.5518C19.7613 51.2386 21.809 50.9648 23.1913 51.1031C23.592 51.1432 23.903 51.4462 23.9702 51.824C24.2851 53.1749 24.2819 55.2127 23.2245 57.032C22.1237 58.9259 19.976 60.4214 16.3141 60.74C15.8299 60.7821 15.4032 60.4237 15.3611 59.9396C15.3591 59.9159 15.358 59.8924 15.3578 59.8691Z" fill="#BB8E34"/>
<path fill-rule="evenodd" clip-rule="evenodd" d="M35.4321 49.9537C35.1158 49.7104 34.6753 49.7104 34.359 49.9537L29.6833 53.5504C29.2981 53.8467 29.2261 54.3992 29.5224 54.7844C29.8187 55.1697 30.3712 55.2417 30.7564 54.9454L34.8955 51.7615L39.0346 54.9454C39.4198 55.2417 39.9723 55.1697 40.2687 54.7844C40.565 54.3992 40.4929 53.8467 40.1077 53.5504L35.4321 49.9537ZM32.5374 55.6864C32.5374 55.2004 32.1434 54.8064 31.6574 54.8064C31.1714 54.8064 30.7774 55.2004 30.7774 55.6864V60.0024C30.7774 60.4884 31.1714 60.8824 31.6574 60.8824H38.1313C38.6174 60.8824 39.0113 60.4884 39.0113 60.0024V55.6864C39.0113 55.2004 38.6174 54.8064 38.1313 54.8064C37.6453 54.8064 37.2513 55.2004 37.2513 55.6864V59.1224H32.5374V55.6864Z" fill="#BB8E34"/>
<path fill-rule="evenodd" clip-rule="evenodd" d="M47.943 53.8498C47.943 52.5691 48.913 51.6099 50.0151 51.6099C51.1001 51.6099 52.0572 52.5397 52.0865 53.7905C52.0852 53.8095 52.0845 53.8285 52.0845 53.8478C52.0845 54.1167 52.2164 54.3549 52.419 54.5011C52.5518 54.5978 52.7154 54.6548 52.8923 54.6548C52.9079 54.6548 52.9234 54.6544 52.9387 54.6535C54.0203 54.6815 54.9617 55.6312 54.9617 56.8927C54.9617 58.1733 53.9916 59.1326 52.8896 59.1326C52.8706 59.1326 52.8518 59.1332 52.8331 59.1345H47.1606C47.1523 59.1343 47.1438 59.1341 47.1354 59.1341C46.0334 59.1341 45.0633 58.1749 45.0633 56.8943C45.0633 55.6212 46.022 54.6657 47.116 54.6545L47.1379 54.6548C47.5825 54.6548 47.943 54.2944 47.943 53.8498ZM47.1099 60.7442C45.0462 60.7298 43.4531 58.9685 43.4531 56.8943C43.4531 55.0654 44.6918 53.4797 46.3994 53.1204C46.7227 51.3706 48.1867 49.9998 50.0151 49.9998C51.8433 49.9998 53.3072 51.3703 53.6306 53.1199C55.3357 53.4813 56.5719 55.0656 56.5719 56.8927C56.5719 58.9528 55.0004 60.7042 52.9572 60.7421C52.9358 60.7438 52.9141 60.7447 52.8923 60.7447H47.1379C47.1285 60.7447 47.1192 60.7445 47.1099 60.7442Z" fill="#BB8E34"/>
<path d="M15.5625 14.5955H25.7582V24.7911H15.5625" stroke="#BB8E34" stroke-width="1.76" stroke-linecap="round" stroke-linejoin="round"/>
<path d="M15.5622 24.791V34.9867H25.7578" stroke="#BB8E34" stroke-width="1.76" stroke-linecap="round" stroke-linejoin="round"/>
<path d="M30.6133 14.5955H40.8089V24.7911H30.6133" stroke="#BB8E34" stroke-width="1.76" stroke-linecap="round" stroke-linejoin="round"/>
<path d="M30.6129 24.791V34.9867H40.8086" stroke="#BB8E34" stroke-width="1.76" stroke-linecap="round" stroke-linejoin="round"/>
<circle cx="52.4616" cy="25.2765" r="1.94203" stroke="#BB8E34" stroke-width="1.76" stroke-linejoin="round"/>
<circle cx="52.4626" cy="20.4216" r="0.971014" transform="rotate(-180 52.4626 20.4216)" fill="#BB8E34"/>
<circle cx="52.4626" cy="34.0158" r="0.971014" transform="rotate(-180 52.4626 34.0158)" fill="#BB8E34"/>
<circle cx="52.4626" cy="16.5375" r="0.971014" transform="rotate(-180 52.4626 16.5375)" fill="#BB8E34"/>
<circle cx="52.4626" cy="30.1315" r="0.971014" transform="rotate(-180 52.4626 30.1315)" fill="#BB8E34"/>
</svg>
