<svg width="69" height="69" viewBox="0 0 69 69" fill="none" xmlns="http://www.w3.org/2000/svg">
<path d="M4.60938 37.7603V67.9957H52.0235" stroke="#666666" stroke-width="1.83388" stroke-linejoin="round"/>
<path d="M52.0234 25.8855V67.9992H62.8462" stroke="#666666" stroke-width="1.83388" stroke-linecap="round" stroke-linejoin="round"/>
<path d="M4.60938 37.7603V67.9957H27.2857V37.7603" stroke="#666666" stroke-width="1.83388" stroke-linejoin="round"/>
<path d="M53.5664 25.8855H62.8431L67.9968 37.7637H58.2047L53.5664 25.8855Z" stroke="#666666" stroke-width="1.83388" stroke-linejoin="round"/>
<path d="M9 25.8855H3.06149L1 37.2238H48.4142L50.4756 25.8855H37" stroke="#666666" stroke-width="1.83388" stroke-linejoin="round"/>
<path d="M33.8662 38.2988V37.3819H32.0323V38.2988H33.8662ZM32.0323 43.698C32.0323 44.2044 32.4428 44.615 32.9492 44.615C33.4556 44.615 33.8662 44.2044 33.8662 43.698H32.0323ZM32.0323 38.2988V43.698H33.8662V38.2988H32.0323Z" fill="#666666"/>
<line x1="33.3544" y1="53.7937" x2="33.3544" y2="67.0775" stroke="#666666" stroke-width="1.83388" stroke-linecap="round"/>
<line x1="33.3544" y1="47.3178" x2="33.3544" y2="49.8033" stroke="#666666" stroke-width="1.83388" stroke-linecap="round"/>
<path d="M62.8477 67.9971V37.7616" stroke="#666666" stroke-width="1.83388" stroke-linecap="round"/>
<rect x="9" y="1" width="28" height="32.5436" stroke="#666666" stroke-width="1.76" stroke-linejoin="round"/>
<path d="M28.4501 6.51795C28.1839 6.11134 27.6384 5.99755 27.2318 6.26378C26.8252 6.53001 26.7114 7.07545 26.9776 7.48205L28.4501 6.51795ZM30.3329 11L29.5967 11.4821C29.7548 11.7235 30.0211 11.872 30.3096 11.8797C30.598 11.8873 30.8719 11.7531 31.0426 11.5204L30.3329 11ZM34.7092 6.5204C34.9966 6.12848 34.9119 5.57777 34.52 5.29036C34.1281 5.00295 33.5774 5.08768 33.2899 5.4796L34.7092 6.5204ZM26.9776 7.48205L29.5967 11.4821L31.0691 10.5179L28.4501 6.51795L26.9776 7.48205ZM31.0426 11.5204L34.7092 6.5204L33.2899 5.4796L29.6233 10.4796L31.0426 11.5204Z" fill="#666666"/>
<line x1="12.88" y1="8.12" x2="23.6914" y2="8.12" stroke="#666666" stroke-width="1.76" stroke-linecap="round"/>
<line x1="12.88" y1="27.12" x2="23.12" y2="27.12" stroke="#666666" stroke-width="1.76" stroke-linecap="round"/>
<rect x="27" y="26" width="7" height="5" stroke="#666666" stroke-width="1.76" stroke-linejoin="round"/>
<line x1="12.88" y1="17.12" x2="23.12" y2="17.12" stroke="#666666" stroke-width="1.76" stroke-linecap="round"/>
<line x1="33.7646" y1="15.1338" x2="27.7445" y2="21.1539" stroke="#666666" stroke-width="1.62167" stroke-linecap="round"/>
<line x1="27.6526" y1="15.2717" x2="33.6727" y2="21.2919" stroke="#666666" stroke-width="1.62167" stroke-linecap="round"/>
</svg>
