<svg width="69" height="69" viewBox="0 0 69 69" fill="none" xmlns="http://www.w3.org/2000/svg">
<rect x="1" y="1" width="67" height="67" stroke="#BB8E34" stroke-width="1.66981" stroke-linejoin="round"/>
<ellipse cx="13.6579" cy="13.7967" rx="3.90789" ry="3.98929" stroke="#BB8E34" stroke-width="1.76"/>
<ellipse cx="13.6579" cy="27.9793" rx="3.90789" ry="3.98929" stroke="#BB8E34" stroke-width="1.76"/>
<ellipse cx="13.6579" cy="42.1656" rx="3.90789" ry="3.98929" stroke="#BB8E34" stroke-width="1.76"/>
<ellipse cx="13.6579" cy="56.3482" rx="3.90789" ry="3.98929" stroke="#BB8E34" stroke-width="1.76"/>
<ellipse cx="27.5514" cy="13.7967" rx="3.90789" ry="3.98929" stroke="#BB8E34" stroke-width="1.76"/>
<ellipse cx="27.5514" cy="27.9793" rx="3.90789" ry="3.98929" stroke="#BB8E34" stroke-width="1.76"/>
<ellipse cx="27.5514" cy="42.1656" rx="3.90789" ry="3.98929" stroke="#BB8E34" stroke-width="1.76"/>
<ellipse cx="27.5514" cy="56.3482" rx="3.90789" ry="3.98929" stroke="#BB8E34" stroke-width="1.76"/>
<ellipse cx="41.4479" cy="13.7967" rx="3.90789" ry="3.98929" stroke="#BB8E34" stroke-width="1.76"/>
<ellipse cx="41.4479" cy="27.9793" rx="3.90789" ry="3.98929" stroke="#BB8E34" stroke-width="1.76"/>
<ellipse cx="41.4479" cy="42.1656" rx="3.90789" ry="3.98929" stroke="#BB8E34" stroke-width="1.76"/>
<ellipse cx="41.4479" cy="56.3482" rx="3.90789" ry="3.98929" stroke="#BB8E34" stroke-width="1.76"/>
<ellipse cx="55.3415" cy="13.7967" rx="3.90789" ry="3.98929" stroke="#BB8E34" stroke-width="1.76"/>
<ellipse cx="55.3415" cy="27.9793" rx="3.90789" ry="3.98929" stroke="#BB8E34" stroke-width="1.76"/>
<ellipse cx="55.3415" cy="42.1656" rx="3.90789" ry="3.98929" stroke="#BB8E34" stroke-width="1.76"/>
<ellipse cx="55.3415" cy="56.3482" rx="3.90789" ry="3.98929" stroke="#BB8E34" stroke-width="1.76"/>
<path d="M7.88 7C7.88 6.51399 7.48601 6.12 7 6.12C6.51399 6.12 6.12 6.51399 6.12 7H7.88ZM35.38 11.6788C35.38 11.1928 34.986 10.7988 34.5 10.7988C34.014 10.7988 33.62 11.1928 33.62 11.6788H35.38ZM33.62 11.6788V58.1455H35.38V11.6788H33.62ZM29.5 62.2655H12V64.0255H29.5V62.2655ZM7.88 58.1455V7H6.12V58.1455H7.88ZM12 62.2655C9.72459 62.2655 7.88 60.4209 7.88 58.1455H6.12C6.12 61.393 8.75257 64.0255 12 64.0255V62.2655ZM33.62 58.1455C33.62 60.4209 31.7754 62.2655 29.5 62.2655V64.0255C32.7474 64.0255 35.38 61.393 35.38 58.1455H33.62Z" fill="#BB8E34"/>
<path d="M61.12 63.1455C61.12 63.6315 61.514 64.0255 62 64.0255C62.486 64.0255 62.88 63.6315 62.88 63.1455L61.12 63.1455ZM33.62 58.4667C33.62 58.9527 34.014 59.3467 34.5 59.3467C34.986 59.3467 35.38 58.9527 35.38 58.4667L33.62 58.4667ZM35.38 58.4667L35.38 12L33.62 12L33.62 58.4667L35.38 58.4667ZM39.5 7.87998L57 7.87997L57 6.11997L39.5 6.11998L39.5 7.87998ZM61.12 12L61.12 63.1455L62.88 63.1455L62.88 12L61.12 12ZM57 7.87997C59.2754 7.87997 61.12 9.72456 61.12 12L62.88 12C62.88 8.75254 60.2474 6.11997 57 6.11997L57 7.87997ZM35.38 12C35.38 9.72456 37.2246 7.87998 39.5 7.87998L39.5 6.11998C36.2526 6.11998 33.62 8.75254 33.62 12L35.38 12Z" fill="#BB8E34"/>
</svg>
