<svg width="69" height="69" viewBox="0 0 69 69" fill="none" xmlns="http://www.w3.org/2000/svg">
<path d="M5 7.40698V64.0566H44.5M64 7.40728V64.0566H55" stroke="#666666" stroke-width="1.66981" stroke-linecap="round" stroke-linejoin="round"/>
<path d="M26 1H42V7.40387H26V1Z" stroke="#666666" stroke-width="1.66981" stroke-linejoin="round"/>
<path d="M1 8.88168V1H17V7.40387H5" stroke="#666666" stroke-width="1.66981" stroke-linecap="round" stroke-linejoin="round"/>
<path d="M68 8.88168V1H52V7.40387H64" stroke="#666666" stroke-width="1.66981" stroke-linecap="round" stroke-linejoin="round"/>
<path fill-rule="evenodd" clip-rule="evenodd" d="M29.2366 13.88C29.2366 14.366 28.8426 14.76 28.3566 14.76L12.1729 14.76C11.3952 14.76 10.7648 15.3904 10.7648 16.1681C10.7648 16.9458 11.3952 17.5762 12.1729 17.5762L26.0505 17.5762C26.1284 17.5762 26.204 17.5863 26.2759 17.6053C27.9259 17.7154 29.2302 19.0887 29.2302 20.7665C29.2302 22.4493 27.9183 23.8257 26.2614 23.9287C26.1942 23.9451 26.1241 23.9538 26.0519 23.9538H12.1742C11.3966 23.9538 10.7661 24.5842 10.7661 25.3619C10.7661 26.1395 11.3966 26.7699 12.1742 26.7699H26.0519C26.1234 26.7699 26.193 26.7785 26.2596 26.7946C27.9178 26.8943 29.2318 28.2706 29.2318 29.9538C29.2318 31.7051 27.8095 33.1235 26.0582 33.1188L9.8776 33.0747C9.3916 33.0734 8.99868 32.6784 9 32.1923C9.00133 31.7063 9.39639 31.3134 9.8824 31.3147L26.063 31.3588C26.8404 31.3609 27.4718 30.7313 27.4718 29.9538C27.4718 29.1779 26.8428 28.5488 26.0668 28.5488H12.5896C12.5271 28.5488 12.4662 28.5423 12.4074 28.5299H12.1742C10.4245 28.5299 9.00613 27.1115 9.00613 25.3619C9.00613 23.6677 10.3359 22.2842 12.0086 22.198C12.0691 22.1849 12.1318 22.178 12.1962 22.178L26.0621 22.1749C26.8398 22.1747 27.4702 21.5442 27.4702 20.7665C27.4702 19.9887 26.8396 19.3582 26.0618 19.3582H12.588C12.5205 19.3582 12.4547 19.3506 12.3916 19.3362H12.1729C10.4232 19.3362 9.00478 17.9178 9.00478 16.1681C9.00478 14.4184 10.4232 13 12.1729 13H28.3566C28.8426 13 29.2366 13.394 29.2366 13.88Z" fill="#666666"/>
<path d="M1 2.97388V67.0126M68 2.97388V67.0126" stroke="#666666" stroke-width="1.66981" stroke-linejoin="round"/>
<path d="M17.8789 4.08495L25.5 4.07495" stroke="#666666" stroke-width="1.76" stroke-linecap="round"/>
<path d="M29 50.2626L30.6211 50.2704" stroke="#666666" stroke-width="1.76" stroke-linecap="round"/>
<path d="M29 53.2182L30.6211 53.2259" stroke="#666666" stroke-width="1.76" stroke-linecap="round"/>
<path d="M29 56.174L30.6211 56.1817" stroke="#666666" stroke-width="1.76" stroke-linecap="round"/>
<path d="M29 59.1296L30.6211 59.1373" stroke="#666666" stroke-width="1.76" stroke-linecap="round"/>
<path d="M34 7.89648L34 37.4528" stroke="#666666" stroke-width="1.76" stroke-linecap="round"/>
<path d="M34 46.8123V63.6845" stroke="#666666" stroke-width="1.76" stroke-linecap="round"/>
<path fill-rule="evenodd" clip-rule="evenodd" d="M23.8076 47.4019C23.6425 47.2369 23.5498 47.0131 23.5498 46.7797C23.5498 45.4604 23.8176 44.1548 24.3372 42.9375C24.8567 41.7202 25.6175 40.616 26.5747 39.687C27.5318 38.7581 28.6667 38.0226 29.9139 37.5213C31.1611 37.0199 32.4969 36.7622 33.8453 36.7622C34.3313 36.7622 34.7253 37.1562 34.7253 37.6422C34.7253 38.1282 34.3313 38.5222 33.8453 38.5222C32.7208 38.5222 31.6079 38.7372 30.5704 39.1543C29.5329 39.5713 28.5918 40.1819 27.8004 40.95C27.009 41.718 26.3827 42.6284 25.9559 43.6284C25.6454 44.3558 25.4447 45.1207 25.3584 45.8997L33.8453 45.8997C34.3313 45.8997 34.7253 46.2937 34.7253 46.7797C34.7253 47.2657 34.3313 47.6597 33.8453 47.6597L24.4298 47.6597C24.1964 47.6597 23.9726 47.567 23.8076 47.4019Z" fill="#666666"/>
<path fill-rule="evenodd" clip-rule="evenodd" d="M44.1276 56.9125C44.1276 56.4265 44.5216 56.0325 45.0076 56.0325C46.3237 56.0325 47.6294 56.2543 48.851 56.6874C50.0726 57.1206 51.1905 57.7583 52.1381 58.5695C53.0859 59.3809 53.8464 60.3516 54.3684 61.4305C54.5512 61.8081 54.6488 62.3184 54.7114 62.7887C54.7778 63.2874 54.8176 63.8532 54.842 64.4052C54.8841 65.359 54.8817 66.3206 54.8802 66.8937C54.88 66.9838 54.8798 67.0643 54.8798 67.1337C54.8798 67.6197 54.4858 68.0137 53.9998 68.0137C53.5138 68.0137 53.1198 67.6197 53.1198 67.1337C53.1198 67.0601 53.12 66.9762 53.1202 66.8836C53.1216 66.3072 53.1238 65.3915 53.0837 64.4828C53.0604 63.9555 53.0235 63.4471 52.9668 63.0209C52.9063 62.5663 52.8345 62.3011 52.7841 62.1971C52.374 61.3494 51.7682 60.5696 50.9935 59.9065C50.2186 59.2431 49.2917 58.7111 48.2628 58.3462C47.5046 58.0774 46.7043 57.9041 45.8876 57.8315L45.8876 67.1337C45.8876 67.6197 45.4936 68.0137 45.0076 68.0137C44.5216 68.0137 44.1276 67.6197 44.1276 67.1337L44.1276 56.9125Z" fill="#666666"/>
<path d="M50 35.4824L64 35.4824" stroke="#666666" stroke-width="1.76" stroke-linecap="round"/>
<path d="M1.04297 67.009L44.7991 67.009M67.9637 67.009L54 67.009" stroke="#666666" stroke-width="1.76" stroke-linecap="round"/>
<path d="M50 30.5564L50 40.4085" stroke="#666666" stroke-width="1.76" stroke-linecap="round"/>
<line x1="42.88" y1="4.06092" x2="51.12" y2="4.06092" stroke="#666666" stroke-width="1.76" stroke-linecap="round"/>
<ellipse cx="57.5" cy="17.7486" rx="2.5" ry="4.92605" stroke="#666666" stroke-width="1.76"/>
<ellipse cx="57.5" cy="29.0785" rx="2.5" ry="2.46303" stroke="#666666" stroke-width="1.76"/>
</svg>
