<svg width="69" height="69" viewBox="0 0 69 69" fill="none" xmlns="http://www.w3.org/2000/svg">
<rect x="68" y="68" width="67" height="39.9951" transform="rotate(-180 68 68)" stroke="#BB8E34" stroke-width="1.66981" stroke-linejoin="round"/>
<rect x="68" y="68" width="67" height="10.832" transform="rotate(-180 68 68)" stroke="#BB8E34" stroke-width="1.66981" stroke-linejoin="round"/>
<rect x="68" y="57.1672" width="67" height="4.99939" transform="rotate(-180 68 57.1672)" stroke="#BB8E34" stroke-width="1.66981" stroke-linejoin="round"/>
<rect x="68" y="43.8359" width="67" height="4.99939" transform="rotate(-180 68 43.8359)" stroke="#BB8E34" stroke-width="1.66981" stroke-linejoin="round"/>
<rect x="68" y="38.8347" width="67" height="10.832" transform="rotate(-180 68 38.8347)" stroke="#BB8E34" stroke-width="1.66981" stroke-linejoin="round"/>
<line x1="0.834906" y1="-0.834906" x2="19.3183" y2="-0.834906" transform="matrix(-0.81545 0.578827 -0.852928 -0.522029 54.0938 56.333)" stroke="#BB8E34" stroke-width="1.66981" stroke-linecap="round"/>
<line x1="0.834906" y1="-0.834906" x2="19.3183" y2="-0.834906" transform="matrix(-0.81545 0.578827 -0.852928 -0.522029 28.8086 56.333)" stroke="#BB8E34" stroke-width="1.66981" stroke-linecap="round"/>
<line x1="0.834906" y1="-0.834906" x2="19.3183" y2="-0.834906" transform="matrix(-0.81545 0.578827 -0.852928 -0.522029 59.1484 27.1719)" stroke="#BB8E34" stroke-width="1.66981" stroke-linecap="round"/>
<line x1="0.834906" y1="-0.834906" x2="19.3183" y2="-0.834906" transform="matrix(-0.81545 0.578827 -0.852928 -0.522029 35.1328 27.1719)" stroke="#BB8E34" stroke-width="1.66981" stroke-linecap="round"/>
<line x1="60.8448" y1="51.3353" x2="60.8448" y2="44.6728" stroke="#BB8E34" stroke-width="1.66981" stroke-linecap="round"/>
<line x1="53.2588" y1="51.3353" x2="53.2588" y2="44.6728" stroke="#BB8E34" stroke-width="1.66981" stroke-linecap="round"/>
<line x1="45.6729" y1="51.3353" x2="45.6729" y2="44.6728" stroke="#BB8E34" stroke-width="1.66981" stroke-linecap="round"/>
<line x1="38.0948" y1="51.3353" x2="38.0948" y2="44.6728" stroke="#BB8E34" stroke-width="1.66981" stroke-linecap="round"/>
<line x1="30.5088" y1="51.3353" x2="30.5088" y2="44.6728" stroke="#BB8E34" stroke-width="1.66981" stroke-linecap="round"/>
<line x1="22.9229" y1="51.3353" x2="22.9229" y2="44.6728" stroke="#BB8E34" stroke-width="1.66981" stroke-linecap="round"/>
<line x1="15.337" y1="51.3353" x2="15.337" y2="44.6728" stroke="#BB8E34" stroke-width="1.66981" stroke-linecap="round"/>
<line x1="7.75103" y1="51.3353" x2="7.75103" y2="44.6728" stroke="#BB8E34" stroke-width="1.66981" stroke-linecap="round"/>
<path d="M45.084 0.366034C44.7339 0.0289651 44.1768 0.0395528 43.8397 0.389682C43.5026 0.739812 43.5132 1.2969 43.8634 1.63397L45.084 0.366034ZM43.8634 20.1985C44.2135 20.5356 44.7706 20.525 45.1076 20.1749C45.4447 19.8248 45.4341 19.2677 45.084 18.9306L43.8634 20.1985ZM44.4737 1C43.8634 1.63397 43.8631 1.63373 43.8629 1.63352C43.8629 1.63348 43.8627 1.63329 43.8626 1.6332C43.8624 1.63303 43.8623 1.63293 43.8623 1.63292C43.8623 1.6329 43.8626 1.6332 43.8632 1.63382C43.8645 1.63506 43.8671 1.63758 43.8709 1.64135C43.8785 1.6489 43.8911 1.66144 43.908 1.67875C43.9421 1.71341 43.9937 1.76706 44.0588 1.83798C44.1894 1.98009 44.373 2.18999 44.5777 2.45389C44.9913 2.98716 45.4704 3.71447 45.7841 4.52871C46.0975 5.34223 46.2265 6.19034 46.0188 7.00786C45.8154 7.80844 45.2599 8.69589 43.9837 9.55131L44.9637 11.0133C46.5296 9.96363 47.3951 8.73827 47.7246 7.44122C48.0498 6.16112 47.8235 4.92678 47.4264 3.89599C47.0296 2.86593 46.4429 1.98706 45.9684 1.37523C45.729 1.06658 45.5129 0.8192 45.3548 0.647167C45.2757 0.561016 45.2107 0.493381 45.1642 0.446017C45.141 0.422324 45.1223 0.40367 45.1088 0.390275C45.102 0.383576 45.0965 0.378189 45.0924 0.37414C45.0903 0.372116 45.0885 0.370426 45.0871 0.369074C45.0865 0.368398 45.0858 0.367806 45.0853 0.3673C45.0851 0.367046 45.0847 0.366729 45.0846 0.366603C45.0843 0.366308 45.084 0.366034 44.4737 1ZM43.9837 9.55131C42.4178 10.6009 41.5523 11.8263 41.2228 13.1234C40.8975 14.4035 41.1238 15.6378 41.5209 16.6686C41.9178 17.6987 42.5044 18.5775 42.979 19.1894C43.2184 19.498 43.4345 19.7454 43.5926 19.9174C43.6717 20.0036 43.7367 20.0712 43.7832 20.1186C43.8064 20.1423 43.8251 20.1609 43.8386 20.1743C43.8454 20.181 43.8509 20.1864 43.855 20.1904C43.8571 20.1925 43.8588 20.1942 43.8602 20.1955C43.8609 20.1962 43.8615 20.1968 43.8621 20.1973C43.8623 20.1975 43.8626 20.1979 43.8628 20.198C43.8631 20.1983 43.8634 20.1985 44.4737 19.5646C45.084 18.9306 45.0842 18.9308 45.0845 18.9311C45.0845 18.9311 45.0847 18.9313 45.0848 18.9314C45.085 18.9316 45.0851 18.9316 45.0851 18.9317C45.0851 18.9317 45.0848 18.9314 45.0842 18.9308C45.0829 18.9295 45.0803 18.927 45.0765 18.9232C45.0689 18.9157 45.0563 18.9031 45.0393 18.8858C45.0053 18.8512 44.9537 18.7975 44.8885 18.7266C44.758 18.5845 44.5744 18.3746 44.3697 18.1107C43.9561 17.5774 43.477 16.8501 43.1633 16.0359C42.8499 15.2223 42.7209 14.3742 42.9286 13.5567C43.1319 12.7561 43.6875 11.8687 44.9637 11.0133L43.9837 9.55131Z" fill="#BB8E34"/>
<path d="M35.0332 0.366034C34.6831 0.028965 34.126 0.0395529 33.7889 0.389683C33.4519 0.739812 33.4625 1.2969 33.8126 1.63397L35.0332 0.366034ZM33.8126 20.1985C34.1627 20.5356 34.7198 20.525 35.0569 20.1749C35.3939 19.8248 35.3833 19.2677 35.0332 18.9306L33.8126 20.1985ZM34.4229 1C33.8126 1.63397 33.8123 1.63373 33.8121 1.63352C33.8121 1.63348 33.8119 1.63329 33.8118 1.6332C33.8116 1.63303 33.8115 1.63293 33.8115 1.63292C33.8115 1.6329 33.8118 1.6332 33.8124 1.63382C33.8137 1.63506 33.8163 1.63758 33.8201 1.64135C33.8277 1.6489 33.8403 1.66144 33.8573 1.67875C33.8913 1.71341 33.9429 1.76706 34.0081 1.83798C34.1386 1.98009 34.3222 2.18999 34.5269 2.45389C34.9405 2.98716 35.4196 3.71447 35.7333 4.52871C36.0467 5.34223 36.1757 6.19034 35.968 7.00786C35.7646 7.80844 35.2091 8.69589 33.9329 9.55131L34.9129 11.0133C36.4788 9.96363 37.3443 8.73827 37.6738 7.44122C37.999 6.16112 37.7728 4.92678 37.3757 3.89599C36.9788 2.86593 36.3922 1.98706 35.9176 1.37523C35.6782 1.06658 35.4621 0.8192 35.304 0.647167C35.2249 0.561016 35.1599 0.493381 35.1134 0.446017C35.0902 0.422324 35.0715 0.40367 35.058 0.390275C35.0512 0.383576 35.0457 0.378188 35.0416 0.37414C35.0395 0.372116 35.0378 0.370426 35.0364 0.369074C35.0357 0.368398 35.0351 0.367806 35.0345 0.367299C35.0343 0.367046 35.0339 0.366729 35.0338 0.366603C35.0335 0.366308 35.0332 0.366034 34.4229 1ZM33.9329 9.55131C32.367 10.6009 31.5015 11.8263 31.172 13.1234C30.8468 14.4035 31.073 15.6378 31.4702 16.6686C31.867 17.6987 32.4537 18.5775 32.9282 19.1894C33.1676 19.498 33.3837 19.7454 33.5418 19.9174C33.6209 20.0036 33.6859 20.0712 33.7324 20.1186C33.7556 20.1423 33.7743 20.1609 33.7878 20.1743C33.7946 20.181 33.8001 20.1864 33.8042 20.1904C33.8063 20.1925 33.808 20.1942 33.8094 20.1955C33.8101 20.1962 33.8107 20.1968 33.8113 20.1973C33.8115 20.1975 33.8119 20.1979 33.812 20.198C33.8123 20.1983 33.8126 20.1985 34.4229 19.5646C35.0332 18.9306 35.0335 18.9308 35.0337 18.9311C35.0337 18.9311 35.0339 18.9313 35.034 18.9314C35.0342 18.9316 35.0343 18.9316 35.0343 18.9317C35.0343 18.9317 35.034 18.9314 35.0334 18.9308C35.0321 18.9295 35.0295 18.927 35.0257 18.9232C35.0181 18.9157 35.0055 18.9031 34.9885 18.8858C34.9545 18.8512 34.9029 18.7975 34.8377 18.7266C34.7072 18.5845 34.5236 18.3746 34.3189 18.1107C33.9053 17.5774 33.4262 16.8501 33.1125 16.0359C32.7991 15.2223 32.6701 14.3742 32.8778 13.5567C33.0812 12.7561 33.6367 11.8687 34.9129 11.0133L33.9329 9.55131Z" fill="#BB8E34"/>
<path d="M24.9824 0.366034C24.6323 0.028965 24.0752 0.0395529 23.7382 0.389683C23.4011 0.739812 23.4117 1.2969 23.7618 1.63397L24.9824 0.366034ZM23.7618 20.1985C24.1119 20.5356 24.669 20.525 25.0061 20.1749C25.3432 19.8248 25.3326 19.2677 24.9824 18.9306L23.7618 20.1985ZM24.3721 1C23.7618 1.63397 23.7616 1.63373 23.7613 1.63352C23.7613 1.63348 23.7611 1.63329 23.761 1.6332C23.7608 1.63303 23.7607 1.63293 23.7607 1.63292C23.7607 1.6329 23.761 1.6332 23.7616 1.63382C23.7629 1.63506 23.7655 1.63758 23.7693 1.64135C23.7769 1.6489 23.7895 1.66144 23.8065 1.67875C23.8405 1.71341 23.8921 1.76706 23.9573 1.83798C24.0879 1.98009 24.2714 2.18999 24.4761 2.45389C24.8897 2.98716 25.3688 3.71447 25.6825 4.52871C25.9959 5.34223 26.1249 6.19034 25.9172 7.00786C25.7139 7.80844 25.1583 8.69589 23.8821 9.55131L24.8621 11.0133C26.428 9.96363 27.2935 8.73827 27.6231 7.44122C27.9483 6.16112 27.722 4.92678 27.3249 3.89599C26.928 2.86593 26.3414 1.98706 25.8668 1.37523C25.6274 1.06658 25.4113 0.8192 25.2533 0.647167C25.1741 0.561016 25.1091 0.493381 25.0627 0.446017C25.0394 0.422324 25.0207 0.40367 25.0072 0.390274C25.0004 0.383576 24.9949 0.378188 24.9908 0.37414C24.9887 0.372116 24.987 0.370426 24.9856 0.369074C24.9849 0.368398 24.9843 0.367806 24.9837 0.367299C24.9835 0.367046 24.9832 0.366729 24.983 0.366603C24.9827 0.366308 24.9824 0.366034 24.3721 1ZM23.8821 9.55131C22.3162 10.6009 21.4507 11.8263 21.1212 13.1234C20.796 14.4035 21.0223 15.6378 21.4194 16.6686C21.8162 17.6987 22.4029 18.5775 22.8774 19.1894C23.1168 19.498 23.3329 19.7454 23.491 19.9174C23.5701 20.0036 23.6351 20.0712 23.6816 20.1186C23.7048 20.1423 23.7235 20.1609 23.737 20.1743C23.7438 20.181 23.7493 20.1864 23.7534 20.1904C23.7555 20.1925 23.7573 20.1942 23.7587 20.1955C23.7594 20.1962 23.76 20.1968 23.7605 20.1973C23.7608 20.1975 23.7611 20.1979 23.7612 20.198C23.7615 20.1983 23.7618 20.1985 24.3721 19.5646C24.9824 18.9306 24.9827 18.9308 24.9829 18.9311C24.9829 18.9311 24.9831 18.9313 24.9832 18.9314C24.9834 18.9316 24.9835 18.9316 24.9835 18.9317C24.9835 18.9317 24.9832 18.9314 24.9826 18.9308C24.9813 18.9295 24.9787 18.927 24.9749 18.9232C24.9673 18.9157 24.9547 18.9031 24.9378 18.8858C24.9037 18.8512 24.8521 18.7975 24.787 18.7266C24.6564 18.5845 24.4728 18.3746 24.2681 18.1107C23.8545 17.5774 23.3754 16.8501 23.0617 16.0359C22.7483 15.2223 22.6193 14.3742 22.827 13.5567C23.0304 12.7561 23.5859 11.8687 24.8621 11.0133L23.8821 9.55131Z" fill="#BB8E34"/>
</svg>
