<svg width="71" height="71" viewBox="0 0 71 71" fill="none" xmlns="http://www.w3.org/2000/svg">
<ellipse cx="35.8302" cy="35.4986" rx="33.3302" ry="33.4986" stroke="#666666" stroke-width="1.76"/>
<circle cx="36.0008" cy="35.5008" r="29.3988" stroke="#666666" stroke-width="1.76"/>
<path d="M50.6814 17.1143L51.4348 17.0915C51.4236 16.688 51.0905 16.3675 50.6828 16.368L50.6814 17.1143ZM50.7619 20.0161L50.236 20.5525C50.4558 20.7637 50.7834 20.8215 51.0644 20.6987C51.3454 20.5759 51.5237 20.2969 51.5152 19.9933L50.7619 20.0161ZM47.7467 17.1183L47.7481 16.372C47.4412 16.3724 47.1646 16.557 47.0488 16.8388C46.933 17.1206 47.001 17.4433 47.2209 17.6546L47.7467 17.1183ZM48.6029 17.9411L49.1423 18.4606C49.282 18.3184 49.359 18.1272 49.3565 17.9292C49.3539 17.7311 49.272 17.5425 49.1287 17.4048L48.6029 17.9411ZM44.32 22.3012L43.7806 21.7817C43.6409 21.9239 43.5638 22.1151 43.5664 22.3131C43.569 22.5112 43.6509 22.6998 43.7942 22.8375L44.32 22.3012ZM45.6256 23.556L45.0998 24.0924C45.3978 24.3788 45.8745 24.3712 46.165 24.0755L45.6256 23.556ZM49.9084 19.1959L50.4343 18.6596C50.1363 18.3732 49.6595 18.3807 49.369 18.6765L49.9084 19.1959ZM49.928 17.1372L50.0085 20.039L51.5152 19.9933L51.4348 17.0915L49.928 17.1372ZM47.7453 17.8646L50.68 17.8606L50.6828 16.368L47.7481 16.372L47.7453 17.8646ZM49.1287 17.4048L48.2726 16.5819L47.2209 17.6546L48.077 18.4775L49.1287 17.4048ZM44.8595 22.8207L49.1423 18.4606L48.0634 17.4216L43.7806 21.7817L44.8595 22.8207ZM46.1514 23.0197L44.8458 21.7649L43.7942 22.8375L45.0998 24.0924L46.1514 23.0197ZM49.369 18.6765L45.0862 23.0365L46.165 24.0755L50.4479 19.7154L49.369 18.6765ZM51.2877 19.4798L50.4343 18.6596L49.3826 19.7323L50.236 20.5525L51.2877 19.4798Z" fill="#666666"/>
<path d="M28.2153 12.939L28.7357 12.3989C28.4452 12.119 27.9853 12.119 27.6948 12.3989L28.2153 12.939ZM30.3173 14.9647V15.7147C30.6231 15.7147 30.8984 15.529 31.0128 15.2453C31.1272 14.9616 31.058 14.6369 30.8377 14.4247L30.3173 14.9647ZM26.1133 14.9647L25.5928 14.4247C25.3726 14.6369 25.3033 14.9616 25.4178 15.2453C25.5322 15.529 25.8074 15.7147 26.1133 15.7147V14.9647ZM27.2996 14.9647H28.0496C28.0496 14.5505 27.7138 14.2147 27.2996 14.2147V14.9647ZM27.2996 21.0436H26.5496C26.5496 21.4578 26.8854 21.7936 27.2996 21.7936V21.0436ZM29.12 21.0436V21.7936C29.5342 21.7936 29.87 21.4578 29.87 21.0436H29.12ZM29.12 14.9647V14.2147C28.7057 14.2147 28.37 14.5505 28.37 14.9647H29.12ZM27.6948 13.479L29.7968 15.5047L30.8377 14.4247L28.7357 12.3989L27.6948 13.479ZM26.6337 15.5047L28.7357 13.479L27.6948 12.3989L25.5928 14.4247L26.6337 15.5047ZM27.2996 14.2147H26.1133V15.7147H27.2996V14.2147ZM28.0496 21.0436V14.9647H26.5496V21.0436H28.0496ZM29.12 20.2936H27.2996V21.7936H29.12V20.2936ZM28.37 14.9647V21.0436H29.87V14.9647H28.37ZM30.3173 14.2147H29.12V15.7147H30.3173V14.2147Z" fill="#666666"/>
<path d="M58.5625 39.0582L59.0968 39.5845C59.3844 39.2926 59.3844 38.8239 59.0968 38.5319L58.5625 39.0582ZM56.5146 41.1374L55.7646 41.1374C55.7646 41.4418 55.9485 41.716 56.2302 41.8314C56.5118 41.9469 56.8353 41.8806 57.0489 41.6637L56.5146 41.1374ZM56.5146 36.979L57.0489 36.4527C56.8353 36.2359 56.5118 36.1696 56.2302 36.285C55.9485 36.4004 55.7646 36.6746 55.7646 36.979L56.5146 36.979ZM56.5146 38.1512L56.5146 38.9012C56.9288 38.9012 57.2646 38.5654 57.2646 38.1512L56.5146 38.1512ZM50.3756 38.1512L50.3756 37.4012C50.1767 37.4012 49.986 37.4802 49.8453 37.6209C49.7047 37.7615 49.6256 37.9523 49.6256 38.1512L50.3756 38.1512ZM50.3756 39.9518L49.6256 39.9518C49.6256 40.3661 49.9614 40.7018 50.3756 40.7018L50.3756 39.9518ZM56.5146 39.9518L57.2646 39.9518C57.2646 39.7529 57.1856 39.5622 57.0449 39.4215C56.9042 39.2809 56.7135 39.2018 56.5146 39.2018L56.5146 39.9518ZM58.0282 38.5319L55.9802 40.6111L57.0489 41.6637L59.0968 39.5845L58.0282 38.5319ZM55.9802 37.5053L58.0282 39.5845L59.0968 38.5319L57.0489 36.4527L55.9802 37.5053ZM57.2646 38.1512L57.2646 36.979L55.7646 36.979L55.7646 38.1512L57.2646 38.1512ZM50.3756 38.9012L56.5146 38.9012L56.5146 37.4012L50.3756 37.4012L50.3756 38.9012ZM51.1256 39.9518L51.1256 38.1512L49.6256 38.1512L49.6256 39.9518L51.1256 39.9518ZM56.5146 39.2018L50.3756 39.2018L50.3756 40.7018L56.5146 40.7018L56.5146 39.2018ZM57.2646 41.1374L57.2646 39.9518L55.7646 39.9518L55.7646 41.1374L57.2646 41.1374Z" fill="#666666"/>
<path d="M35.959 58.0627L35.4386 58.6028C35.7291 58.8827 36.189 58.8827 36.4795 58.6028L35.959 58.0627ZM33.857 56.037L33.857 55.287C33.5512 55.287 33.2759 55.4727 33.1615 55.7564C33.0471 56.0401 33.1164 56.3648 33.3366 56.577L33.857 56.037ZM38.061 56.037L38.5815 56.577C38.8017 56.3648 38.871 56.0401 38.7566 55.7564C38.6421 55.4727 38.3669 55.287 38.061 55.287L38.061 56.037ZM36.8747 56.037L36.1247 56.037C36.1247 56.2359 36.2038 56.4267 36.3444 56.5673C36.4851 56.708 36.6758 56.787 36.8747 56.787L36.8747 56.037ZM36.8747 49.9581L37.6247 49.9581C37.6247 49.5439 37.289 49.2081 36.8747 49.2081L36.8747 49.9581ZM35.0544 49.9581L35.0544 49.2081C34.6402 49.2081 34.3044 49.5439 34.3044 49.9581L35.0544 49.9581ZM35.0544 56.037L35.0544 56.787C35.4686 56.787 35.8044 56.4512 35.8044 56.037L35.0544 56.037ZM36.4795 57.5227L34.3775 55.497L33.3366 56.577L35.4386 58.6028L36.4795 57.5227ZM37.5406 55.497L35.4386 57.5227L36.4795 58.6028L38.5815 56.577L37.5406 55.497ZM36.8747 56.787L38.061 56.787L38.061 55.287L36.8747 55.287L36.8747 56.787ZM36.1247 49.9581L36.1247 56.037L37.6247 56.037L37.6247 49.9581L36.1247 49.9581ZM35.0544 50.7081L36.8747 50.7081L36.8747 49.2081L35.0544 49.2081L35.0544 50.7081ZM35.8044 56.037L35.8044 49.9581L34.3044 49.9581L34.3044 56.037L35.8044 56.037ZM33.857 56.787L35.0544 56.787L35.0544 55.287L33.857 55.287L33.857 56.787Z" fill="#666666"/>
<path d="M13.439 39.0587L12.9046 38.5324C12.6171 38.8244 12.6171 39.2931 12.9046 39.585L13.439 39.0587ZM15.4869 36.9795L16.2369 36.9795C16.2369 36.6751 16.0529 36.4009 15.7713 36.2855C15.4896 36.1701 15.1662 36.2364 14.9526 36.4532L15.4869 36.9795ZM15.4869 41.1379L14.9526 41.6642C15.1662 41.8811 15.4896 41.9473 15.7713 41.8319C16.0529 41.7165 16.2369 41.4423 16.2369 41.1379L15.4869 41.1379ZM15.4869 39.9658L15.4869 39.2158C15.0727 39.2158 14.7369 39.5515 14.7369 39.9658L15.4869 39.9658ZM21.6258 39.9658L21.6258 40.7158C22.04 40.7158 22.3758 40.38 22.3758 39.9658L21.6258 39.9658ZM21.6258 38.1651L22.3758 38.1651C22.3758 37.7509 22.04 37.4151 21.6258 37.4151L21.6258 38.1651ZM15.4869 38.1651L14.7369 38.1651C14.7369 38.5793 15.0727 38.9151 15.4869 38.9151L15.4869 38.1651ZM13.9733 39.585L16.0212 37.5058L14.9526 36.4532L12.9046 38.5324L13.9733 39.585ZM16.0212 40.6116L13.9733 38.5324L12.9046 39.585L14.9526 41.6642L16.0212 40.6116ZM14.7369 39.9658L14.7369 41.1379L16.2369 41.1379L16.2369 39.9658L14.7369 39.9658ZM21.6258 39.2158L15.4869 39.2158L15.4869 40.7158L21.6258 40.7158L21.6258 39.2158ZM20.8758 38.1651L20.8758 39.9658L22.3758 39.9658L22.3758 38.1651L20.8758 38.1651ZM15.4869 38.9151L21.6258 38.9151L21.6258 37.4151L15.4869 37.4151L15.4869 38.9151ZM14.7369 36.9795L14.7369 38.1651L16.2369 38.1651L16.2369 36.9795L14.7369 36.9795Z" fill="#666666"/>
<path d="M49.0408 30.7575C49.0408 30.3433 48.705 30.0075 48.2908 30.0075C47.8766 30.0075 47.5408 30.3433 47.5408 30.7575H49.0408ZM48.2908 47.6932L48.2945 48.4432C48.7073 48.4411 49.0408 48.106 49.0408 47.6932H48.2908ZM23.0173 47.8167H22.2673C22.2673 48.0162 22.3468 48.2075 22.4882 48.3483C22.6297 48.4891 22.8214 48.5676 23.0209 48.5667L23.0173 47.8167ZM23.7673 30.5555C23.7673 30.1413 23.4315 29.8055 23.0173 29.8055C22.603 29.8055 22.2673 30.1413 22.2673 30.5555H23.7673ZM35.6488 17.4458L36.1547 16.8921C35.8726 16.6344 35.4419 16.6299 35.1545 16.8818L35.6488 17.4458ZM49.7074 31.3061C50.0132 31.5855 50.4876 31.5641 50.767 31.2583C51.0464 30.9525 51.025 30.4781 50.7192 30.1987L49.7074 31.3061ZM20.324 29.8794C20.0125 30.1524 19.9813 30.6263 20.2543 30.9378C20.5273 31.2493 21.0012 31.2805 21.3127 31.0075L20.324 29.8794ZM20.8041 29.6931C20.3899 29.701 20.0606 30.0431 20.0685 30.4573C20.0764 30.8714 20.4185 31.2007 20.8326 31.1929L20.8041 29.6931ZM23.0263 31.1511C23.4404 31.1432 23.7697 30.8011 23.7618 30.387C23.754 29.9728 23.4119 29.6435 22.9977 29.6514L23.0263 31.1511ZM48.2936 29.9994C47.8794 29.9994 47.5436 30.3351 47.5436 30.7494C47.5436 31.1636 47.8794 31.4994 48.2936 31.4994V29.9994ZM50.0589 31.4994C50.4731 31.4994 50.8089 31.1636 50.8089 30.7494C50.8089 30.3351 50.4731 29.9994 50.0589 29.9994V31.4994ZM23.6577 33.7038C23.2435 33.7038 22.9077 34.0396 22.9077 34.4538C22.9077 34.868 23.2435 35.2038 23.6577 35.2038V33.7038ZM47.7516 35.2038C48.1658 35.2038 48.5016 34.868 48.5016 34.4538C48.5016 34.0396 48.1658 33.7038 47.7516 33.7038V35.2038ZM32.1301 37.1742V36.4242C31.7159 36.4242 31.3801 36.76 31.3801 37.1742H32.1301ZM39.0658 37.1742H39.8158C39.8158 36.76 39.4801 36.4242 39.0658 36.4242V37.1742ZM38.3158 47.2697C38.3158 47.6839 38.6516 48.0197 39.0658 48.0197C39.4801 48.0197 39.8158 47.6839 39.8158 47.2697H38.3158ZM31.3801 47.2697C31.3801 47.6839 31.7159 48.0197 32.1301 48.0197C32.5443 48.0197 32.8801 47.6839 32.8801 47.2697H31.3801ZM36.9315 42.5535C36.9315 42.5249 36.9446 42.5023 36.9561 42.4912C36.9672 42.4804 36.9799 42.4765 36.988 42.4765V43.9765C37.7638 43.9765 38.4315 43.3605 38.4315 42.5535H36.9315ZM36.988 42.6305C36.9799 42.6305 36.9672 42.6266 36.9561 42.6158C36.9446 42.6047 36.9315 42.5821 36.9315 42.5535H38.4315C38.4315 41.7465 37.7638 41.1305 36.988 41.1305V42.6305ZM37.0444 42.5535C37.0444 42.5821 37.0313 42.6047 37.0198 42.6158C37.0087 42.6266 36.996 42.6305 36.988 42.6305V41.1305C36.2121 41.1305 35.5444 41.7465 35.5444 42.5535H37.0444ZM36.988 42.4765C36.996 42.4765 37.0087 42.4804 37.0198 42.4912C37.0313 42.5023 37.0444 42.5249 37.0444 42.5535H35.5444C35.5444 43.3605 36.2121 43.9765 36.988 43.9765V42.4765ZM47.5408 30.7575V47.6932H49.0408V30.7575H47.5408ZM48.2872 46.9432L23.0136 47.0667L23.0209 48.5667L48.2945 48.4432L48.2872 46.9432ZM23.7673 47.8167V30.5555H22.2673V47.8167H23.7673ZM35.143 17.9995L49.7074 31.3061L50.7192 30.1987L36.1547 16.8921L35.143 17.9995ZM21.3127 31.0075L36.1432 18.0098L35.1545 16.8818L20.324 29.8794L21.3127 31.0075ZM20.8326 31.1929L23.0263 31.1511L22.9977 29.6514L20.8041 29.6931L20.8326 31.1929ZM48.2936 31.4994H50.0589V29.9994H48.2936V31.4994ZM23.6577 35.2038H47.7516V33.7038H23.6577V35.2038ZM32.1301 37.9242H39.0658V36.4242H32.1301V37.9242ZM38.3158 37.1742V47.2697H39.8158V37.1742H38.3158ZM32.8801 47.2697V37.1742H31.3801V47.2697H32.8801Z" fill="#666666"/>
</svg>
