<svg width="69" height="69" viewBox="0 0 69 69" fill="none" xmlns="http://www.w3.org/2000/svg">
<path d="M47.4584 20.1742L34.263 15.4829L21.0675 20.1742C19.861 20.74 18.8098 21.5685 17.9983 22.5932C17.1868 23.6179 16.6375 24.8103 16.3945 26.0748C16.3945 28.6037 16.6627 32.2321 17.1223 36.6118C17.2179 38.9486 17.5645 41.2698 18.1566 43.5388C19.8802 48.0285 23.5955 50.6856 28.2493 54.0025C30.1651 55.3527 32.1742 56.5772 34.263 57.6675C36.349 56.5729 38.3579 55.3486 40.2766 54.0025C44.9304 50.6856 48.6457 48.0285 50.3694 43.5388C50.9614 41.2698 51.308 38.9486 51.4036 36.6118C51.8633 32.2321 52.0548 28.6037 52.1314 26.0748C51.8884 24.8103 51.3392 23.6179 50.5276 22.5932C49.7161 21.5685 48.665 20.74 47.4584 20.1742Z" stroke="#666666" stroke-width="1.76" stroke-miterlimit="10" stroke-linecap="round" stroke-linejoin="round"/>
<path d="M28.2656 34.3903L33.5323 39.4298L41.5951 31.7148" stroke="#666666" stroke-width="1.76" stroke-miterlimit="10" stroke-linecap="round" stroke-linejoin="round"/>
<path d="M39.9313 1H40.8113C40.8113 0.513989 40.4173 0.12 39.9313 0.12V1ZM29.0664 1V0.12C28.5804 0.12 28.1864 0.513989 28.1864 1L29.0664 1ZM39.9313 6.93956H39.0513C39.0513 7.36235 39.3519 7.72538 39.7673 7.80415L39.9313 6.93956ZM50.241 11.0761L49.7623 11.8145C50.1107 12.0404 50.5697 11.992 50.8633 11.6984L50.241 11.0761ZM54.3459 6.9713L54.9681 6.34904C54.8031 6.18401 54.5793 6.0913 54.3459 6.0913C54.1125 6.0913 53.8887 6.18401 53.7236 6.34904L54.3459 6.9713ZM62.0285 14.6539L62.6507 15.2762C62.9944 14.9325 62.9944 14.3753 62.6507 14.0317L62.0285 14.6539ZM58.0956 18.5868L57.4733 17.9646C57.1692 18.2687 57.1294 18.7482 57.3794 19.0982L58.0956 18.5868ZM62.7778 29.0659L61.919 29.2576C62.0087 29.6598 62.3657 29.9459 62.7778 29.9459V29.0659ZM68 29.0659H68.88C68.88 28.5799 68.486 28.1859 68 28.1859V29.0659ZM68 39.9308V40.8108C68.486 40.8108 68.88 40.4168 68.88 39.9308H68ZM63.1218 39.9308V39.0508C62.6884 39.0508 62.3196 39.3662 62.2524 39.7944L63.1218 39.9308ZM58.8285 51.1451L58.0902 50.6663C57.8643 51.0147 57.9127 51.4737 58.2063 51.7673L58.8285 51.1451ZM62.0275 54.344L62.6498 54.9663C62.8148 54.8012 62.9075 54.5774 62.9075 54.344C62.9075 54.1106 62.8148 53.8868 62.6498 53.7218L62.0275 54.344ZM54.3449 62.0266L53.7226 62.6489C54.0663 62.9926 54.6235 62.9926 54.9672 62.6489L54.3449 62.0266ZM51.3179 58.9996L51.9401 58.3773C51.636 58.0732 51.1565 58.0335 50.8065 58.2834L51.3179 58.9996ZM39.9313 63.8692L39.7673 63.0046C39.3519 63.0833 39.0513 63.4464 39.0513 63.8692H39.9313ZM39.9313 68V68.88C40.4173 68.88 40.8113 68.486 40.8113 68H39.9313ZM29.0664 68H28.1864C28.1864 68.486 28.5804 68.88 29.0664 68.88V68ZM29.0664 63.8686H29.9464C29.9464 63.4458 29.6458 63.0828 29.2305 63.004L29.0664 63.8686ZM17.6828 58.9996L18.1942 58.2834C17.8441 58.0335 17.3647 58.0732 17.0606 58.3774L17.6828 58.9996ZM14.6523 62.0301L14.0301 62.6523C14.1951 62.8174 14.419 62.9101 14.6523 62.9101C14.8857 62.9101 15.1096 62.8174 15.2746 62.6523L14.6523 62.0301ZM6.96972 54.3475L6.34747 53.7252C6.18244 53.8902 6.08972 54.1141 6.08972 54.3475C6.08972 54.5808 6.18244 54.8047 6.34747 54.9697L6.96972 54.3475ZM10.1721 51.1451L10.7944 51.7673C11.088 51.4737 11.1364 51.0148 10.9105 50.6663L10.1721 51.1451ZM5.87885 39.9308L6.74821 39.7944C6.68105 39.3663 6.3122 39.0508 5.87885 39.0508V39.9308ZM1 39.9308H0.12C0.12 40.4168 0.513989 40.8108 1 40.8108L1 39.9308ZM1 29.0659V28.1859C0.513989 28.1859 0.12 28.5799 0.12 29.0659H1ZM6.22278 29.0659V29.9459C6.63494 29.9459 6.99188 29.6598 7.08166 29.2576L6.22278 29.0659ZM10.9051 18.5868L11.6213 19.0982C11.8712 18.7481 11.8315 18.2687 11.5273 17.9646L10.9051 18.5868ZM6.96875 14.6505L6.3465 14.0282C6.00283 14.3719 6.00283 14.9291 6.3465 15.2727L6.96875 14.6505ZM14.6514 6.96787L15.2736 6.34562C14.93 6.00196 14.3728 6.00196 14.0291 6.34562L14.6514 6.96787ZM18.7596 11.0761L18.1374 11.6984C18.431 11.992 18.8899 12.0404 19.2384 11.8145L18.7596 11.0761ZM29.0664 6.94012L29.2305 7.8047C29.6458 7.72589 29.9464 7.36287 29.9464 6.94012H29.0664ZM39.9313 0.12H29.0664V1.88H39.9313V0.12ZM40.8113 6.93956V1H39.0513V6.93956H40.8113ZM50.7198 10.3378C47.5436 8.27851 43.9507 6.80612 40.0952 6.07497L39.7673 7.80415C43.3936 8.49185 46.7734 9.87668 49.7623 11.8145L50.7198 10.3378ZM50.8633 11.6984L54.9681 7.59355L53.7236 6.34904L49.6188 10.4539L50.8633 11.6984ZM53.7236 7.59355L61.4062 15.2762L62.6507 14.0317L54.9681 6.34904L53.7236 7.59355ZM61.4062 14.0317L57.4733 17.9646L58.7178 19.2091L62.6507 15.2762L61.4062 14.0317ZM63.6367 28.8742C62.7545 24.9213 61.0888 21.2645 58.8117 18.0755L57.3794 19.0982C59.5226 22.0997 61.0893 25.5399 61.919 29.2576L63.6367 28.8742ZM68 28.1859H62.7778V29.9459H68V28.1859ZM68.88 39.9308V29.0659H67.12V39.9308H68.88ZM63.1218 40.8108H68V39.0508H63.1218V40.8108ZM59.5669 51.6238C61.7913 48.193 63.3309 44.2759 63.9912 40.0671L62.2524 39.7944C61.6313 43.7533 60.1833 47.4378 58.0902 50.6663L59.5669 51.6238ZM62.6498 53.7218L59.4508 50.5228L58.2063 51.7673L61.4053 54.9663L62.6498 53.7218ZM54.9672 62.6489L62.6498 54.9663L61.4053 53.7218L53.7226 61.4044L54.9672 62.6489ZM50.6956 59.6218L53.7226 62.6489L54.9672 61.4044L51.9401 58.3773L50.6956 59.6218ZM40.0952 64.7337C44.4069 63.9161 48.39 62.1714 51.8292 59.7158L50.8065 58.2834C47.5696 60.5946 43.8225 62.2355 39.7673 63.0046L40.0952 64.7337ZM40.8113 68V63.8692H39.0513V68H40.8113ZM29.0664 68.88H39.9313V67.12H29.0664V68.88ZM28.1864 63.8686V68H29.9464V63.8686H28.1864ZM17.1714 59.7158C20.6098 62.1709 24.5919 63.9153 28.9024 64.7332L29.2305 63.004C25.1763 62.2348 21.4303 60.5941 18.1942 58.2834L17.1714 59.7158ZM17.0606 58.3774L14.0301 61.4078L15.2746 62.6523L18.3051 59.6219L17.0606 58.3774ZM15.2746 61.4078L7.59198 53.7252L6.34747 54.9697L14.0301 62.6523L15.2746 61.4078ZM7.59198 54.9697L10.7944 51.7673L9.54985 50.5228L6.34747 53.7252L7.59198 54.9697ZM5.00948 40.0672C5.66978 44.2759 7.20935 48.193 9.43371 51.6238L10.9105 50.6663C8.81731 47.4378 7.36931 43.7533 6.74821 39.7944L5.00948 40.0672ZM1 40.8108H5.87885V39.0508H1V40.8108ZM0.12 29.0659V39.9308H1.88V29.0659H0.12ZM6.22278 28.1859H1V29.9459H6.22278V28.1859ZM10.1889 18.0755C7.91183 21.2645 6.24609 24.9213 5.36391 28.8742L7.08166 29.2576C7.91134 25.5399 9.47808 22.0997 11.6213 19.0982L10.1889 18.0755ZM6.3465 15.2727L10.2828 19.2091L11.5273 17.9646L7.591 14.0282L6.3465 15.2727ZM14.0291 6.34562L6.3465 14.0282L7.591 15.2727L15.2736 7.59012L14.0291 6.34562ZM19.3819 10.4539L15.2736 6.34562L14.0291 7.59012L18.1374 11.6984L19.3819 10.4539ZM28.9024 6.07555C25.048 6.8069 21.4562 8.27904 18.2809 10.3377L19.2384 11.8145C22.2265 9.87718 25.6052 8.49257 29.2305 7.8047L28.9024 6.07555ZM28.1864 1V6.94012H29.9464V1H28.1864Z" fill="#666666"/>
</svg>
