<svg width="67" height="67" viewBox="0 0 67 67" fill="none" xmlns="http://www.w3.org/2000/svg">
<path opacity="0.98" fill-rule="evenodd" clip-rule="evenodd" d="M3.07952 24.4143C3.78931 22.0343 4.77076 19.7715 5.98791 17.6618L8.87138 19.3266C8.88986 19.3372 8.90856 19.3472 8.92745 19.3563C7.85658 21.2127 6.99002 23.2018 6.35849 25.2929L6.35153 25.291L3.07952 24.4143ZM9.75138 17.8024L6.90973 16.1617C8.11434 14.3181 9.50552 12.6074 11.0565 11.0565L13.3445 13.3445C13.3823 13.3823 13.4227 13.416 13.4651 13.4455C12.1175 14.7918 10.9047 16.2732 9.84875 17.8675C9.81817 17.844 9.7857 17.8222 9.75138 17.8024ZM14.589 12.1L12.3353 9.84626C14.1697 8.20377 16.1963 6.77154 18.3772 5.58744C18.3897 5.7063 18.4268 5.82452 18.4904 5.93469L20.0078 8.563C18.1028 9.59593 16.3295 10.8408 14.7194 12.2659C14.6835 12.2068 14.6401 12.1511 14.589 12.1ZM20.0146 5.0547C19.9672 4.97261 19.9086 4.90105 19.8418 4.84083C21.5538 4.02347 23.3505 3.355 25.2151 2.85216L26.0224 5.86476C26.0471 5.95722 26.0858 6.04228 26.1354 6.1183C24.5595 6.54115 23.0379 7.09641 21.5831 7.77142L20.0146 5.0547ZM27.7224 5.40924L26.9272 2.44142C28.7781 2.05166 30.6885 1.82317 32.6428 1.77135V5.15099L32.643 5.16467C30.9706 5.21441 29.3345 5.409 27.747 5.73631C27.7591 5.62973 27.7518 5.51913 27.7224 5.40924ZM1.78644 32.1927H5.18159C5.26252 30.4116 5.5078 28.6734 5.90262 26.9928L5.89601 26.991L2.62384 26.1143C2.1563 28.0761 1.87088 30.1085 1.78644 32.1927ZM5.15192 33.5021H1.76C1.76015 35.8162 2.00793 38.0724 2.47829 40.2457L5.66703 39.3913C5.69813 39.3829 5.72929 39.3764 5.7604 39.3715C5.36168 37.4778 5.15197 35.5145 5.15192 33.5021ZM6.17497 41.0755C6.15777 41.0813 6.1403 41.0865 6.12255 41.0913L2.89855 41.9551C3.46322 44.0034 4.22803 45.9687 5.17062 47.8286L7.9367 46.2316C7.99694 46.1969 8.05959 46.17 8.12343 46.1508C7.31915 44.5403 6.66366 42.8425 6.17497 41.0755ZM8.94066 47.6695C8.90251 47.7012 8.86115 47.7302 8.8167 47.7558L6.00987 49.3764C7.1135 51.2832 8.40982 53.0646 9.87222 54.6938L12.186 52.3801C12.2156 52.3504 12.2469 52.3233 12.2794 52.2988C11.0184 50.8761 9.89815 49.3257 8.94066 47.6695ZM13.4793 53.5716C13.4639 53.5898 13.4476 53.6075 13.4305 53.6246L11.0839 55.9711C12.6184 57.5019 14.3088 58.8765 16.1291 60.0691L17.8024 57.1709C17.8107 57.1564 17.8195 57.1422 17.8285 57.1283C16.2624 56.0874 14.8057 54.8948 13.4793 53.5716ZM19.3234 58.0564L17.6311 60.9876L17.6281 60.9927C19.5055 62.079 21.5046 62.9785 23.5999 63.6657L24.4669 60.4301C24.4709 60.415 24.4753 60.4001 24.4801 60.3854C22.6731 59.7793 20.9473 58.9961 19.3234 58.0564ZM32.6428 65.2288C30.1056 65.1615 27.6426 64.7965 25.2875 64.1674L25.2892 64.1611L26.165 60.8926C28.2402 61.447 30.4091 61.7718 32.643 61.8382L32.6428 61.8524V65.2288ZM63.9326 42.5458C63.3844 44.3928 62.6727 46.1694 61.8142 47.8588C61.8075 47.8547 61.8006 47.8506 61.7937 47.8466L58.8743 46.1611C59.5906 44.7283 60.1891 43.2264 60.657 41.6681L60.6663 41.6706L63.9326 42.5458ZM60.9137 49.3708C60.9338 49.3824 60.9542 49.3932 60.9748 49.403C59.8801 51.2903 58.5965 53.0543 57.1499 54.6693C57.1288 54.6427 57.106 54.617 57.0814 54.5924L54.7537 52.2647C55.992 50.8632 57.0938 49.3383 58.0383 47.7107L60.9137 49.3708ZM55.8369 55.8369C55.8733 55.8733 55.9121 55.9059 55.9528 55.9346C54.5928 57.2957 53.1098 58.5339 51.5219 59.6311L50.0588 57.097C49.9738 56.9497 49.8525 56.8363 49.7128 56.7615C51.0847 55.8035 52.3679 54.7273 53.5476 53.5476L55.8369 55.8369ZM48.5346 57.977L50.0447 60.5925C47.9455 61.8771 45.6855 62.9246 43.3019 63.6978C43.3032 63.6177 43.2936 63.5361 43.2718 63.4549L42.4554 60.408C44.5645 59.7064 46.5635 58.7639 48.4198 57.6129C48.4305 57.7374 48.468 57.8616 48.5346 57.977ZM41.5718 63.9105C41.5976 64.0067 41.6383 64.0949 41.6909 64.1732C39.3565 64.795 36.9162 65.1574 34.4028 65.2276V61.8524L34.4027 61.8369C36.5965 61.7684 38.7274 61.4507 40.7681 60.9111L41.5718 63.9105ZM64.386 40.8452C64.9445 38.4877 65.2402 36.0284 65.2402 33.5001C65.2402 33.4961 65.2402 33.4922 65.2402 33.4883C65.1273 33.5409 65.0014 33.5703 64.8686 33.5703H61.8509C61.8457 35.7706 61.5898 37.9121 61.1103 39.9676L61.1218 39.9706L64.386 40.8452ZM61.8014 31.8103C61.6696 29.5709 61.278 27.4014 60.6561 25.3315C60.7779 25.3526 60.9061 25.3482 61.0334 25.3141L63.9553 24.5312C64.6451 26.8775 65.0712 29.3367 65.1992 31.8745C65.0972 31.8331 64.9856 31.8103 64.8686 31.8103H61.8014ZM60.1683 23.8572C59.5963 22.2758 58.8876 20.7598 58.0565 19.3235L60.8551 17.7077C60.9021 17.6805 60.9457 17.6497 60.9856 17.6158C61.9455 19.2732 62.7598 21.0254 63.411 22.855L60.5779 23.6141C60.4156 23.6576 60.2762 23.7437 60.1683 23.8572ZM57.1276 17.8275C56.0874 16.2625 54.8957 14.8069 53.5737 13.4814L55.9267 11.1283C55.9417 11.1134 55.956 11.0981 55.9696 11.0824C57.5026 12.6189 58.879 14.3117 60.0728 16.1348C60.0397 16.1488 60.0071 16.165 59.9751 16.1835L57.1276 17.8275ZM52.2923 12.2737L54.6822 9.88382L54.6939 9.87232C53.0638 8.4091 51.2813 7.11214 49.3733 6.00811L49.3708 6.01247L47.6775 8.94533C49.3282 9.90034 50.8737 11.017 52.2923 12.2737ZM46.1279 8.11202C46.1352 8.09761 46.1429 8.08331 46.1511 8.06916L47.8255 5.16903C45.8937 4.19027 43.8482 3.4033 41.7142 2.83315L41.7124 2.83995L40.8362 6.10992C42.681 6.60265 44.4516 7.27677 46.1279 8.11202ZM34.4028 1.77259C36.3161 1.82602 38.187 2.04877 40.0011 2.42638L39.1347 5.65987C39.1303 5.67631 39.1264 5.69277 39.123 5.70924C37.5907 5.40098 36.0136 5.21628 34.4027 5.16597L34.4028 5.15099V1.77259ZM33.5001 0C14.9985 0 0 14.9985 0 33.5001C0 52.0017 14.9985 67.0002 33.5001 67.0002C52.0017 67.0002 67.0002 52.0017 67.0002 33.5001C67.0002 14.9985 52.0017 0 33.5001 0ZM6.91192 33.5015C6.91192 18.8165 18.8165 6.91192 33.5015 6.91192C48.1865 6.91192 60.091 18.8165 60.091 33.5015C60.091 48.1865 48.1865 60.091 33.5015 60.091C18.8165 60.091 6.91192 48.1865 6.91192 33.5015ZM33.2099 16.1807C33.5912 16.1807 33.9291 16.4262 34.0469 16.7887L35.2774 20.5758H39.2593C39.6406 20.5758 39.9785 20.8213 40.0963 21.1839C40.2141 21.5465 40.085 21.9437 39.7766 22.1678L36.5551 24.5083L37.7856 28.2954C37.9034 28.658 37.7744 29.0552 37.4659 29.2793C37.1575 29.5033 36.7399 29.5033 36.4314 29.2793L33.2099 26.9387L29.9885 29.2793C29.68 29.5033 29.2624 29.5033 28.954 29.2793C28.6455 29.0552 28.5165 28.658 28.6343 28.2954L29.8648 24.5083L26.6433 22.1678C26.3349 21.9437 26.2058 21.5465 26.3236 21.1839C26.4414 20.8213 26.7793 20.5758 27.1606 20.5758H31.1425L32.373 16.7887C32.4908 16.4262 32.8287 16.1807 33.2099 16.1807ZM33.2099 19.9084L32.6188 21.7278C32.501 22.0903 32.1631 22.3358 31.7819 22.3358H29.8689L31.4165 23.4602C31.725 23.6843 31.854 24.0815 31.7362 24.4441L31.1451 26.2634L32.6927 25.139C33.0011 24.9149 33.4188 24.9149 33.7272 25.139L35.2748 26.2634L34.6837 24.4441C34.5659 24.0815 34.6949 23.6843 35.0034 23.4602L36.551 22.3358H34.638C34.2568 22.3358 33.9189 22.0903 33.8011 21.7278L33.2099 19.9084ZM47.8308 21.0267C47.713 20.6641 47.3751 20.4186 46.9939 20.4186C46.6127 20.4186 46.2748 20.6641 46.157 21.0267L44.9265 24.8137H40.9445C40.5633 24.8137 40.2254 25.0592 40.1076 25.4218C39.9898 25.7844 40.1188 26.1816 40.4273 26.4057L43.6487 28.7462L42.4182 32.5333C42.3004 32.8959 42.4295 33.2931 42.7379 33.5172C43.0463 33.7412 43.464 33.7412 43.7724 33.5172L46.9939 31.1766L50.2154 33.5172C50.5238 33.7412 50.9415 33.7412 51.2499 33.5172C51.5583 33.2931 51.6874 32.8959 51.5696 32.5333L50.3391 28.7462L53.5605 26.4057C53.869 26.1816 53.998 25.7844 53.8802 25.4218C53.7624 25.0592 53.4245 24.8137 53.0433 24.8137H49.0613L47.8308 21.0267ZM46.4028 25.9657L46.9939 24.1463L47.585 25.9657C47.7028 26.3283 48.0407 26.5737 48.422 26.5737H50.3349L48.7873 27.6982C48.4789 27.9222 48.3498 28.3194 48.4676 28.682L49.0588 30.5014L47.5112 29.3769C47.2027 29.1529 46.7851 29.1529 46.4766 29.3769L44.929 30.5014L45.5202 28.682C45.638 28.3194 45.5089 27.9222 45.2005 27.6982L43.6529 26.5737H45.5658C45.9471 26.5737 46.285 26.3283 46.4028 25.9657ZM19.4338 20.4186C19.8151 20.4186 20.1529 20.6641 20.2707 21.0267L21.5012 24.8137H25.4832C25.8644 24.8137 26.2023 25.0592 26.3201 25.4218C26.4379 25.7844 26.3089 26.1816 26.0005 26.4057L22.779 28.7462L24.0095 32.5333C24.1273 32.8959 23.9982 33.2931 23.6898 33.5172C23.3814 33.7412 22.9637 33.7412 22.6553 33.5172L19.4338 31.1766L16.2123 33.5172C15.9039 33.7412 15.4863 33.7412 15.1778 33.5172C14.8694 33.2931 14.7403 32.8959 14.8581 32.5333L16.0886 28.7462L12.8672 26.4057C12.5587 26.1816 12.4297 25.7844 12.5475 25.4218C12.6653 25.0592 13.0032 24.8137 13.3844 24.8137H17.3664L18.5969 21.0267C18.7147 20.6641 19.0526 20.4186 19.4338 20.4186ZM19.4338 24.1463L18.8427 25.9657C18.7249 26.3283 18.387 26.5737 18.0057 26.5737H16.0928L17.6404 27.6982C17.9488 27.9222 18.0779 28.3194 17.9601 28.682L17.3689 30.5014L18.9166 29.3769C19.225 29.1529 19.6426 29.1529 19.9511 29.3769L21.4987 30.5014L20.9075 28.682C20.7897 28.3194 20.9188 27.9222 21.2272 27.6982L22.7748 26.5737H20.8619C20.4806 26.5737 20.1428 26.3283 20.025 25.9657L19.4338 24.1463ZM14.9503 37.226C14.4642 37.226 14.0703 37.62 14.0703 38.106C14.0703 38.592 14.4642 38.986 14.9503 38.986H52.687C53.1731 38.986 53.567 38.592 53.567 38.106C53.567 37.62 53.1731 37.226 52.687 37.226H14.9503ZM24.0342 43.0861C24.0342 42.6001 24.4282 42.2061 24.9142 42.2061H42.0893C42.5753 42.2061 42.9693 42.6001 42.9693 43.0861C42.9693 43.5721 42.5753 43.9661 42.0893 43.9661H24.9142C24.4282 43.9661 24.0342 43.5721 24.0342 43.0861ZM28.9022 47.19C28.4161 47.19 28.0222 47.584 28.0222 48.07C28.0222 48.556 28.4161 48.95 28.9022 48.95H37.1088C37.5948 48.95 37.9888 48.556 37.9888 48.07C37.9888 47.584 37.5948 47.19 37.1088 47.19H28.9022Z" fill="#666666"/>
</svg>
