<svg width="69" height="69" viewBox="0 0 69 69" fill="none" xmlns="http://www.w3.org/2000/svg">
<rect x="1.98438" y="53.3831" width="66.0147" height="14.6243" stroke="#666666" stroke-width="1.76275" stroke-linejoin="round"/>
<path d="M11.5227 60.0858C11.5227 61.3246 10.5792 62.2512 9.50866 62.2512C8.43814 62.2512 7.49465 61.3246 7.49465 60.0858C7.49465 58.847 8.43814 57.9204 9.50866 57.9204C10.5792 57.9204 11.5227 58.847 11.5227 60.0858Z" stroke="#666666" stroke-width="1.76275"/>
<line x1="0.881373" y1="-0.881373" x2="20.1935" y2="-0.881373" transform="matrix(-0.65945 -0.751749 0.717315 -0.696749 68 68.0071)" stroke="#666666" stroke-width="1.76275" stroke-linecap="round" stroke-linejoin="round"/>
<path d="M16.1861 54.5266V53.6452H14.4233V54.5266H16.1861ZM14.4233 56.9634C14.4233 57.4501 14.8179 57.8447 15.3047 57.8447C15.7915 57.8447 16.1861 57.4501 16.1861 56.9634H14.4233ZM14.4233 54.5266V56.9634H16.1861V54.5266H14.4233Z" fill="#666666"/>
<path d="M23.69 53.9187V53.0373H21.9272V53.9187H23.69ZM21.9272 56.3555C21.9272 56.8422 22.3218 57.2368 22.8086 57.2368C23.2954 57.2368 23.69 56.8422 23.69 56.3555H21.9272ZM21.9272 53.9187V56.3555H23.69V53.9187H21.9272Z" fill="#666666"/>
<path d="M19.6587 53.9187V53.0373H17.896V53.9187H19.6587ZM17.896 58.7935C17.896 59.2802 18.2906 59.6748 18.7773 59.6748C19.2641 59.6748 19.6587 59.2802 19.6587 58.7935H17.896ZM17.896 53.9187V58.7935H19.6587V53.9187H17.896Z" fill="#666666"/>
<path d="M27.1861 53.9187V53.0373H25.4233V53.9187H27.1861ZM25.4233 58.7935C25.4233 59.2802 25.8179 59.6748 26.3047 59.6748C26.7915 59.6748 27.1861 59.2802 27.1861 58.7935H25.4233ZM25.4233 53.9187V58.7935H27.1861V53.9187H25.4233Z" fill="#666666"/>
<path d="M30.6626 54.5266V53.6452H28.8999V54.5266H30.6626ZM28.8999 56.9634C28.8999 57.4501 29.2945 57.8447 29.7812 57.8447C30.268 57.8447 30.6626 57.4501 30.6626 56.9634H28.8999ZM28.8999 54.5266V56.9634H30.6626V54.5266H28.8999Z" fill="#666666"/>
<path d="M37.0298 54.5266V53.6452H35.2671V54.5266H37.0298ZM35.2671 56.9634C35.2671 57.4501 35.6617 57.8447 36.1484 57.8447C36.6352 57.8447 37.0298 57.4501 37.0298 56.9634H35.2671ZM35.2671 54.5266V56.9634H37.0298V54.5266H35.2671Z" fill="#666666"/>
<path d="M34.1392 53.9187V53.0373H32.3764V53.9187H34.1392ZM32.3764 58.7935C32.3764 59.2802 32.771 59.6748 33.2578 59.6748C33.7446 59.6748 34.1392 59.2802 34.1392 58.7935H32.3764ZM32.3764 53.9187V58.7935H34.1392V53.9187H32.3764Z" fill="#666666"/>
<path d="M40.5025 53.9187V53.0373H38.7397V53.9187H40.5025ZM38.7397 58.7935C38.7397 59.2802 39.1343 59.6748 39.6211 59.6748C40.1079 59.6748 40.5025 59.2802 40.5025 58.7935H38.7397ZM38.7397 53.9187V58.7935H40.5025V53.9187H38.7397Z" fill="#666666"/>
<path d="M43.397 54.5266V53.6452H41.6343V54.5266H43.397ZM41.6343 56.9634C41.6343 57.4501 42.0289 57.8447 42.5156 57.8447C43.0024 57.8447 43.397 57.4501 43.397 56.9634H41.6343ZM41.6343 54.5266V56.9634H43.397V54.5266H41.6343Z" fill="#666666"/>
<path d="M49.772 54.5266V53.6452H48.0093V54.5266H49.772ZM48.0093 56.9634C48.0093 57.4501 48.4039 57.8447 48.8906 57.8447C49.3774 57.8447 49.772 57.4501 49.772 56.9634H48.0093ZM48.0093 54.5266V56.9634H49.772V54.5266H48.0093Z" fill="#666666"/>
<path d="M46.8775 53.9187V53.0373H45.1147V53.9187H46.8775ZM45.1147 58.7935C45.1147 59.2802 45.5093 59.6748 45.9961 59.6748C46.4829 59.6748 46.8775 59.2802 46.8775 58.7935H45.1147ZM45.1147 53.9187V58.7935H46.8775V53.9187H45.1147Z" fill="#666666"/>
<rect x="54.1016" y="26.5752" width="13.8978" height="26.8113" stroke="#666666" stroke-width="1.76275" stroke-linejoin="round"/>
<line x1="59.6118" y1="26.5752" x2="59.6118" y2="53.3865" stroke="#666666" stroke-width="1.76275" stroke-linejoin="round"/>
<line x1="64.2486" y1="27.4566" x2="64.2486" y2="52.5051" stroke="#666666" stroke-width="1.76275" stroke-linecap="round" stroke-linejoin="round"/>
<path d="M49.8053 21.7884V48.2284L4.90638 48.4212V21.473M53.2206 21.7804L27.3466 1.0061L1 21.2981L4.89701 21.2322M49.8102 21.7757H52.9463M6.04417 27.5591H48.8474M33.417 47.5672V31.8062H21.0956V47.5672M30.9577 40.2043C30.9577 40.7846 30.4061 41.2551 29.7256 41.2551C29.0451 41.2551 28.4934 40.7846 28.4934 40.2043C28.4934 39.624 29.0451 39.1536 29.7256 39.1536C30.4061 39.1536 30.9577 39.624 30.9577 40.2043Z" stroke="#666666" stroke-width="1.76" stroke-linecap="round" stroke-linejoin="round"/>
</svg>
