<svg width="77" height="77" viewBox="0 0 77 77" fill="none" xmlns="http://www.w3.org/2000/svg">
<g filter="url(#filter0_d_150_10412)">
<rect x="5" y="1.00684" width="67" height="67" stroke="#BB8E34" stroke-width="1.76" stroke-linejoin="round"/>
<path d="M9.85547 10.8618C9.85547 8.10039 12.094 5.86182 14.8555 5.86182H62.1453C64.9067 5.86182 67.1453 8.10039 67.1453 10.8618V44.7024H9.85547V10.8618Z" stroke="#BB8E34" stroke-width="1.76" stroke-linejoin="round"/>
<path fill-rule="evenodd" clip-rule="evenodd" d="M26.3589 52.8397C25.3758 52.8689 24.1659 53.1639 23.1688 53.9445C22.104 54.7781 21.1664 56.2566 21.1034 58.8769C23.6884 58.4545 25.0235 57.3232 25.7028 56.1544C26.3398 55.0584 26.4656 53.818 26.3589 52.8397ZM19.3578 59.876C19.1804 56.2261 20.3648 53.9045 22.0839 52.5586C23.7613 51.2455 25.809 50.9717 27.1913 51.1099C27.592 51.15 27.903 51.453 27.9702 51.8308C28.2851 53.1817 28.2819 55.2196 27.2245 57.0388C26.1237 58.9328 23.976 60.4282 20.3141 60.7468C19.8299 60.7889 19.4032 60.4306 19.3611 59.9464C19.3591 59.9228 19.358 59.8993 19.3578 59.876Z" fill="#BB8E34"/>
<path fill-rule="evenodd" clip-rule="evenodd" d="M39.4321 49.9606C39.1158 49.7172 38.6753 49.7172 38.359 49.9606L33.6833 53.5572C33.2981 53.8535 33.2261 54.406 33.5224 54.7913C33.8187 55.1765 34.3712 55.2486 34.7564 54.9522L38.8955 51.7683L43.0346 54.9522C43.4198 55.2486 43.9723 55.1765 44.2687 54.7913C44.565 54.406 44.4929 53.8535 44.1077 53.5572L39.4321 49.9606ZM36.5374 55.6932C36.5374 55.2072 36.1434 54.8132 35.6574 54.8132C35.1714 54.8132 34.7774 55.2072 34.7774 55.6932V60.0092C34.7774 60.4952 35.1714 60.8892 35.6574 60.8892H42.1313C42.6174 60.8892 43.0113 60.4952 43.0113 60.0092V55.6932C43.0113 55.2072 42.6174 54.8132 42.1313 54.8132C41.6453 54.8132 41.2513 55.2072 41.2513 55.6932V59.1292H36.5374V55.6932Z" fill="#BB8E34"/>
<path fill-rule="evenodd" clip-rule="evenodd" d="M51.943 53.8566C51.943 52.576 52.913 51.6167 54.0151 51.6167C55.1001 51.6167 56.0572 52.5465 56.0865 53.7974C56.0852 53.8163 56.0845 53.8354 56.0845 53.8546C56.0845 54.1236 56.2164 54.3617 56.419 54.5079C56.5518 54.6046 56.7154 54.6617 56.8923 54.6617C56.9079 54.6617 56.9234 54.6612 56.9387 54.6603C58.0203 54.6884 58.9617 55.638 58.9617 56.8996C58.9617 58.1802 57.9916 59.1394 56.8896 59.1394C56.8706 59.1394 56.8518 59.1401 56.8331 59.1414H51.1606C51.1523 59.1411 51.1438 59.141 51.1354 59.141C50.0334 59.141 49.0633 58.1817 49.0633 56.9011C49.0633 55.628 50.022 54.6726 51.116 54.6614L51.1379 54.6617C51.5825 54.6617 51.943 54.3012 51.943 53.8566ZM51.1099 60.751C49.0462 60.7366 47.4531 58.9753 47.4531 56.9011C47.4531 55.0722 48.6918 53.4865 50.3994 53.1272C50.7227 51.3774 52.1867 50.0066 54.0151 50.0066C55.8433 50.0066 57.3072 51.3772 57.6306 53.1267C59.3357 53.4881 60.5719 55.0725 60.5719 56.8996C60.5719 58.9596 59.0004 60.7111 56.9572 60.7489C56.9358 60.7506 56.9141 60.7515 56.8923 60.7515H51.1379C51.1285 60.7515 51.1192 60.7513 51.1099 60.751Z" fill="#BB8E34"/>
<path d="M19.5625 14.6023H29.7582V24.7979H19.5625" stroke="#BB8E34" stroke-width="1.76" stroke-linecap="round" stroke-linejoin="round"/>
<path d="M19.5622 24.7979V34.9935H29.7578" stroke="#BB8E34" stroke-width="1.76" stroke-linecap="round" stroke-linejoin="round"/>
<path d="M34.6133 14.6023H44.8089V24.7979H34.6133" stroke="#BB8E34" stroke-width="1.76" stroke-linecap="round" stroke-linejoin="round"/>
<path d="M34.6129 24.7979V34.9935H44.8086" stroke="#BB8E34" stroke-width="1.76" stroke-linecap="round" stroke-linejoin="round"/>
<circle cx="56.4616" cy="25.2833" r="1.94203" stroke="#BB8E34" stroke-width="1.76" stroke-linejoin="round"/>
<circle cx="56.4626" cy="20.4284" r="0.971014" transform="rotate(-180 56.4626 20.4284)" fill="#BB8E34"/>
<circle cx="56.4626" cy="34.0226" r="0.971014" transform="rotate(-180 56.4626 34.0226)" fill="#BB8E34"/>
<circle cx="56.4626" cy="16.5444" r="0.971014" transform="rotate(-180 56.4626 16.5444)" fill="#BB8E34"/>
<circle cx="56.4626" cy="30.1384" r="0.971014" transform="rotate(-180 56.4626 30.1384)" fill="#BB8E34"/>
</g>
<defs>
<filter id="filter0_d_150_10412" x="0.120117" y="0.126953" width="76.7598" height="76.7598" filterUnits="userSpaceOnUse" color-interpolation-filters="sRGB">
<feFlood flood-opacity="0" result="BackgroundImageFix"/>
<feColorMatrix in="SourceAlpha" type="matrix" values="0 0 0 0 0 0 0 0 0 0 0 0 0 0 0 0 0 0 127 0" result="hardAlpha"/>
<feOffset dy="4"/>
<feGaussianBlur stdDeviation="2"/>
<feComposite in2="hardAlpha" operator="out"/>
<feColorMatrix type="matrix" values="0 0 0 0 0.4 0 0 0 0 0.4 0 0 0 0 0.4 0 0 0 0.25 0"/>
<feBlend mode="normal" in2="BackgroundImageFix" result="effect1_dropShadow_150_10412"/>
<feBlend mode="normal" in="SourceGraphic" in2="effect1_dropShadow_150_10412" result="shape"/>
</filter>
</defs>
</svg>
