<svg width="77" height="77" viewBox="0 0 77 77" fill="none" xmlns="http://www.w3.org/2000/svg">
<g filter="url(#filter0_d_150_9189)">
<rect x="5.98438" y="53.3831" width="66.0147" height="14.6243" stroke="#BB8E34" stroke-width="1.76275" stroke-linejoin="round"/>
<path d="M15.5227 60.0858C15.5227 61.3246 14.5792 62.2512 13.5087 62.2512C12.4381 62.2512 11.4947 61.3246 11.4947 60.0858C11.4947 58.847 12.4381 57.9204 13.5087 57.9204C14.5792 57.9204 15.5227 58.847 15.5227 60.0858Z" stroke="#BB8E34" stroke-width="1.76275"/>
<line x1="0.881373" y1="-0.881373" x2="20.1935" y2="-0.881373" transform="matrix(-0.65945 -0.751749 0.717315 -0.696749 72 68.0071)" stroke="#BB8E34" stroke-width="1.76275" stroke-linecap="round" stroke-linejoin="round"/>
<path d="M20.1861 54.5266V53.6452H18.4233V54.5266H20.1861ZM18.4233 56.9634C18.4233 57.4501 18.8179 57.8447 19.3047 57.8447C19.7915 57.8447 20.1861 57.4501 20.1861 56.9634H18.4233ZM18.4233 54.5266V56.9634H20.1861V54.5266H18.4233Z" fill="#BB8E34"/>
<path d="M27.69 53.9187V53.0373H25.9272V53.9187H27.69ZM25.9272 56.3555C25.9272 56.8422 26.3218 57.2368 26.8086 57.2368C27.2954 57.2368 27.69 56.8422 27.69 56.3555H25.9272ZM25.9272 53.9187V56.3555H27.69V53.9187H25.9272Z" fill="#BB8E34"/>
<path d="M23.6587 53.9187V53.0373H21.896V53.9187H23.6587ZM21.896 58.7935C21.896 59.2802 22.2906 59.6748 22.7773 59.6748C23.2641 59.6748 23.6587 59.2802 23.6587 58.7935H21.896ZM21.896 53.9187V58.7935H23.6587V53.9187H21.896Z" fill="#BB8E34"/>
<path d="M31.1861 53.9187V53.0373H29.4233V53.9187H31.1861ZM29.4233 58.7935C29.4233 59.2802 29.8179 59.6748 30.3047 59.6748C30.7915 59.6748 31.1861 59.2802 31.1861 58.7935H29.4233ZM29.4233 53.9187V58.7935H31.1861V53.9187H29.4233Z" fill="#BB8E34"/>
<path d="M34.6626 54.5266V53.6452H32.8999V54.5266H34.6626ZM32.8999 56.9634C32.8999 57.4501 33.2945 57.8447 33.7812 57.8447C34.268 57.8447 34.6626 57.4501 34.6626 56.9634H32.8999ZM32.8999 54.5266V56.9634H34.6626V54.5266H32.8999Z" fill="#BB8E34"/>
<path d="M41.0298 54.5266V53.6452H39.2671V54.5266H41.0298ZM39.2671 56.9634C39.2671 57.4501 39.6617 57.8447 40.1484 57.8447C40.6352 57.8447 41.0298 57.4501 41.0298 56.9634H39.2671ZM39.2671 54.5266V56.9634H41.0298V54.5266H39.2671Z" fill="#BB8E34"/>
<path d="M38.1392 53.9187V53.0373H36.3764V53.9187H38.1392ZM36.3764 58.7935C36.3764 59.2802 36.771 59.6748 37.2578 59.6748C37.7446 59.6748 38.1392 59.2802 38.1392 58.7935H36.3764ZM36.3764 53.9187V58.7935H38.1392V53.9187H36.3764Z" fill="#BB8E34"/>
<path d="M44.5025 53.9187V53.0373H42.7397V53.9187H44.5025ZM42.7397 58.7935C42.7397 59.2802 43.1343 59.6748 43.6211 59.6748C44.1079 59.6748 44.5025 59.2802 44.5025 58.7935H42.7397ZM42.7397 53.9187V58.7935H44.5025V53.9187H42.7397Z" fill="#BB8E34"/>
<path d="M47.397 54.5266V53.6452H45.6343V54.5266H47.397ZM45.6343 56.9634C45.6343 57.4501 46.0289 57.8447 46.5156 57.8447C47.0024 57.8447 47.397 57.4501 47.397 56.9634H45.6343ZM45.6343 54.5266V56.9634H47.397V54.5266H45.6343Z" fill="#BB8E34"/>
<path d="M53.772 54.5266V53.6452H52.0093V54.5266H53.772ZM52.0093 56.9634C52.0093 57.4501 52.4039 57.8447 52.8906 57.8447C53.3774 57.8447 53.772 57.4501 53.772 56.9634H52.0093ZM52.0093 54.5266V56.9634H53.772V54.5266H52.0093Z" fill="#BB8E34"/>
<path d="M50.8775 53.9187V53.0373H49.1147V53.9187H50.8775ZM49.1147 58.7935C49.1147 59.2802 49.5093 59.6748 49.9961 59.6748C50.4829 59.6748 50.8775 59.2802 50.8775 58.7935H49.1147ZM49.1147 53.9187V58.7935H50.8775V53.9187H49.1147Z" fill="#BB8E34"/>
<rect x="58.1016" y="26.5752" width="13.8978" height="26.8113" stroke="#BB8E34" stroke-width="1.76275" stroke-linejoin="round"/>
<line x1="63.6118" y1="26.5752" x2="63.6118" y2="53.3865" stroke="#BB8E34" stroke-width="1.76275" stroke-linejoin="round"/>
<line x1="68.2486" y1="27.4566" x2="68.2486" y2="52.5051" stroke="#BB8E34" stroke-width="1.76275" stroke-linecap="round" stroke-linejoin="round"/>
<path d="M53.8053 21.7884V48.2284L8.90638 48.4212V21.473M57.2206 21.7804L31.3466 1.0061L5 21.2981L8.89701 21.2322M53.8102 21.7757H56.9463M10.0442 27.5591H52.8474M37.417 47.5672V31.8062H25.0956V47.5672M34.9577 40.2043C34.9577 40.7846 34.4061 41.2551 33.7256 41.2551C33.0451 41.2551 32.4934 40.7846 32.4934 40.2043C32.4934 39.624 33.0451 39.1536 33.7256 39.1536C34.4061 39.1536 34.9577 39.624 34.9577 40.2043Z" stroke="#BB8E34" stroke-width="1.76" stroke-linecap="round" stroke-linejoin="round"/>
</g>
<defs>
<filter id="filter0_d_150_9189" x="0.120117" y="0.126221" width="76.7607" height="76.7625" filterUnits="userSpaceOnUse" color-interpolation-filters="sRGB">
<feFlood flood-opacity="0" result="BackgroundImageFix"/>
<feColorMatrix in="SourceAlpha" type="matrix" values="0 0 0 0 0 0 0 0 0 0 0 0 0 0 0 0 0 0 127 0" result="hardAlpha"/>
<feOffset dy="4"/>
<feGaussianBlur stdDeviation="2"/>
<feComposite in2="hardAlpha" operator="out"/>
<feColorMatrix type="matrix" values="0 0 0 0 0.4 0 0 0 0 0.4 0 0 0 0 0.4 0 0 0 0.25 0"/>
<feBlend mode="normal" in2="BackgroundImageFix" result="effect1_dropShadow_150_9189"/>
<feBlend mode="normal" in="SourceGraphic" in2="effect1_dropShadow_150_9189" result="shape"/>
</filter>
</defs>
</svg>
