<svg width="49" height="49" viewBox="0 0 49 49" fill="none" xmlns="http://www.w3.org/2000/svg">
<path d="M22.2645 38.8594V26.8594L18.2645 24.8594V18.8594H30.2645V24.8594L26.2645 26.8594V38.8594L36.2645 40.8594V44.8594H12.2645V40.8594L22.2645 38.8594ZM20.2645 5.30538V2.85938H28.2645V5.30538C31.6953 6.08872 34.8213 7.86023 37.2563 10.4009C39.6912 12.9416 41.3282 16.1402 41.9651 19.6011C42.6019 23.0621 42.2106 26.6339 40.8395 29.8749C39.4685 33.1159 37.1777 35.8841 34.2505 37.8374L32.0305 34.5094C34.5303 32.8425 36.4275 30.4155 37.4418 27.5873C38.456 24.759 38.5334 21.6795 37.6626 18.8038C36.7917 15.9282 35.0188 13.409 32.6059 11.6185C30.193 9.82811 27.2681 8.86147 24.2635 8.86147C21.2589 8.86147 18.334 9.82811 15.921 11.6185C13.5081 13.409 11.7352 15.9282 10.8644 18.8038C9.99357 21.6795 10.071 24.759 11.0852 27.5873C12.0994 30.4155 13.9967 32.8425 16.4965 34.5094L14.2785 37.8374C11.3512 35.8841 9.0605 33.1159 7.68943 29.8749C6.31836 26.6339 5.92707 23.0621 6.5639 19.6011C7.20073 16.1402 8.83779 12.9416 11.2727 10.4009C13.7076 7.86023 16.8337 6.08872 20.2645 5.30538V5.30538Z" fill="#219653"/>
</svg>
