<svg width="20" height="21" viewBox="0 0 20 21" fill="none" xmlns="http://www.w3.org/2000/svg">
<path d="M10 0.282959C12.717 0.282959 13.056 0.292959 14.122 0.342959C15.187 0.392959 15.912 0.559959 16.55 0.807959C17.21 1.06196 17.766 1.40596 18.322 1.96096C18.8305 2.46086 19.224 3.06555 19.475 3.73296C19.722 4.36996 19.89 5.09596 19.94 6.16096C19.987 7.22696 20 7.56596 20 10.283C20 13 19.99 13.339 19.94 14.405C19.89 15.47 19.722 16.195 19.475 16.833C19.2247 17.5008 18.8311 18.1056 18.322 18.605C17.822 19.1133 17.2173 19.5068 16.55 19.758C15.913 20.005 15.187 20.173 14.122 20.223C13.056 20.27 12.717 20.283 10 20.283C7.283 20.283 6.944 20.273 5.878 20.223C4.813 20.173 4.088 20.005 3.45 19.758C2.78233 19.5075 2.17753 19.1139 1.678 18.605C1.16941 18.1052 0.77593 17.5005 0.525 16.833C0.277 16.196 0.11 15.47 0.0599999 14.405C0.0129999 13.339 0 13 0 10.283C0 7.56596 0.00999994 7.22696 0.0599999 6.16096C0.11 5.09496 0.277 4.37096 0.525 3.73296C0.77524 3.06514 1.1688 2.46028 1.678 1.96096C2.17767 1.45219 2.78243 1.05869 3.45 0.807959C4.088 0.559959 4.812 0.392959 5.878 0.342959C6.944 0.295959 7.283 0.282959 10 0.282959ZM10 5.28296C8.6739 5.28296 7.40215 5.80974 6.46447 6.74743C5.52678 7.68511 5 8.95686 5 10.283C5 11.6091 5.52678 12.8809 6.46447 13.8185C7.40215 14.7562 8.6739 15.283 10 15.283C11.3261 15.283 12.5979 14.7562 13.5355 13.8185C14.4732 12.8809 15 11.6091 15 10.283C15 8.95686 14.4732 7.68511 13.5355 6.74743C12.5979 5.80974 11.3261 5.28296 10 5.28296ZM16.5 5.03296C16.5 4.70144 16.3683 4.3835 16.1339 4.14908C15.8995 3.91466 15.5815 3.78296 15.25 3.78296C14.9185 3.78296 14.6005 3.91466 14.3661 4.14908C14.1317 4.3835 14 4.70144 14 5.03296C14 5.36448 14.1317 5.68242 14.3661 5.91684C14.6005 6.15126 14.9185 6.28296 15.25 6.28296C15.5815 6.28296 15.8995 6.15126 16.1339 5.91684C16.3683 5.68242 16.5 5.36448 16.5 5.03296ZM10 7.28296C10.7956 7.28296 11.5587 7.59903 12.1213 8.16164C12.6839 8.72426 13 9.48736 13 10.283C13 11.0786 12.6839 11.8417 12.1213 12.4043C11.5587 12.9669 10.7956 13.283 10 13.283C9.2044 13.283 8.4413 12.9669 7.87868 12.4043C7.31607 11.8417 7 11.0786 7 10.283C7 9.48736 7.31607 8.72426 7.87868 8.16164C8.4413 7.59903 9.2044 7.28296 10 7.28296Z" fill="#219653"/>
</svg>
