<svg width="7" height="104" viewBox="0 0 7 104" fill="none" xmlns="http://www.w3.org/2000/svg">
<path d="M3.5 0.105924L0.613249 2.99268L3.5 5.87943L6.38675 2.99268L3.5 0.105924ZM3.5 103.879L6.38676 100.993L3.5 98.1059L0.613253 100.993L3.5 103.879ZM3 2.99268L3 5.03434L4 5.03434L4 2.99268L3 2.99268ZM3 9.11768L3 13.201L4 13.201L4 9.11768L3 9.11768ZM3 17.2843L3 21.3677L4 21.3677L4 17.2843L3 17.2843ZM3 25.451L3 29.5343L4 29.5343L4 25.451L3 25.451ZM3 33.6177L3 37.701L4 37.701L4 33.6177L3 33.6177ZM3 41.7843L3 45.8677L4 45.8677L4 41.7843L3 41.7843ZM3 49.951L3 54.0343L4 54.0343L4 49.951L3 49.951ZM3 58.1177L3 62.201L4 62.201L4 58.1177L3 58.1177ZM3 66.2843L3 70.3677L4 70.3677L4 66.2843L3 66.2843ZM3 74.451L3 78.5343L4 78.5343L4 74.451L3 74.451ZM3 82.6177L3 86.701L4 86.701L4 82.6177L3 82.6177ZM3 90.7843L3 94.8677L4 94.8677L4 90.7843L3 90.7843ZM3 98.951L3 100.993L4 100.993L4 98.951L3 98.951Z" fill="url(#paint0_linear_240_1022)"/>
<defs>
<linearGradient id="paint0_linear_240_1022" x1="3.99974" y1="2.99268" x2="3.9998" y2="100.993" gradientUnits="userSpaceOnUse">
<stop stop-color="white"/>
<stop offset="1" stop-color="#040605"/>
</linearGradient>
</defs>
</svg>
