<svg width="21" height="19" viewBox="0 0 21 19" fill="none" xmlns="http://www.w3.org/2000/svg">
<path d="M1.10449 0.818359H19.1045C19.3697 0.818359 19.6241 0.923716 19.8116 1.11125C19.9991 1.29879 20.1045 1.55314 20.1045 1.81836V17.8184C20.1045 18.0836 19.9991 18.3379 19.8116 18.5255C19.6241 18.713 19.3697 18.8184 19.1045 18.8184H1.10449C0.839276 18.8184 0.584922 18.713 0.397385 18.5255C0.209849 18.3379 0.104492 18.0836 0.104492 17.8184V1.81836C0.104492 1.55314 0.209849 1.29879 0.397385 1.11125C0.584922 0.923716 0.839276 0.818359 1.10449 0.818359ZM10.1645 9.50136L3.75249 4.05636L2.45749 5.58036L10.1775 12.1354L17.7585 5.57536L16.4505 4.06236L10.1655 9.50136H10.1645Z" fill="#219653"/>
</svg>
