<svg width="49" height="49" viewBox="0 0 49 49" fill="none" xmlns="http://www.w3.org/2000/svg">
<path d="M8.09887 38.3634L5.39887 37.2734C4.90716 37.0744 4.51462 36.6883 4.30758 36.2C4.10054 35.7117 4.09597 35.1611 4.29487 34.6694L8.09887 25.2534V38.3634ZM17.8189 42.5194H14.0989C13.5684 42.5194 13.0597 42.3086 12.6847 41.9336C12.3096 41.5585 12.0989 41.0498 12.0989 40.5194V28.3634L17.8189 42.5194ZM12.1429 12.4554L30.6869 4.96336C31.1783 4.76509 31.7284 4.76999 32.2163 4.97698C32.7042 5.18398 33.0899 5.57615 33.2889 6.06736L44.5289 33.8834C44.6273 34.127 44.6768 34.3876 44.6744 34.6503C44.6721 34.913 44.6181 35.1727 44.5154 35.4145C44.4127 35.6563 44.2633 35.8755 44.0759 36.0596C43.8884 36.2437 43.6665 36.3891 43.4229 36.4874L24.8789 43.9794C24.6353 44.0778 24.3747 44.1273 24.112 44.1249C23.8492 44.1226 23.5895 44.0686 23.3477 43.9659C23.1059 43.8631 22.8867 43.7138 22.7026 43.5263C22.5185 43.3389 22.3732 43.117 22.2749 42.8734L11.0389 15.0594C10.8407 14.5676 10.8459 14.0173 11.0533 13.5294C11.2607 13.0415 11.6533 12.6559 12.1449 12.4574L12.1429 12.4554ZM18.0989 18.5194C18.6293 18.5194 19.138 18.3086 19.5131 17.9336C19.8882 17.5585 20.0989 17.0498 20.0989 16.5194C20.0989 15.9889 19.8882 15.4802 19.5131 15.1051C19.138 14.7301 18.6293 14.5194 18.0989 14.5194C17.5684 14.5194 17.0597 14.7301 16.6847 15.1051C16.3096 15.4802 16.0989 15.9889 16.0989 16.5194C16.0989 17.0498 16.3096 17.5585 16.6847 17.9336C17.0597 18.3086 17.5684 18.5194 18.0989 18.5194V18.5194Z" fill="#219653"/>
</svg>
