<svg width="18" height="19" viewBox="0 0 18 19" fill="none" xmlns="http://www.w3.org/2000/svg">
<path d="M18 13.703V17.239C18.0001 17.4921 17.9042 17.7359 17.7316 17.9212C17.559 18.1064 17.3226 18.2192 17.07 18.237C16.633 18.267 16.276 18.283 16 18.283C7.163 18.283 0 11.12 0 2.28296C0 2.00696 0.015 1.64996 0.046 1.21296C0.0637224 0.960403 0.176581 0.72397 0.361804 0.551368C0.547026 0.378766 0.790823 0.282845 1.044 0.282959H4.58C4.70404 0.282834 4.8237 0.328818 4.91573 0.411979C5.00776 0.495141 5.0656 0.609542 5.078 0.732959C5.101 0.962959 5.122 1.14596 5.142 1.28496C5.34073 2.67188 5.748 4.02079 6.35 5.28596C6.445 5.48596 6.383 5.72496 6.203 5.85296L4.045 7.39496C5.36445 10.4694 7.81455 12.9195 10.889 14.239L12.429 12.085C12.4919 11.997 12.5838 11.9338 12.6885 11.9066C12.7932 11.8794 12.9042 11.8898 13.002 11.936C14.267 12.5368 15.6156 12.9431 17.002 13.141C17.141 13.161 17.324 13.183 17.552 13.205C17.6752 13.2176 17.7894 13.2755 17.8724 13.3675C17.9553 13.4595 18.0012 13.5791 18.001 13.703H18Z" fill="#219653"/>
</svg>
