<svg width="49" height="49" viewBox="0 0 49 49" fill="none" xmlns="http://www.w3.org/2000/svg">
<path d="M18.1364 8.5193L23.3504 3.3053C23.7255 2.93036 24.2341 2.71973 24.7644 2.71973C25.2947 2.71973 25.8034 2.93036 26.1784 3.3053L31.3924 8.5193H38.7644C39.2949 8.5193 39.8036 8.73001 40.1786 9.10509C40.5537 9.48016 40.7644 9.98887 40.7644 10.5193V17.8913L45.9784 23.1053C46.3534 23.4804 46.564 23.989 46.564 24.5193C46.564 25.0496 46.3534 25.5582 45.9784 25.9333L40.7644 31.1473V38.5193C40.7644 39.0497 40.5537 39.5584 40.1786 39.9335C39.8036 40.3086 39.2949 40.5193 38.7644 40.5193H31.3924L26.1784 45.7333C25.8034 46.1082 25.2947 46.3189 24.7644 46.3189C24.2341 46.3189 23.7255 46.1082 23.3504 45.7333L18.1364 40.5193H10.7644C10.234 40.5193 9.72528 40.3086 9.3502 39.9335C8.97513 39.5584 8.76442 39.0497 8.76442 38.5193V31.1473L3.55042 25.9333C3.17547 25.5582 2.96484 25.0496 2.96484 24.5193C2.96484 23.989 3.17547 23.4804 3.55042 23.1053L8.76442 17.8913V10.5193C8.76442 9.98887 8.97513 9.48016 9.3502 9.10509C9.72528 8.73001 10.234 8.5193 10.7644 8.5193H18.1364ZM24.7644 30.5193C26.3557 30.5193 27.8818 29.8872 29.0071 28.7619C30.1323 27.6367 30.7644 26.1106 30.7644 24.5193C30.7644 22.928 30.1323 21.4019 29.0071 20.2767C27.8818 19.1514 26.3557 18.5193 24.7644 18.5193C23.1731 18.5193 21.647 19.1514 20.5218 20.2767C19.3966 21.4019 18.7644 22.928 18.7644 24.5193C18.7644 26.1106 19.3966 27.6367 20.5218 28.7619C21.647 29.8872 23.1731 30.5193 24.7644 30.5193V30.5193Z" fill="#219653"/>
</svg>
