<svg width="24" height="25" viewBox="0 0 24 25" fill="none" xmlns="http://www.w3.org/2000/svg">
<path d="M7 4.28296V11.283L12 8.78296L17 11.283V4.28296H20C20.2652 4.28296 20.5196 4.38832 20.7071 4.57585C20.8946 4.76339 21 5.01774 21 5.28296V21.283C21 21.5482 20.8946 21.8025 20.7071 21.9901C20.5196 22.1776 20.2652 22.283 20 22.283H4C3.73478 22.283 3.48043 22.1776 3.29289 21.9901C3.10536 21.8025 3 21.5482 3 21.283V5.28296C3 5.01774 3.10536 4.76339 3.29289 4.57585C3.48043 4.38832 3.73478 4.28296 4 4.28296H7ZM12 8.28296L7.5 3.28296H16.5L12 8.28296ZM13 11.519L12 11.019L11 11.519V20.283H13V11.519ZM15 14.283V16.283H19V14.283H15Z" fill="#219653"/>
</svg>
