<svg width="18" height="18" viewBox="0 0 18 18" fill="none" xmlns="http://www.w3.org/2000/svg">
<path d="M9 16.5C4.85775 16.5 1.5 13.1422 1.5 9C1.5 4.85775 4.85775 1.5 9 1.5C13.1422 1.5 16.5 4.85775 16.5 9C16.5 13.1422 13.1422 16.5 9 16.5ZM9 15C10.5913 15 12.1175 14.3678 13.2427 13.2427C14.3678 12.1175 15 10.5913 15 9C15 7.4087 14.3678 5.88258 13.2427 4.75736C12.1175 3.63214 10.5913 3 9 3C7.4087 3 5.88258 3.63214 4.75736 4.75736C3.63214 5.88258 3 7.4087 3 9C3 10.5913 3.63214 12.1175 4.75736 13.2427C5.88258 14.3678 7.4087 15 9 15ZM8.25225 12L5.07 8.81775L6.1305 7.75725L8.25225 9.879L12.4943 5.63625L13.5555 6.69675L8.25225 12Z" fill="#5FD06F"/>
</svg>
