<svg width="49" height="49" viewBox="0 0 49 49" fill="none" xmlns="http://www.w3.org/2000/svg">
<path d="M18.3616 36.8594C18.1239 38.528 17.2921 40.0547 16.019 41.1593C14.7459 42.2638 13.1171 42.8719 11.4316 42.8719C9.7462 42.8719 8.11736 42.2638 6.84428 41.1593C5.57121 40.0547 4.7394 38.528 4.50164 36.8594H2.43164V12.8594C2.43164 12.3289 2.64235 11.8202 3.01743 11.4452C3.3925 11.0701 3.90121 10.8594 4.43164 10.8594H32.4316C32.9621 10.8594 33.4708 11.0701 33.8459 11.4452C34.2209 11.8202 34.4316 12.3289 34.4316 12.8594V16.8594H40.4316L46.4316 24.9714V36.8594H42.3616C42.1239 38.528 41.2921 40.0547 40.019 41.1593C38.7459 42.2638 37.1171 42.8719 35.4316 42.8719C33.7462 42.8719 32.1174 42.2638 30.8443 41.1593C29.5712 40.0547 28.7394 38.528 28.5016 36.8594H18.3616ZM30.4316 14.8594H6.43164V30.9594C7.22076 30.1538 8.19284 29.5507 9.26515 29.2016C10.3374 28.8525 11.4782 28.7676 12.5904 28.9542C13.7026 29.1407 14.7532 29.5932 15.6529 30.2732C16.5525 30.9531 17.2746 31.8404 17.7576 32.8594H29.1056C29.4416 32.1534 29.8916 31.5114 30.4316 30.9594V14.8594ZM34.4316 26.8594H42.4316V26.2894L38.4156 20.8594H34.4316V26.8594ZM35.4316 38.8594C36.2276 38.8594 36.9909 38.5432 37.5537 37.9804C38.1165 37.4176 38.4326 36.6543 38.4326 35.8584C38.4326 35.0625 38.1165 34.2991 37.5537 33.7363C36.9909 33.1736 36.2276 32.8574 35.4316 32.8574C34.6357 32.8574 33.8724 33.1736 33.3096 33.7363C32.7468 34.2991 32.4306 35.0625 32.4306 35.8584C32.4306 36.6543 32.7468 37.4176 33.3096 37.9804C33.8724 38.5432 34.6357 38.8594 35.4316 38.8594V38.8594ZM14.4316 35.8594C14.4316 35.4654 14.354 35.0753 14.2033 34.7113C14.0525 34.3473 13.8315 34.0166 13.553 33.7381C13.2744 33.4595 12.9437 33.2385 12.5797 33.0877C12.2157 32.937 11.8256 32.8594 11.4316 32.8594C11.0377 32.8594 10.6476 32.937 10.2836 33.0877C9.91961 33.2385 9.5889 33.4595 9.31032 33.7381C9.03174 34.0166 8.81077 34.3473 8.66 34.7113C8.50924 35.0753 8.43164 35.4654 8.43164 35.8594C8.43164 36.655 8.74771 37.4181 9.31032 37.9807C9.87293 38.5433 10.636 38.8594 11.4316 38.8594C12.2273 38.8594 12.9904 38.5433 13.553 37.9807C14.1156 37.4181 14.4316 36.655 14.4316 35.8594V35.8594Z" fill="#219653"/>
</svg>
