<svg width="24" height="25" viewBox="0 0 24 25" fill="none" xmlns="http://www.w3.org/2000/svg">
<path d="M12 17.283C15.662 17.283 18.865 18.858 20.607 21.208L18.765 22.079C17.347 20.399 14.847 19.283 12 19.283C9.15304 19.283 6.65304 20.399 5.23504 22.079L3.39404 21.207C5.13604 18.857 8.33804 17.283 12 17.283ZM12 2.28296C13.3261 2.28296 14.5979 2.80974 15.5356 3.74743C16.4733 4.68511 17 5.95688 17 7.28296V10.283C17 11.609 16.4733 12.8808 15.5356 13.8185C14.5979 14.7562 13.3261 15.283 12 15.283C10.674 15.283 9.40219 14.7562 8.46451 13.8185C7.52683 12.8808 7.00004 11.609 7.00004 10.283V7.28296C7.00004 5.95688 7.52683 4.68511 8.46451 3.74743C9.40219 2.80974 10.674 2.28296 12 2.28296Z" fill="#219653"/>
</svg>
