<svg width="15" height="21" viewBox="0 0 15 21" fill="none" xmlns="http://www.w3.org/2000/svg">
<path d="M7.5 21C7.66071 21 7.82143 20.9171 7.90179 20.8066C8.19643 20.4474 15 11.8539 15 7.73684C15 3.48158 11.625 0 7.5 0C3.375 0 0 3.48158 0 7.73684C0 11.8539 6.80357 20.4474 7.09821 20.8066C7.17857 20.9171 7.33929 21 7.5 21ZM7.5 1.10526C11.0357 1.10526 13.9286 4.08947 13.9286 7.73684C13.9286 10.9145 8.97321 17.6289 7.5 19.5632C5.38393 16.8 1.07143 10.6105 1.07143 7.73684C1.07143 4.08947 3.96429 1.10526 7.5 1.10526Z" fill="#1B1B1B"/>
<path d="M10.7157 7.0909C10.7157 5.2909 9.26925 3.81818 7.5014 3.81818C5.73354 3.81818 4.28711 5.2909 4.28711 7.0909C4.28711 8.8909 5.73354 10.3636 7.5014 10.3636C9.26925 10.3636 10.7157 8.8909 10.7157 7.0909ZM5.35854 7.0909C5.35854 5.8909 6.32282 4.90909 7.5014 4.90909C8.67997 4.90909 9.64425 5.8909 9.64425 7.0909C9.64425 8.2909 8.67997 9.27272 7.5014 9.27272C6.32282 9.27272 5.35854 8.2909 5.35854 7.0909Z" fill="#1B1B1B"/>
</svg>
