<?xml version="1.0" encoding="UTF-8" standalone="no"?>
<svg
   version="1.0"
   width="384pt"
   height="384pt"
   viewBox="0 0 384 384"
   preserveAspectRatio="xMidYMid meet"
   id="svg23651"
   sodipodi:docname="Logo_KeinStyle_Circle.svg"
   inkscape:version="1.1.1 (3bf5ae0d25, 2021-09-20)"
   xmlns:inkscape="http://www.inkscape.org/namespaces/inkscape"
   xmlns:sodipodi="http://sodipodi.sourceforge.net/DTD/sodipodi-0.dtd"
   xmlns="http://www.w3.org/2000/svg"
   xmlns:svg="http://www.w3.org/2000/svg">
  <defs
     id="defs23655" />
  <sodipodi:namedview
     id="namedview23653"
     pagecolor="#ffffff"
     bordercolor="#666666"
     borderopacity="1.0"
     inkscape:pageshadow="2"
     inkscape:pageopacity="0.0"
     inkscape:pagecheckerboard="0"
     inkscape:document-units="pt"
     showgrid="false"
     inkscape:zoom="0.768"
     inkscape:cx="223.30729"
     inkscape:cy="311.84896"
     inkscape:window-width="1366"
     inkscape:window-height="697"
     inkscape:window-x="1432"
     inkscape:window-y="-8"
     inkscape:window-maximized="1"
     inkscape:current-layer="layer1" />
  <g
     inkscape:groupmode="layer"
     id="layer1"
     inkscape:label="Layer 1">
    <circle
       style="fill:#ffffff;fill-opacity:1;stroke:none;stroke-width:7.5;stroke-miterlimit:4;stroke-dasharray:none;stroke-opacity:1"
       id="path24471"
       cx="193.35938"
       cy="187.5"
       r="181.64062" />
  </g>
  <g
     transform="matrix(0.1,0,0,-0.1,-2.5e-7,1000)"
     fill="#000000"
     stroke="none"
     id="g23649">
    <path
       d="M 1799.3941,9996.4738 C 1471.8916,9976.7936 1148.3254,9868.9466 870.027,9687.4958 751.14982,9609.5625 674.39145,9546.5861 563.78062,9436.3775 453.56343,9325.7752 391.36944,9249.8099 312.64288,9130.1547 c -416.85717,-636.0615 -416.85717,-1464.2011 0,-2100.2627 78.72656,-119.6551 140.92055,-195.6204 251.13774,-306.2227 84.63106,-84.2309 127.14338,-122.0168 205.86998,-181.0571 394.8137,-296.7763 898.6637,-429.8139 1390.7047,-367.6247 367.2595,46.445 702.6347,192.8652 993.923,433.3563 50.7786,42.1154 195.6355,186.9611 237.7542,237.7359 209.8063,253.8735 347.1841,540.0225 409.7718,852.1493 99.9827,498.3007 1.9681,1010.3775 -273.9685,1431.9257 -78.7265,119.6552 -140.9206,195.6205 -251.1377,306.2228 -84.6311,84.2309 -127.1435,122.0167 -205.87,181.0571 -361.7485,271.9793 -814.0327,406.5914 -1271.434,379.0392 z m 93.291,-1229.6141 V 7729.7172 H 1440.0073 987.3295 v -549.0755 c 0,-301.893 -1.1808,-549.0754 -2.3618,-549.0754 -5.1172,0 -94.07818,64.1572 -139.346,100.3686 -339.31148,270.4049 -564.46945,658.1034 -629.41887,1082.4068 -14.95805,98.7942 -18.10711,143.6649 -18.10711,265.6817 0,122.0167 3.14906,166.8874 18.10711,265.6816 65.34305,427.0587 293.25646,816.7251 637.29154,1089.098 39.7569,31.4882 127.14343,93.6774 131.47333,93.6774 1.181,0 2.3618,-257.8096 2.3618,-572.6916 v -572.6915 h 43.2996 43.2996 l 0.7873,601.0309 1.1809,601.4246 62.9812,31.8818 c 105.4937,53.1363 204.2955,91.7094 318.4491,123.9848 123.6006,34.637 286.9583,60.2211 403.08,62.1892 l 32.2779,0.3936 z m 198.7845,1028.8768 c 286.1711,-26.765 576.2785,-133.8248 812.8518,-299.5315 343.2478,-240.8847 584.9384,-588.8293 687.2829,-990.6974 9.4473,-37.7858 17.3199,-70.0612 17.3199,-72.0292 0,-1.5744 -166.5067,-3.1488 -370.0149,-3.1488 h -370.0149 v 369.9863 369.9863 h -43.2996 -43.2996 v -395.5705 -395.5705 l 418.0381,-0.7872 418.4317,-1.1808 4.7236,-25.5841 c 13.7772,-75.1781 18.8943,-149.1754 18.8943,-269.6177 0,-123.9848 -3.149,-168.4619 -18.1071,-267.6497 -88.1737,-577.8084 -471.1785,-1075.3219 -1011.2427,-1313.845 -185.401,-81.4757 -414.4953,-135.7929 -598.3219,-141.3033 l -33.4588,-1.1808 v 659.2841 659.2841 l 400.7183,1.1809 400.3245,0.7872 v -366.0503 -366.0503 h 43.2996 43.2996 v 391.6344 391.6345 h -444.805 -444.8051 v 1034.3872 c 0,569.1492 1.1808,1035.9617 2.7554,1037.5361 3.1491,3.1489 29.5225,1.5745 109.4299,-5.904 z M 1892.6851,7016.9031 v -662.0393 l -54.715,2.7552 c -177.5285,8.6592 -342.0669,42.1155 -511.3291,103.1238 -62.9812,22.829 -151.155,61.7956 -207.4444,91.7094 l -43.2997,23.2226 -1.1809,546.3202 c -0.3936,300.7123 0,549.0754 1.1809,551.8306 1.1809,3.5425 86.9929,4.7233 409.3782,4.7233 h 407.41 z"
       id="path23647"
       style="stroke-width:75;fill:#ff0000;stroke:none;stroke-opacity:1;stroke-miterlimit:4;stroke-dasharray:none;fill-opacity:1" />
  </g>
</svg>
