<svg width="21" height="22" viewBox="0 0 21 22" fill="none" xmlns="http://www.w3.org/2000/svg">
<path d="M8.87156 1.01523C9.32764 0.631986 9.90428 0.421875 10.5 0.421875C11.0957 0.421875 11.6724 0.631986 12.1284 1.01523L19.7222 7.40074C20.0049 7.63826 20.2321 7.93475 20.3881 8.2694C20.544 8.60405 20.6249 8.96878 20.625 9.33799V19.9439C20.625 20.3915 20.4472 20.8207 20.1307 21.1372C19.8143 21.4536 19.3851 21.6314 18.9375 21.6314H14.2969C13.8493 21.6314 13.4201 21.4536 13.1036 21.1372C12.7872 20.8207 12.6094 20.3915 12.6094 19.9439V14.0377H8.39062V19.9439C8.39062 20.3915 8.21283 20.8207 7.89637 21.1372C7.5799 21.4536 7.15068 21.6314 6.70312 21.6314H2.0625C1.61495 21.6314 1.18572 21.4536 0.869257 21.1372C0.55279 20.8207 0.375 20.3915 0.375 19.9439V9.33714C0.375093 8.96793 0.455954 8.60321 0.611912 8.26856C0.767871 7.9339 0.99515 7.63742 1.27781 7.39989L8.87156 1.01439V1.01523Z" fill="white"/>
</svg>
