<svg width="19" height="19" viewBox="0 0 19 19" fill="none" xmlns="http://www.w3.org/2000/svg">
    <path
        d="M18.9994 14.2252V17.0854C19.0005 17.3509 18.946 17.6138 18.8394 17.8571C18.7328 18.1004 18.5765 18.3188 18.3804 18.4983C18.1844 18.6778 17.9529 18.8144 17.7009 18.8995C17.4489 18.9846 17.1818 19.0162 16.9168 18.9923C13.9772 18.6735 11.1534 17.671 8.67246 16.0653C6.36425 14.6014 4.4073 12.6484 2.94057 10.3447C1.32607 7.85744 0.321329 5.02558 0.00775401 2.07855C-0.0161188 1.8149 0.015277 1.54917 0.0999423 1.2983C0.184607 1.04742 0.320687 0.816879 0.499518 0.621362C0.678348 0.425846 0.89601 0.269634 1.13865 0.162672C1.38128 0.0557099 1.64358 0.000341737 1.90883 9.24365e-05H4.77478C5.2384 -0.00446153 5.68786 0.159389 6.03938 0.461103C6.39091 0.762817 6.62052 1.18181 6.6854 1.63998C6.80637 2.55533 7.0307 3.45408 7.35413 4.31909C7.48266 4.66035 7.51047 5.03122 7.43428 5.38777C7.35809 5.74431 7.18108 6.07159 6.92423 6.33082L5.71098 7.54166C7.07093 9.9286 9.0512 11.9049 11.4429 13.2622L12.6561 12.0513C12.9159 11.795 13.2438 11.6184 13.601 11.5423C13.9583 11.4663 14.3299 11.494 14.6718 11.6223C15.5386 11.9451 16.4391 12.169 17.3563 12.2897C17.8203 12.355 18.2441 12.5883 18.5471 12.9452C18.8501 13.302 19.011 13.7576 18.9994 14.2252Z"
        fill="none" />
</svg>