<svg width="19" height="21" viewBox="0 0 19 21" fill="none" xmlns="http://www.w3.org/2000/svg">
<path d="M1 5.52393V18.1873C1 18.6671 1.1906 19.1272 1.52986 19.4665C1.86912 19.8058 2.32926 19.9964 2.80905 19.9964H15.4724C15.9522 19.9964 16.4124 19.8058 16.7516 19.4665C17.0909 19.1272 17.2815 18.6671 17.2815 18.1873V5.52393" stroke="#373737" stroke-width="1.5" stroke-linecap="round" stroke-linejoin="round"/>
<path d="M1 5.52393H17.2815" stroke="#373737" stroke-width="1.5" stroke-linecap="round" stroke-linejoin="round"/>
<path d="M12.7733 4.61816C12.7733 3.65858 12.3921 2.7383 11.7136 2.05977C11.0351 1.38125 10.1148 1.00005 9.15522 1.00005C8.19564 1.00005 7.27536 1.38125 6.59683 2.05977C5.9183 2.7383 5.53711 3.65858 5.53711 4.61816" stroke="#373737" stroke-width="1.5" stroke-linecap="round" stroke-linejoin="round"/>
</svg>
