<svg width="23" height="22" viewBox="0 0 23 22" fill="none" xmlns="http://www.w3.org/2000/svg">
<path d="M4.33301 5.44434H19.6552C19.9657 5.44435 20.2727 5.50941 20.5565 5.63534C20.8403 5.76127 21.0945 5.94526 21.3028 6.17546C21.5112 6.40566 21.6689 6.67696 21.766 6.97187C21.863 7.26677 21.8972 7.57874 21.8663 7.88767L21.1997 14.5543C21.1448 15.1027 20.8882 15.6111 20.4796 15.9809C20.071 16.3506 19.5396 16.5554 18.9886 16.5554H8.37745C7.86353 16.5556 7.36543 16.3777 6.96795 16.052C6.57046 15.7262 6.29818 15.2727 6.19745 14.7688L4.33301 5.44434Z" fill="white" stroke="white" stroke-width="2" stroke-linejoin="round"/>
<path d="M4.33333 5.44444L3.43333 1.84111C3.37314 1.60084 3.23439 1.38757 3.03912 1.23517C2.84385 1.08278 2.60325 1.00001 2.35556 1H1" stroke="white" stroke-width="2" stroke-linecap="round" stroke-linejoin="round"/>
<path d="M7.66699 21H9.88921" stroke="white" stroke-width="2" stroke-linecap="round" stroke-linejoin="round"/>
<path d="M16.5557 21H18.7779" stroke="white" stroke-width="2" stroke-linecap="round" stroke-linejoin="round"/>
</svg>
