<svg width="185" height="116" viewBox="0 0 185 116" fill="none" xmlns="http://www.w3.org/2000/svg">
<path d="M74.2578 75H67.8594V51H79.9219C81.4271 51 82.6979 51.1667 83.7344 51.5C84.776 51.8333 85.6146 52.3464 86.25 53.0391C86.8906 53.7318 87.3594 54.638 87.6562 55.7578C87.9583 56.8724 88.1094 58.2188 88.1094 59.7969C88.1094 61.5573 87.9896 63.0078 87.75 64.1484C87.5104 65.2839 87.0964 66.1953 86.5078 66.8828C85.9245 67.5703 85.1016 68.0729 84.0391 68.3906C82.9766 68.7031 81.6042 68.8594 79.9219 68.8594H74.2578V75ZM74.2578 63.2891H78.6406C79.5104 63.2891 80.1354 63.2109 80.5156 63.0547C80.901 62.8984 81.1641 62.5859 81.3047 62.1172C81.4505 61.6432 81.5234 60.8698 81.5234 59.7969C81.5234 58.9323 81.4531 58.276 81.3125 57.8281C81.1719 57.375 80.8984 57.0521 80.4922 56.8594C80.0859 56.6667 79.4688 56.5703 78.6406 56.5703H74.2578V63.2891ZM104.398 65.9141H110.992V66.6172C110.992 67.4818 110.974 68.1901 110.938 68.7422C110.906 69.2891 110.82 69.8464 110.68 70.4141C110.544 70.9766 110.328 71.5078 110.031 72.0078C109.734 72.5026 109.318 72.9766 108.781 73.4297C108.109 73.9766 107.372 74.3802 106.57 74.6406C105.773 74.8958 104.979 75.0521 104.188 75.1094C103.396 75.1667 102.388 75.1953 101.164 75.1953C99.1953 75.1953 97.5859 75.1198 96.3359 74.9688C95.0859 74.8177 93.9635 74.4531 92.9688 73.875C91.9792 73.2917 91.2135 72.3802 90.6719 71.1406C90.1354 69.8958 89.8672 68.2161 89.8672 66.1016V59.8984C89.8672 57.3568 90.2995 55.4271 91.1641 54.1094C92.0339 52.7865 93.2656 51.9062 94.8594 51.4688C96.4531 51.026 98.5547 50.8047 101.164 50.8047C103.393 50.8047 105.219 51.0417 106.641 51.5156C108.062 51.9896 109.138 52.8021 109.867 53.9531C110.596 55.099 110.961 56.6745 110.961 58.6797V59.6094H104.367V58.6797C104.294 57.9974 104.094 57.4922 103.766 57.1641C103.443 56.8307 103.026 56.6172 102.516 56.5234C102.005 56.4245 101.32 56.375 100.461 56.375C99.2526 56.375 98.3672 56.513 97.8047 56.7891C97.2474 57.0651 96.8828 57.5104 96.7109 58.125C96.5443 58.7344 96.4609 59.6667 96.4609 60.9219V64.6641C96.4609 65.7214 96.4948 66.5339 96.5625 67.1016C96.6354 67.6641 96.7995 68.138 97.0547 68.5234C97.3099 68.9089 97.7031 69.1901 98.2344 69.3672C98.7656 69.5391 99.5078 69.625 100.461 69.625C101.466 69.625 102.237 69.5651 102.773 69.4453C103.31 69.3203 103.714 69.0443 103.984 68.6172C104.26 68.1901 104.398 67.5234 104.398 66.6172V65.9141ZM120.508 51V60.0234H122.43L128.609 51H136.352L127.906 62.7734L137.055 75H129.117L122.43 65.5938H120.508V75H114.109V51H120.508ZM157.055 70.0078V75H138.109V70.0078C138.109 68.5547 138.214 67.4036 138.422 66.5547C138.635 65.7057 139.031 65.0078 139.609 64.4609C140.188 63.9141 141.008 63.4479 142.07 63.0625C143.133 62.6771 144.628 62.2604 146.555 61.8125C148.221 61.4219 149.286 61.1484 149.75 60.9922C150.214 60.8307 150.526 60.5833 150.688 60.25C150.854 59.9167 150.938 59.3177 150.938 58.4531C150.938 57.651 150.836 57.0651 150.633 56.6953C150.435 56.3255 150.107 56.0833 149.648 55.9688C149.19 55.8542 148.5 55.7969 147.578 55.7969C146.536 55.7969 145.794 55.8542 145.352 55.9688C144.909 56.0781 144.607 56.3255 144.445 56.7109C144.284 57.0911 144.198 57.7161 144.188 58.5859V59.7656H138.109V58.5859C138.109 56.9766 138.31 55.6615 138.711 54.6406C139.117 53.6198 139.716 52.8333 140.508 52.2812C141.305 51.724 142.271 51.3385 143.406 51.125C144.547 50.9115 145.938 50.8047 147.578 50.8047C149.719 50.8047 151.451 50.9792 152.773 51.3281C154.096 51.6719 155.135 52.3958 155.891 53.5C156.646 54.599 157.023 56.2188 157.023 58.3594C157.023 59.7292 156.914 60.8333 156.695 61.6719C156.482 62.5104 156.128 63.1953 155.633 63.7266C155.143 64.2526 154.5 64.6901 153.703 65.0391C152.906 65.388 151.815 65.7526 150.43 66.1328C149.716 66.3255 148.797 66.5417 147.672 66.7812C146.552 67.0156 145.789 67.2188 145.383 67.3906C144.977 67.5573 144.674 67.8359 144.477 68.2266C144.284 68.612 144.188 69.2057 144.188 70.0078H157.055ZM178.93 51V65.625H180.977V70.2656H178.93V75H172.852V70.2656H160.305V63.4141L169.492 51H178.93ZM172.852 65.625V55.9297H172.625L165.336 65.625H172.852Z" fill="#1B1B1B"/>
<path d="M10.7727 113L69.8533 13.7743C74.365 6.19691 84.2018 3.77224 91.7182 8.38479L133.773 34.1922" stroke="#1B1B1B" stroke-width="3.16364" stroke-linecap="round"/>
<path d="M3.77271 110L65.7727 5.99997" stroke="#FFDD00" stroke-width="3.16364" stroke-linecap="round"/>
<path d="M74.323 94.928C74.3977 94.928 74.463 94.9583 74.519 95.019L75.058 95.6C74.6473 96.076 74.148 96.447 73.56 96.713C72.9767 96.979 72.2697 97.112 71.439 97.112C70.7203 97.112 70.067 96.9883 69.479 96.741C68.891 96.489 68.3893 96.139 67.974 95.691C67.5587 95.2383 67.2367 94.697 67.008 94.067C66.7793 93.437 66.665 92.744 66.665 91.988C66.665 91.232 66.784 90.539 67.022 89.909C67.26 89.279 67.5937 88.7377 68.023 88.285C68.457 87.8323 68.975 87.4823 69.577 87.235C70.179 86.983 70.844 86.857 71.572 86.857C72.286 86.857 72.916 86.9713 73.462 87.2C74.008 87.4287 74.4887 87.739 74.904 88.131L74.456 88.754C74.428 88.8007 74.3907 88.8403 74.344 88.873C74.302 88.901 74.2437 88.915 74.169 88.915C74.085 88.915 73.9823 88.8707 73.861 88.782C73.7397 88.6887 73.581 88.586 73.385 88.474C73.189 88.362 72.944 88.2617 72.65 88.173C72.356 88.0797 71.9943 88.033 71.565 88.033C71.047 88.033 70.5733 88.124 70.144 88.306C69.7147 88.4833 69.3437 88.7423 69.031 89.083C68.723 89.4237 68.4827 89.839 68.31 90.329C68.1373 90.819 68.051 91.372 68.051 91.988C68.051 92.6133 68.1397 93.171 68.317 93.661C68.499 94.151 68.744 94.5663 69.052 94.907C69.3647 95.243 69.731 95.4997 70.151 95.677C70.5757 95.8543 71.033 95.943 71.523 95.943C71.8217 95.943 72.09 95.9267 72.328 95.894C72.5707 95.8567 72.7923 95.8007 72.993 95.726C73.1983 95.6513 73.3873 95.558 73.56 95.446C73.7373 95.3293 73.9123 95.1917 74.085 95.033C74.1643 94.963 74.2437 94.928 74.323 94.928ZM81.9318 90.861H79.2088V97H77.9628V90.861H75.2398V89.909H81.9318V90.861ZM84.3728 95.292C84.6015 95.6 84.8511 95.817 85.1218 95.943C85.3925 96.069 85.6958 96.132 86.0318 96.132C86.6945 96.132 87.2031 95.8963 87.5578 95.425C87.9125 94.9537 88.0898 94.2817 88.0898 93.409C88.0898 92.947 88.0478 92.5503 87.9638 92.219C87.8845 91.8877 87.7678 91.617 87.6138 91.407C87.4598 91.1923 87.2708 91.036 87.0468 90.938C86.8228 90.84 86.5685 90.791 86.2838 90.791C85.8778 90.791 85.5208 90.8843 85.2128 91.071C84.9095 91.2577 84.6295 91.5213 84.3728 91.862V95.292ZM84.3098 91.008C84.6085 90.6393 84.9538 90.343 85.3458 90.119C85.7378 89.895 86.1858 89.783 86.6898 89.783C87.1005 89.783 87.4715 89.8623 87.8028 90.021C88.1341 90.175 88.4165 90.406 88.6498 90.714C88.8831 91.0173 89.0628 91.3953 89.1888 91.848C89.3148 92.3007 89.3778 92.821 89.3778 93.409C89.3778 93.9317 89.3078 94.4193 89.1678 94.872C89.0278 95.32 88.8248 95.7097 88.5588 96.041C88.2975 96.3677 87.9755 96.6267 87.5928 96.818C87.2148 97.0047 86.7878 97.098 86.3118 97.098C85.8778 97.098 85.5045 97.0257 85.1918 96.881C84.8838 96.7317 84.6108 96.5263 84.3728 96.265V99.401H83.1198V89.909H83.8688C84.0461 89.909 84.1558 89.9953 84.1978 90.168L84.3098 91.008ZM93.9428 89.797C94.4608 89.797 94.9275 89.8833 95.3428 90.056C95.7581 90.2287 96.1128 90.4737 96.4068 90.791C96.7008 91.1083 96.9248 91.4933 97.0788 91.946C97.2375 92.394 97.3168 92.8957 97.3168 93.451C97.3168 94.011 97.2375 94.515 97.0788 94.963C96.9248 95.411 96.7008 95.7937 96.4068 96.111C96.1128 96.4283 95.7581 96.6733 95.3428 96.846C94.9275 97.014 94.4608 97.098 93.9428 97.098C93.4201 97.098 92.9488 97.014 92.5288 96.846C92.1135 96.6733 91.7588 96.4283 91.4648 96.111C91.1708 95.7937 90.9445 95.411 90.7858 94.963C90.6318 94.515 90.5548 94.011 90.5548 93.451C90.5548 92.8957 90.6318 92.394 90.7858 91.946C90.9445 91.4933 91.1708 91.1083 91.4648 90.791C91.7588 90.4737 92.1135 90.2287 92.5288 90.056C92.9488 89.8833 93.4201 89.797 93.9428 89.797ZM93.9428 96.125C94.6428 96.125 95.1655 95.8917 95.5108 95.425C95.8561 94.9537 96.0288 94.298 96.0288 93.458C96.0288 92.6133 95.8561 91.9553 95.5108 91.484C95.1655 91.0127 94.6428 90.777 93.9428 90.777C93.5881 90.777 93.2778 90.8377 93.0118 90.959C92.7505 91.0803 92.5311 91.2553 92.3538 91.484C92.1811 91.7127 92.0505 91.995 91.9618 92.331C91.8778 92.6623 91.8358 93.038 91.8358 93.458C91.8358 94.298 92.0085 94.9537 92.3538 95.425C92.7038 95.8917 93.2335 96.125 93.9428 96.125ZM104.98 89.909V97H103.734V92.184C103.734 92.0907 103.739 91.9903 103.748 91.883C103.757 91.7757 103.769 91.6683 103.783 91.561C103.741 91.6543 103.699 91.7407 103.657 91.82C103.615 91.8993 103.571 91.9717 103.524 92.037L100.101 96.692C100.05 96.7667 99.9845 96.839 99.9052 96.909C99.8305 96.9743 99.7465 97.007 99.6532 97.007H98.8972V89.916H100.15V94.732C100.15 94.8207 100.145 94.9187 100.136 95.026C100.127 95.1287 100.115 95.2337 100.101 95.341C100.143 95.2523 100.185 95.1707 100.227 95.096C100.269 95.0167 100.311 94.9443 100.353 94.879L103.776 90.224C103.827 90.1493 103.893 90.0793 103.972 90.014C104.051 89.944 104.138 89.909 104.231 89.909H104.98ZM112.844 90.861H110.121V97H108.875V90.861H106.152V89.909H112.844V90.861ZM118.491 92.681C118.491 92.3917 118.449 92.128 118.365 91.89C118.285 91.6473 118.166 91.4397 118.008 91.267C117.854 91.0897 117.665 90.9543 117.441 90.861C117.217 90.763 116.962 90.714 116.678 90.714C116.08 90.714 115.607 90.889 115.257 91.239C114.911 91.5843 114.697 92.065 114.613 92.681H118.491ZM119.499 96.006C119.345 96.1927 119.16 96.356 118.946 96.496C118.731 96.6313 118.5 96.7433 118.253 96.832C118.01 96.9207 117.758 96.986 117.497 97.028C117.235 97.0747 116.976 97.098 116.72 97.098C116.23 97.098 115.777 97.0163 115.362 96.853C114.951 96.685 114.594 96.4423 114.291 96.125C113.992 95.803 113.759 95.4063 113.591 94.935C113.423 94.4637 113.339 93.9223 113.339 93.311C113.339 92.8163 113.413 92.3543 113.563 91.925C113.717 91.4957 113.936 91.1247 114.221 90.812C114.505 90.4947 114.853 90.2473 115.264 90.07C115.674 89.888 116.136 89.797 116.65 89.797C117.074 89.797 117.466 89.8693 117.826 90.014C118.19 90.154 118.502 90.3593 118.764 90.63C119.03 90.896 119.237 91.2273 119.387 91.624C119.536 92.016 119.611 92.464 119.611 92.968C119.611 93.164 119.59 93.2947 119.548 93.36C119.506 93.4253 119.426 93.458 119.31 93.458H114.571C114.585 93.906 114.645 94.2957 114.753 94.627C114.865 94.9583 115.019 95.236 115.215 95.46C115.411 95.6793 115.644 95.845 115.915 95.957C116.185 96.0643 116.489 96.118 116.825 96.118C117.137 96.118 117.406 96.083 117.63 96.013C117.858 95.9383 118.054 95.859 118.218 95.775C118.381 95.691 118.516 95.614 118.624 95.544C118.736 95.4693 118.831 95.432 118.911 95.432C119.013 95.432 119.093 95.4717 119.149 95.551L119.499 96.006ZM127.357 97H126.111V90.889H123.871C123.815 91.7897 123.731 92.569 123.619 93.227C123.507 93.8803 123.372 94.438 123.213 94.9C123.059 95.3573 122.884 95.7307 122.688 96.02C122.497 96.3047 122.294 96.5263 122.079 96.685C121.869 96.8437 121.65 96.951 121.421 97.007C121.197 97.063 120.973 97.091 120.749 97.091C120.353 97.091 120.154 97.028 120.154 96.902V96.111H120.518C120.677 96.111 120.838 96.083 121.001 96.027C121.165 95.971 121.323 95.8637 121.477 95.705C121.636 95.5463 121.788 95.3247 121.932 95.04C122.077 94.7507 122.208 94.3773 122.324 93.92C122.446 93.458 122.548 92.9003 122.632 92.247C122.721 91.589 122.789 90.8097 122.835 89.909H127.357V97ZM132.054 96.09C132.306 96.09 132.523 96.0597 132.705 95.999C132.891 95.9337 133.045 95.845 133.167 95.733C133.288 95.6163 133.379 95.481 133.44 95.327C133.5 95.173 133.531 95.005 133.531 94.823C133.531 94.655 133.505 94.4987 133.454 94.354C133.402 94.2047 133.316 94.074 133.195 93.962C133.078 93.85 132.924 93.7613 132.733 93.696C132.541 93.6307 132.308 93.598 132.033 93.598H130.528V96.09H132.054ZM132.033 92.688C132.523 92.688 132.933 92.7463 133.265 92.863C133.601 92.9797 133.869 93.136 134.07 93.332C134.275 93.528 134.422 93.7543 134.511 94.011C134.599 94.2677 134.644 94.5337 134.644 94.809C134.644 95.1263 134.588 95.4203 134.476 95.691C134.364 95.957 134.198 96.188 133.979 96.384C133.759 96.5753 133.489 96.727 133.167 96.839C132.845 96.9463 132.474 97 132.054 97H129.331V89.909H130.528V92.688H132.033ZM141.938 89.909V97H140.685V93.682H137.283V97H136.03V89.909H137.283V92.737H140.685V89.909H141.938ZM147.762 93.808C147.188 93.8267 146.698 93.8733 146.292 93.948C145.89 94.018 145.561 94.1113 145.305 94.228C145.053 94.3447 144.868 94.4823 144.752 94.641C144.64 94.7997 144.584 94.977 144.584 95.173C144.584 95.3597 144.614 95.5207 144.675 95.656C144.735 95.7913 144.817 95.9033 144.92 95.992C145.027 96.076 145.151 96.139 145.291 96.181C145.435 96.2183 145.589 96.237 145.753 96.237C145.972 96.237 146.173 96.216 146.355 96.174C146.537 96.1273 146.707 96.062 146.866 95.978C147.029 95.894 147.183 95.7937 147.328 95.677C147.477 95.5603 147.622 95.4273 147.762 95.278V93.808ZM143.737 90.91C144.129 90.532 144.551 90.2497 145.004 90.063C145.456 89.8763 145.958 89.783 146.509 89.783C146.905 89.783 147.258 89.8483 147.566 89.979C147.874 90.1097 148.133 90.2917 148.343 90.525C148.553 90.7583 148.711 91.0407 148.819 91.372C148.926 91.7033 148.98 92.0673 148.98 92.464V97H148.427C148.305 97 148.212 96.9813 148.147 96.944C148.081 96.902 148.03 96.8227 147.993 96.706L147.853 96.034C147.666 96.2067 147.484 96.3607 147.307 96.496C147.129 96.6267 146.943 96.7387 146.747 96.832C146.551 96.9207 146.341 96.9883 146.117 97.035C145.897 97.0863 145.652 97.112 145.382 97.112C145.106 97.112 144.847 97.0747 144.605 97C144.362 96.9207 144.15 96.804 143.968 96.65C143.79 96.496 143.648 96.3023 143.541 96.069C143.438 95.831 143.387 95.551 143.387 95.229C143.387 94.949 143.464 94.6807 143.618 94.424C143.772 94.1627 144.021 93.9317 144.367 93.731C144.712 93.5303 145.162 93.367 145.718 93.241C146.273 93.1103 146.954 93.0357 147.762 93.017V92.464C147.762 91.9133 147.643 91.498 147.405 91.218C147.167 90.9333 146.819 90.791 146.362 90.791C146.054 90.791 145.795 90.8307 145.585 90.91C145.379 90.9847 145.2 91.071 145.046 91.169C144.896 91.2623 144.766 91.3487 144.654 91.428C144.546 91.5027 144.439 91.54 144.332 91.54C144.248 91.54 144.175 91.519 144.115 91.477C144.054 91.4303 144.003 91.3743 143.961 91.309L143.737 90.91ZM154.609 93.22V90.749H153.419C153.153 90.749 152.929 90.7887 152.747 90.868C152.565 90.9427 152.418 91.0407 152.306 91.162C152.198 91.2787 152.121 91.4117 152.075 91.561C152.028 91.7057 152.005 91.8503 152.005 91.995C152.005 92.3777 152.145 92.6787 152.425 92.898C152.705 93.1127 153.087 93.22 153.573 93.22H154.609ZM155.799 89.909V97H154.609V94.011H154.063C153.932 94.011 153.822 94.0227 153.734 94.046C153.65 94.0647 153.575 94.0927 153.51 94.13C153.449 94.1673 153.395 94.2163 153.349 94.277C153.302 94.333 153.253 94.3983 153.202 94.473L151.648 96.566C151.568 96.7153 151.47 96.825 151.354 96.895C151.242 96.965 151.076 97 150.857 97H149.989L152.047 94.326C152.215 94.046 152.436 93.8593 152.712 93.766C152.352 93.7193 152.049 93.6353 151.802 93.514C151.554 93.3927 151.351 93.2503 151.193 93.087C151.039 92.919 150.927 92.7347 150.857 92.534C150.787 92.3333 150.752 92.1303 150.752 91.925C150.752 91.6823 150.798 91.4397 150.892 91.197C150.99 90.9543 151.144 90.7397 151.354 90.553C151.564 90.3617 151.834 90.2077 152.166 90.091C152.502 89.9697 152.908 89.909 153.384 89.909H155.799ZM71.292 106.259C71.3573 106.156 71.4437 106.072 71.551 106.007C71.6583 105.942 71.7727 105.909 71.894 105.909H72.867L71.026 108.611C70.914 108.784 70.7973 108.926 70.676 109.038C70.5547 109.145 70.4053 109.229 70.228 109.29C70.452 109.351 70.641 109.446 70.795 109.577C70.949 109.703 71.0867 109.866 71.208 110.067L73.07 113H72.202C71.978 113 71.8053 112.963 71.684 112.888C71.5627 112.813 71.4577 112.706 71.369 112.566L69.99 110.361C69.7707 109.997 69.4417 109.815 69.003 109.815H68.24V113.007H66.987V105.909H68.24V108.975H68.912C69.2853 108.975 69.577 108.816 69.787 108.499L71.292 106.259ZM76.9487 105.797C77.4667 105.797 77.9333 105.883 78.3487 106.056C78.764 106.229 79.1187 106.474 79.4127 106.791C79.7067 107.108 79.9307 107.493 80.0847 107.946C80.2433 108.394 80.3227 108.896 80.3227 109.451C80.3227 110.011 80.2433 110.515 80.0847 110.963C79.9307 111.411 79.7067 111.794 79.4127 112.111C79.1187 112.428 78.764 112.673 78.3487 112.846C77.9333 113.014 77.4667 113.098 76.9487 113.098C76.426 113.098 75.9547 113.014 75.5347 112.846C75.1193 112.673 74.7647 112.428 74.4707 112.111C74.1767 111.794 73.9503 111.411 73.7917 110.963C73.6377 110.515 73.5607 110.011 73.5607 109.451C73.5607 108.896 73.6377 108.394 73.7917 107.946C73.9503 107.493 74.1767 107.108 74.4707 106.791C74.7647 106.474 75.1193 106.229 75.5347 106.056C75.9547 105.883 76.426 105.797 76.9487 105.797ZM76.9487 112.125C77.6487 112.125 78.1713 111.892 78.5167 111.425C78.862 110.954 79.0347 110.298 79.0347 109.458C79.0347 108.613 78.862 107.955 78.5167 107.484C78.1713 107.013 77.6487 106.777 76.9487 106.777C76.594 106.777 76.2837 106.838 76.0177 106.959C75.7563 107.08 75.537 107.255 75.3597 107.484C75.187 107.713 75.0563 107.995 74.9677 108.331C74.8837 108.662 74.8417 109.038 74.8417 109.458C74.8417 110.298 75.0143 110.954 75.3597 111.425C75.7097 111.892 76.2393 112.125 76.9487 112.125ZM89.806 105.888V113H88.679V108.289C88.679 108.158 88.686 108.014 88.7 107.855C88.7187 107.692 88.742 107.54 88.77 107.4L86.306 111.719C86.2687 111.789 86.2197 111.845 86.159 111.887C86.0983 111.929 86.0283 111.95 85.949 111.95H85.809C85.7297 111.95 85.6573 111.929 85.592 111.887C85.5313 111.845 85.4823 111.789 85.445 111.719L82.939 107.386C82.9623 107.526 82.9833 107.68 83.002 107.848C83.0207 108.011 83.03 108.158 83.03 108.289V113H81.903V105.888H82.904C82.9927 105.888 83.079 105.909 83.163 105.951C83.247 105.988 83.3193 106.061 83.38 106.168L85.592 109.864C85.6993 110.079 85.795 110.305 85.879 110.543C85.9583 110.296 86.0517 110.069 86.159 109.864L88.329 106.168C88.3897 106.056 88.462 105.981 88.546 105.944C88.63 105.907 88.7163 105.888 88.805 105.888H89.806ZM97.6821 113H96.4291V106.861H93.0271V113H91.7741V105.909H97.6821V113ZM103.506 109.808C102.932 109.827 102.442 109.873 102.036 109.948C101.634 110.018 101.305 110.111 101.049 110.228C100.797 110.345 100.612 110.482 100.496 110.641C100.384 110.8 100.328 110.977 100.328 111.173C100.328 111.36 100.358 111.521 100.419 111.656C100.479 111.791 100.561 111.903 100.664 111.992C100.771 112.076 100.895 112.139 101.035 112.181C101.179 112.218 101.333 112.237 101.497 112.237C101.716 112.237 101.917 112.216 102.099 112.174C102.281 112.127 102.451 112.062 102.61 111.978C102.773 111.894 102.927 111.794 103.072 111.677C103.221 111.56 103.366 111.427 103.506 111.278V109.808ZM99.4808 106.91C99.8728 106.532 100.295 106.25 100.748 106.063C101.2 105.876 101.702 105.783 102.253 105.783C102.649 105.783 103.002 105.848 103.31 105.979C103.618 106.11 103.877 106.292 104.087 106.525C104.297 106.758 104.455 107.041 104.563 107.372C104.67 107.703 104.724 108.067 104.724 108.464V113H104.171C104.049 113 103.956 112.981 103.891 112.944C103.825 112.902 103.774 112.823 103.737 112.706L103.597 112.034C103.41 112.207 103.228 112.361 103.051 112.496C102.873 112.627 102.687 112.739 102.491 112.832C102.295 112.921 102.085 112.988 101.861 113.035C101.641 113.086 101.396 113.112 101.126 113.112C100.85 113.112 100.591 113.075 100.349 113C100.106 112.921 99.8938 112.804 99.7118 112.65C99.5344 112.496 99.3921 112.302 99.2848 112.069C99.1821 111.831 99.1308 111.551 99.1308 111.229C99.1308 110.949 99.2078 110.681 99.3618 110.424C99.5158 110.163 99.7654 109.932 100.111 109.731C100.456 109.53 100.906 109.367 101.462 109.241C102.017 109.11 102.698 109.036 103.506 109.017V108.464C103.506 107.913 103.387 107.498 103.149 107.218C102.911 106.933 102.563 106.791 102.106 106.791C101.798 106.791 101.539 106.831 101.329 106.91C101.123 106.985 100.944 107.071 100.79 107.169C100.64 107.262 100.51 107.349 100.398 107.428C100.29 107.503 100.183 107.54 100.076 107.54C99.9918 107.54 99.9194 107.519 99.8588 107.477C99.7981 107.43 99.7468 107.374 99.7048 107.309L99.4808 106.91ZM112.53 105.909V113H111.277V109.682H107.875V113H106.622V105.909H107.875V108.737H111.277V105.909H112.53ZM120.593 105.909V113H119.347V108.184C119.347 108.091 119.352 107.99 119.361 107.883C119.371 107.776 119.382 107.668 119.396 107.561C119.354 107.654 119.312 107.741 119.27 107.82C119.228 107.899 119.184 107.972 119.137 108.037L115.714 112.692C115.663 112.767 115.598 112.839 115.518 112.909C115.444 112.974 115.36 113.007 115.266 113.007H114.51V105.916H115.763V110.732C115.763 110.821 115.759 110.919 115.749 111.026C115.74 111.129 115.728 111.234 115.714 111.341C115.756 111.252 115.798 111.171 115.84 111.096C115.882 111.017 115.924 110.944 115.966 110.879L119.389 106.224C119.441 106.149 119.506 106.079 119.585 106.014C119.665 105.944 119.751 105.909 119.844 105.909H120.593ZM126.294 109.22V106.749H125.104C124.838 106.749 124.614 106.789 124.432 106.868C124.25 106.943 124.103 107.041 123.991 107.162C123.884 107.279 123.807 107.412 123.76 107.561C123.714 107.706 123.69 107.85 123.69 107.995C123.69 108.378 123.83 108.679 124.11 108.898C124.39 109.113 124.773 109.22 125.258 109.22H126.294ZM127.484 105.909V113H126.294V110.011H125.748C125.618 110.011 125.508 110.023 125.419 110.046C125.335 110.065 125.261 110.093 125.195 110.13C125.135 110.167 125.081 110.216 125.034 110.277C124.988 110.333 124.939 110.398 124.887 110.473L123.333 112.566C123.254 112.715 123.156 112.825 123.039 112.895C122.927 112.965 122.762 113 122.542 113H121.674L123.732 110.326C123.9 110.046 124.122 109.859 124.397 109.766C124.038 109.719 123.735 109.635 123.487 109.514C123.24 109.393 123.037 109.25 122.878 109.087C122.724 108.919 122.612 108.735 122.542 108.534C122.472 108.333 122.437 108.13 122.437 107.925C122.437 107.682 122.484 107.44 122.577 107.197C122.675 106.954 122.829 106.74 123.039 106.553C123.249 106.362 123.52 106.208 123.851 106.091C124.187 105.97 124.593 105.909 125.069 105.909H127.484Z" fill="#959595"/>
</svg>
