<?xml version="1.0" encoding="UTF-8" standalone="no"?>
<svg
   width="54"
   height="54"
   viewBox="0 0 54 54"
   fill="none"
   version="1.1"
   id="svg19"
   sodipodi:docname="chat.svg"
   inkscape:version="1.1.1 (3bf5ae0d25, 2021-09-20)"
   xmlns:inkscape="http://www.inkscape.org/namespaces/inkscape"
   xmlns:sodipodi="http://sodipodi.sourceforge.net/DTD/sodipodi-0.dtd"
   xmlns="http://www.w3.org/2000/svg"
   xmlns:svg="http://www.w3.org/2000/svg">
  <defs
     id="defs23" />
  <sodipodi:namedview
     id="namedview21"
     pagecolor="#ffffff"
     bordercolor="#666666"
     borderopacity="1.0"
     inkscape:pageshadow="2"
     inkscape:pageopacity="0.0"
     inkscape:pagecheckerboard="0"
     showgrid="false"
     inkscape:zoom="6.4032447"
     inkscape:cx="32.873958"
     inkscape:cy="26.939467"
     inkscape:window-width="1366"
     inkscape:window-height="697"
     inkscape:window-x="1432"
     inkscape:window-y="-8"
     inkscape:window-maximized="1"
     inkscape:current-layer="svg19" />
  <path
     fill-rule="evenodd"
     clip-rule="evenodd"
     d="M27 54C12.0876 54 0 41.9124 0 27C0 12.0876 12.0876 0 27 0C41.9124 0 54 12.0876 54 27C54 41.9124 41.9124 54 27 54ZM27.4725 39.3609C29.2073 40.5608 31.4078 41.2746 33.7905 41.2746C34.3828 41.2746 34.9684 41.2307 35.5438 41.1446C35.7412 41.2256 35.9319 41.3252 36.1665 41.4602C36.6727 41.7572 37.3494 42.2128 38.1915 42.8271C38.8817 43.3316 39.8588 42.8439 39.8588 41.9951V39.5297C40.2131 39.3002 40.5473 39.0521 40.8628 38.7838C42.7697 37.1672 43.875 34.9566 43.875 32.5856C43.875 31.0247 43.4025 29.565 42.5723 28.3044C42.3105 29.1996 41.9559 30.0649 41.5142 30.8863C41.6897 31.4314 41.7825 32.0001 41.7825 32.5856C41.7825 34.3305 40.959 35.9775 39.501 37.2128C39.1248 37.5306 38.7198 37.8125 38.2911 38.0548C38.1322 38.1445 38 38.2747 37.9078 38.4321C37.8157 38.5895 37.7668 38.7685 37.7662 38.9509V40.0039C36.7656 39.3626 36.0787 39.0606 35.5556 39.0606C35.4968 39.0607 35.4381 39.0658 35.3801 39.0758C33.914 39.3209 32.411 39.2227 30.9893 38.7889C29.8377 39.0879 28.661 39.28 27.4742 39.3626L27.4725 39.3609ZM14.8736 34.4301C15.4301 34.9009 16.0188 35.3323 16.6354 35.721V39.9262C16.6354 40.9894 17.8588 41.5969 18.7211 40.9657C21.1005 39.2276 22.7543 38.2455 23.1677 38.1476C24.1228 38.2995 25.0982 38.3754 26.0837 38.3754C34.8587 38.3754 42.0441 32.2886 42.0441 24.6729C42.0441 17.0556 34.857 10.9688 26.0837 10.9688C17.3104 10.9688 10.125 17.0556 10.125 24.6712C10.125 28.4006 11.8631 31.8786 14.8736 34.4301ZM23.2251 35.5539C22.3762 35.5539 21.1359 36.153 19.2527 37.4169V34.992C19.2519 34.7637 19.1905 34.5397 19.0749 34.3429C18.9593 34.1461 18.7935 33.9834 18.5946 33.8715C17.8795 33.4668 17.2038 32.9962 16.5763 32.4658C14.1244 30.3919 12.7406 27.6176 12.7406 24.6712C12.7406 18.5794 18.6739 13.554 26.0837 13.554C33.4952 13.554 39.4268 18.5794 39.4268 24.6712C39.4268 30.7631 33.4952 35.7902 26.0837 35.7902C25.1893 35.7902 24.3067 35.7159 23.4444 35.5708C23.3719 35.5591 23.2985 35.5535 23.2251 35.5539V35.5539ZM19.2814 27.2582C20.4373 27.2582 21.3739 26.3301 21.3739 25.1893C21.3739 24.0469 20.4373 23.1204 19.2814 23.1204C18.1254 23.1204 17.1889 24.0469 17.1889 25.1893C17.1889 26.3318 18.1254 27.2582 19.2814 27.2582ZM26.0837 27.2582C27.2396 27.2582 28.1762 26.3301 28.1762 25.1893C28.1762 24.0469 27.2396 23.1204 26.0837 23.1204C24.9277 23.1204 23.9912 24.0469 23.9912 25.1893C23.9912 26.3318 24.9277 27.2582 26.0837 27.2582V27.2582ZM32.886 27.2582C34.0419 27.2582 34.9785 26.3301 34.9785 25.1893C34.9785 24.0469 34.0419 23.1204 32.886 23.1204C31.7301 23.1204 30.7935 24.0469 30.7935 25.1893C30.7935 26.3318 31.7301 27.2582 32.886 27.2582Z"
     fill="white"
     id="path17"
     style="fill:#000000" />
</svg>
