<?xml version="1.0" encoding="UTF-8" standalone="no"?>
<svg
   width="54"
   height="54"
   viewBox="0 0 54 54"
   fill="none"
   version="1.1"
   id="svg279"
   sodipodi:docname="dollar.svg"
   inkscape:version="1.1.1 (3bf5ae0d25, 2021-09-20)"
   xmlns:inkscape="http://www.inkscape.org/namespaces/inkscape"
   xmlns:sodipodi="http://sodipodi.sourceforge.net/DTD/sodipodi-0.dtd"
   xmlns="http://www.w3.org/2000/svg"
   xmlns:svg="http://www.w3.org/2000/svg">
  <defs
     id="defs283" />
  <sodipodi:namedview
     id="namedview281"
     pagecolor="#ffffff"
     bordercolor="#666666"
     borderopacity="1.0"
     inkscape:pageshadow="2"
     inkscape:pageopacity="0.0"
     inkscape:pagecheckerboard="0"
     showgrid="false"
     inkscape:zoom="4.4183138"
     inkscape:cx="5.9977632"
     inkscape:cy="32.931115"
     inkscape:window-width="1366"
     inkscape:window-height="697"
     inkscape:window-x="1432"
     inkscape:window-y="-8"
     inkscape:window-maximized="1"
     inkscape:current-layer="svg279" />
  <g
     id="g542"
     transform="translate(-5.1666254,-5.16667)">
    <path
       d="m 32.166664,5.16667 c -5.340146,0 -10.560308,1.5835234 -15.000466,4.5503173 C 12.726145,12.683813 9.2654595,16.900619 7.2218873,21.834197 5.1783256,26.767774 4.6436316,32.196654 5.6854377,37.43406 c 1.0417958,5.237511 3.6132997,10.048491 7.3892683,13.824449 3.776063,3.776062 8.587044,6.347576 13.824451,7.389392 5.237511,1.041712 10.666287,0.507112 15.59997,-1.536491 4.933579,-2.043603 9.150386,-5.504236 12.11718,-9.944393 2.966795,-4.440053 4.550318,-9.660214 4.550318,-15.000359 0,-3.545709 -0.698376,-7.056613 -2.055204,-10.332461 -1.356933,-3.275744 -3.34577,-6.252258 -5.852903,-8.75939 C 48.751281,10.567571 45.774871,8.5787965 42.499127,7.2219163 39.223279,5.8650466 35.712373,5.16667 32.166664,5.16667 Z m 0,48.600016 c -4.272096,0 -8.448246,-1.26684 -12.000331,-3.640296 -3.552084,-2.373456 -6.320612,-5.746922 -7.955453,-9.693763 -1.634841,-3.946841 -2.062646,-8.289903 -1.229214,-12.479954 0.833412,-4.189945 2.890602,-8.038751 5.911432,-11.059475 3.020829,-3.020828 6.869635,-5.078019 11.059581,-5.911535 4.189947,-0.833401 8.533009,-0.405627 12.479956,1.229214 3.946842,1.634841 7.320308,4.403368 9.693765,7.955452 2.373456,3.552084 3.640191,7.728233 3.640191,12.000329 0,5.728632 -2.275629,11.222729 -6.326464,15.27346 -4.050731,4.050834 -9.54483,6.326568 -15.273463,6.326568 z"
       fill="white"
       id="path275"
       style="fill:#000000;stroke-width:1.04516" />
    <path
       d="m 32.370019,29.615467 c -5.1666,0 -5.1666,-1.6275 -5.1666,-2.5834 0,-0.9558 1.8083,-2.5833 5.1666,-2.5833 3.3584,0 3.5909,1.6533 3.6167,2.5833 h 5.1667 c -0.035,-1.7598 -0.6679,-3.4554 -1.7948,-4.8077 -1.1269,-1.3522 -2.6805,-2.2806 -4.4052,-2.6323 v -2.8933 h -5.1667 v 2.8158 c -5.1667,0.8525 -7.75,4.185 -7.75,7.5175 0,2.8934 1.3433,7.75 10.3333,7.75 5.1667,0 5.1667,1.7567 5.1667,2.5834 0,0.8266 -1.6017,2.5833 -5.1667,2.5833 -4.7533,0 -5.1666,-2.2217 -5.1666,-2.5833 h -5.1667 c 0,2.3766 1.705,6.5875 7.75,7.5433 v 2.79 h 5.1667 v -2.79 c 5.1666,-0.8783 7.75,-4.2108 7.75,-7.5433 0,-2.8934 -1.3434,-7.75 -10.3334,-7.75 z"
       fill="white"
       id="path277"
       style="fill:#000000" />
  </g>
</svg>
