<?xml version="1.0" encoding="UTF-8" standalone="no"?>
<svg
   width="23.428125"
   height="20.25"
   viewBox="0 0 23.428125 20.25"
   fill="none"
   version="1.1"
   id="svg690"
   sodipodi:docname="email.svg"
   inkscape:version="1.1.1 (3bf5ae0d25, 2021-09-20)"
   xmlns:inkscape="http://www.inkscape.org/namespaces/inkscape"
   xmlns:sodipodi="http://sodipodi.sourceforge.net/DTD/sodipodi-0.dtd"
   xmlns="http://www.w3.org/2000/svg"
   xmlns:svg="http://www.w3.org/2000/svg">
  <defs
     id="defs694" />
  <sodipodi:namedview
     id="namedview692"
     pagecolor="#ffffff"
     bordercolor="#666666"
     borderopacity="1.0"
     inkscape:pageshadow="2"
     inkscape:pageopacity="0.0"
     inkscape:pagecheckerboard="0"
     showgrid="false"
     inkscape:zoom="6.7044199"
     inkscape:cx="3.6543057"
     inkscape:cy="15.735888"
     inkscape:window-width="1366"
     inkscape:window-height="697"
     inkscape:window-x="1432"
     inkscape:window-y="-8"
     inkscape:window-maximized="1"
     inkscape:current-layer="svg690" />
  <path
     d="m 21.375,9.1463 c -0.1688,0.0112 -0.3262,0.0675 -0.4387,0.1912 l -1.125,1.125 2.3062,2.25 1.125,-1.125 c 0.2475,-0.2362 0.2475,-0.63 0,-0.8663 L 21.8475,9.3375 C 21.7351,9.2209 21.5819,9.1524 21.42,9.1463 Z M 19.17,11.115 12.375,17.9325 V 20.25 h 2.3175 L 21.51,13.4213 Z M 20.25,0 h -18 C 1.65326,0 1.08097,0.23705 0.65901,0.65901 0.23705,1.08097 0,1.65326 0,2.25 v 13.5 c 0,0.5967 0.23705,1.169 0.65901,1.591 C 1.08097,17.7629 1.65326,18 2.25,18 h 7.875 v -1.0012 l 9.27,-9.2475 c 0.5287,-0.5513 1.26,-0.855 2.025,-0.855 0.3825,0 0.765,0.0674 1.125,0.2137 V 2.25 C 22.545,0.99 21.51,0 20.25,0 Z m 0,4.5 -9,5.625 -9,-5.625 V 2.25 l 9,5.625 9,-5.625"
     fill="white"
     id="path688"
     style="fill:#000000" />
</svg>
