<?xml version="1.0" encoding="UTF-8" standalone="no"?>
<svg
   width="54"
   height="54"
   viewBox="0 0 54 54"
   fill="none"
   version="1.1"
   id="svg23"
   sodipodi:docname="insta.svg"
   inkscape:version="1.1.1 (3bf5ae0d25, 2021-09-20)"
   xmlns:inkscape="http://www.inkscape.org/namespaces/inkscape"
   xmlns:sodipodi="http://sodipodi.sourceforge.net/DTD/sodipodi-0.dtd"
   xmlns="http://www.w3.org/2000/svg"
   xmlns:svg="http://www.w3.org/2000/svg">
  <defs
     id="defs27" />
  <sodipodi:namedview
     id="namedview25"
     pagecolor="#ffffff"
     bordercolor="#666666"
     borderopacity="1.0"
     inkscape:pageshadow="2"
     inkscape:pageopacity="0.0"
     inkscape:pagecheckerboard="0"
     showgrid="false"
     inkscape:zoom="5.7869822"
     inkscape:cx="32.400307"
     inkscape:cy="30.67229"
     inkscape:window-width="1366"
     inkscape:window-height="697"
     inkscape:window-x="1432"
     inkscape:window-y="-8"
     inkscape:window-maximized="1"
     inkscape:current-layer="svg23" />
  <path
     d="M 27,54 C 23.343753,54 19.845703,53.288095 16.505851,51.864284 13.166031,50.440473 10.291985,48.524272 7.8837763,46.11632 5.4756,43.708047 3.5595586,40.833905 2.1357415,37.494213 0.71191491,34.154201 0,30.656247 0,27 0,23.343753 0.71191491,19.845703 2.1357415,16.505851 3.5595586,13.166031 5.4756,10.291985 7.8837763,7.8837763 10.291985,5.4756 13.166031,3.5595586 16.505851,2.1357415 19.845703,0.71191491 23.343753,0 27,0 30.656247,0 34.154201,0.71191491 37.494213,2.1357415 40.833905,3.5595586 43.708047,5.4756 46.11632,7.8837763 48.524272,10.291985 50.440473,13.166031 51.864284,16.505851 53.288095,19.845703 54,23.343753 54,27 c 0,3.656247 -0.711905,7.154201 -2.135716,10.494213 -1.423811,3.339692 -3.340012,6.213834 -5.747964,8.622107 -2.408273,2.407952 -5.282415,4.324153 -8.622107,5.747964 C 34.154201,53.288095 30.656247,54 27,54 Z M 40.5,16.875 c 0,-0.91407 -0.325278,-1.70509 -0.975515,-2.37306 C 38.873929,13.833969 38.074154,13.5 37.12516,13.5 H 16.875 c -0.91407,0 -1.70509,0.333969 -2.37306,1.00194 C 13.833969,15.16991 13.5,15.96093 13.5,16.875 v 3.375 h 6.011734 C 21.550793,17.999989 24.046871,16.875 27,16.875 c 2.953129,0 5.449207,1.124989 7.488426,3.375 H 40.5 Z M 20.25,27 c 0,1.863288 0.659183,3.454115 1.97755,4.77245 C 23.545885,33.090817 25.136712,33.75 27,33.75 c 1.863288,0 3.454115,-0.659183 4.77245,-1.97755 C 33.090817,30.454115 33.75,28.863288 33.75,27 33.75,25.136712 33.090817,23.545885 31.77245,22.22755 30.454115,20.909183 28.863288,20.25 27,20.25 c -1.863288,0 -3.454115,0.659183 -4.77245,1.97755 C 20.909183,23.545885 20.25,25.136712 20.25,27 Z M 40.5,23.625 h -4.007822 c 0.421775,1.160169 0.632982,2.285159 0.632982,3.375 0,2.812505 -0.984462,5.203172 -2.953385,7.171775 C 32.203172,36.140698 29.812505,37.12516 27,37.12516 c -2.812505,0 -5.20314,-0.984462 -7.171871,-2.953385 C 17.859366,32.203172 16.875,29.812505 16.875,27 c 0,-1.089841 0.210951,-2.214831 0.632822,-3.375 H 13.5 v 13.50016 c 0,0.948994 0.325182,1.748769 0.975579,2.399325 C 15.125975,40.174722 15.925782,40.5 16.875,40.5 h 20.25016 c 0.948994,0 1.748769,-0.325278 2.399325,-0.975515 C 40.174722,38.873929 40.5,38.074154 40.5,37.12516 Z"
     fill="#1a1a1a"
     id="path21"
     style="stroke-width:0.319527;fill:#000000" />
</svg>
