<?xml version="1.0" encoding="UTF-8" standalone="no"?>
<svg
   width="54.000004"
   height="53.999996"
   viewBox="0 0 54.000004 53.999996"
   fill="none"
   version="1.1"
   id="svg11"
   sodipodi:docname="steam.svg"
   inkscape:version="1.1.1 (3bf5ae0d25, 2021-09-20)"
   xmlns:inkscape="http://www.inkscape.org/namespaces/inkscape"
   xmlns:sodipodi="http://sodipodi.sourceforge.net/DTD/sodipodi-0.dtd"
   xmlns="http://www.w3.org/2000/svg"
   xmlns:svg="http://www.w3.org/2000/svg">
  <sodipodi:namedview
     id="namedview13"
     pagecolor="#ffffff"
     bordercolor="#666666"
     borderopacity="1.0"
     inkscape:pageshadow="2"
     inkscape:pageopacity="0.0"
     inkscape:pagecheckerboard="0"
     showgrid="false"
     inkscape:zoom="3.4811411"
     inkscape:cx="21.688291"
     inkscape:cy="3.3035145"
     inkscape:window-width="1366"
     inkscape:window-height="697"
     inkscape:window-x="1432"
     inkscape:window-y="-8"
     inkscape:window-maximized="1"
     inkscape:current-layer="svg11" />
  <g
     clip-path="url(#clip0_6_11)"
     id="g4"
     style="fill:#000000"
     transform="matrix(1.0404782,0,0,1.0384615,-0.05242397,0)">
    <path
       d="M 25.9578,0 C 12.3061,0 1.10826,10.5284 0.0503845,23.9102 L 13.9815,29.6741 c 1.2222,-0.8336 2.6676,-1.2787 4.147,-1.2772 0.1349,0 0.2714,0.0081 0.4063,0.0081 l 6.1961,-8.9716 v -0.1268 c 0,-5.408 4.3924,-9.80035 9.8004,-9.80035 5.408,0 9.8085,4.40045 9.8085,9.80845 -0.0035,2.5996 -1.0382,5.0916 -2.8772,6.929 -1.8389,1.8374 -4.3318,2.8701 -6.9313,2.8714 h -0.2194 l -8.8368,6.305 c 0,0.1187 0.0082,0.2291 0.0082,0.3478 0,4.0625 -3.2842,7.3547 -7.3467,7.3547 -3.5376,0 -6.5341,-2.5398 -7.2198,-5.9068 L 0.947384,33.085 C 4.03651,44.0034 14.0498,52.0016 25.9578,52.0016 c 14.3536,0 25.9918,-11.6366 25.9918,-26 C 51.9496,11.6382 40.313,0.001625 25.9578,0.001625 Z M 16.3345,39.4566 13.143,38.1355 c 0.5878,1.2211 1.6022,2.1847 2.8519,2.7089 1.3526,0.56 2.8721,0.5609 4.2254,0.0026 1.3533,-0.5584 2.4301,-1.6304 2.9945,-2.9812 0.2799,-0.6687 0.4248,-1.3861 0.4262,-2.1109 C 23.6424,35.03 23.5003,34.3121 23.2229,33.6424 22.9492,32.9692 22.544,32.3574 22.0308,31.8428 21.5177,31.3283 20.907,30.9213 20.2345,30.6459 18.9388,30.1047 17.4851,30.0803 16.172,30.5776 l 3.2923,1.3634 c 2.0735,0.871 3.055,3.25 2.1921,5.3235 -0.8629,2.0735 -3.25,3.055 -5.3235,2.1921 z M 41.0654,19.2969 c -0.0017,-1.731 -0.6896,-3.3908 -1.9128,-4.6156 -1.2233,-1.2248 -2.8822,-1.9147 -4.6132,-1.9185 -1.733,0 -3.395,0.6884 -4.6203,1.9138 -1.2254,1.2253 -1.9138,2.8873 -1.9138,4.6203 0,1.7329 0.6884,3.3949 1.9138,4.6203 1.2253,1.2254 2.8873,1.9138 4.6203,1.9138 1.7314,-0.0026 3.391,-0.6921 4.6146,-1.9171 1.2235,-1.2251 1.911,-2.8856 1.9114,-4.617 z M 29.6481,19.2887 c 0,-2.717 2.1922,-4.9091 4.901,-4.9091 2.7089,0 4.9173,2.1921 4.9173,4.9091 0,2.7089 -2.2084,4.9092 -4.9173,4.9092 -2.7088,0 -4.901,-2.2003 -4.901,-4.9092 z"
       fill="white"
       id="path2"
       style="fill:#000000" />
  </g>
  <defs
     id="defs9">
    <clipPath
       id="clip0_6_11">
      <rect
         width="52"
         height="52"
         fill="#ffffff"
         id="rect6"
         x="0"
         y="0" />
    </clipPath>
  </defs>
</svg>
