<?xml version="1.0" encoding="UTF-8" standalone="no"?>
<svg
   width="54"
   height="54"
   viewBox="0 0 54 54"
   fill="none"
   version="1.1"
   id="svg50"
   sodipodi:docname="telegram.svg"
   inkscape:version="1.1.1 (3bf5ae0d25, 2021-09-20)"
   xmlns:inkscape="http://www.inkscape.org/namespaces/inkscape"
   xmlns:sodipodi="http://sodipodi.sourceforge.net/DTD/sodipodi-0.dtd"
   xmlns="http://www.w3.org/2000/svg"
   xmlns:svg="http://www.w3.org/2000/svg">
  <defs
     id="defs54" />
  <sodipodi:namedview
     id="namedview52"
     pagecolor="#ffffff"
     bordercolor="#666666"
     borderopacity="1.0"
     inkscape:pageshadow="2"
     inkscape:pageopacity="0.0"
     inkscape:pagecheckerboard="0"
     showgrid="false"
     inkscape:zoom="13.40884"
     inkscape:cx="74.465802"
     inkscape:cy="25.542851"
     inkscape:window-width="1366"
     inkscape:window-height="697"
     inkscape:window-x="1432"
     inkscape:window-y="-8"
     inkscape:window-maximized="1"
     inkscape:current-layer="svg50" />
  <path
     fill-rule="evenodd"
     clip-rule="evenodd"
     d="M54 27C54 41.9107 41.9107 54 27 54C12.0893 54 0 41.9107 0 27C0 12.0893 12.0893 0 27 0C41.9107 0 54 12.0893 54 27ZM27.9675 19.9328C25.3418 21.024 20.0925 23.2853 12.222 26.7143C10.944 27.2228 10.2735 27.72 10.2128 28.206C10.1093 29.0295 11.1397 29.3535 12.5392 29.7923C12.7305 29.853 12.9285 29.9137 13.131 29.9812C14.5102 30.429 16.3643 30.9532 17.3273 30.9735C18.2025 30.9915 19.179 30.6315 20.2568 29.8935C27.6098 24.9278 31.4055 22.419 31.644 22.365C31.8128 22.3267 32.0467 22.2772 32.2042 22.419C32.3617 22.5585 32.346 22.824 32.3303 22.896C32.2268 23.3302 28.1902 27.0855 26.0977 29.0295C25.4452 29.6348 24.984 30.0645 24.8895 30.1635C24.678 30.3818 24.462 30.591 24.255 30.7913C22.9725 32.0243 22.014 32.9513 24.309 34.4633C25.4115 35.19 26.2935 35.7908 27.1732 36.3893C28.134 37.044 29.0925 37.6965 30.3345 38.511C30.6495 38.718 30.951 38.9317 31.2458 39.141C32.364 39.9397 33.3698 40.6552 34.6118 40.5427C35.3318 40.4752 36.0787 39.798 36.4567 37.7752C37.35 32.9917 39.1095 22.6328 39.5167 18.3623C39.5415 18.0077 39.5264 17.6515 39.4717 17.3003C39.439 17.0166 39.3009 16.7556 39.0848 16.569C38.763 16.3057 38.2635 16.2495 38.0385 16.254C37.0238 16.272 35.4668 16.8143 27.9675 19.9328V19.9328Z"
     fill="white"
     id="path48"
     style="fill:#000000" />
</svg>
