<?xml version="1.0" encoding="UTF-8" standalone="no"?>
<svg
   width="54"
   height="54"
   viewBox="0 0 54 54"
   fill="none"
   version="1.1"
   id="svg88"
   sodipodi:docname="twitter.svg"
   inkscape:version="1.1.1 (3bf5ae0d25, 2021-09-20)"
   xmlns:inkscape="http://www.inkscape.org/namespaces/inkscape"
   xmlns:sodipodi="http://sodipodi.sourceforge.net/DTD/sodipodi-0.dtd"
   xmlns="http://www.w3.org/2000/svg"
   xmlns:svg="http://www.w3.org/2000/svg">
  <defs
     id="defs92" />
  <sodipodi:namedview
     id="namedview90"
     pagecolor="#ffffff"
     bordercolor="#666666"
     borderopacity="1.0"
     inkscape:pageshadow="2"
     inkscape:pageopacity="0.0"
     inkscape:pagecheckerboard="0"
     showgrid="false"
     inkscape:zoom="1.5084945"
     inkscape:cx="-51.375727"
     inkscape:cy="12.926796"
     inkscape:window-width="1366"
     inkscape:window-height="697"
     inkscape:window-x="1432"
     inkscape:window-y="-8"
     inkscape:window-maximized="1"
     inkscape:current-layer="svg88" />
  <path
     d="M 27,0 C 12.089726,0 0,12.089725 0,27 0,41.910275 12.089726,54 27,54 41.910274,54 54,41.910275 54,27 54,12.089725 41.910274,0 27,0 Z m 12.975634,20.352446 c 0.0181,0.283273 0.0181,0.578566 0.0181,0.867909 0,8.847258 -6.737966,19.038549 -19.050686,19.038549 -3.796868,0 -7.316537,-1.102834 -10.281702,-3.001268 0.542468,0.06026 1.060765,0.08435 1.615165,0.08435 3.133955,0 6.014777,-1.060765 8.31096,-2.856755 -2.940994,-0.06016 -5.412034,-1.988743 -6.255771,-4.640605 1.030526,0.150681 1.958708,0.150681 3.019371,-0.12055 -1.514365,-0.307651 -2.875474,-1.130097 -3.852205,-2.327662 -0.976629,-1.197463 -1.508709,-2.696195 -1.50552,-4.241521 v -0.08435 c 0.885908,0.500191 1.928571,0.807527 3.019371,0.849809 -0.916971,-0.611172 -1.669063,-1.439177 -2.189417,-2.41056 -0.520457,-0.971384 -0.793132,-2.056217 -0.793852,-3.158229 0,-1.247553 0.32544,-2.386594 0.91008,-3.375051 1.680892,2.06928 3.778355,3.761588 6.156103,4.967075 2.377749,1.205588 4.982606,1.897199 7.645166,2.030091 -0.946183,-4.550195 2.452937,-8.232583 6.539143,-8.232583 1.928571,0 3.664286,0.807527 4.887668,2.109394 1.51272,-0.283273 2.9592,-0.849808 4.248926,-1.6092 -0.500194,1.548926 -1.548926,2.856652 -2.941097,3.682389 1.35,-0.144612 2.65176,-0.518303 3.857143,-1.042665 -0.91008,1.337967 -2.04912,2.525247 -3.356949,3.471429 z"
     fill="white"
     id="path86"
     style="fill:#000000;stroke-width:1.02858" />
</svg>
