<?xml version="1.0" encoding="UTF-8" standalone="no"?>
<svg
   width="54"
   height="54"
   viewBox="0 0 54 54"
   fill="none"
   version="1.1"
   id="svg126"
   sodipodi:docname="vk.svg"
   inkscape:version="1.1.1 (3bf5ae0d25, 2021-09-20)"
   xmlns:inkscape="http://www.inkscape.org/namespaces/inkscape"
   xmlns:sodipodi="http://sodipodi.sourceforge.net/DTD/sodipodi-0.dtd"
   xmlns="http://www.w3.org/2000/svg"
   xmlns:svg="http://www.w3.org/2000/svg">
  <defs
     id="defs130" />
  <sodipodi:namedview
     id="namedview128"
     pagecolor="#ffffff"
     bordercolor="#666666"
     borderopacity="1.0"
     inkscape:pageshadow="2"
     inkscape:pageopacity="0.0"
     inkscape:pagecheckerboard="0"
     showgrid="false"
     inkscape:zoom="2.3703704"
     inkscape:cx="-10.335937"
     inkscape:cy="14.132812"
     inkscape:window-width="1366"
     inkscape:window-height="697"
     inkscape:window-x="1432"
     inkscape:window-y="-8"
     inkscape:window-maximized="1"
     inkscape:current-layer="svg126" />
  <path
     d="M 27.000005,0 C 12.088133,0 0,12.088125 0,27 0,41.911875 12.088133,54 27.000005,54 41.911877,54 54,41.911875 54,27 54,12.088125 41.911877,0 27.000005,0 Z m 10.383748,30.462187 c 0,0 2.387812,2.356875 2.975625,3.450938 0.01687,0.0225 0.02531,0.045 0.03094,0.05625 0.239063,0.402187 0.295313,0.714375 0.177188,0.947812 -0.196875,0.388125 -0.871875,0.579375 -1.1025,0.59625 h -4.218749 c -0.2925,0 -0.905625,-0.07594 -1.648125,-0.587812 C 33.027195,34.52625 32.464695,33.870937 31.916257,33.2325 31.09782,32.281875 30.38907,31.460625 29.674695,31.460625 c -0.09073,-1.04e-4 -0.180937,0.01406 -0.267187,0.04219 -0.54,0.174375 -1.231875,0.945001 -1.231875,2.998125 0,0.64125 -0.50625,1.009688 -0.863437,1.009688 h -1.932187 c -0.658125,0 -4.086562,-0.230625 -7.124062,-3.434063 -3.718124,-3.923437 -7.064998,-11.792812 -7.093123,-11.865937 -0.210938,-0.509063 0.225,-0.781875 0.700312,-0.781875 h 4.260937 c 0.568125,0 0.75375,0.345937 0.883125,0.6525 0.151875,0.357187 0.708749,1.7775 1.622812,3.375 1.482187,2.604375 2.390624,3.661875 3.119062,3.661875 0.136562,-0.0016 0.270729,-0.03635 0.390937,-0.10125 0.950625,-0.52875 0.773437,-3.917813 0.73125,-4.620938 0,-0.132187 -0.0028,-1.515937 -0.489375,-2.179687 -0.34875,-0.480938 -0.942187,-0.66375 -1.302187,-0.73125 0.145729,-0.201042 0.337708,-0.364063 0.559687,-0.475313 0.6525,-0.32625 1.828125,-0.374062 2.995312,-0.374062 h 0.649688 c 1.265624,0.01688 1.591874,0.09844 2.050312,0.21375 0.928124,0.222187 0.947812,0.82125 0.866249,2.871562 -0.02531,0.582188 -0.05063,1.240313 -0.05063,2.016563 0,0.16875 -0.0084,0.34875 -0.0084,0.54 -0.02812,1.043437 -0.06188,2.2275 0.675,2.714062 0.09615,0.06031 0.207187,0.0924 0.320625,0.09281 0.255937,0 1.026562,0 3.113437,-3.580313 0.643541,-1.152395 1.202812,-2.349895 1.673437,-3.583125 0.04219,-0.07313 0.165937,-0.298125 0.312187,-0.385312 0.107917,-0.055 0.227604,-0.08302 0.34875,-0.08156 h 5.009062 c 0.545625,0 0.919687,0.08156 0.99,0.2925 0.12375,0.334688 -0.0225,1.355625 -2.309062,4.452188 l -1.020938,1.347187 c -2.072812,2.716875 -2.072812,2.854688 0.129375,4.91625 z"
     fill="white"
     id="path124"
     style="fill:#000000;stroke-width:1.04167" />
</svg>
