<?xml version="1.0" encoding="UTF-8" standalone="no"?>
<svg
   width="1024"
   height="1024"
   viewBox="0 0 1024 1024"
   fill="none"
   version="1.1"
   id="svg194"
   sodipodi:docname="vscode_1024.svg"
   inkscape:version="1.1.1 (3bf5ae0d25, 2021-09-20)"
   xmlns:inkscape="http://www.inkscape.org/namespaces/inkscape"
   xmlns:sodipodi="http://sodipodi.sourceforge.net/DTD/sodipodi-0.dtd"
   xmlns="http://www.w3.org/2000/svg"
   xmlns:svg="http://www.w3.org/2000/svg">
  <sodipodi:namedview
     id="namedview196"
     pagecolor="#ffffff"
     bordercolor="#666666"
     borderopacity="1.0"
     inkscape:pageshadow="2"
     inkscape:pageopacity="0.0"
     inkscape:pagecheckerboard="0"
     showgrid="false"
     inkscape:zoom="0.23570226"
     inkscape:cx="265.16504"
     inkscape:cy="235.46656"
     inkscape:window-width="1366"
     inkscape:window-height="697"
     inkscape:window-x="1912"
     inkscape:window-y="-8"
     inkscape:window-maximized="1"
     inkscape:current-layer="svg194" />
  <g
     clip-path="url(#clip0_6_29)"
     id="g187"
     transform="matrix(42.667643,0,0,42.888785,-0.02343804,-2.6344927)">
    <path
       d="M 23.1488,2.586 18.2115,0.21075 C 17.9323,0.0754683 17.6178,0.0305814 17.3119,0.082333 17.0059,0.134085 16.7237,0.279902 16.5045,0.4995 L 7.04775,9.12825 2.9265,6.003 C 2.7409,5.8611 2.51137,5.78886 2.27795,5.79886 2.04453,5.80887 1.82203,5.90049 1.64925,6.05775 l -1.319999,1.203 C 0.22608,7.35398 0.143542,7.46776 0.0869359,7.59478 0.0303296,7.72179 9.05649e-4,7.85924 5.52533e-4,7.9983 1.99416e-4,8.13735 0.028925,8.27495 0.0848854,8.40225 0.140846,8.52955 0.222805,8.64374 0.325501,8.7375 L 3.9,11.9992 0.325501,15.261 C 0.222805,15.3548 0.140846,15.469 0.0848854,15.5963 0.028925,15.7236 1.99416e-4,15.8611 5.52533e-4,16.0002 9.05649e-4,16.1393 0.0303296,16.2767 0.0869359,16.4037 0.143542,16.5307 0.22608,16.6445 0.329251,16.7377 l 1.319999,1.203 c 0.17278,0.1573 0.39528,0.2489 0.6287,0.2589 0.23342,0.01 0.46295,-0.0622 0.64855,-0.2041 l 4.12125,-3.129 9.46125,8.6325 c 0.2184,0.2196 0.5,0.3654 0.8054,0.4172 0.3053,0.0518 0.6193,0.0069 0.8979,-0.1285 l 4.9417,-2.3789 c 0.2545,-0.1223 0.4691,-0.3141 0.6191,-0.5533 0.15,-0.2392 0.2292,-0.5159 0.2284,-0.7982 V 3.936 c 0,-0.5745 -0.3322,-1.10175 -0.8512,-1.3515 z M 18.0038,17.4495 10.824,12 18.0038,6.5505 Z"
       fill="white"
       id="path185"
       style="fill:#000000" />
  </g>
  <defs
     id="defs192">
    <clipPath
       id="clip0_6_29">
      <rect
         width="24"
         height="24"
         fill="#ffffff"
         id="rect189"
         x="0"
         y="0" />
    </clipPath>
  </defs>
</svg>
