<?xml version="1.0" encoding="UTF-8" standalone="no"?>
<svg
   width="24"
   height="24"
   viewBox="0 0 24 24"
   fill="none"
   version="1.1"
   id="svg194"
   sodipodi:docname="vscode.svg"
   inkscape:version="1.1.1 (3bf5ae0d25, 2021-09-20)"
   xmlns:inkscape="http://www.inkscape.org/namespaces/inkscape"
   xmlns:sodipodi="http://sodipodi.sourceforge.net/DTD/sodipodi-0.dtd"
   xmlns="http://www.w3.org/2000/svg"
   xmlns:svg="http://www.w3.org/2000/svg">
  <sodipodi:namedview
     id="namedview196"
     pagecolor="#ffffff"
     bordercolor="#666666"
     borderopacity="1.0"
     inkscape:pageshadow="2"
     inkscape:pageopacity="0.0"
     inkscape:pagecheckerboard="0"
     showgrid="false"
     inkscape:zoom="7.5424723"
     inkscape:cx="23.400815"
     inkscape:cy="12.529048"
     inkscape:window-width="1366"
     inkscape:window-height="697"
     inkscape:window-x="1432"
     inkscape:window-y="-8"
     inkscape:window-maximized="1"
     inkscape:current-layer="svg194" />
  <g
     clip-path="url(#clip0_6_29)"
     id="g187">
    <path
       d="M23.1488 2.586L18.2115 0.21075C17.9323 0.0754683 17.6178 0.0305814 17.3119 0.082333C17.0059 0.134085 16.7237 0.279902 16.5045 0.4995L7.04775 9.12825L2.9265 6.003C2.7409 5.8611 2.51137 5.78886 2.27795 5.79886C2.04453 5.80887 1.82203 5.90049 1.64925 6.05775L0.329251 7.26075C0.22608 7.35398 0.143542 7.46776 0.0869359 7.59478C0.0303296 7.72179 0.000905649 7.85924 0.000552533 7.9983C0.000199416 8.13735 0.028925 8.27495 0.0848854 8.40225C0.140846 8.52955 0.222805 8.64374 0.325501 8.7375L3.9 11.9992L0.325501 15.261C0.222805 15.3548 0.140846 15.469 0.0848854 15.5963C0.028925 15.7236 0.000199416 15.8611 0.000552533 16.0002C0.000905649 16.1393 0.0303296 16.2767 0.0869359 16.4037C0.143542 16.5307 0.22608 16.6445 0.329251 16.7377L1.64925 17.9407C1.82203 18.098 2.04453 18.1896 2.27795 18.1996C2.51137 18.2096 2.7409 18.1374 2.9265 17.9955L7.04775 14.8665L16.509 23.499C16.7274 23.7186 17.009 23.8644 17.3144 23.9162C17.6197 23.968 17.9337 23.9231 18.2123 23.7877L23.154 21.4088C23.4085 21.2865 23.6231 21.0947 23.7731 20.8555C23.9231 20.6163 24.0023 20.3396 24.0015 20.0573V3.936C24.0015 3.3615 23.6693 2.83425 23.1503 2.5845L23.1488 2.586ZM18.0038 17.4495L10.824 12L18.0038 6.5505V17.4495Z"
       fill="white"
       id="path185"
       style="fill:#000000" />
  </g>
  <defs
     id="defs192">
    <clipPath
       id="clip0_6_29">
      <rect
         width="24"
         height="24"
         fill="white"
         id="rect189" />
    </clipPath>
  </defs>
</svg>
