<?xml version="1.0" encoding="UTF-8" standalone="no"?>
<svg
   width="54"
   height="54"
   viewBox="0 0 54 54"
   fill="none"
   version="1.1"
   id="svg19"
   sodipodi:docname="yt.svg"
   inkscape:version="1.1.1 (3bf5ae0d25, 2021-09-20)"
   xmlns:inkscape="http://www.inkscape.org/namespaces/inkscape"
   xmlns:sodipodi="http://sodipodi.sourceforge.net/DTD/sodipodi-0.dtd"
   xmlns="http://www.w3.org/2000/svg"
   xmlns:svg="http://www.w3.org/2000/svg">
  <defs
     id="defs23" />
  <sodipodi:namedview
     id="namedview21"
     pagecolor="#ffffff"
     bordercolor="#666666"
     borderopacity="1.0"
     inkscape:pageshadow="2"
     inkscape:pageopacity="0.0"
     inkscape:pagecheckerboard="0"
     showgrid="false"
     inkscape:zoom="4.5277778"
     inkscape:cx="10.932515"
     inkscape:cy="16.01227"
     inkscape:window-width="1366"
     inkscape:window-height="697"
     inkscape:window-x="1432"
     inkscape:window-y="-8"
     inkscape:window-maximized="1"
     inkscape:current-layer="svg19" />
  <path
     d="m 31.508442,26.530312 -6.316874,-2.9475 c -0.55125,-0.255937 -1.004062,0.03094 -1.004062,0.64125 v 5.551875 c 0,0.610313 0.452812,0.897188 1.004062,0.64125 l 6.314061,-2.9475 c 0.554063,-0.25875 0.554063,-0.680625 0.0028,-0.939375 z M 27.000005,0 C 12.088133,0 0,12.088125 0,27 0,41.911875 12.088133,54 27.000005,54 41.911877,54 54,41.911875 54,27 54,12.088125 41.911877,0 27.000005,0 Z m 0,37.96875 C 13.179383,37.96875 12.937508,36.722812 12.937508,27 c 0,-9.722813 0.241875,-10.96875 14.062497,-10.96875 13.820623,0 14.062497,1.245937 14.062497,10.96875 0,9.722812 -0.241874,10.96875 -14.062497,10.96875 z"
     fill="white"
     id="path17"
     style="fill:#000000;stroke-width:1.04167" />
</svg>
