<?xml version="1.0" encoding="UTF-8" ?>
<!DOCTYPE svg PUBLIC "-//W3C//DTD SVG 1.1//EN" "http://www.w3.org/Graphics/SVG/1.1/DTD/svg11.dtd">
<svg width="123pt" height="124pt" viewBox="0 0 123 124" version="1.1" xmlns="http://www.w3.org/2000/svg">
<g id="#050b0c12">
<path fill="#050b0c" opacity="0.07" d=" M 56.29 13.37 C 61.60 12.20 66.98 13.46 72.14 14.75 C 80.44 16.64 87.84 21.32 94.24 26.81 C 102.94 36.02 108.79 48.26 109.01 61.06 C 108.75 73.61 103.09 85.60 94.69 94.77 C 85.55 103.24 73.48 108.55 60.98 109.03 C 48.24 108.53 35.94 103.02 26.77 94.23 C 18.49 84.83 12.84 72.67 13.03 59.98 C 13.57 47.80 19.08 36.24 27.22 27.31 C 35.23 19.89 45.45 14.90 56.29 13.37 M 27.28 34.35 C 20.10 44.14 18.11 57.40 21.85 68.93 C 24.81 78.31 31.53 86.37 40.10 91.16 C 40.61 92.46 41.16 93.92 42.57 94.50 C 47.58 97.33 53.26 98.88 58.98 99.34 C 78.49 100.62 97.37 84.49 99.02 64.99 C 99.32 61.50 99.90 57.70 98.02 54.53 C 97.22 43.51 91.70 32.90 82.89 26.19 C 74.78 19.84 64.09 16.95 53.89 18.36 C 43.32 19.69 33.42 25.65 27.28 34.35 Z" />
</g>
<g id="#ffffffff">
<path fill="#ffffff" opacity="1.00" d=" M 27.28 34.35 C 33.42 25.65 43.32 19.69 53.89 18.36 C 64.09 16.95 74.78 19.84 82.89 26.19 C 91.70 32.90 97.22 43.51 98.02 54.53 C 98.61 66.05 94.09 77.75 85.55 85.57 C 73.64 96.95 54.42 99.26 40.10 91.16 C 31.53 86.37 24.81 78.31 21.85 68.93 C 18.11 57.40 20.10 44.14 27.28 34.35 M 59.90 45.31 C 60.01 43.09 60.02 40.86 59.96 38.63 C 56.93 39.02 57.02 44.64 59.90 45.31 M 29.25 72.71 C 37.07 88.04 57.67 94.58 73.07 87.17 C 83.99 82.62 91.50 71.69 92.83 60.07 C 93.58 53.49 92.03 46.87 89.23 40.93 C 90.59 46.20 92.45 51.49 91.94 57.03 C 91.53 71.29 80.86 84.48 66.94 87.73 C 51.16 92.26 33.24 82.29 28.02 66.88 C 24.68 58.46 26.02 49.21 28.80 40.86 C 23.82 50.75 23.60 63.04 29.25 72.71 M 50.52 41.59 C 49.59 42.37 51.22 43.61 51.49 44.47 C 52.32 45.41 53.13 47.48 54.66 46.49 C 54.38 45.23 53.88 44.01 53.13 42.96 C 52.52 42.24 51.56 40.20 50.52 41.59 M 66.42 41.41 C 65.19 42.59 62.21 45.84 64.59 46.82 C 66.19 45.30 67.64 43.41 67.72 41.12 C 67.39 41.19 66.75 41.33 66.42 41.41 M 45.36 46.27 C 43.12 48.88 41.86 52.16 40.02 55.04 C 39.23 56.62 37.87 58.12 37.96 59.99 C 39.00 61.37 40.68 62.03 42.09 62.95 C 43.13 62.32 44.16 61.69 45.19 61.06 C 45.28 62.71 44.75 64.64 46.03 65.97 C 48.51 68.98 51.01 71.97 53.31 75.12 C 55.27 75.02 57.25 74.84 59.10 74.12 C 60.32 74.49 61.54 74.87 62.76 75.23 C 63.17 74.77 63.97 73.86 64.38 73.41 C 65.69 72.82 67.20 72.39 67.96 71.05 C 70.09 68.03 73.81 65.43 72.87 61.26 C 74.81 62.61 77.24 63.05 79.04 61.16 C 81.55 59.25 78.71 56.40 77.51 54.61 C 76.52 56.20 77.49 57.75 78.22 59.19 C 77.44 59.90 76.66 60.61 75.87 61.32 C 73.61 57.25 71.31 53.20 68.90 49.22 C 69.82 48.76 70.74 48.30 71.67 47.84 C 72.74 48.74 73.67 52.36 75.11 50.02 C 74.44 48.11 72.84 44.91 70.33 46.33 C 68.21 47.03 67.60 49.47 65.93 50.70 C 61.36 48.97 56.33 48.72 51.82 50.82 C 50.60 48.52 48.38 45.19 45.36 46.27 M 75.05 52.14 C 74.52 53.78 75.07 54.34 76.69 53.82 C 77.22 52.19 76.67 51.63 75.05 52.14 Z" />
<path fill="#ffffff" opacity="1.00" d=" M 46.23 47.77 C 47.20 48.23 48.18 48.69 49.16 49.16 C 46.88 53.07 44.57 56.96 42.48 60.98 C 41.54 60.54 40.60 60.09 39.66 59.65 C 41.69 55.61 44.04 51.73 46.23 47.77 Z" />
<path fill="#ffffff" opacity="1.00" d=" M 53.57 52.76 C 57.66 48.71 63.74 53.30 68.62 52.06 C 69.98 54.63 71.43 57.15 72.94 59.65 C 72.43 60.01 71.42 60.74 70.92 61.10 C 67.93 58.74 65.09 56.12 61.68 54.38 C 59.12 53.20 55.66 55.05 53.57 52.76 Z" />
<path fill="#ffffff" opacity="1.00" d=" M 49.41 51.98 C 49.92 52.04 50.94 52.15 51.45 52.20 C 52.31 53.40 53.03 54.77 54.23 55.68 C 57.35 56.29 60.97 55.12 63.52 57.58 C 66.30 59.96 70.24 61.59 71.42 65.33 C 69.49 64.51 67.66 63.50 65.69 62.77 C 66.40 64.89 68.22 66.34 69.40 68.18 C 67.09 67.56 64.90 66.57 62.67 65.72 C 64.08 67.53 65.61 69.27 66.67 71.32 C 64.57 70.54 62.58 69.51 60.54 68.58 C 61.39 70.15 62.32 71.68 63.21 73.23 C 60.51 73.46 59.47 71.01 58.29 69.10 C 58.40 68.67 58.62 67.81 58.73 67.38 C 57.81 65.76 57.50 63.92 57.10 62.13 C 55.29 60.70 53.14 59.71 51.02 58.82 C 49.43 58.99 48.26 60.22 46.97 61.04 C 46.52 60.70 45.62 60.03 45.16 59.69 C 46.65 57.16 48.11 54.61 49.41 51.98 Z" />
<path fill="#ffffff" opacity="1.00" d=" M 46.60 65.35 C 47.19 62.90 49.20 61.24 51.50 60.43 C 53.05 63.18 48.58 64.58 46.60 65.35 Z" />
<path fill="#ffffff" opacity="1.00" d=" M 53.57 74.24 C 54.34 72.08 56.16 70.71 58.49 70.68 C 57.68 72.85 55.96 74.25 53.57 74.24 Z" />
</g>
<g id="#ffbb38ff">
<path fill="#ffbb38" opacity="1.00" d=" M 59.90 45.31 C 57.02 44.64 56.93 39.02 59.96 38.63 C 60.02 40.86 60.01 43.09 59.90 45.31 Z" />
</g>
<g id="#ffe983ff">
<path fill="#ffe983" opacity="1.00" d=" M 29.25 72.71 C 23.60 63.04 23.82 50.75 28.80 40.86 C 26.02 49.21 24.68 58.46 28.02 66.88 C 33.24 82.29 51.16 92.26 66.94 87.73 C 80.86 84.48 91.53 71.29 91.94 57.03 C 92.45 51.49 90.59 46.20 89.23 40.93 C 92.03 46.87 93.58 53.49 92.83 60.07 C 91.50 71.69 83.99 82.62 73.07 87.17 C 57.67 94.58 37.07 88.04 29.25 72.71 Z" />
</g>
<g id="#ffcc6bff">
<path fill="#ffcc6b" opacity="1.00" d=" M 50.52 41.59 C 51.56 40.20 52.52 42.24 53.13 42.96 C 53.88 44.01 54.38 45.23 54.66 46.49 C 53.13 47.48 52.32 45.41 51.49 44.47 C 51.22 43.61 49.59 42.37 50.52 41.59 Z" />
</g>
<g id="#ffc658ff">
<path fill="#ffc658" opacity="1.00" d=" M 66.42 41.41 C 66.75 41.33 67.39 41.19 67.72 41.12 C 67.64 43.41 66.19 45.30 64.59 46.82 C 62.21 45.84 65.19 42.59 66.42 41.41 Z" />
</g>
<g id="#ffba35ff">
<path fill="#ffba35" opacity="1.00" d=" M 45.36 46.27 C 48.38 45.19 50.60 48.52 51.82 50.82 C 56.33 48.72 61.36 48.97 65.93 50.70 C 67.60 49.47 68.21 47.03 70.33 46.33 C 72.84 44.91 74.44 48.11 75.11 50.02 C 73.67 52.36 72.74 48.74 71.67 47.84 C 70.74 48.30 69.82 48.76 68.90 49.22 C 71.31 53.20 73.61 57.25 75.87 61.32 C 76.66 60.61 77.44 59.90 78.22 59.19 C 77.49 57.75 76.52 56.20 77.51 54.61 C 78.71 56.40 81.55 59.25 79.04 61.16 C 77.24 63.05 74.81 62.61 72.87 61.26 C 73.81 65.43 70.09 68.03 67.96 71.05 C 67.20 72.39 65.69 72.82 64.38 73.41 C 63.97 73.86 63.17 74.77 62.76 75.23 C 61.54 74.87 60.32 74.49 59.10 74.12 C 57.25 74.84 55.27 75.02 53.31 75.12 C 51.01 71.97 48.51 68.98 46.03 65.97 C 44.75 64.64 45.28 62.71 45.19 61.06 C 44.16 61.69 43.13 62.32 42.09 62.95 C 40.68 62.03 39.00 61.37 37.96 59.99 C 37.87 58.12 39.23 56.62 40.02 55.04 C 41.86 52.16 43.12 48.88 45.36 46.27 M 46.23 47.77 C 44.04 51.73 41.69 55.61 39.66 59.65 C 40.60 60.09 41.54 60.54 42.48 60.98 C 44.57 56.96 46.88 53.07 49.16 49.16 C 48.18 48.69 47.20 48.23 46.23 47.77 M 53.57 52.76 C 55.66 55.05 59.12 53.20 61.68 54.38 C 65.09 56.12 67.93 58.74 70.92 61.10 C 71.42 60.74 72.43 60.01 72.94 59.65 C 71.43 57.15 69.98 54.63 68.62 52.06 C 63.74 53.30 57.66 48.71 53.57 52.76 M 49.41 51.98 C 48.11 54.61 46.65 57.16 45.16 59.69 C 45.62 60.03 46.52 60.70 46.97 61.04 C 48.26 60.22 49.43 58.99 51.02 58.82 C 53.14 59.71 55.29 60.70 57.10 62.13 C 57.50 63.92 57.81 65.76 58.73 67.38 C 58.62 67.81 58.40 68.67 58.29 69.10 C 59.47 71.01 60.51 73.46 63.21 73.23 C 62.32 71.68 61.39 70.15 60.54 68.58 C 62.58 69.51 64.57 70.54 66.67 71.32 C 65.61 69.27 64.08 67.53 62.67 65.72 C 64.90 66.57 67.09 67.56 69.40 68.18 C 68.22 66.34 66.40 64.89 65.69 62.77 C 67.66 63.50 69.49 64.51 71.42 65.33 C 70.24 61.59 66.30 59.96 63.52 57.58 C 60.97 55.12 57.35 56.29 54.23 55.68 C 53.03 54.77 52.31 53.40 51.45 52.20 C 50.94 52.15 49.92 52.04 49.41 51.98 M 46.60 65.35 C 48.58 64.58 53.05 63.18 51.50 60.43 C 49.20 61.24 47.19 62.90 46.60 65.35 M 48.59 68.11 C 52.14 68.11 54.63 65.28 56.59 62.66 C 53.02 62.42 50.34 65.36 48.59 68.11 M 51.49 71.40 C 54.14 70.80 56.37 69.12 57.51 66.63 C 54.61 66.64 52.10 68.52 51.49 71.40 M 53.57 74.24 C 55.96 74.25 57.68 72.85 58.49 70.68 C 56.16 70.71 54.34 72.08 53.57 74.24 Z" />
</g>
<g id="#ffc759ff">
<path fill="#ffc759" opacity="1.00" d=" M 75.05 52.14 C 76.67 51.63 77.22 52.19 76.69 53.82 C 75.07 54.34 74.52 53.78 75.05 52.14 Z" />
</g>
<g id="#0b161a25">
<path fill="#0b161a" opacity="0.15" d=" M 98.02 54.53 C 99.90 57.70 99.32 61.50 99.02 64.99 C 97.37 84.49 78.49 100.62 58.98 99.34 C 53.26 98.88 47.58 97.33 42.57 94.50 C 41.16 93.92 40.61 92.46 40.10 91.16 C 54.42 99.26 73.64 96.95 85.55 85.57 C 94.09 77.75 98.61 66.05 98.02 54.53 Z" />
</g>
<g id="#fff7e9ff">
<path fill="#fff7e9" opacity="1.00" d=" M 48.59 68.11 C 50.34 65.36 53.02 62.42 56.59 62.66 C 54.63 65.28 52.14 68.11 48.59 68.11 Z" />
</g>
<g id="#fff8ecff">
<path fill="#fff8ec" opacity="1.00" d=" M 51.49 71.40 C 52.10 68.52 54.61 66.64 57.51 66.63 C 56.37 69.12 54.14 70.80 51.49 71.40 Z" />
</g>
</svg>
