<svg width="17" height="17" viewBox="0 0 17 17" fill="none" xmlns="http://www.w3.org/2000/svg">
<path d="M16.9568 4.99806C16.917 4.09478 16.7709 3.47379 16.5616 2.93569C16.3457 2.36451 16.0135 1.85313 15.5783 1.42802C15.1531 0.996291 14.6383 0.660821 14.0736 0.448331C13.5323 0.239084 12.9144 0.0930131 12.011 0.0531874C11.1008 0.00998885 10.8118 0 8.50331 0C6.19479 0 5.90584 0.00998885 4.99902 0.0498146C4.09556 0.0896403 3.47445 0.235841 2.93638 0.444958C2.36496 0.660821 1.85348 0.992918 1.42829 1.42802C0.996481 1.85313 0.661077 2.36788 0.448417 2.93244C0.23913 3.47379 0.0930309 4.09141 0.0531976 4.99469C0.00999076 5.90471 0 6.19361 0 8.50169C0 10.8098 0.00999076 11.0987 0.0498241 12.0053C0.0896574 12.9086 0.235886 13.5296 0.445173 14.0677C0.661077 14.6389 0.996481 15.1502 1.42829 15.5754C1.85348 16.0071 2.36833 16.3426 2.933 16.555C3.47445 16.7643 4.09219 16.9104 4.99577 16.9502C5.90247 16.9901 6.19155 17 8.50006 17C10.8086 17 11.0975 16.9901 12.0044 16.9502C12.9078 16.9104 13.5289 16.7643 14.067 16.555C15.2097 16.1133 16.1132 15.21 16.555 14.0677C16.7641 13.5263 16.9103 12.9086 16.9502 12.0053C16.99 11.0987 17 10.8098 17 8.50169C17 6.19361 16.9966 5.90471 16.9568 4.99806ZM15.4256 11.9389C15.389 12.7691 15.2495 13.2175 15.1333 13.5164C14.8476 14.257 14.2597 14.8447 13.5189 15.1304C13.22 15.2466 12.7683 15.3861 11.9412 15.4225C11.0443 15.4625 10.7754 15.4724 8.50668 15.4724C6.238 15.4724 5.96565 15.4625 5.07206 15.4225C4.24166 15.3861 3.79325 15.2466 3.4943 15.1304C3.12568 14.9942 2.79015 14.7783 2.5178 14.496C2.23547 14.2204 2.01956 13.8883 1.88332 13.5197C1.76707 13.2208 1.62759 12.7691 1.59113 11.9423C1.55116 11.0456 1.5413 10.7766 1.5413 8.5083C1.5413 6.24005 1.55116 5.96776 1.59113 5.07447C1.62759 4.24423 1.76707 3.7959 1.88332 3.49701C2.01956 3.12833 2.23547 2.79299 2.52118 2.52057C2.79677 2.23828 3.12893 2.02242 3.49768 1.88634C3.79662 1.7701 4.24841 1.63065 5.07544 1.59407C5.97227 1.55424 6.24137 1.54425 8.50993 1.54425C10.782 1.54425 11.051 1.55424 11.9445 1.59407C12.7749 1.63065 13.2234 1.7701 13.5223 1.88634C13.8909 2.02242 14.2265 2.23828 14.4988 2.52057C14.7811 2.79623 14.997 3.12833 15.1333 3.49701C15.2495 3.7959 15.389 4.24747 15.4256 5.07447C15.4654 5.97113 15.4754 6.24005 15.4754 8.5083C15.4754 10.7766 15.4654 11.0422 15.4256 11.9389Z" fill="#959595"/>
<path d="M8.5 4C6.01567 4 4 6.01554 4 8.5C4 10.9845 6.01567 13 8.5 13C10.9845 13 13 10.9845 13 8.5C13 6.01554 10.9845 4 8.5 4ZM8.5 11.419C6.88829 11.419 5.58096 10.1118 5.58096 8.5C5.58096 6.88816 6.88829 5.58096 8.5 5.58096C10.1118 5.58096 11.419 6.88816 11.419 8.5C11.419 10.1118 10.1118 11.419 8.5 11.419Z" fill="#959595"/>
<path d="M14 4C14 4.55223 13.5523 5 12.9999 5C12.4477 5 12 4.55223 12 4C12 3.44764 12.4477 3 12.9999 3C13.5523 3 14 3.44764 14 4Z" fill="#959595"/>
</svg>
