<svg width="10" height="18" viewBox="0 0 10 18" fill="none" xmlns="http://www.w3.org/2000/svg">
<path d="M5 10C2.25 10 0 7.75 0 5C0 2.25 2.25 0 5 0C7.75 0 10 2.25 10 5C10 7.75 7.75 10 5 10ZM5 2.375C3.5625 2.375 2.375 3.5625 2.375 5C2.375 6.4375 3.5625 7.625 5 7.625C6.4375 7.625 7.625 6.4375 7.625 5C7.625 3.5625 6.4375 2.375 5 2.375Z" fill="#959595"/>
<path d="M9.76669 10.4492C9.37871 9.95674 8.71359 9.90202 8.21475 10.2303C8.21475 10.2303 6.99536 11.1058 5 11.1058C3.00464 11.1058 1.78526 10.2303 1.78526 10.2303C1.28642 9.8473 0.621295 9.95674 0.233308 10.4492C-0.154678 10.9416 -0.043825 11.5982 0.455015 11.9812C0.510442 12.0359 1.6744 12.9114 3.61433 13.185L0.676722 16.1397C0.233309 16.5774 0.233309 17.2887 0.676722 17.6717C0.898429 17.8906 1.17556 18 1.4527 18C1.72983 18 2.00696 17.8906 2.22867 17.6717L5 14.8812L7.77133 17.6717C7.99304 17.8906 8.27017 18 8.54731 18C8.82444 18 9.10157 17.8906 9.32328 17.6717C9.76669 17.234 9.76669 16.5774 9.32328 16.1397L6.38567 13.185C8.3256 12.8567 9.48956 11.9812 9.54499 11.9812C10.0438 11.5982 10.1547 10.8869 9.76669 10.4492Z" fill="#959595"/>
</svg>
