<svg width="13" height="17" viewBox="0 0 13 17" fill="none" xmlns="http://www.w3.org/2000/svg">
<path d="M5.97005e-05 6.09808C5.97005e-05 5.3631 0.127731 4.66874 0.379318 4.02068C0.619691 3.39122 0.976818 2.8135 1.43167 2.31831C1.88559 1.82963 2.40504 1.40705 2.97499 1.0628C3.55976 0.706788 4.19284 0.438203 4.85438 0.265466C5.52392 0.0885429 6.21334 -0.00068149 6.90557 3.91892e-06C7.97482 3.91892e-06 8.96991 0.227678 9.89271 0.681137C10.8035 1.12633 11.5787 1.80954 12.1373 2.65935C12.7137 3.52376 13 4.50153 13 5.59172C13 6.24546 12.9362 6.88503 12.8057 7.51042C12.6776 8.13547 12.4739 8.74239 12.1992 9.31765C11.9374 9.87451 11.5952 10.3893 11.1835 10.8452C10.7698 11.2939 10.2687 11.6522 9.71153 11.8976C9.1066 12.1644 8.4522 12.2987 7.79176 12.2916C7.33271 12.2916 6.8746 12.1829 6.42211 11.9647C5.96963 11.7474 5.64482 11.4489 5.44956 11.0663C5.38103 11.3318 5.28715 11.7153 5.1623 12.2169C5.04214 12.7176 4.9614 13.0407 4.92573 13.1872C4.88818 13.3326 4.81871 13.5754 4.71733 13.9118C4.64857 14.1605 4.56036 14.4035 4.45353 14.6382L4.1306 15.275C3.99094 15.5482 3.83482 15.8126 3.6631 16.0666C3.49318 16.3141 3.2829 16.6098 3.03225 16.9499L2.89238 17L2.79944 16.898C2.69899 15.8276 2.64736 15.1871 2.64736 14.9755C2.64736 14.3492 2.72152 13.6463 2.86797 12.866C3.0116 12.0866 3.23878 11.1069 3.54388 9.92887C3.84897 8.75177 4.02358 8.0593 4.07052 7.85429C3.85554 7.41312 3.74665 6.83685 3.74665 6.12832C3.74665 5.56244 3.9222 5.03246 4.27423 4.53365C4.6272 4.03674 5.07312 3.78828 5.61384 3.78828C6.02783 3.78828 6.34889 3.9262 6.57889 4.203C6.80982 4.47886 6.92247 4.82651 6.92247 5.25068C6.92247 5.70036 6.77415 6.35127 6.47562 7.20245C6.1771 8.05457 6.02877 8.69036 6.02877 9.11264C6.02877 9.5406 6.18085 9.89864 6.48501 10.1792C6.78517 10.4599 7.18213 10.6121 7.59181 10.6034C7.96356 10.6034 8.30808 10.5184 8.6282 10.3474C8.94331 10.1814 9.21607 9.94441 9.4252 9.65491C9.88071 9.02601 10.2054 8.31109 10.3799 7.55293C10.47 7.15427 10.5395 6.77544 10.5827 6.41929C10.6287 6.06124 10.6484 5.72304 10.6484 5.40184C10.6484 4.22379 10.2767 3.30553 9.53786 2.64802C8.7953 1.9905 7.82837 1.66363 6.63897 1.66363C5.28621 1.66363 4.15501 2.10387 3.24911 2.98717C2.34226 3.86763 1.88603 4.98711 1.88603 6.34465C1.88603 6.64413 1.93109 6.93321 2.01652 7.21284C2.10006 7.49153 2.19112 7.71353 2.28969 7.87791C2.38732 8.03946 2.47932 8.19722 2.56287 8.34271C2.64736 8.48819 2.69148 8.59211 2.69148 8.65446C2.69148 8.84529 2.64173 9.09375 2.54128 9.40078C2.43708 9.70781 2.3141 9.86085 2.16578 9.86085C2.1517 9.86085 2.09349 9.85046 1.99211 9.82873C1.64098 9.72324 1.32388 9.52604 1.07306 9.25718C0.806865 8.97855 0.596786 8.65069 0.454419 8.29169C0.312458 7.93398 0.201888 7.56445 0.123976 7.18733C0.0397989 6.8305 -0.0018001 6.46483 5.97005e-05 6.09808Z" fill="#959595"/>
</svg>
