<svg width="321" height="45" viewBox="0 0 321 45" fill="none" xmlns="http://www.w3.org/2000/svg">
<rect y="-21" width="14" height="76" transform="rotate(30 0 -21)" fill="white"/>
<rect x="21.6506" y="-8.5" width="14" height="76" transform="rotate(30 21.6506 -8.5)" fill="white"/>
<rect x="60" y="-21" width="14" height="76" transform="rotate(30 60 -21)" fill="white"/>
<rect x="81.6506" y="-8.5" width="14" height="76" transform="rotate(30 81.6506 -8.5)" fill="white"/>
<rect x="120" y="-21" width="14" height="76" transform="rotate(30 120 -21)" fill="white"/>
<rect x="141.651" y="-8.5" width="14" height="76" transform="rotate(30 141.651 -8.5)" fill="white"/>
<rect x="180" y="-21" width="14" height="76" transform="rotate(30 180 -21)" fill="white"/>
<rect x="201.651" y="-8.5" width="14" height="76" transform="rotate(30 201.651 -8.5)" fill="white"/>
<rect x="240" y="-21" width="14" height="76" transform="rotate(30 240 -21)" fill="white"/>
<rect x="261.651" y="-8.5" width="14" height="76" transform="rotate(30 261.651 -8.5)" fill="white"/>
<rect x="300" y="-21" width="14" height="76" transform="rotate(30 300 -21)" fill="white"/>
<rect x="321.651" y="-8.5" width="14" height="76" transform="rotate(30 321.651 -8.5)" fill="white"/>
</svg>
