<svg width="321" height="45" viewBox="0 0 321 45" fill="none" xmlns="http://www.w3.org/2000/svg">
<path fill-rule="evenodd" clip-rule="evenodd" d="M0.444444 14.5947C0.444444 14.5947 -0.555556 16.5947 0.444444 27.5947C1.44444 38.5947 6.94444 40.5947 11.9444 42.0947C15.9444 43.2947 42.2778 43.928 54.9444 44.0947C65.2313 43.9722 85.2361 43.7058 101.471 43.4144C110.542 43.7841 121.187 44.0058 127.944 44.0947C141.52 43.933 172.021 43.5207 188.447 43.1311C198.36 43.6733 212.61 43.985 220.944 44.0947C234.944 43.928 266.944 43.4947 282.944 43.0947C302.944 42.5947 312.944 39.5947 314.944 37.5947C316.944 35.5947 319.444 32.5947 319.944 29.0947C320.444 25.5947 320.444 22.0947 320.444 18.0947C320.444 14.0947 319.944 8.09467 312.944 3.59467C306.741 -0.39351 278.151 -0.0616507 267.203 0.0654299C265.798 0.0817385 264.684 0.0946746 263.944 0.0946746C259.235 0.0946746 230.373 0.357189 207.795 0.882219C196.672 -0.195383 181.509 -0.0193772 174.203 0.0654299C172.798 0.0817385 171.684 0.0946746 170.944 0.0946746C167.311 0.0946746 149.302 0.250928 130.893 0.563435C120.351 -0.156831 107.685 -0.00980934 101.203 0.0654299C99.7982 0.0817385 98.6837 0.0946746 97.9444 0.0946746C91.4444 0.0946746 38.9444 0.594675 20.4444 1.59467C5.64444 2.39467 0.944444 10.5947 0.444444 14.5947Z" fill="#FF6900"/>
<path fill-rule="evenodd" clip-rule="evenodd" d="M0.444444 14.5947C0.444444 14.5947 -0.555556 16.5947 0.444444 27.5947C1.44444 38.5947 6.94444 40.5947 11.9444 42.0947C15.9444 43.2947 42.2778 43.928 54.9444 44.0947C65.2313 43.9722 85.2361 43.7058 101.471 43.4144C110.542 43.7841 121.187 44.0058 127.944 44.0947C141.52 43.933 172.021 43.5207 188.447 43.1311C198.36 43.6733 212.61 43.985 220.944 44.0947C234.944 43.928 266.944 43.4947 282.944 43.0947C302.944 42.5947 312.944 39.5947 314.944 37.5947C316.944 35.5947 319.444 32.5947 319.944 29.0947C320.444 25.5947 320.444 22.0947 320.444 18.0947C320.444 14.0947 319.944 8.09467 312.944 3.59467C306.741 -0.39351 278.151 -0.0616507 267.203 0.0654299C265.798 0.0817385 264.684 0.0946746 263.944 0.0946746C259.235 0.0946746 230.373 0.357189 207.795 0.882219C196.672 -0.195383 181.509 -0.0193772 174.203 0.0654299C172.798 0.0817385 171.684 0.0946746 170.944 0.0946746C167.311 0.0946746 149.302 0.250928 130.893 0.563435C120.351 -0.156831 107.685 -0.00980934 101.203 0.0654299C99.7982 0.0817385 98.6837 0.0946746 97.9444 0.0946746C91.4444 0.0946746 38.9444 0.594675 20.4444 1.59467C5.64444 2.39467 0.944444 10.5947 0.444444 14.5947Z" fill="white"/>
</svg>
