<?xml version="1.0" encoding="utf-8"?><svg xmlns="http://www.w3.org/2000/svg" xmlns:xlink="http://www.w3.org/1999/xlink"><symbol fill="none" viewBox="0 0 15 18" id="about-icon-01_gray" xmlns="http://www.w3.org/2000/svg">
    <path d="M3.167 4.83v7.413m0-7.412V1.125h3.25v7.412M3.167 4.83l3.25 3.706m0 0v6.868c0 .182-.008.356-.023.517m.023-7.385l-3.25 3.706m0 0v3.162c0 .812.162 1.47.361 1.47h2.528c.155 0 .287-.396.338-.953m-3.227-3.68l3.227 3.68" stroke="#818285" stroke-linecap="round" stroke-linejoin="round"/>
    <path d="M1 1.125v2.25H12.787C13.457 3.375 14 3.207 14 3V1.5c0-.16-.327-.298-.786-.351a3.724 3.724 0 00-.427-.024H1zM11.833 3.938v6.187L10.75 11.25l1.083 1.125h.542" stroke="#818285" stroke-linecap="round" stroke-linejoin="round"/>
</symbol><symbol fill="none" viewBox="0 0 15 18" id="about-icon-01_red" xmlns="http://www.w3.org/2000/svg">
    <path d="M3.167 4.83v7.413m0-7.412V1.125h3.25v7.412M3.167 4.83l3.25 3.706m0 0v6.868c0 .182-.008.356-.023.517m.023-7.385l-3.25 3.706m0 0v3.162c0 .812.162 1.47.361 1.47h2.528c.155 0 .287-.396.338-.953m-3.227-3.68l3.227 3.68" stroke="#FF502F" stroke-linecap="round" stroke-linejoin="round"/>
    <path d="M1 1.125v2.25H12.787C13.457 3.375 14 3.207 14 3V1.5c0-.16-.327-.298-.786-.351a3.724 3.724 0 00-.427-.024H1zM11.833 3.938v6.187L10.75 11.25l1.083 1.125h.542" stroke="#FF502F" stroke-linecap="round" stroke-linejoin="round"/>
</symbol><symbol fill="none" viewBox="0 0 15 18" id="about-icon-01_white" xmlns="http://www.w3.org/2000/svg">
    <path d="M3.167 4.83v7.413m0-7.412V1.125h3.25v7.412M3.167 4.83l3.25 3.706m0 0v6.868c0 .182-.008.356-.023.517m.023-7.385l-3.25 3.706m0 0v3.162c0 .812.162 1.47.361 1.47h2.528c.155 0 .287-.396.338-.953m-3.227-3.68l3.227 3.68" stroke="#fff" stroke-linecap="round" stroke-linejoin="round"/>
    <path d="M1 1.125v2.25H12.787C13.457 3.375 14 3.207 14 3V1.5c0-.16-.327-.298-.786-.351a3.724 3.724 0 00-.427-.024H1zM11.833 3.938v6.187L10.75 11.25l1.083 1.125h.542" stroke="#fff" stroke-linecap="round" stroke-linejoin="round"/>
</symbol><symbol fill="none" viewBox="0 0 18 18" id="about-icon-02_gray" xmlns="http://www.w3.org/2000/svg">
    <path fill-rule="evenodd" clip-rule="evenodd" d="M1 1h6.222v6.222H1V1zM10.775 1h6.223v6.222h-6.223V1zM10.775 10.778h6.223V17h-6.223v-6.222zM1 10.778h6.222V17H1v-6.222z" stroke="#818285" stroke-width="1.25" stroke-linecap="round" stroke-linejoin="round"/>
</symbol><symbol fill="none" viewBox="0 0 18 18" id="about-icon-02_red" xmlns="http://www.w3.org/2000/svg">
    <path fill-rule="evenodd" clip-rule="evenodd" d="M1 1h6.222v6.222H1V1zM10.775 1h6.223v6.222h-6.223V1zM10.775 10.778h6.223V17h-6.223v-6.222zM1 10.778h6.222V17H1v-6.222z" stroke="#FF502F" stroke-width="1.25" stroke-linecap="round" stroke-linejoin="round"/>
</symbol><symbol fill="none" viewBox="0 0 18 18" id="about-icon-02_white" xmlns="http://www.w3.org/2000/svg">
    <path fill-rule="evenodd" clip-rule="evenodd" d="M1 1h6.222v6.222H1V1zM10.775 1h6.223v6.222h-6.223V1zM10.775 10.778h6.223V17h-6.223v-6.222zM1 10.778h6.222V17H1v-6.222z" stroke="#fff" stroke-width="1.25" stroke-linecap="round" stroke-linejoin="round"/>
</symbol><symbol fill="none" viewBox="0 0 19 19" id="about-icon-03_gray" xmlns="http://www.w3.org/2000/svg">
    <path d="M9.56 1l2.75 5.214 5.809 1.005-4.109 4.227.84 5.835-5.29-2.601-5.29 2.601.839-5.835L1 7.22l5.809-1.005L9.559 1z" stroke="#818285" stroke-width="1.5" stroke-linecap="round" stroke-linejoin="round"/>
</symbol><symbol fill="none" viewBox="0 0 19 19" id="about-icon-03_red" xmlns="http://www.w3.org/2000/svg">
    <path d="M9.56 1l2.75 5.214 5.809 1.005-4.109 4.227.84 5.835-5.29-2.601-5.29 2.601.839-5.835L1 7.22l5.809-1.005L9.559 1z" stroke="#FF502F" stroke-width="1.5" stroke-linecap="round" stroke-linejoin="round"/>
</symbol><symbol fill="none" viewBox="0 0 19 19" id="about-icon-03_white" xmlns="http://www.w3.org/2000/svg">
    <path d="M9.56 1l2.75 5.214 5.809 1.005-4.109 4.227.84 5.835-5.29-2.601-5.29 2.601.839-5.835L1 7.22l5.809-1.005L9.559 1z" stroke="#fff" stroke-width="1.5" stroke-linecap="round" stroke-linejoin="round"/>
</symbol><symbol fill="none" viewBox="0 0 17 17" id="about-icon-04_gray" xmlns="http://www.w3.org/2000/svg">
    <path d="M6.5 1V.25a.75.75 0 00-.75.75h.75zm0 5.5v.75a.75.75 0 00.75-.75H6.5zM1 6.5v-.75a.75.75 0 00-.75.75H1zM1 16H.25c0 .414.336.75.75.75V16zm15 0v.75a.75.75 0 00.75-.75H16zm0-15h.75A.75.75 0 0016 .25V1zm-3.5 6.75a.75.75 0 000 1.5v-1.5zM9.25 12.5a.75.75 0 00-1.5 0h1.5zM5.75 1v5.5h1.5V1h-1.5zm.75 4.75H1v1.5h5.5v-1.5zM.25 6.5V16h1.5V6.5H.25zM16 .25H6.5v1.5H16V.25zM16.75 16V8.5h-1.5V16h1.5zm0-7.5V1h-1.5v7.5h1.5zM16 7.75h-3.5v1.5H16v-1.5zm-15 9h7.5v-1.5H1v1.5zm7.5 0H16v-1.5H8.5v1.5zm0-.75h.75v-.001-.001-.001-.001-.001-.001-.001-.001-.001-.001-.002-.002-.002-.001-.001-.002-.002-.002-.001-.001-.002-.001-.002-.002-.001-.002-.002-.001-.002-.002-.002-.002-.001-.002-.002-.002-.002-.003-.002-.002-.002-.002-.003-.002-.002-.003-.002-.003-.002-.003-.002-.003-.003-.002-.003-.003-.003-.002-.003-.003-.003-.003-.003-.003-.003-.003-.004-.003-.003-.003-.004-.003-.003-.004-.003-.003-.004-.003-.004-.004-.003-.004-.004-.003-.004-.004-.004-.004-.003-.004-.004-.004-.004-.004-.004-.005-.004-.004-.004-.004-.005-.004-.004-.004-.005-.004-.005-.004-.005-.004-.005-.005-.004-.005-.005-.004-.005-.005-.005-.005-.004-.005-.005-.005-.005-.005-.005-.005-.006-.005-.005-.005-.005-.006-.005-.005-.006-.005-.005-.006-.005-.006-.005-.006-.005-.006-.005-.006-.006-.005-.006-.006-.006-.006-.005-.006-.006-.006-.006-.006-.006-.006-.006-.006-.006-.006-.007-.006-.006-.006-.006-.007-.006-.006-.007-.006-.006-.007-.006-.007-.006-.007-.006-.007-.007-.006-.007-.007-.006-.007-.007-.007-.006-.007-.007-.007-.007-.007-.007-.006-.008-.007-.007-.007-.007-.007-.007-.007-.007-.007-.008-.007-.007-.007-.008-.007-.007-.008-.007-.007-.008-.007-.008V15v-.008-.007-.008-.007-.008-.007-.008-.008-.007-.008-.008-.007-.008-.008-.008-.007-.008-.008-.008-.008-.008-.007-.008-.008-.008-.008-.008-.008-.008-.008-.008-.009-.008-.008-.008-.008-.008-.009-.008-.008-.008-.008-.009-.008-.008-.009-.008-.008-.009-.008-.008-.009-.008-.009-.008-.009-.008-.009-.008-.009-.008-.01-.008-.008-.009-.009-.008-.009-.009-.008-.009-.009-.008-.01-.008-.009-.009-.008-.01-.008-.009-.009-.009-.009-.008-.01-.008-.01-.008-.01-.008-.01-.008-.01-.008-.01-.008-.01-.008-.01-.009-.009-.009-.01-.008-.01-.009-.009-.009-.01-.008-.01-.009-.01-.008-.01-.009-.01-.008-.01-.01-.008-.01-.01-.009-.009-.01-.009-.009-.01-.009-.01-.009-.01-.009-.01-.008-.01-.01-.009-.01-.009-.01-.009-.01-.01-.009-.01-.009-.01-.009-.01-.01-.009-.01-.009-.01-.01-.009-.01-.01-.009-.01-.01-.009-.01-.01-.009-.01-.01-.009-.01-.01-.009-.01-.01-.01-.009-.01-.01-.01-.009-.01-.01-.01-.01-.009-.01-.01-.01-.009-.01-.01-.01-.01-.01-.009-.01-.01-.01-.01-.009-.01-.01-.01-.01-.01-.01-.009-.01-.01-.01-.01-.01-.01-.009-.01-.01-.01-.01-.01-.01-.009-.01-.01-.01-.01-.01-.01-.01-.009-.01-.01-.01-.01-.01-.01-.01-.009-.01-.01-.01-.01-.01-.01-.01-.009-.01-.01-.01-.01-.01-.01-.009-.01-.01-.01-.01-.01-.01-.009-.01-.01-.01-.01-.01-.009-.01-.01-.01-.01-.009h-1.5V16h.75z" fill="#818285"/>
</symbol><symbol fill="none" viewBox="0 0 17 17" id="about-icon-04_red" xmlns="http://www.w3.org/2000/svg">
    <path d="M6.5 1V.25a.75.75 0 00-.75.75h.75zm0 5.5v.75a.75.75 0 00.75-.75H6.5zM1 6.5v-.75a.75.75 0 00-.75.75H1zM1 16H.25c0 .414.336.75.75.75V16zm15 0v.75a.75.75 0 00.75-.75H16zm0-15h.75A.75.75 0 0016 .25V1zm-3.5 6.75a.75.75 0 000 1.5v-1.5zM9.25 12.5a.75.75 0 00-1.5 0h1.5zM5.75 1v5.5h1.5V1h-1.5zm.75 4.75H1v1.5h5.5v-1.5zM.25 6.5V16h1.5V6.5H.25zM16 .25H6.5v1.5H16V.25zM16.75 16V8.5h-1.5V16h1.5zm0-7.5V1h-1.5v7.5h1.5zM16 7.75h-3.5v1.5H16v-1.5zm-15 9h7.5v-1.5H1v1.5zm7.5 0H16v-1.5H8.5v1.5zm0-.75h.75v-.001-.001-.001-.001-.001-.001-.001-.001-.001-.001-.002-.002-.002-.001-.001-.002-.002-.002-.001-.001-.002-.001-.002-.002-.001-.002-.002-.001-.002-.002-.002-.002-.001-.002-.002-.002-.002-.003-.002-.002-.002-.002-.003-.002-.002-.003-.002-.003-.002-.003-.002-.003-.003-.002-.003-.003-.003-.002-.003-.003-.003-.003-.003-.003-.003-.003-.004-.003-.003-.003-.004-.003-.003-.004-.003-.003-.004-.003-.004-.004-.003-.004-.004-.003-.004-.004-.004-.004-.003-.004-.004-.004-.004-.004-.004-.005-.004-.004-.004-.004-.005-.004-.004-.004-.005-.004-.005-.004-.005-.004-.005-.005-.004-.005-.005-.004-.005-.005-.005-.005-.004-.005-.005-.005-.005-.005-.005-.005-.006-.005-.005-.005-.005-.006-.005-.005-.006-.005-.005-.006-.005-.006-.005-.006-.005-.006-.005-.006-.006-.005-.006-.006-.006-.006-.005-.006-.006-.006-.006-.006-.006-.006-.006-.006-.006-.006-.007-.006-.006-.006-.006-.007-.006-.006-.007-.006-.006-.007-.006-.007-.006-.007-.006-.007-.007-.006-.007-.007-.006-.007-.007-.007-.006-.007-.007-.007-.007-.007-.007-.006-.008-.007-.007-.007-.007-.007-.007-.007-.007-.007-.008-.007-.007-.007-.008-.007-.007-.008-.007-.007-.008-.007-.008V15v-.008-.007-.008-.007-.008-.007-.008-.008-.007-.008-.008-.007-.008-.008-.008-.007-.008-.008-.008-.008-.008-.007-.008-.008-.008-.008-.008-.008-.008-.008-.008-.009-.008-.008-.008-.008-.008-.009-.008-.008-.008-.008-.009-.008-.008-.009-.008-.008-.009-.008-.008-.009-.008-.009-.008-.009-.008-.009-.008-.009-.008-.01-.008-.008-.009-.009-.008-.009-.009-.008-.009-.009-.008-.01-.008-.009-.009-.008-.01-.008-.009-.009-.009-.009-.008-.01-.008-.01-.008-.01-.008-.01-.008-.01-.008-.01-.008-.01-.008-.01-.009-.009-.009-.01-.008-.01-.009-.009-.009-.01-.008-.01-.009-.01-.008-.01-.009-.01-.008-.01-.01-.008-.01-.01-.009-.009-.01-.009-.009-.01-.009-.01-.009-.01-.009-.01-.008-.01-.01-.009-.01-.009-.01-.009-.01-.01-.009-.01-.009-.01-.009-.01-.01-.009-.01-.009-.01-.01-.009-.01-.01-.009-.01-.01-.009-.01-.01-.009-.01-.01-.009-.01-.01-.009-.01-.01-.01-.009-.01-.01-.01-.009-.01-.01-.01-.01-.009-.01-.01-.01-.009-.01-.01-.01-.01-.01-.009-.01-.01-.01-.01-.009-.01-.01-.01-.01-.01-.01-.009-.01-.01-.01-.01-.01-.01-.009-.01-.01-.01-.01-.01-.01-.009-.01-.01-.01-.01-.01-.01-.01-.009-.01-.01-.01-.01-.01-.01-.01-.009-.01-.01-.01-.01-.01-.01-.01-.009-.01-.01-.01-.01-.01-.01-.009-.01-.01-.01-.01-.01-.01-.009-.01-.01-.01-.01-.01-.009-.01-.01-.01-.01-.009h-1.5V16h.75z" fill="#FF502F"/>
</symbol><symbol fill="none" viewBox="0 0 17 17" id="about-icon-04_white" xmlns="http://www.w3.org/2000/svg">
    <path d="M6.5 1V.25a.75.75 0 00-.75.75h.75zm0 5.5v.75a.75.75 0 00.75-.75H6.5zM1 6.5v-.75a.75.75 0 00-.75.75H1zM1 16H.25c0 .414.336.75.75.75V16zm15 0v.75a.75.75 0 00.75-.75H16zm0-15h.75A.75.75 0 0016 .25V1zm-3.5 6.75a.75.75 0 000 1.5v-1.5zM9.25 12.5a.75.75 0 00-1.5 0h1.5zM5.75 1v5.5h1.5V1h-1.5zm.75 4.75H1v1.5h5.5v-1.5zM.25 6.5V16h1.5V6.5H.25zM16 .25H6.5v1.5H16V.25zM16.75 16V8.5h-1.5V16h1.5zm0-7.5V1h-1.5v7.5h1.5zM16 7.75h-3.5v1.5H16v-1.5zm-15 9h7.5v-1.5H1v1.5zm7.5 0H16v-1.5H8.5v1.5zm0-.75h.75v-.001-.001-.001-.001-.001-.001-.001-.001-.001-.001-.002-.002-.002-.001-.001-.002-.002-.002-.001-.001-.002-.001-.002-.002-.001-.002-.002-.001-.002-.002-.002-.002-.001-.002-.002-.002-.002-.003-.002-.002-.002-.002-.003-.002-.002-.003-.002-.003-.002-.003-.002-.003-.003-.002-.003-.003-.003-.002-.003-.003-.003-.003-.003-.003-.003-.003-.004-.003-.003-.003-.004-.003-.003-.004-.003-.003-.004-.003-.004-.004-.003-.004-.004-.003-.004-.004-.004-.004-.003-.004-.004-.004-.004-.004-.004-.005-.004-.004-.004-.004-.005-.004-.004-.004-.005-.004-.005-.004-.005-.004-.005-.005-.004-.005-.005-.004-.005-.005-.005-.005-.004-.005-.005-.005-.005-.005-.005-.005-.006-.005-.005-.005-.005-.006-.005-.005-.006-.005-.005-.006-.005-.006-.005-.006-.005-.006-.005-.006-.006-.005-.006-.006-.006-.006-.005-.006-.006-.006-.006-.006-.006-.006-.006-.006-.006-.006-.007-.006-.006-.006-.006-.007-.006-.006-.007-.006-.006-.007-.006-.007-.006-.007-.006-.007-.007-.006-.007-.007-.006-.007-.007-.007-.006-.007-.007-.007-.007-.007-.007-.006-.008-.007-.007-.007-.007-.007-.007-.007-.007-.007-.008-.007-.007-.007-.008-.007-.007-.008-.007-.007-.008-.007-.008V15v-.008-.007-.008-.007-.008-.007-.008-.008-.007-.008-.008-.007-.008-.008-.008-.007-.008-.008-.008-.008-.008-.007-.008-.008-.008-.008-.008-.008-.008-.008-.008-.009-.008-.008-.008-.008-.008-.009-.008-.008-.008-.008-.009-.008-.008-.009-.008-.008-.009-.008-.008-.009-.008-.009-.008-.009-.008-.009-.008-.009-.008-.01-.008-.008-.009-.009-.008-.009-.009-.008-.009-.009-.008-.01-.008-.009-.009-.008-.01-.008-.009-.009-.009-.009-.008-.01-.008-.01-.008-.01-.008-.01-.008-.01-.008-.01-.008-.01-.008-.01-.009-.009-.009-.01-.008-.01-.009-.009-.009-.01-.008-.01-.009-.01-.008-.01-.009-.01-.008-.01-.01-.008-.01-.01-.009-.009-.01-.009-.009-.01-.009-.01-.009-.01-.009-.01-.008-.01-.01-.009-.01-.009-.01-.009-.01-.01-.009-.01-.009-.01-.009-.01-.01-.009-.01-.009-.01-.01-.009-.01-.01-.009-.01-.01-.009-.01-.01-.009-.01-.01-.009-.01-.01-.009-.01-.01-.01-.009-.01-.01-.01-.009-.01-.01-.01-.01-.009-.01-.01-.01-.009-.01-.01-.01-.01-.01-.009-.01-.01-.01-.01-.009-.01-.01-.01-.01-.01-.01-.009-.01-.01-.01-.01-.01-.01-.009-.01-.01-.01-.01-.01-.01-.009-.01-.01-.01-.01-.01-.01-.01-.009-.01-.01-.01-.01-.01-.01-.01-.009-.01-.01-.01-.01-.01-.01-.01-.009-.01-.01-.01-.01-.01-.01-.009-.01-.01-.01-.01-.01-.01-.009-.01-.01-.01-.01-.01-.009-.01-.01-.01-.01-.009h-1.5V16h.75z" fill="#fff"/>
</symbol><symbol fill="none" viewBox="0 0 17 16" id="about-icon-05_gray" xmlns="http://www.w3.org/2000/svg">
    <path d="M14.672 3.048c-6.55 0-7.158 10.759-12.95 10.759M15.509 2.948l-1.83 2.472M15.508 2.948L13.15.874M1.722 1.89c2.33 0 3.822 1.742 5.198 3.824m7.752 6.936c-2.163 0-3.678-1.174-4.946-2.745 0 0 1.074 1.354 2.045 1.904 1.008.572 2.901.84 2.901.84zM15.509 12.75l-1.83-2.473M15.508 12.749l-2.358 2.074" stroke="#818285" stroke-width="1.5" stroke-linecap="round" stroke-linejoin="round"/>
</symbol><symbol fill="none" viewBox="0 0 17 16" id="about-icon-05_red" xmlns="http://www.w3.org/2000/svg">
    <path d="M14.672 3.048c-6.55 0-7.158 10.759-12.95 10.759M15.509 2.948l-1.83 2.472M15.508 2.948L13.15.874M1.722 1.89c2.33 0 3.822 1.742 5.198 3.824m7.752 6.936c-2.163 0-3.678-1.174-4.946-2.745 0 0 1.074 1.354 2.045 1.904 1.008.572 2.901.84 2.901.84zM15.509 12.75l-1.83-2.473M15.508 12.749l-2.358 2.074" stroke="#FF502F" stroke-width="1.5" stroke-linecap="round" stroke-linejoin="round"/>
</symbol><symbol fill="none" viewBox="0 0 17 16" id="about-icon-05_white" xmlns="http://www.w3.org/2000/svg">
    <path d="M14.672 3.048c-6.55 0-7.158 10.759-12.95 10.759M15.509 2.948l-1.83 2.472M15.508 2.948L13.15.874M1.722 1.89c2.33 0 3.822 1.742 5.198 3.824m7.752 6.936c-2.163 0-3.678-1.174-4.946-2.745 0 0 1.074 1.354 2.045 1.904 1.008.572 2.901.84 2.901.84zM15.509 12.75l-1.83-2.473M15.508 12.749l-2.358 2.074" stroke="#fff" stroke-width="1.5" stroke-linecap="round" stroke-linejoin="round"/>
</symbol><symbol fill="none" viewBox="0 0 17 20" id="about-icon-06_gray" xmlns="http://www.w3.org/2000/svg">
    <path fill-rule="evenodd" clip-rule="evenodd" d="M16 8.364C16 14.09 8.5 19 8.5 19S1 14.09 1 8.364C1 4.296 4.357 1 8.5 1S16 4.296 16 8.364z" stroke="#818285" stroke-width="1.5" stroke-linecap="round" stroke-linejoin="round"/>
    <path fill-rule="evenodd" clip-rule="evenodd" d="M8.499 10.818c1.38 0 2.5-1.099 2.5-2.454 0-1.356-1.12-2.455-2.5-2.455s-2.5 1.099-2.5 2.455c0 1.355 1.12 2.454 2.5 2.454z" stroke="#818285" stroke-width="1.5" stroke-linecap="round" stroke-linejoin="round"/>
</symbol><symbol fill="none" viewBox="0 0 17 20" id="about-icon-06_red" xmlns="http://www.w3.org/2000/svg">
    <path fill-rule="evenodd" clip-rule="evenodd" d="M16 8.364C16 14.09 8.5 19 8.5 19S1 14.09 1 8.364C1 4.296 4.357 1 8.5 1S16 4.296 16 8.364z" stroke="#FF502F" stroke-width="1.5" stroke-linecap="round" stroke-linejoin="round"/>
    <path fill-rule="evenodd" clip-rule="evenodd" d="M8.499 10.818c1.38 0 2.5-1.099 2.5-2.454 0-1.356-1.12-2.455-2.5-2.455s-2.5 1.099-2.5 2.455c0 1.355 1.12 2.454 2.5 2.454z" stroke="#FF502F" stroke-width="1.5" stroke-linecap="round" stroke-linejoin="round"/>
</symbol><symbol fill="none" viewBox="0 0 17 20" id="about-icon-06_white" xmlns="http://www.w3.org/2000/svg">
    <path fill-rule="evenodd" clip-rule="evenodd" d="M16 8.364C16 14.09 8.5 19 8.5 19S1 14.09 1 8.364C1 4.296 4.357 1 8.5 1S16 4.296 16 8.364z" stroke="#fff" stroke-width="1.5" stroke-linecap="round" stroke-linejoin="round"/>
    <path fill-rule="evenodd" clip-rule="evenodd" d="M8.499 10.818c1.38 0 2.5-1.099 2.5-2.454 0-1.356-1.12-2.455-2.5-2.455s-2.5 1.099-2.5 2.455c0 1.355 1.12 2.454 2.5 2.454z" stroke="#fff" stroke-width="1.5" stroke-linecap="round" stroke-linejoin="round"/>
</symbol><symbol fill="none" viewBox="0 0 18 16" id="about-icon-07_gray" xmlns="http://www.w3.org/2000/svg">
    <path fill-rule="evenodd" clip-rule="evenodd" d="M1 3.8V15l5.09-2.8 5.82 2.8L17 12.2V1l-5.09 2.8L6.09 1 1 3.8z" stroke="#818285" stroke-width="1.5" stroke-linecap="round" stroke-linejoin="round"/>
    <path d="M6.09 1v11.2M11.91 3.8V15" stroke="#818285" stroke-width="1.5" stroke-linecap="round" stroke-linejoin="round"/>
</symbol><symbol fill="none" viewBox="0 0 18 16" id="about-icon-07_red" xmlns="http://www.w3.org/2000/svg">
    <path fill-rule="evenodd" clip-rule="evenodd" d="M1 3.8V15l5.09-2.8 5.82 2.8L17 12.2V1l-5.09 2.8L6.09 1 1 3.8z" stroke="#FF502F" stroke-width="1.5" stroke-linecap="round" stroke-linejoin="round"/>
    <path d="M6.09 1v11.2M11.91 3.8V15" stroke="#FF502F" stroke-width="1.5" stroke-linecap="round" stroke-linejoin="round"/>
</symbol><symbol fill="none" viewBox="0 0 18 16" id="about-icon-07_white" xmlns="http://www.w3.org/2000/svg">
    <path fill-rule="evenodd" clip-rule="evenodd" d="M1 3.8V15l5.09-2.8 5.82 2.8L17 12.2V1l-5.09 2.8L6.09 1 1 3.8z" stroke="#fff" stroke-width="1.5" stroke-linecap="round" stroke-linejoin="round"/>
    <path d="M6.09 1v11.2M11.91 3.8V15" stroke="#fff" stroke-width="1.5" stroke-linecap="round" stroke-linejoin="round"/>
</symbol><symbol fill="none" viewBox="0 0 14 18" id="about-icon-08_gray" xmlns="http://www.w3.org/2000/svg">
    <path d="M11.667 2.44H13v4.32l-6.667.879m5.334-5.199V1H1v3.6h10.667V2.44zM6.333 7.64L5 9.079 5.667 17H7l.667-7.92-1.334-1.441z" stroke="#818285" stroke-width="1.25" stroke-linecap="round" stroke-linejoin="round"/>
</symbol><symbol fill="none" viewBox="0 0 14 18" id="about-icon-08_red" xmlns="http://www.w3.org/2000/svg">
    <path d="M11.667 2.44H13v4.32l-6.667.879m5.334-5.199V1H1v3.6h10.667V2.44zM6.333 7.64L5 9.079 5.667 17H7l.667-7.92-1.334-1.441z" stroke="#FF502F" stroke-width="1.25" stroke-linecap="round" stroke-linejoin="round"/>
</symbol><symbol fill="none" viewBox="0 0 14 18" id="about-icon-08_white" xmlns="http://www.w3.org/2000/svg">
    <path d="M11.667 2.44H13v4.32l-6.667.879m5.334-5.199V1H1v3.6h10.667V2.44zM6.333 7.64L5 9.079 5.667 17H7l.667-7.92-1.334-1.441z" stroke="#fff" stroke-width="1.25" stroke-linecap="round" stroke-linejoin="round"/>
</symbol><symbol fill="none" viewBox="0 0 13 16" id="finishing" xmlns="http://www.w3.org/2000/svg">
    <path d="M10.778 2.26H12v3.78l-6.111.769m4.889-4.549V1H1v3.15h9.778V2.26zM5.889 6.81l-1.222 1.26.61 6.931H6.5l.611-6.93L5.89 6.808z" stroke="#FF502F" stroke-linecap="round" stroke-linejoin="round"/>
</symbol><symbol fill="none" viewBox="0 0 16 9" id="more" xmlns="http://www.w3.org/2000/svg">
    <path d="M14 7.5v.01M8 7.5v.01M2 7.5v.01" stroke="#FF502F" stroke-width="2.5" stroke-linecap="round" stroke-linejoin="round"/>
</symbol><symbol fill="none" viewBox="0 0 14 14" id="print" xmlns="http://www.w3.org/2000/svg">
    <path d="M3.4 5.2V1h7.2v4.2M3.4 10.6H2.2A1.2 1.2 0 011 9.4v-3a1.2 1.2 0 011.2-1.2h9.6A1.2 1.2 0 0113 6.4v3a1.2 1.2 0 01-1.2 1.2h-1.2" stroke="#818285" stroke-linecap="round" stroke-linejoin="round"/>
    <path fill-rule="evenodd" clip-rule="evenodd" d="M3.4 8.2h7.2V13H3.4V8.2z" stroke="#818285" stroke-linecap="round" stroke-linejoin="round"/>
</symbol><symbol fill="none" viewBox="0 0 12 14" id="share" xmlns="http://www.w3.org/2000/svg">
    <path fill-rule="evenodd" clip-rule="evenodd" d="M9.594 4.6c.95 0 1.719-.806 1.719-1.8S10.544 1 9.592 1c-.95 0-1.718.806-1.718 1.8s.768 1.8 1.719 1.8zM2.719 8.8c.95 0 1.719-.806 1.719-1.8s-.768-1.8-1.72-1.8C1.769 5.2 1 6.006 1 7s.768 1.8 1.719 1.8zM9.594 13c.95 0 1.719-.806 1.719-1.8s-.768-1.8-1.72-1.8c-.95 0-1.718.806-1.718 1.8S8.643 13 9.594 13z" stroke="#818285" stroke-linecap="round" stroke-linejoin="round"/>
    <path d="M4.202 7.906l3.913 2.388M8.11 3.706L4.201 6.094" stroke="#818285" stroke-linecap="round" stroke-linejoin="round"/>
</symbol><symbol fill="none" viewBox="0 0 14 22" id="smartphone" xmlns="http://www.w3.org/2000/svg">
    <path d="M4 21h6m-6 0a3 3 0 01-3-3m3 3v-1m-3-2V4c0-.403.08-.788.224-1.14M1 18l3 2m9-2V4c0-.259-.033-.51-.094-.75M13 18a3 3 0 01-3 3m3-3l-3 2m0 1v-1m0-19H4m6 0v1m0-1c1.398 0 2.573.956 2.906 2.25M4 1v1m0-1a3 3 0 00-2.776 1.86M4 18h6m-6 0a3 3 0 01-3-3V6a3 3 0 013-3m0 15v2m6-2a3 3 0 003-3V6a3 3 0 00-3-3m0 15v2m0-17H4m6 0V2M4 3V2m0 0l-2.776.86M10 2l2.906 1.25" stroke="#FF502F" stroke-width="1.5"/>
</symbol></svg>