<?xml version="1.0" encoding="utf-8"?><svg xmlns="http://www.w3.org/2000/svg" xmlns:xlink="http://www.w3.org/1999/xlink"><symbol viewBox="0 0 320 512" id="angle-down" xmlns="http://www.w3.org/2000/svg">
    <path d="M151.5 347.8L3.5 201c-4.7-4.7-4.7-12.3 0-17l19.8-19.8c4.7-4.7 12.3-4.7 17 0L160 282.7l119.7-118.5c4.7-4.7 12.3-4.7 17 0l19.8 19.8c4.7 4.7 4.7 12.3 0 17l-148 146.8c-4.7 4.7-12.3 4.7-17 0z"/>
</symbol><symbol viewBox="0 0 192 512" id="angle-left" xmlns="http://www.w3.org/2000/svg">
    <path d="M4.2 247.5L151 99.5c4.7-4.7 12.3-4.7 17 0l19.8 19.8c4.7 4.7 4.7 12.3 0 17L69.3 256l118.5 119.7c4.7 4.7 4.7 12.3 0 17L168 412.5c-4.7 4.7-12.3 4.7-17 0L4.2 264.5c-4.7-4.7-4.7-12.3 0-17z"/>
</symbol><symbol viewBox="0 0 192 512" id="angle-right" xmlns="http://www.w3.org/2000/svg">
    <path d="M187.8 264.5L41 412.5c-4.7 4.7-12.3 4.7-17 0L4.2 392.7c-4.7-4.7-4.7-12.3 0-17L122.7 256 4.2 136.3c-4.7-4.7-4.7-12.3 0-17L24 99.5c4.7-4.7 12.3-4.7 17 0l146.8 148c4.7 4.7 4.7 12.3 0 17z"/>
</symbol><symbol viewBox="0 0 320 512" id="angle-up" xmlns="http://www.w3.org/2000/svg">
    <path d="M168.5 164.2l148 146.8c4.7 4.7 4.7 12.3 0 17l-19.8 19.8c-4.7 4.7-12.3 4.7-17 0L160 229.3 40.3 347.8c-4.7 4.7-12.3 4.7-17 0L3.5 328c-4.7-4.7-4.7-12.3 0-17l148-146.8c4.7-4.7 12.3-4.7 17 0z"/>
</symbol><symbol viewBox="0 0 25 12" id="arrow-right" xmlns="http://www.w3.org/2000/svg">
    <path d="M24.53 6.53a.75.75 0 000-1.06L19.757.697a.75.75 0 00-1.06 1.06L22.939 6l-4.242 4.243a.75.75 0 001.06 1.06L24.53 6.53zM0 6.75h24v-1.5H0v1.5z"/>
</symbol><symbol viewBox="0 0 16 17" id="calendar" xmlns="http://www.w3.org/2000/svg">
    <path d="M1.5 3.14c0-.584.472-1.056 1.056-1.056v-1C1.42 1.084.5 2.004.5 3.139h1zm1.056-1.056h10.888v-1H2.556v1zm10.888 0c.584 0 1.056.472 1.056 1.055h1c0-1.135-.92-2.055-2.056-2.055v1zM14.5 3.139v10.89h1V3.138h-1zm0 10.89c0 .582-.472 1.055-1.056 1.055v1c1.136 0 2.056-.92 2.056-2.056h-1zm-1.056 1.055H2.556v1h10.888v-1zm-10.888 0A1.055 1.055 0 011.5 14.028h-1c0 1.136.92 2.056 2.056 2.056v-1zM1.5 14.028V3.14h-1v10.89h1zm9-13.611v3h1v-3h-1zm-6 0v3h1v-3h-1zM1 6.75h14v-1H1v1zm3 3.667h2v-1H4v1zm0 1h2v-1H4v1z"/>
</symbol><symbol viewBox="0 0 8 9" id="clear" xmlns="http://www.w3.org/2000/svg">
    <path d="M7 1.5l-6 6M1 1.5l6 6"/>
</symbol><symbol viewBox="0 0 14 14" id="close" xmlns="http://www.w3.org/2000/svg">
    <path d="M13 1L1 13M1 1l12 12"/>
</symbol><symbol viewBox="0 0 10 15" id="distanceicon" xmlns="http://www.w3.org/2000/svg">
    <path d="M7.275 1.5a1.5 1.5 0 11-3 0 1.5 1.5 0 013 0zM.275 6.5c.8-1.6 3.333-2.667 4.5-3 .334 0 1.1.2 1.5 1 .4 1.6 2.167 2.667 3 3 .334.333.7 1-.5 1s-2.5-1.333-3-2l-.5 2c2 1.5 2 3 2.5 4 .4.8.167 1.333 0 1.5-.333.167-1.1.1-1.5-1.5-.5-2-2-2.5-3-3.5-.8-.8-.333-2.333 0-3-.8-.4-1.666.833-2 1.5-.667.333-1.8.6-1-1z"/>
    <path d="M4.275 11l-1.5-1.5c0 1.6-1 2.833-1.5 3-.5.333-1.2 1.1 0 1.5 1.2.4 2.5-2 3-3z"/>
</symbol><symbol viewBox="0 0 576 512" id="eye" xmlns="http://www.w3.org/2000/svg">
    <path d="M569.354 231.631C512.97 135.949 407.81 72 288 72 168.14 72 63.004 135.994 6.646 231.631a47.999 47.999 0 000 48.739C63.031 376.051 168.19 440 288 440c119.86 0 224.996-63.994 281.354-159.631a47.997 47.997 0 000-48.738zM288 392c-102.556 0-192.091-54.701-240-136 44.157-74.933 123.677-127.27 216.162-135.007C273.958 131.078 280 144.83 280 160c0 30.928-25.072 56-56 56s-56-25.072-56-56l.001-.042C157.794 179.043 152 200.844 152 224c0 75.111 60.889 136 136 136s136-60.889 136-136c0-31.031-10.4-59.629-27.895-82.515C451.704 164.638 498.009 205.106 528 256c-47.908 81.299-137.444 136-240 136z"/>
</symbol><symbol viewBox="0 0 19 17" id="filter" xmlns="http://www.w3.org/2000/svg">
    <path d="M3.28 15.5v-5.444M3.28 6.944V1.5M9.5 15.5v-7M9.5 5.389V1.5M15.723 15.5v-3.889M15.723 8.5v-7M.945 10.056h4.667M7.168 5.389h4.667M13.39 11.611h4.667"/>
</symbol><symbol viewBox="0 0 54 54" id="forward" xmlns="http://www.w3.org/2000/svg">
    <path d="M1 27C1 12.64 12.64 1 27 1s26 11.64 26 26-11.64 26-26 26S1 41.36 1 27z"/>
    <path d="M24 20l6.963 6.963L24 33.926"/>
</symbol><symbol viewBox="0 0 512 512" id="info-circle" xmlns="http://www.w3.org/2000/svg">
    <path d="M256 8C119.043 8 8 119.083 8 256c0 136.997 111.043 248 248 248s248-111.003 248-248C504 119.083 392.957 8 256 8zm0 110c23.196 0 42 18.804 42 42s-18.804 42-42 42-42-18.804-42-42 18.804-42 42-42zm56 254c0 6.627-5.373 12-12 12h-88c-6.627 0-12-5.373-12-12v-24c0-6.627 5.373-12 12-12h12v-64h-12c-6.627 0-12-5.373-12-12v-24c0-6.627 5.373-12 12-12h64c6.627 0 12 5.373 12 12v100h12c6.627 0 12 5.373 12 12v24z"/>
</symbol><symbol viewBox="0 0 15 12" id="list" xmlns="http://www.w3.org/2000/svg">
    <path d="M4.5.75h9.75M4.5 6h9.75M4.5 11.25h9.75M1.5.75H.75M1.5 6H.75M1.5 11.25H.75"/>
</symbol><symbol viewBox="0 0 384 512" id="map-marker-alt" xmlns="http://www.w3.org/2000/svg">
    <path d="M192 96c-52.935 0-96 43.065-96 96s43.065 96 96 96 96-43.065 96-96-43.065-96-96-96zm0 160c-35.29 0-64-28.71-64-64s28.71-64 64-64 64 28.71 64 64-28.71 64-64 64zm0-256C85.961 0 0 85.961 0 192c0 77.413 26.97 99.031 172.268 309.67 9.534 13.772 29.929 13.774 39.465 0C357.03 291.031 384 269.413 384 192 384 85.961 298.039 0 192 0zm0 473.931C52.705 272.488 32 256.494 32 192c0-42.738 16.643-82.917 46.863-113.137S149.262 32 192 32s82.917 16.643 113.137 46.863S352 149.262 352 192c0 64.49-20.692 80.47-160 281.931z"/>
</symbol><symbol viewBox="0 0 14 22" id="smartphone" xmlns="http://www.w3.org/2000/svg">
    <path d="M4 21h6m-6 0a3 3 0 01-3-3m3 3v-1m-3-2V4c0-.403.08-.788.224-1.14M1 18l3 2m9-2V4c0-.259-.033-.51-.094-.75M13 18a3 3 0 01-3 3m3-3l-3 2m0 1v-1m0-19H4m6 0v1m0-1c1.398 0 2.573.956 2.906 2.25M4 1v1m0-1a3 3 0 00-2.776 1.86M4 18h6m-6 0a3 3 0 01-3-3V6a3 3 0 013-3m0 15v2m6-2a3 3 0 003-3V6a3 3 0 00-3-3m0 15v2m0-17H4m6 0V2M4 3V2m0 0l-2.776.86M10 2l2.906 1.25"/>
</symbol><symbol viewBox="0 0 14 14" id="tile" xmlns="http://www.w3.org/2000/svg">
    <path clip-rule="evenodd" d="M.777.778h4.84v4.84H.777V.777zM8.383.778h4.84v4.84h-4.84V.777zM8.383 8.383h4.84v4.84h-4.84v-4.84zM.777 8.383h4.84v4.84H.777v-4.84z"/>
</symbol><symbol viewBox="0 0 12 12" id="time" xmlns="http://www.w3.org/2000/svg">
    <path clip-rule="evenodd" d="M6 11A5 5 0 106 1a5 5 0 000 10z"/>
    <path d="M6 3v3l2 2"/>
</symbol></svg>