<?xml version="1.0" encoding="utf-8"?>
<svg width="100%" height="100%" viewBox="0 0 213 271" version="1.1" style="fill-rule:evenodd;clip-rule:evenodd;stroke-linecap:round;stroke-linejoin:round;stroke-miterlimit:1.5;" xmlns="http://www.w3.org/2000/svg">
  <g>
    <g>
      <path d="M95.749,40.457l-0,30.761" style="fill:none;stroke:#000;stroke-width:4.17px;"/>
      <path d="M89.626,64.494l16.126,0" style="fill:none;stroke:#000;stroke-width:4.17px;"/>
      <path d="M95.749,40.457l7.014,0c2.146,0 4.204,0.853 5.722,2.37c1.517,1.518 2.37,3.576 2.37,5.722c-0,0.003 -0,0.007 -0,0.01c-0,2.146 -0.853,4.204 -2.37,5.722c-1.518,1.517 -3.576,2.37 -5.722,2.37c-5.998,-0 -13.137,-0 -13.137,-0" style="fill:none;stroke:#000;stroke-width:4.17px;"/>
    </g>
    <path d="M210.82,37.514l-34.788,-35.431l-173.949,0l0,266.008l208.737,0l-0,-230.577Z" style="fill:none;stroke:#000;stroke-width:4.17px;"/>
    <path d="M176.032,2.083l0,35.007l34.788,-0" style="fill:none;stroke:#000;stroke-width:4.17px;"/>
    <rect x="44.066" y="102.819" width="30.046" height="30.046" style="stroke-width: 4.17px; stroke: rgb(255, 217, 39); fill: rgb(255, 217, 39);"/>
    <path d="M97.926,108.21l68.666,0" style="fill:none;stroke:#000;stroke-width:4.17px;"/>
    <path d="M48.316,46.288l27.003,0" style="fill:none;stroke:#000;stroke-width:4.17px;"/>
    <path d="M48.316,65.546l27.003,0" style="fill:none;stroke:#000;stroke-width:4.17px;"/>
    <path d="M126.709,46.288l27.004,0" style="fill:none;stroke:#000;stroke-width:4.17px;"/>
    <path d="M126.709,65.546l27.004,0" style="fill:none;stroke:#000;stroke-width:4.17px;"/>
    <path d="M97.926,128.157l68.666,-0" style="fill:none;stroke:#000;stroke-width:4.17px;"/>
    <rect x="44.066" y="152.122" width="30.046" height="30.046" style="stroke-width: 4.17px; fill: rgb(255, 217, 39); stroke: rgb(255, 217, 39);"/>
    <path d="M97.926,157.514l68.666,-0" style="fill:none;stroke:#000;stroke-width:4.17px;"/>
    <path d="M97.926,177.46l68.666,0" style="fill:none;stroke:#000;stroke-width:4.17px;"/>
    <rect x="44.066" y="206.818" width="30.046" height="30.046" style="stroke-width: 4.17px; stroke: rgb(255, 217, 39); fill: rgb(255, 217, 39);"/>
    <path d="M97.926,212.209l68.666,0" style="fill:none;stroke:#000;stroke-width:4.17px;"/>
    <path d="M97.926,232.156l68.666,-0" style="fill:none;stroke:#000;stroke-width:4.17px;"/>
  </g>
</svg>