<?xml version="1.0" encoding="utf-8"?>
<svg width="100%" height="100%" viewBox="0 0 261 266" version="1.1" style="fill-rule:evenodd;clip-rule:evenodd;stroke-linecap:round;stroke-linejoin:round;stroke-miterlimit:1.5;" xmlns="http://www.w3.org/2000/svg">
  <g>
    <path d="M258.627,57.828c-0,-16.117 -13.066,-29.183 -29.183,-29.183c-49.371,-0 -148.807,-0 -198.177,-0c-16.118,-0 -29.184,13.066 -29.184,29.183c0,45.162 0,131.473 0,176.634c0,16.118 13.066,29.184 29.184,29.184c49.37,-0 148.806,-0 198.177,-0c16.117,-0 29.183,-13.066 29.183,-29.184c-0,-45.161 -0,-131.472 -0,-176.634Z" style="fill:none;stroke:#000;stroke-width:4.17px;"/>
    <path d="M60.255,2.083l-0,57.789" style="fill:none;stroke:#000;stroke-width:4.17px;"/>
    <path d="M60.255,106.716l-0,5.951" style="fill:none;stroke:#000;stroke-width:4.17px;"/>
    <path d="M106.935,106.716l-0,5.951" style="fill:none;stroke:#000;stroke-width:4.17px;"/>
    <path d="M153.615,106.716l-0,5.951" style="fill:none;stroke:#000;stroke-width:4.17px;"/>
    <path d="M200.295,106.716l0,5.951" style="fill:none;stroke:#000;stroke-width:4.17px;"/>
    <path d="M60.255,154.945l-0,5.95" style="fill:none;stroke:#000;stroke-width:4.17px;"/>
    <path d="M106.935,154.945l-0,5.95" style="fill:none;stroke:#000;stroke-width:4.17px;"/>
    <path d="M60.255,203.173l-0,5.951" style="fill:none;stroke:#000;stroke-width:4.17px;"/>
    <path d="M106.935,203.173l-0,5.951" style="fill:none;stroke:#000;stroke-width:4.17px;"/>
    <path d="M176.363,150.854l7.515,23.128l24.318,-0l-19.674,14.294l7.515,23.128l-19.674,-14.294l-19.674,14.294l7.515,-23.128l-19.674,-14.294l24.318,-0l7.515,-23.128Z" style="stroke-width: 4.17px; stroke: rgb(255, 217, 39); fill: rgb(255, 217, 39);"/>
    <path d="M130.275,2.083l-0,57.789" style="fill:none;stroke:#000;stroke-width:4.17px;"/>
    <path d="M200.295,2.083l0,57.789" style="fill:none;stroke:#000;stroke-width:4.17px;"/>
  </g>
</svg>