<?xml version="1.0" encoding="utf-8"?>
<svg width="100%" height="100%" viewBox="0 0 267 265" version="1.1" style="fill-rule:evenodd;clip-rule:evenodd;stroke-linecap:round;stroke-linejoin:round;stroke-miterlimit:1.5;" xmlns="http://www.w3.org/2000/svg">
  <g>
    <rect x="2.083" y="174.381" width="53.179" height="88.382" style="fill:none;stroke:#000;stroke-width:4.17px;"/>
    <path d="M55.262,262.762l113.411,0l96.047,-96.047c0,0 -0.001,-0.001 -0.003,-0.002c-6.67,-6.67 -15.716,-10.418 -25.149,-10.418c-9.433,0 -18.479,3.748 -25.149,10.418c-19.213,19.212 -42.418,42.417 -42.418,42.417l-66.611,-0" style="fill:none;stroke:#000;stroke-width:4.17px;"/>
    <path d="M159.991,209.129c0,0 1.901,-2.073 3.813,-4.158c2.501,-2.727 3.929,-6.267 4.021,-9.965c0.016,-0.623 0.032,-1.262 0.048,-1.9c0.115,-4.652 -1.72,-9.141 -5.062,-12.379c-0.001,-0 -0.001,-0.001 -0.002,-0.002c-4.196,-4.065 -9.824,-6.316 -15.667,-6.267c-12.781,0.11 -36.376,0.312 -53.497,0.458c-13.008,0.111 -25.306,5.95 -33.614,15.96c-2.715,3.271 -4.769,5.745 -4.769,5.745" style="fill:none;stroke:#000;stroke-width:4.17px;"/>
    <circle cx="134.72" cy="37.346" r="35.263" style="fill:none;stroke:#000;stroke-width:4.17px;"/>
    <path d="M104.181,87.499c6.1,10.536 17.497,17.631 30.539,17.631c13.041,0 24.439,-7.095 30.539,-17.631c3.004,5.189 4.724,11.211 4.724,17.631c-0,19.462 -15.801,35.263 -35.263,35.263c-19.462,-0 -35.263,-15.801 -35.263,-35.263c0,-6.42 1.72,-12.442 4.724,-17.631Z" style="stroke-width: 4.17px; stroke: rgb(255, 217, 39); fill: rgb(255, 217, 39);"/>
    <path d="M 103.428 53.607 C 109.311 64.895 121.122 72.609 134.72 72.609 C 148.318 72.609 160.129 64.895 166.012 53.607 C 168.548 58.472 169.983 64.004 169.983 69.868 C 169.983 89.33 154.182 105.13 134.72 105.13 C 115.258 105.13 99.457 89.33 99.457 69.868 C 99.457 64.004 100.892 58.472 103.428 53.607 Z" style="fill: none; stroke: rgb(0, 0, 0); stroke-width: 4.17px; fill-rule: evenodd;"/>
  </g>
</svg>