<?xml version="1.0" encoding="utf-8"?>
<svg width="100%" height="100%" viewBox="0 0 265 264" version="1.1" style="fill-rule:evenodd;clip-rule:evenodd;stroke-linecap:round;stroke-linejoin:round;stroke-miterlimit:1.5;" xmlns="http://www.w3.org/2000/svg">
  <g>
    <path d="M42.615,150.218l9.568,29.448l30.964,0l-25.05,18.2l9.568,29.448l-25.05,-18.2l-25.05,18.2l9.568,-29.448l-25.05,-18.2l30.964,0l9.568,-29.448Z" style="stroke-width: 4.17px; stroke: rgb(255, 217, 39); fill: rgb(255, 217, 39);"/>
    <path d="M221.61,150.218l9.568,29.448l30.963,0l-25.05,18.2l9.569,29.448l-25.05,-18.2l-25.05,18.2l9.568,-29.448l-25.05,-18.2l30.963,0l9.569,-29.448Z" style="stroke-width: 4.17px; stroke: rgb(255, 217, 39); fill: rgb(255, 217, 39);"/>
    <path d="M131.739,184.459l9.568,29.448l30.964,-0l-25.05,18.2l9.568,29.448l-25.05,-18.2l-25.05,18.2l9.568,-29.448l-25.05,-18.2l30.964,-0l9.568,-29.448Z" style="stroke-width: 4.17px; fill: rgb(255, 217, 39); stroke: rgb(255, 217, 39);"/>
    <path d="M167.655,36.275c0,-18.884 -15.308,-34.192 -34.192,-34.192c-0.713,0 -1.428,0 -2.142,0c-18.883,0 -34.191,15.308 -34.191,34.192c-0,0.002 -0,0.004 -0,0.006c-0,18.883 15.308,34.191 34.191,34.191c0.714,0 1.429,0 2.142,0c18.884,0 34.192,-15.308 34.192,-34.191c0,-0.002 0,-0.004 0,-0.006Z" style="fill:none;stroke:#000;stroke-width:4.17px;"/>
    <path d="M185.311,140.992l-107.144,-0l0,-16.953c0,-29.584 23.983,-53.567 53.567,-53.567c0.003,0 0.007,0 0.01,0c29.584,0 53.567,23.983 53.567,53.567c0,9.775 0,16.953 0,16.953Z" style="fill:none;stroke:#000;stroke-width:4.17px;"/>
  </g>
</svg>