<?xml version="1.0" encoding="utf-8"?>
<svg width="100%" height="100%" viewBox="0 0 268 208" version="1.1" style="fill-rule:evenodd;clip-rule:evenodd;stroke-linecap:round;stroke-linejoin:round;stroke-miterlimit:1.5;" xmlns="http://www.w3.org/2000/svg">
  <g>
    <path d="M22.244,70.27l225.139,-0" style="fill:none;stroke:#000;stroke-width:4.17px;"/>
    <path d="M265.15,97.113c-0,-7.562 -3.337,-14.739 -9.119,-19.612c-4.333,-3.652 -8.579,-7.231 -8.579,-7.231c0,-0 -14.942,-38.804 -22.282,-57.866c-2.395,-6.218 -8.37,-10.321 -15.034,-10.321c-31.263,0 -120.053,0 -151.525,0c-6.749,0 -12.782,4.206 -15.116,10.538c-7.054,19.138 -21.251,57.649 -21.251,57.649c0,-0 -4.834,3.576 -9.767,7.227c-6.537,4.837 -10.394,12.487 -10.394,20.619c0,22.981 0,68.551 0,68.551l263.067,0l-0,-69.554Z" style="fill:none;stroke:#000;stroke-width:4.17px;"/>
    <path d="M53.722,166.667l-51.639,0l0,21.205c0,9.66 7.831,17.491 17.492,17.491c5.372,0 11.283,0 16.655,0c9.66,0 17.491,-7.831 17.492,-17.491c-0,-10.252 -0,-21.205 -0,-21.205Z" style="fill:none;stroke:#000;stroke-width:4.17px;"/>
    <path d="M265.15,166.667l-51.638,0l-0,21.205c-0,9.66 7.831,17.491 17.491,17.491c5.372,0 11.283,0 16.655,0c9.661,0 17.492,-7.831 17.492,-17.491c-0,-10.252 -0,-21.205 -0,-21.205Z" style="fill:none;stroke:#000;stroke-width:4.17px;"/>
    <rect x="29.789" y="106.579" width="42.303" height="31.7" style="stroke: rgb(0, 0, 0); stroke-width: 4.17px; fill: rgb(255, 217, 39);"/>
    <rect x="197.028" y="106.579" width="42.303" height="31.7" style="stroke: rgb(0, 0, 0); stroke-width: 4.17px; fill: rgb(255, 217, 39);"/>
    <path d="M101.57,113.494l65.271,0" style="fill:none;stroke:#000;stroke-width:4.17px;"/>
    <path d="M101.57,131.965l65.271,-0" style="fill:none;stroke:#000;stroke-width:4.17px;"/>
    <path d="M221.71,68.39c0,-8.697 -3.455,-17.038 -9.604,-23.187c-6.15,-6.15 -14.491,-9.605 -23.187,-9.605c-0.006,0 -0.011,0 -0.016,0c-8.697,0 -17.037,3.455 -23.187,9.605c-6.15,6.149 -9.605,14.49 -9.605,23.187c0,1.188 0,1.88 0,1.88l65.599,-0l0,-1.88Z" style="fill:none;stroke:#000;stroke-width:4.17px;"/>
  </g>
</svg>