<svg width="19" height="16" viewBox="0 0 19 16" fill="none" xmlns="http://www.w3.org/2000/svg">
<path d="M9.00294 15.5683C8.18249 16.2233 6.9593 16.1215 6.27086 15.3409L0.453743 8.74562C-0.234694 7.96508 -0.127678 6.8014 0.692769 6.14645C1.51322 5.49151 2.73641 5.59331 3.42485 6.37385L9.24196 12.9692C9.9304 13.7497 9.82338 14.9134 9.00294 15.5683Z" fill="#FC6733"/>
<path d="M7.04982 15.4464C7.92714 16.0308 9.13635 15.828 9.75066 14.9933L18.6491 2.90326C19.2634 2.06862 19.0502 0.918232 18.1729 0.333806C17.2956 -0.250619 16.0864 -0.0477755 15.472 0.786871L6.57358 12.877C5.95927 13.7116 6.17249 14.862 7.04982 15.4464Z" fill="#FC6733"/>
</svg>
