<svg width="252" height="29" viewBox="0 0 252 29" fill="none" xmlns="http://www.w3.org/2000/svg">
<path opacity="0.4" d="M11.2974 0V5.64881L17.3807 11.2976L23.464 5.64881V0L17.3807 5.64881L11.2974 0Z" fill="white"/>
<path opacity="0.6" d="M0 11.2976H5.64881L11.2976 5.64881L5.64881 0H0L5.64881 5.64881L0 11.2976Z" fill="white"/>
<path d="M23.464 11.2979H17.3807L11.2974 17.3812L17.3807 23.4645H23.464L17.3807 17.3812L23.464 11.2979Z" fill="white"/>
<path opacity="0.8" d="M11.2976 23.4645V17.3812L5.64881 11.2979L0 17.3812V23.4645L5.64881 17.3812L11.2976 23.4645Z" fill="white"/>
<path d="M39.1885 12.1116H35.2729V8.93156H43.4838V5.60476H31.8794V22.728H39.0224C42.582 22.728 44.7178 20.82 44.7178 17.3709C44.7178 13.8973 42.8193 12.1116 39.1885 12.1116ZM38.9037 19.4012H35.2729V15.3161H39.0698C40.6598 15.3161 41.3005 15.9521 41.3005 17.322C41.3005 18.6918 40.4937 19.4012 38.9037 19.4012Z" fill="white"/>
<path d="M54.62 8.98049C52.7927 8.98049 51.3926 9.86111 50.4908 11.1576V9.27403H47.0973V28.8435H50.4908V20.9179C51.4164 22.1899 52.769 23.0216 54.62 23.0216C58.0135 23.0216 60.5765 20.1351 60.5765 16.001C60.5765 11.8425 57.9661 8.98049 54.62 8.98049ZM53.8369 19.6948C51.9384 19.6948 50.4908 18.2271 50.4908 16.001C50.4908 13.7995 51.9384 12.3073 53.8369 12.3073C55.7354 12.3073 57.1355 13.7995 57.1355 16.001C57.1355 18.2271 55.7116 19.6948 53.8369 19.6948Z" fill="white"/>
<path d="M69.4245 8.98049C65.6751 8.98049 62.6375 11.9404 62.6375 16.001C62.6375 20.0372 65.6276 23.0216 69.4245 23.0216C73.2452 23.0216 76.2353 20.0617 76.2353 16.001C76.2353 11.9404 73.1977 8.98049 69.4245 8.98049ZM69.4245 12.3073C71.323 12.3073 72.7943 13.7995 72.7943 16.001C72.7943 18.2271 71.323 19.6948 69.4245 19.6948C67.5261 19.6948 66.0547 18.2271 66.0547 16.001C66.0547 13.7995 67.5261 12.3073 69.4245 12.3073Z" fill="white"/>
<path d="M87.8671 9.27403V14.2398H82.0056V9.27403H78.6121V22.728H82.0056V17.5421H87.8671V22.728H91.2606V9.27403H87.8671Z" fill="white"/>
<path d="M102.567 9.27403L97.2042 17.9824L97.3703 14.0441V9.27403H93.9768V22.728H97.8924L103.279 13.9707L103.066 17.958V22.728H106.459V9.27403H102.567Z" fill="white"/>
<path d="M116.821 8.98049C114.993 8.98049 113.593 9.86111 112.692 11.1576V9.27403H109.298V28.8435H112.692V20.9179C113.617 22.1899 114.97 23.0216 116.821 23.0216C120.214 23.0216 122.777 20.1351 122.777 16.001C122.777 11.8425 120.167 8.98049 116.821 8.98049ZM116.038 19.6948C114.139 19.6948 112.692 18.2271 112.692 16.001C112.692 13.7995 114.139 12.3073 116.038 12.3073C117.936 12.3073 119.336 13.7995 119.336 16.001C119.336 18.2271 117.912 19.6948 116.038 19.6948Z" fill="white"/>
<path d="M133.336 9.27403L130.085 17.1507L126.857 9.27403H123.25L128.281 20.9423L124.864 28.8435H128.471L136.967 9.27403H133.336Z" fill="white"/>
<path d="M147.41 9.27403L142.047 17.9824L142.213 14.0441V9.27403H138.82V22.728H142.735L148.122 13.9707L147.909 17.958V22.728H151.302V9.27403H147.41Z" fill="white"/>
<path d="M156.585 18.8631C155.375 18.8631 154.473 19.7437 154.473 20.9423C154.473 22.1654 155.375 23.0216 156.585 23.0216C157.772 23.0216 158.697 22.1654 158.697 20.9423C158.697 19.7437 157.772 18.8631 156.585 18.8631Z" fill="white"/>
<path d="M168.102 8.98049C164.353 8.98049 161.315 11.9404 161.315 16.001C161.315 20.0372 164.305 23.0216 168.102 23.0216C171.923 23.0216 174.913 20.0617 174.913 16.001C174.913 11.9404 171.875 8.98049 168.102 8.98049ZM168.102 12.3073C170.001 12.3073 171.472 13.7995 171.472 16.001C171.472 18.2271 170.001 19.6948 168.102 19.6948C166.204 19.6948 164.732 18.2271 164.732 16.001C164.732 13.7995 166.204 12.3073 168.102 12.3073Z" fill="white"/>
<path d="M186.545 9.27403V14.2398H180.683V9.27403H177.29V22.728H180.683V17.5421H186.545V22.728H189.938V9.27403H186.545Z" fill="white"/>
<path d="M195.929 9.27403L194.695 17.1263C194.363 19.2055 193.865 19.7682 192.702 19.7682C192.417 19.7682 192.132 19.7437 191.824 19.6948V22.8503C192.322 22.9482 192.892 23.0216 193.414 23.0216C195.787 23.0216 197.424 21.456 198.041 17.4687L198.824 12.5764H202.194V22.728H205.588V9.27403H195.929Z" fill="white"/>
<path d="M218.051 9.27403V11.1576C217.149 9.86111 215.773 8.98049 213.922 8.98049C210.575 8.98049 207.989 11.8425 207.989 16.001C207.989 20.1351 210.528 23.0216 213.945 23.0216C215.773 23.0216 217.125 22.1899 218.027 20.9179V22.728H221.42L221.444 9.27403H218.051ZM214.705 19.6948C212.83 19.6948 211.406 18.2271 211.406 16.001C211.406 13.7995 212.806 12.3073 214.705 12.3073C216.603 12.3073 218.051 13.7995 218.051 16.001C218.051 18.2271 216.603 19.6948 214.705 19.6948Z" fill="white"/>
<path d="M232.739 9.27403L227.376 17.9824L227.542 14.0441V9.27403H224.149V22.728H228.064L233.451 13.9707L233.238 17.958V22.728H236.631V9.27403H232.739Z" fill="white"/>
<path d="M248.606 9.27403V14.2398H242.745V9.27403H239.351V22.728H242.745V17.5421H248.606V22.728H252V9.27403H248.606Z" fill="white"/>
<path d="M148.355 5.08057H141.242V7.11282H148.355V5.08057Z" fill="white"/>
<path d="M233.71 5.08057H226.597V7.11282H233.71V5.08057Z" fill="white"/>
</svg>
