<svg width="50" height="50" viewBox="0 0 50 50" fill="none" xmlns="http://www.w3.org/2000/svg">
<path d="M27.9565 25.4076H27.1624C26.1067 25.884 24.9321 26.1549 23.6957 26.1549C22.4592 26.1549 21.2894 25.884 20.2289 25.4076H19.4348C15.9062 25.4076 13.0435 28.2193 13.0435 31.6848V33.6277C13.0435 34.8654 14.0659 35.8696 15.3261 35.8696H32.0652C33.3254 35.8696 34.3478 34.8654 34.3478 33.6277V31.6848C34.3478 28.2193 31.4851 25.4076 27.9565 25.4076Z" fill="#969696"/>
<path d="M42.7174 21.6712H39.6739V18.6821C39.6739 18.2711 39.3315 17.9348 38.913 17.9348H37.3913C36.9728 17.9348 36.6304 18.2711 36.6304 18.6821V21.6712H33.587C33.1685 21.6712 32.8261 22.0075 32.8261 22.4185V23.913C32.8261 24.324 33.1685 24.6603 33.587 24.6603H36.6304V27.6495C36.6304 28.0605 36.9728 28.3967 37.3913 28.3967H38.913C39.3315 28.3967 39.6739 28.0605 39.6739 27.6495V24.6603H42.7174C43.1359 24.6603 43.4783 24.324 43.4783 23.913V22.4185C43.4783 22.0075 43.1359 21.6712 42.7174 21.6712Z" fill="#009E6C"/>
<path d="M23.6957 23.913C27.0577 23.913 29.7826 21.2368 29.7826 17.9348C29.7826 14.6327 27.0577 11.9565 23.6957 11.9565C20.3336 11.9565 17.6087 14.6327 17.6087 17.9348C17.6087 21.2368 20.3336 23.913 23.6957 23.913Z" fill="#969696"/>
<path fill-rule="evenodd" clip-rule="evenodd" d="M47.4268 13.9404L46.0626 14.6145C45.6071 13.6927 45.0929 12.805 44.5246 11.9562L45.7891 11.1096C46.3941 12.0133 46.9418 12.9586 47.4268 13.9404ZM43.7963 8.51623L42.6526 9.52003C41.9764 8.74952 41.2505 8.02364 40.48 7.34738L41.4838 6.20367C42.3039 6.92348 43.0765 7.6961 43.7963 8.51623ZM38.8904 4.21086L38.0438 5.47538C37.195 4.90714 36.3073 4.39288 35.3855 3.93745L36.0596 2.57315C37.0414 3.05822 37.9867 3.60586 38.8904 4.21086ZM33.0389 1.32057L32.5499 2.76158C31.5877 2.43505 30.5975 2.16922 29.5837 1.96866L29.879 0.475851C30.959 0.689492 32.0139 0.972684 33.0389 1.32057ZM26.6366 0.0527161L26.5385 1.57129C26.0301 1.53843 25.5171 1.52174 25 1.52174C24.4829 1.52174 23.9699 1.53843 23.4615 1.57129L23.3634 0.052716C23.9044 0.0177526 24.4501 0 25 0C25.5499 0 26.0956 0.0177527 26.6366 0.0527161ZM20.1209 0.475851L20.4163 1.96866C19.4025 2.16922 18.4122 2.43505 17.4501 2.76158L16.9611 1.32057C17.9861 0.972685 19.041 0.689492 20.1209 0.475851ZM13.9404 2.57315L14.6145 3.93745C13.6927 4.39288 12.805 4.90714 11.9562 5.47538L11.1096 4.21087C12.0133 3.60587 12.9586 3.05822 13.9404 2.57315ZM8.51623 6.20367L9.52003 7.34738C8.74952 8.02364 8.02364 8.74953 7.34738 9.52003L6.20367 8.51623C6.92348 7.6961 7.6961 6.92348 8.51623 6.20367ZM4.21086 11.1096L5.47538 11.9562C4.90714 12.805 4.39288 13.6927 3.93745 14.6145L2.57315 13.9404C3.05822 12.9586 3.60586 12.0133 4.21086 11.1096ZM1.32057 16.9611L2.76158 17.4501C2.43505 18.4123 2.16922 19.4025 1.96866 20.4163L0.475851 20.1209C0.689492 19.041 0.972684 17.9861 1.32057 16.9611ZM0.0527161 23.3634C0.0177527 23.9044 0 24.4501 0 25C0 25.5499 0.0177526 26.0956 0.052716 26.6366L1.57129 26.5385C1.53843 26.0301 1.52174 25.5171 1.52174 25C1.52174 24.4829 1.53843 23.9699 1.57129 23.4615L0.0527161 23.3634ZM0.475851 29.879L1.96866 29.5837C2.16922 30.5975 2.43505 31.5877 2.76158 32.5499L1.32057 33.0389C0.972685 32.0139 0.689492 30.959 0.475851 29.879ZM2.57315 36.0596L3.93745 35.3855C4.39288 36.3073 4.90714 37.195 5.47538 38.0438L4.21087 38.8904C3.60587 37.9867 3.05822 37.0414 2.57315 36.0596ZM6.20367 41.4838L7.34738 40.48C8.02364 41.2505 8.74953 41.9764 9.52003 42.6526L8.51623 43.7963C7.6961 43.0765 6.92348 42.3039 6.20367 41.4838ZM11.1096 45.7891L11.9562 44.5246C12.805 45.0929 13.6927 45.6071 14.6145 46.0626L13.9404 47.4268C12.9586 46.9418 12.0133 46.3941 11.1096 45.7891ZM16.9611 48.6794L17.4501 47.2384C18.4123 47.5649 19.4025 47.8308 20.4163 48.0313L20.121 49.5241C19.041 49.3105 17.9861 49.0273 16.9611 48.6794ZM23.3634 49.9473L23.4615 48.4287C23.9699 48.4616 24.4829 48.4783 25 48.4783C25.5171 48.4783 26.0301 48.4616 26.5385 48.4287L26.6366 49.9473C26.0956 49.9822 25.5499 50 25 50C24.4501 50 23.9044 49.9822 23.3634 49.9473ZM29.879 49.5241L29.5837 48.0313C30.5975 47.8308 31.5877 47.5649 32.5499 47.2384L33.0389 48.6794C32.0139 49.0273 30.959 49.3105 29.879 49.5241ZM36.0596 47.4268L35.3855 46.0626C36.3073 45.6071 37.195 45.0929 38.0438 44.5246L38.8904 45.7891C37.9867 46.3941 37.0414 46.9418 36.0596 47.4268ZM41.4838 43.7963L40.48 42.6526C41.2505 41.9764 41.9764 41.2505 42.6526 40.48L43.7963 41.4838C43.0765 42.3039 42.3039 43.0765 41.4838 43.7963Z" fill="#009E6C"/>
<path d="M46.0626 35.3855C45.6071 36.3073 45.0929 37.195 44.5246 38.0438L45.7891 38.8904C46.3941 37.9867 46.9418 37.0414 47.4268 36.0596L46.0626 35.3855Z" fill="#009E6C"/>
<path d="M48.0313 29.5837C47.8308 30.5975 47.5649 31.5877 47.2384 32.5499L48.6794 33.0389C49.0273 32.0139 49.3105 30.959 49.5241 29.879L48.0313 29.5837Z" fill="#009E6C"/>
<path d="M48.4783 25C48.4783 25.5171 48.4616 26.0301 48.4287 26.5385L49.9473 26.6366C49.9822 26.0956 50 25.5499 50 25C50 24.4501 49.9822 23.9044 49.9473 23.3634L48.4287 23.4615C48.4616 23.9699 48.4783 24.4829 48.4783 25Z" fill="#009E6C"/>
<path d="M47.2384 17.4501C47.5649 18.4122 47.8308 19.4025 48.0313 20.4163L49.5241 20.1209C49.3105 19.041 49.0273 17.9861 48.6794 16.9611L47.2384 17.4501Z" fill="#009E6C"/>
</svg>
