<svg width="68" height="68" viewBox="0 0 68 68" fill="none" xmlns="http://www.w3.org/2000/svg">
<path d="M34 0C24.9826 0 16.3346 3.58213 9.95837 9.95837C3.58213 16.3346 0 24.9826 0 34C0 43.0174 3.58213 51.6654 9.95837 58.0416C16.3346 64.4179 24.9826 68 34 68C43.0174 68 51.6654 64.4179 58.0416 58.0416C64.4179 51.6654 68 43.0174 68 34C68 24.9826 64.4179 16.3346 58.0416 9.95837C51.6654 3.58213 43.0174 0 34 0V0ZM48.875 31.875C49.4386 31.875 49.9791 32.0989 50.3776 32.4974C50.7761 32.8959 51 33.4364 51 34C51 34.5636 50.7761 35.1041 50.3776 35.5026C49.9791 35.9011 49.4386 36.125 48.875 36.125H24.2547L33.3795 45.2455C33.5771 45.4431 33.7338 45.6776 33.8407 45.9358C33.9477 46.1939 34.0027 46.4706 34.0027 46.75C34.0027 47.0294 33.9477 47.3061 33.8407 47.5642C33.7338 47.8224 33.5771 48.0569 33.3795 48.2545C33.1819 48.4521 32.9474 48.6088 32.6892 48.7157C32.4311 48.8227 32.1544 48.8777 31.875 48.8777C31.5956 48.8777 31.3189 48.8227 31.0608 48.7157C30.8026 48.6088 30.5681 48.4521 30.3705 48.2545L17.6205 35.5045C17.4226 35.3071 17.2656 35.0726 17.1585 34.8144C17.0513 34.5563 16.9962 34.2795 16.9962 34C16.9962 33.7205 17.0513 33.4437 17.1585 33.1856C17.2656 32.9274 17.4226 32.6929 17.6205 32.4955L30.3705 19.7455C30.7695 19.3465 31.3107 19.1223 31.875 19.1223C32.4393 19.1223 32.9805 19.3465 33.3795 19.7455C33.7785 20.1445 34.0027 20.6857 34.0027 21.25C34.0027 21.8143 33.7785 22.3555 33.3795 22.7545L24.2547 31.875H48.875Z" fill="#203F57"/>
</svg>
