<svg width="68" height="68" viewBox="0 0 68 68" fill="none" xmlns="http://www.w3.org/2000/svg">
<path d="M34 68C43.0174 68 51.6654 64.4179 58.0416 58.0416C64.4179 51.6654 68 43.0174 68 34C68 24.9826 64.4179 16.3346 58.0416 9.95837C51.6654 3.58213 43.0174 7.88323e-07 34 0C24.9826 -7.88323e-07 16.3346 3.58213 9.95837 9.95837C3.58213 16.3346 7.88323e-07 24.9826 0 34C-7.88322e-07 43.0174 3.58213 51.6654 9.95837 58.0416C16.3346 64.4179 24.9826 68 34 68ZM19.125 36.125C18.5614 36.125 18.0209 35.9011 17.6224 35.5026C17.2239 35.1041 17 34.5636 17 34C17 33.4364 17.2239 32.8959 17.6224 32.4974C18.0209 32.0989 18.5614 31.875 19.125 31.875L43.7453 31.875L34.6205 22.7545C34.4229 22.5569 34.2662 22.3224 34.1593 22.0642C34.0523 21.8061 33.9973 21.5294 33.9973 21.25C33.9973 20.9706 34.0523 20.6939 34.1593 20.4358C34.2662 20.1776 34.4229 19.9431 34.6205 19.7455C34.8181 19.5479 35.0526 19.3912 35.3108 19.2843C35.5689 19.1774 35.8456 19.1223 36.125 19.1223C36.4044 19.1223 36.6811 19.1774 36.9392 19.2843C37.1974 19.3912 37.4319 19.5479 37.6295 19.7455L50.3795 32.4955C50.5774 32.6929 50.7344 32.9274 50.8415 33.1856C50.9487 33.4437 51.0038 33.7205 51.0038 34C51.0038 34.2795 50.9487 34.5563 50.8415 34.8144C50.7344 35.0726 50.5774 35.3071 50.3795 35.5045L37.6295 48.2545C37.2305 48.6535 36.6893 48.8777 36.125 48.8777C35.5607 48.8777 35.0195 48.6535 34.6205 48.2545C34.2215 47.8555 33.9973 47.3143 33.9973 46.75C33.9973 46.1857 34.2215 45.6445 34.6205 45.2455L43.7453 36.125H19.125Z" fill="#203F57"/>
</svg>
