<svg width="22" height="19" viewBox="0 0 22 19" fill="none" xmlns="http://www.w3.org/2000/svg">
<path fill-rule="evenodd" clip-rule="evenodd" d="M10.6447 18.4534L10.6274 18.4391C2.61764 11.9713 0.444438 9.69215 0.444438 5.99624C0.444438 2.91632 2.9281 0.452381 6.03267 0.452381C8.42241 0.452381 9.82729 1.70081 10.8123 2.77099C10.9127 2.88006 11.0873 2.88006 11.1877 2.77099C12.1727 1.70081 13.5776 0.452381 15.9673 0.452381C19.0719 0.452381 21.5555 2.91632 21.5555 5.99624C21.5555 9.69215 19.3823 11.9713 11.3725 18.4391L11.3553 18.4534C11.2533 18.5135 11.1362 18.5476 11 18.5476C10.8637 18.5476 10.7467 18.5135 10.6447 18.4534ZM6.03267 1.68435C3.6111 1.68435 1.68627 3.5939 1.68627 5.99624C1.68627 9.11473 3.64417 11.2013 10.8397 17.0161C10.9313 17.0901 11.0687 17.0901 11.1603 17.0161C18.3558 11.2013 20.3137 9.11473 20.3137 5.99624C20.3137 3.5939 18.3889 1.68435 15.9673 1.68435C13.7941 1.68435 12.6144 2.97792 11.683 4.02509L11.3471 4.41885C11.2496 4.49553 11.1357 4.53992 11 4.53992C10.8643 4.53992 10.7504 4.49553 10.6528 4.41885L10.317 4.02509C9.38561 2.97792 8.20588 1.68435 6.03267 1.68435Z" fill="#8E8E8E"/>
<path fill-rule="evenodd" clip-rule="evenodd" d="M0 5.99624C0 2.6556 2.69347 0 6.03268 0C8.49271 0 9.98544 1.24107 11 2.3151C12.0146 1.24107 13.5073 0 15.9673 0C19.3065 0 22 2.6556 22 5.99624C22 7.96926 21.407 9.56411 19.8057 11.4721C18.2285 13.3512 15.6477 15.5644 11.6507 18.7919L11.6488 18.7935L11.6355 18.8045L11.6083 18.8271L11.5779 18.8449C11.4075 18.9453 11.2136 19 11 19C10.7864 19 10.5925 18.9453 10.4221 18.8449L10.3917 18.827L10.3645 18.8045L10.3512 18.7935L10.3492 18.7919C6.35231 15.5644 3.77154 13.3512 2.19435 11.4721C0.593007 9.56411 0 7.96926 0 5.99624ZM6.03268 0.904762C3.16274 0.904762 0.888889 3.17704 0.888889 5.99624C0.888889 7.71913 1.38248 9.11181 2.8702 10.8844C4.38007 12.6833 6.88619 14.8403 10.89 18.0736C10.919 18.0869 10.9537 18.0952 11 18.0952C11.0463 18.0952 11.081 18.0869 11.11 18.0737C15.1138 14.8404 17.6199 12.6833 19.1298 10.8844C20.6175 9.11181 21.1111 7.71913 21.1111 5.99624C21.1111 3.17704 18.8373 0.904762 15.9673 0.904762C13.7607 0.904762 12.4658 2.0441 11.5121 3.08028C11.2361 3.38014 10.7639 3.38014 10.4879 3.08028C9.53424 2.0441 8.23928 0.904762 6.03268 0.904762ZM6.03268 2.13673C3.84575 2.13673 2.13072 3.85462 2.13072 5.99624C2.13072 7.42387 2.56545 8.62399 3.90115 10.1995C5.24347 11.7829 7.464 13.7078 11 16.568C14.536 13.7078 16.7565 11.7829 18.0988 10.1995C19.4346 8.62399 19.8693 7.42387 19.8693 5.99624C19.8693 3.85462 18.1543 2.13673 15.9673 2.13673C14.007 2.13673 12.9446 3.28086 12.0156 4.32523L11.6538 4.74939L11.6188 4.77688C11.4486 4.91073 11.2403 4.9923 11 4.9923C10.7597 4.9923 10.5514 4.91073 10.3812 4.77688L10.3462 4.74939L9.98442 4.32523C9.05545 3.28086 7.99303 2.13673 6.03268 2.13673ZM1.24183 5.99624C1.24183 3.33318 3.37648 1.23197 6.03268 1.23197C8.41656 1.23197 9.71344 2.67244 10.6465 3.72148L10.6527 3.72846L10.9501 4.07736C10.9537 4.0791 10.9569 4.08044 10.9599 4.0815C10.9685 4.08458 10.9808 4.08753 11 4.08753C11.0192 4.08753 11.0315 4.08458 11.0401 4.0815C11.0431 4.08044 11.0463 4.0791 11.0499 4.07736L11.3535 3.72142C12.2865 2.67237 13.5834 1.23197 15.9673 1.23197C18.6235 1.23197 20.7582 3.33318 20.7582 5.99624C20.7582 7.68711 20.214 9.08953 18.7718 10.7906C17.3509 12.4666 15.0286 14.4677 11.4366 17.3704C11.1832 17.5752 10.8168 17.5752 10.5634 17.3704C6.97138 14.4677 4.64906 12.4666 3.22818 10.7906C1.78605 9.08953 1.24183 7.68711 1.24183 5.99624Z" fill="#8E8E8E"/>
</svg>
