<svg width="34" height="30" viewBox="0 0 34 30" fill="none" xmlns="http://www.w3.org/2000/svg">
<path d="M1.34988e-07 9.00108C-0.000209069 7.80509 0.242752 6.62105 0.714685 5.51817C1.18662 4.41529 1.87805 3.41569 2.74858 2.57779C3.61911 1.73989 4.65127 1.0805 5.78474 0.63816C6.9182 0.195817 8.13024 -0.0206046 9.35 0.00154338C10.7932 -0.00597039 12.2216 0.287311 13.5405 0.86195C14.8593 1.43659 16.0386 2.27946 17 3.3347C17.9614 2.27946 19.1407 1.43659 20.4595 0.86195C21.7784 0.287311 23.2068 -0.00597039 24.65 0.00154338C25.8698 -0.0206046 27.0818 0.195817 28.2153 0.63816C29.3487 1.0805 30.3809 1.73989 31.2514 2.57779C32.1219 3.41569 32.8134 4.41529 33.2853 5.51817C33.7572 6.62105 34.0002 7.80509 34 9.00108C34 17.9273 23.1557 24.6669 17 30C10.8579 24.6219 1.34988e-07 17.934 1.34988e-07 9.00108Z" fill="#FF616E" fill-opacity="0.4"/>
<path d="M0.8 9.00108V9.00094C0.79981 7.91352 1.02069 6.83658 1.45018 5.8329C1.87968 4.82918 2.5094 3.91838 3.30336 3.15418C4.09736 2.38994 5.03966 1.78769 6.07558 1.38342C7.11153 0.979133 8.2198 0.781154 9.33548 0.801412L9.34482 0.801581L9.35417 0.801533C10.6864 0.794597 12.0045 1.06535 13.2209 1.59536C14.4373 2.12535 15.5237 2.9022 16.4086 3.87349L17 4.52256L17.5914 3.87349C18.4763 2.9022 19.5627 2.12535 20.7791 1.59536C21.9955 1.06535 23.3136 0.794597 24.6458 0.801533L24.6552 0.801581L24.6645 0.801412C25.7802 0.781154 26.8885 0.979133 27.9244 1.38342C28.9603 1.78769 29.9026 2.38994 30.6966 3.15418C31.4906 3.91838 32.1203 4.82918 32.5498 5.8329C32.9793 6.83658 33.2002 7.91352 33.2 9.00094V9.00108C33.2 13.1328 30.6862 16.8518 27.2438 20.2812C25.5338 21.9847 23.6274 23.585 21.7503 25.1021C21.2124 25.5368 20.6751 25.9661 20.1454 26.3893C19.0428 27.2702 17.9736 28.1245 17.0026 28.9451C15.989 28.0805 14.8683 27.1822 13.7136 26.2566C13.2318 25.8705 12.7441 25.4796 12.2558 25.0844C10.3787 23.5652 8.47169 21.9667 6.76065 20.2662C3.31622 16.8429 0.8 13.1354 0.8 9.00108Z" stroke="#FF616E" stroke-opacity="0.7" stroke-width="1.6"/>
</svg>
