<svg width="21" height="18" viewBox="0 0 21 18" fill="none" xmlns="http://www.w3.org/2000/svg">
<path d="M10.5 17.992C9.82275 17.4203 9.0573 16.8256 8.24775 16.1929H8.23725C5.38651 13.974 2.15566 11.4633 0.728711 8.45484C0.260412 7.49732 0.011562 6.45585 1.20515e-05 5.39839C-0.00154374 4.68073 0.147549 3.97002 0.438536 3.30797C0.729523 2.64592 1.15654 2.04589 1.69451 1.54311C2.23248 1.04033 2.87056 0.644927 3.57128 0.38013C4.272 0.115333 5.02124 -0.0135253 5.77501 0.00112231C7.01466 0.00298617 8.22763 0.34403 9.2694 0.983624C9.72717 1.26645 10.1413 1.60856 10.5 2.00011C10.8612 1.61031 11.2749 1.26848 11.7316 0.983624C12.773 0.343903 13.9856 0.00283999 15.225 0.00112231C15.9788 -0.0135253 16.728 0.115333 17.4287 0.38013C18.1294 0.644927 18.7675 1.04033 19.3055 1.54311C19.8435 2.04589 20.2705 2.64592 20.5615 3.30797C20.8524 3.97002 21.0015 4.68073 21 5.39839C20.9893 6.45667 20.7408 7.50052 20.2713 8.45984C18.8443 11.4683 15.6145 13.978 12.7638 16.1929L12.7533 16.2009C11.9427 16.8296 11.1783 17.4243 10.501 18L10.5 17.992ZM5.77501 2.00011C4.79694 1.98846 3.85358 2.34478 3.15001 2.99161C2.81449 3.30533 2.54864 3.68005 2.36826 4.0935C2.18788 4.50696 2.09666 4.95071 2.10001 5.39839C2.11156 6.168 2.29531 6.92761 2.63761 7.62526C3.31121 8.9233 4.22009 10.098 5.32246 11.0955C6.363 12.095 7.56 13.0625 8.5953 13.8761C8.88195 14.101 9.17385 14.3279 9.46575 14.5547L9.6495 14.6977C9.92985 14.9156 10.2197 15.1414 10.5 15.3633L10.5136 15.3513L10.5199 15.3463H10.5262L10.5357 15.3393H10.5462L10.5651 15.3244L10.6081 15.2914L10.6155 15.2854L10.627 15.2774H10.6333L10.6428 15.2694L11.34 14.7247L11.5227 14.5817C11.8177 14.3528 12.1096 14.126 12.3963 13.9011C13.4316 13.0875 14.6296 12.121 15.6702 11.1165C16.7728 10.1196 17.6817 8.94512 18.355 7.64725C18.7036 6.9436 18.8905 6.17599 18.901 5.39839C18.9031 4.95199 18.8111 4.50973 18.6306 4.09773C18.4501 3.68573 18.1846 3.31233 17.85 2.9996C17.1478 2.34985 16.2042 1.9906 15.225 2.00011C14.6342 1.99533 14.049 2.10961 13.5079 2.33545C12.9668 2.56129 12.4821 2.89356 12.0855 3.31045L10.5 5.04956L8.9145 3.31045C8.51793 2.89356 8.03316 2.56129 7.49207 2.33545C6.95098 2.10961 6.3658 1.99533 5.77501 2.00011Z" fill="#8E8E8E"/>
</svg>
