<svg width="21" height="18" viewBox="0 0 21 18" fill="none" xmlns="http://www.w3.org/2000/svg">
<path d="M8.3375e-08 5.40065C-0.000129131 4.68305 0.149935 3.97263 0.441423 3.3109C0.732911 2.64917 1.15997 2.04941 1.69765 1.54667C2.23533 1.04393 2.87284 0.648301 3.57293 0.382896C4.27301 0.11749 5.02162 -0.0123628 5.775 0.000926026C6.66641 -0.00358224 7.54865 0.172387 8.36324 0.51717C9.17783 0.861953 9.90618 1.36768 10.5 2.00082C11.0938 1.36768 11.8222 0.861953 12.6368 0.51717C13.4514 0.172387 14.3336 -0.00358224 15.225 0.000926026C15.9784 -0.0123628 16.727 0.11749 17.4271 0.382896C18.1272 0.648301 18.7647 1.04393 19.3023 1.54667C19.84 2.04941 20.2671 2.64917 20.5586 3.3109C20.8501 3.97263 21.0001 4.68305 21 5.40065C21 10.7564 14.302 14.8002 10.5 18C6.70635 14.7732 8.3375e-08 10.7604 8.3375e-08 5.40065Z" fill="#ED4A4A"/>
</svg>
