<svg width="35" height="35" viewBox="0 0 35 35" fill="none" xmlns="http://www.w3.org/2000/svg">
<path d="M23.3129 11.3874C23.1135 11.1916 22.8762 11.0361 22.6149 10.93C22.3535 10.8239 22.0731 10.7692 21.79 10.7692C21.5068 10.7692 21.2264 10.8239 20.965 10.93C20.7037 11.0361 20.4664 11.1916 20.267 11.3874L17.5 14.1044L14.733 11.3874C14.3291 10.9939 13.7813 10.7728 13.21 10.7728C12.6388 10.7728 12.091 10.9939 11.6871 11.3874C11.2832 11.781 11.0563 12.3148 11.0563 12.8713C11.0563 13.4279 11.2832 13.9617 11.6871 14.3552L14.4756 17.0513L11.6871 19.7474C11.4861 19.9416 11.3265 20.1728 11.2176 20.4275C11.1087 20.6822 11.0526 20.9553 11.0526 21.2312C11.0526 21.5071 11.1087 21.7803 11.2176 22.035C11.3265 22.2897 11.4861 22.5208 11.6871 22.7151C11.8865 22.911 12.1238 23.0665 12.3851 23.1726C12.6465 23.2787 12.9269 23.3333 13.21 23.3333C13.4932 23.3333 13.7736 23.2787 14.035 23.1726C14.2963 23.0665 14.5336 22.911 14.733 22.7151L17.5 19.9981L20.267 22.7151C20.4664 22.911 20.7037 23.0665 20.965 23.1726C21.2264 23.2787 21.5068 23.3333 21.79 23.3333C22.0731 23.3333 22.3535 23.2787 22.6149 23.1726C22.8762 23.0665 23.1135 22.911 23.3129 22.7151C23.5139 22.5208 23.6735 22.2897 23.7824 22.035C23.8913 21.7803 23.9474 21.5071 23.9474 21.2312C23.9474 20.9553 23.8913 20.6822 23.7824 20.4275C23.6735 20.1728 23.5139 19.9416 23.3129 19.7474L20.5244 17.0513L23.3129 14.3552C23.5139 14.1609 23.6735 13.9298 23.7824 13.6751C23.8913 13.4204 23.9474 13.1472 23.9474 12.8713C23.9474 12.5954 23.8913 12.3223 23.7824 12.0676C23.6735 11.8129 23.5139 11.5817 23.3129 11.3874Z" fill="#B91D1D"/>
<path d="M17.5 0C14.0388 0 10.6554 1.02636 7.77753 2.94928C4.89967 4.87221 2.65665 7.60533 1.33212 10.803C0.00758243 14.0007 -0.338976 17.5194 0.336265 20.9141C1.01151 24.3087 2.67822 27.4269 5.12564 29.8744C7.57306 32.3218 10.6913 33.9885 14.0859 34.6637C17.4806 35.339 20.9993 34.9924 24.197 33.6679C27.3947 32.3433 30.1278 30.1003 32.0507 27.2225C33.9736 24.3446 35 20.9612 35 17.5C35 15.2019 34.5473 12.9262 33.6679 10.803C32.7884 8.67984 31.4994 6.75065 29.8744 5.12563C28.2493 3.50061 26.3202 2.21157 24.197 1.33211C22.0738 0.452651 19.7981 0 17.5 0ZM17.5 31.5C14.7311 31.5 12.0243 30.6789 9.72202 29.1406C7.41973 27.6022 5.62532 25.4157 4.56569 22.8576C3.50607 20.2994 3.22882 17.4845 3.76901 14.7687C4.30921 12.053 5.64258 9.55844 7.60051 7.6005C9.55845 5.64257 12.053 4.3092 14.7687 3.76901C17.4845 3.22881 20.2994 3.50606 22.8576 4.56569C25.4157 5.62531 27.6022 7.41973 29.1406 9.72201C30.6789 12.0243 31.5 14.7311 31.5 17.5C31.5 21.213 30.025 24.774 27.3995 27.3995C24.774 30.025 21.213 31.5 17.5 31.5Z" fill="#B91D1D"/>
</svg>
