<svg width="126" height="21" viewBox="0 0 126 21" fill="none" xmlns="http://www.w3.org/2000/svg">
<path d="M46.4952 9.12439C46.9672 8.78361 46.7262 8.03793 46.144 8.03793H40.0397C39.7795 8.03793 39.549 7.87029 39.4689 7.62281L37.5708 1.7624C37.3915 1.2089 36.6085 1.2089 36.4292 1.7624L34.5311 7.6228C34.451 7.87029 34.2205 8.03793 33.9603 8.03793H27.837C27.2567 8.03793 27.0144 8.77972 27.4828 9.12225L32.434 12.7428C32.6426 12.8953 32.7301 13.1643 32.6511 13.4104L30.78 19.2437C30.6026 19.7969 31.2365 20.2542 31.7055 19.9113L36.6458 16.2986C36.8568 16.1444 37.1432 16.1444 37.3542 16.2986L42.2873 19.906C42.757 20.2495 43.3916 19.7904 43.2123 19.2368L41.3146 13.3777C41.2344 13.13 41.3231 12.8588 41.5342 12.7063L46.4952 9.12439Z" fill="#F7C70A"/>
<path d="M20.4952 9.12439C20.9672 8.78361 20.7262 8.03793 20.144 8.03793H14.0397C13.7795 8.03793 13.549 7.87029 13.4689 7.6228L11.5708 1.7624C11.3915 1.2089 10.6085 1.2089 10.4292 1.7624L8.53112 7.6228C8.45096 7.87029 8.22045 8.03793 7.96031 8.03793H1.83699C1.25669 8.03793 1.01441 8.77972 1.48282 9.12225L6.43398 12.7428C6.64258 12.8953 6.73007 13.1643 6.65114 13.4104L4.78003 19.2437C4.60256 19.7969 5.23652 20.2542 5.70552 19.9113L10.6458 16.2986C10.8568 16.1444 11.1432 16.1444 11.3542 16.2986L16.2873 19.906C16.757 20.2495 17.3916 19.7904 17.2123 19.2368L15.3146 13.3777C15.2344 13.13 15.3231 12.8588 15.5342 12.7063L20.4952 9.12439Z" fill="#F7C70A"/>
<path d="M72.4952 9.12439C72.9672 8.78361 72.7262 8.03793 72.144 8.03793H66.0397C65.7795 8.03793 65.549 7.87029 65.4689 7.62281L63.5708 1.7624C63.3915 1.2089 62.6085 1.2089 62.4292 1.7624L60.5311 7.6228C60.451 7.87029 60.2205 8.03793 59.9603 8.03793H53.837C53.2567 8.03793 53.0144 8.77972 53.4828 9.12225L58.434 12.7428C58.6426 12.8953 58.7301 13.1643 58.6511 13.4104L56.78 19.2437C56.6026 19.7969 57.2365 20.2542 57.7055 19.9113L62.6458 16.2986C62.8568 16.1444 63.1432 16.1444 63.3542 16.2986L68.2873 19.906C68.757 20.2495 69.3916 19.7904 69.2123 19.2368L67.3146 13.3777C67.2344 13.13 67.3231 12.8588 67.5342 12.7063L72.4952 9.12439Z" fill="#F7C70A"/>
<path d="M98.4952 9.12439C98.9672 8.78361 98.7262 8.03793 98.144 8.03793H92.0397C91.7795 8.03793 91.549 7.87029 91.4689 7.6228L89.5708 1.7624C89.3915 1.2089 88.6085 1.2089 88.4292 1.7624L86.5311 7.6228C86.451 7.87029 86.2205 8.03793 85.9603 8.03793H79.837C79.2567 8.03793 79.0144 8.77972 79.4828 9.12225L84.434 12.7428C84.6426 12.8953 84.7301 13.1643 84.6511 13.4104L82.78 19.2437C82.6026 19.7969 83.2365 20.2542 83.7055 19.9113L88.6458 16.2986C88.8568 16.1444 89.1432 16.1444 89.3542 16.2986L94.2873 19.906C94.757 20.2495 95.3916 19.7904 95.2123 19.2368L93.3146 13.3777C93.2344 13.13 93.3231 12.8588 93.5342 12.7063L98.4952 9.12439Z" fill="#F7C70A"/>
<path d="M124.495 9.12439C124.967 8.78361 124.726 8.03793 124.144 8.03793H118.04C117.78 8.03793 117.549 7.87029 117.469 7.6228L115.571 1.7624C115.392 1.2089 114.608 1.2089 114.429 1.7624L112.531 7.6228C112.451 7.87029 112.22 8.03793 111.96 8.03793H105.837C105.257 8.03793 105.014 8.77972 105.483 9.12225L110.434 12.7428C110.643 12.8953 110.73 13.1643 110.651 13.4104L108.78 19.2437C108.603 19.7969 109.237 20.2542 109.706 19.9113L114.646 16.2986C114.857 16.1444 115.143 16.1444 115.354 16.2986L120.287 19.906C120.757 20.2495 121.392 19.7904 121.212 19.2368L119.315 13.3777C119.234 13.13 119.323 12.8588 119.534 12.7063L124.495 9.12439Z" fill="url(#paint0_linear_863_327)"/>
<defs>
<linearGradient id="paint0_linear_863_327" x1="104" y1="0" x2="126" y2="0" gradientUnits="userSpaceOnUse">
<stop offset="0.557192" stop-color="#FFCE2D"/>
<stop offset="0.557292" stop-color="white"/>
</linearGradient>
</defs>
</svg>
