<svg width="42" height="42" viewBox="0 0 42 42" fill="none" xmlns="http://www.w3.org/2000/svg">
<path fill-rule="evenodd" clip-rule="evenodd" d="M39.9344 21.0001C39.9344 31.4566 31.4565 39.9345 21 39.9345C10.5435 39.9345 2.06558 31.4566 2.06558 21.0001C2.06558 10.5435 10.5435 2.06563 21 2.06563C31.4565 2.06563 39.9344 10.5435 39.9344 21.0001ZM21.6785 16.044C19.8371 16.8092 16.1559 18.395 10.6366 20.7997C9.74033 21.1563 9.27013 21.505 9.22752 21.8458C9.15494 22.4233 9.87761 22.6505 10.859 22.9582C10.9932 23.0008 11.132 23.0434 11.274 23.0907C12.2413 23.4047 13.5414 23.7724 14.2167 23.7866C14.8305 23.7992 15.5153 23.5467 16.2711 23.0292C21.4276 19.5468 24.0895 17.7875 24.2567 17.7496C24.3751 17.7228 24.5392 17.6881 24.6496 17.7875C24.7601 17.8853 24.749 18.0715 24.738 18.122C24.6654 18.4266 21.8347 21.06 20.3673 22.4233C19.9097 22.8477 19.5862 23.1491 19.52 23.2185C19.3716 23.3716 19.2202 23.5183 19.075 23.6588C18.1756 24.5234 17.5034 25.1735 19.1129 26.2338C19.8637 26.7288 20.4686 27.1403 21.0679 27.5481C21.0858 27.5602 21.1036 27.5724 21.1215 27.5845C21.7952 28.0437 22.4674 28.5012 23.3384 29.0724C23.5593 29.2176 23.7707 29.3675 23.9774 29.5142C24.7616 30.0744 25.467 30.5761 26.3379 30.4972C26.8429 30.4499 27.3667 29.975 27.6318 28.5565C28.2582 25.2019 29.4921 17.9374 29.7777 14.9426C29.7951 14.694 29.7845 14.4442 29.7461 14.1979C29.7232 13.9989 29.6263 13.8159 29.4747 13.6851C29.2491 13.5004 28.8988 13.461 28.741 13.4642C28.0294 13.4768 26.9375 13.857 21.6785 16.044Z" fill="#0088CC"/>
<path d="M21.6785 16.044C19.8371 16.8092 16.1559 18.395 10.6366 20.7997C9.74033 21.1563 9.27013 21.505 9.22752 21.8458C9.15494 22.4233 9.87761 22.6505 10.859 22.9582C10.9932 23.0008 11.132 23.0434 11.274 23.0907C12.2413 23.4047 13.5414 23.7724 14.2167 23.7866C14.8305 23.7992 15.5153 23.5467 16.2711 23.0292C21.4276 19.5468 24.0895 17.7875 24.2567 17.7496C24.3751 17.7228 24.5392 17.6881 24.6496 17.7875C24.7601 17.8853 24.749 18.0715 24.738 18.122C24.6654 18.4266 21.8347 21.06 20.3673 22.4233C19.9097 22.8477 19.5862 23.1491 19.52 23.2185C19.3716 23.3716 19.2202 23.5183 19.075 23.6588C18.1756 24.5234 17.5034 25.1735 19.1129 26.2338C19.8637 26.7288 20.4686 27.1403 21.0679 27.5481L21.1215 27.5845C21.7952 28.0437 22.4674 28.5012 23.3384 29.0724C23.5593 29.2176 23.7707 29.3675 23.9774 29.5142C24.7616 30.0744 25.467 30.5761 26.3379 30.4972C26.8429 30.4499 27.3667 29.975 27.6318 28.5565C28.2582 25.2019 29.4921 17.9374 29.7777 14.9426C29.7951 14.694 29.7845 14.4442 29.7461 14.1979C29.7232 13.9989 29.6263 13.8159 29.4747 13.6851C29.2491 13.5004 28.8988 13.461 28.741 13.4642C28.0294 13.4768 26.9375 13.857 21.6785 16.044Z" fill="white"/>
<path fill-rule="evenodd" clip-rule="evenodd" d="M42 21C42 32.5973 32.5973 42 21 42C9.40268 42 0 32.5973 0 21C0 9.40268 9.40268 0 21 0C32.5973 0 42 9.40268 42 21ZM21 39.9345C31.4565 39.9345 39.9344 31.4566 39.9344 21.0001C39.9344 10.5435 31.4565 2.06563 21 2.06563C10.5435 2.06563 2.06558 10.5435 2.06558 21.0001C2.06558 31.4566 10.5435 39.9345 21 39.9345Z" fill="white"/>
</svg>
